<svg width="230" height="41" viewBox="0 0 230 41" fill="none" xmlns="http://www.w3.org/2000/svg">
<path d="M75.9139 13.2V21.33H67.1839V13.2H63.0439V33H67.1839V24.66H75.9139V33H80.0539V13.2H75.9139ZM98.4016 18H94.2316L91.5016 26.82L90.5716 30L89.7916 27L86.9416 18H82.3816L86.9716 29.31L88.6216 33.21L88.1116 34.5C87.5416 35.94 86.7616 36.3 85.6216 36.3C84.5416 36.3 83.7016 36.06 82.9816 35.46L82.1116 38.43C83.0716 39.06 84.3616 39.45 85.9516 39.45C89.1316 39.45 90.8716 38.01 92.3416 33.93L98.4016 18ZM109.059 17.7C106.689 17.7 104.889 18.99 104.049 20.94L103.869 18H100.179V39.3H104.289V30.42C105.129 32.13 106.749 33.3 108.969 33.3C112.659 33.3 115.419 30.39 115.419 25.47C115.419 20.58 112.719 17.7 109.059 17.7ZM107.769 30.15C105.639 30.15 104.289 28.38 104.289 25.5C104.289 22.56 105.699 20.85 107.829 20.85C110.019 20.85 111.309 22.47 111.309 25.5C111.309 28.53 109.959 30.15 107.769 30.15ZM132.377 24.69C132.377 20.67 129.767 17.7 125.237 17.7C120.767 17.7 117.647 20.58 117.647 25.5C117.647 30.42 120.707 33.3 125.447 33.3C128.507 33.3 131.117 31.95 132.077 29.58L128.807 28.32C128.207 29.52 127.187 30.24 125.417 30.24C123.347 30.24 121.997 29.13 121.667 26.79H132.257C132.317 26.25 132.377 25.5 132.377 24.69ZM125.207 20.73C127.067 20.73 128.207 21.87 128.417 23.94H121.697C122.087 21.81 123.317 20.73 125.207 20.73ZM135.36 33H139.47V25.23C139.47 22.53 141.3 21.24 143.13 21.24C144.06 21.24 144.57 21.33 144.99 21.48L145.47 18.03C145.11 17.82 144.51 17.7 143.85 17.7C141.51 17.7 139.98 18.87 139.2 20.94L138.93 18H135.36V33Z" fill="white"/>
<path d="M153.546 33.3C157.086 33.3 159.516 31.47 159.516 28.62C159.516 26.79 158.526 25.47 155.736 24.9L151.986 24.12C150.336 23.79 149.856 22.98 149.856 22.11C149.856 20.79 151.116 19.8 153.276 19.8C154.896 19.8 156.606 20.58 157.296 22.35L159.306 21.03C158.316 18.93 156.216 17.7 153.276 17.7C149.736 17.7 147.486 19.77 147.486 22.2C147.486 24.27 148.656 25.71 151.566 26.31L155.166 27.06C156.696 27.39 157.116 28.14 157.116 28.98C157.116 30.3 155.826 31.2 153.726 31.2C151.326 31.2 149.586 30.12 148.716 28.26L146.676 29.73C147.996 32.01 150.636 33.3 153.546 33.3ZM168.877 17.7C164.647 17.7 161.617 20.64 161.617 25.5C161.617 30.36 164.647 33.3 168.877 33.3C173.107 33.3 176.137 30.36 176.137 25.5C176.137 20.64 173.107 17.7 168.877 17.7ZM168.877 19.77C171.907 19.77 173.737 21.93 173.737 25.5C173.737 29.07 171.907 31.23 168.877 31.23C165.847 31.23 164.017 29.07 164.017 25.5C164.017 21.93 165.847 19.77 168.877 19.77ZM186.645 17.7C184.575 17.7 182.655 18.45 181.605 20.34L181.455 18H179.355V33H181.755V25.02C181.755 21.18 184.215 19.8 186.405 19.8C188.475 19.8 190.095 20.91 190.095 24.24V33H192.495V23.4C192.495 19.53 189.855 17.7 186.645 17.7ZM197.829 15.12C198.909 15.12 199.629 14.4 199.629 13.32C199.629 12.24 198.909 11.52 197.829 11.52C196.749 11.52 196.029 12.24 196.029 13.32C196.029 14.4 196.749 15.12 197.829 15.12ZM199.029 18H196.629V33H199.029V18ZM215.508 33L209.988 25.35L215.418 18H212.598L208.698 23.55L204.738 18H201.738L207.138 25.44L201.378 33H204.168L208.428 27.21L212.568 33H215.508Z" fill="white" fill-opacity="0.8"/>
<path d="M30.568 6.40869C31.6751 6.40869 32.5725 7.35417 32.5725 8.52048C32.5725 9.68679 31.6751 10.6323 30.568 10.6323H17.539C16.432 10.6323 15.5345 9.68679 15.5345 8.52048C15.5345 7.35417 16.432 6.40869 17.539 6.40869H30.568Z" fill="white"/>
<path d="M30.568 35.9736C31.6751 35.9736 32.5725 36.9191 32.5725 38.0854C32.5725 39.2517 31.6751 40.1972 30.568 40.1972H17.539C16.432 40.1972 15.5345 39.2517 15.5345 38.0854C15.5345 36.9191 16.432 35.9736 17.539 35.9736H30.568Z" fill="white"/>
<path d="M46.5985 21.1914C47.7055 21.1914 48.603 22.1369 48.603 23.3032C48.603 24.4695 47.7055 25.415 46.5985 25.415H12.5226C11.4156 25.415 10.5182 24.4695 10.5182 23.3032C10.5182 22.1369 11.4156 21.1914 12.5226 21.1914H46.5985Z" fill="white"/>
<path d="M38.5859 28.5825C39.693 28.5825 40.5904 29.528 40.5904 30.6943C40.5904 31.8606 39.693 32.8061 38.5859 32.8061H8.01786C6.91083 32.8061 6.0134 31.8606 6.0134 30.6943C6.0134 29.528 6.91083 28.5825 8.01786 28.5825H38.5859Z" fill="white"/>
<path d="M38.586 13.7998C39.693 13.7998 40.5904 14.7453 40.5904 15.9116C40.5904 17.0779 39.693 18.0234 38.586 18.0234H20.5458C19.4387 18.0234 18.5413 17.0779 18.5413 15.9116C18.5413 14.7453 19.4387 13.7998 20.5458 13.7998H38.586Z" fill="white"/>
<path fill-rule="evenodd" clip-rule="evenodd" d="M14.5324 18.0234C15.6394 18.0234 16.5368 17.0779 16.5368 15.9116C16.5368 14.7453 15.6394 13.7998 14.5324 13.7998C13.4253 13.7998 12.5279 14.7453 12.5279 15.9116C12.5279 17.0779 13.4253 18.0234 14.5324 18.0234Z" fill="#44B2CB"/>
<path fill-rule="evenodd" clip-rule="evenodd" d="M8.51896 18.0234C9.62599 18.0234 10.5234 17.0779 10.5234 15.9116C10.5234 14.7453 9.62599 13.7998 8.51896 13.7998C7.41192 13.7998 6.5145 14.7453 6.5145 15.9116C6.5145 17.0779 7.41192 18.0234 8.51896 18.0234Z" fill="#44B2CB"/>
<path fill-rule="evenodd" clip-rule="evenodd" d="M2.00446 32.8061C3.1115 32.8061 4.00893 31.8606 4.00893 30.6943C4.00893 29.528 3.1115 28.5825 2.00446 28.5825C0.897429 28.5825 0 29.528 0 30.6943C0 31.8606 0.897429 32.8061 2.00446 32.8061Z" fill="#44B2CB"/>
<path fill-rule="evenodd" clip-rule="evenodd" d="M11.5257 40.1972C12.6327 40.1972 13.5302 39.2517 13.5302 38.0854C13.5302 36.9191 12.6327 35.9736 11.5257 35.9736C10.4187 35.9736 9.52124 36.9191 9.52124 38.0854C9.52124 39.2517 10.4187 40.1972 11.5257 40.1972Z" fill="#44B2CB"/>
</svg>
