<svg data-name="Слой 1" xmlns="http://www.w3.org/2000/svg" xmlns:xlink="http://www.w3.org/1999/xlink" viewBox="0 0 4739.37 5523.47"><defs><linearGradient id="a" x1="540.66" y1="3992.15" x2="1320.73" y2="3992.15" gradientTransform="matrix(1 0 0 -1 1582.66 7266.51)" gradientUnits="userSpaceOnUse"><stop offset="0" stop-color="#7179f7"/><stop offset="1" stop-color="#abd8f0"/></linearGradient><linearGradient id="r" x1="502.82" y1="4065.24" x2="1320.73" y2="4065.24" xlink:href="#a"/><linearGradient id="s" x1="435.75" y1="4134.04" x2="1320.73" y2="4134.04" xlink:href="#a"/><linearGradient id="d" x1="2686.61" y1="2472.16" x2="2730.46" y2="2472.16" gradientTransform="matrix(1 0 0 -1 0 5523.51)" gradientUnits="userSpaceOnUse"><stop offset="0" stop-color="#ff6abf"/><stop offset=".56" stop-color="#ff8dde"/><stop offset="1" stop-color="#ffbcaa"/></linearGradient><linearGradient id="t" x1="-19.06" y1="2308.38" x2="-167.31" y2="2565.17" gradientTransform="matrix(1 0 0 -1 1582.66 7266.51)" gradientUnits="userSpaceOnUse"><stop offset="0" stop-color="#1917db" stop-opacity="0"/><stop offset="1" stop-color="#1917ee" stop-opacity=".1"/></linearGradient><linearGradient id="l" x1="-544.71" y1="3243.84" x2="716.08" y2="3243.84" gradientTransform="matrix(1 0 0 -1 1582.66 7266.51)" gradientUnits="userSpaceOnUse"><stop offset="0" stop-color="#e7e7fb"/><stop offset=".36" stop-color="#d0d0f7"/><stop offset=".71" stop-color="#c2c2f4"/><stop offset="1" stop-color="#bdbdf3"/></linearGradient><linearGradient id="m" x1="-529.61" y1="3365.23" x2="700.98" y2="3365.23" gradientTransform="matrix(1 0 0 -1 1582.66 7266.51)" gradientUnits="userSpaceOnUse"><stop offset="0" stop-color="#99fff1"/><stop offset="1" stop-color="#6f7ef8"/></linearGradient><linearGradient id="n" x1="-544.71" y1="3385.73" x2="716.1" y2="3385.73" gradientTransform="matrix(1 0 0 -1 1582.66 7266.51)" gradientUnits="userSpaceOnUse"><stop offset="0" stop-color="#6f7ef8"/><stop offset=".57" stop-color="#7d9cf6"/></linearGradient><linearGradient id="o" x1="-419.31" y1="3948.4" x2="581.07" y2="3370.85" gradientTransform="matrix(1 0 0 -1 1582.66 7266.51)" gradientUnits="userSpaceOnUse"><stop offset="0" stop-color="#babcfc"/><stop offset=".24" stop-color="#a8abf4"/><stop offset=".71" stop-color="#7a7fe0"/><stop offset="1" stop-color="#5a61d2"/></linearGradient><linearGradient id="p" x1="-419.31" y1="3948.4" x2="581.07" y2="3370.85" gradientTransform="matrix(1 0 0 -1 1582.66 7266.51)" gradientUnits="userSpaceOnUse"><stop offset="0" stop-color="#a4c8ff"/><stop offset=".05" stop-color="#99b9f3"/><stop offset=".2" stop-color="#7c90d4"/><stop offset=".35" stop-color="#646eba"/><stop offset=".5" stop-color="#5154a6"/><stop offset=".66" stop-color="#444297"/><stop offset=".82" stop-color="#3c378f"/><stop offset="1" stop-color="#39338c"/></linearGradient><linearGradient id="q" x1="-544.71" y1="3730.07" x2="716.08" y2="3730.07" gradientTransform="matrix(1 0 0 -1 1582.66 7266.51)" gradientUnits="userSpaceOnUse"><stop offset="0" stop-color="#879ff3"/><stop offset="1" stop-color="#7179c8"/></linearGradient><linearGradient id="b" x1="-411.09" y1="3730.1" x2="582.41" y2="3730.1" gradientTransform="matrix(1 0 0 -1 1582.66 7266.51)" gradientUnits="userSpaceOnUse"><stop offset="0" stop-color="#6f7ef8"/><stop offset="1" stop-color="#99daf1"/></linearGradient><linearGradient id="u" x1="-544.7" y1="3537.86" x2="716.06" y2="3537.86" xlink:href="#b"/><linearGradient id="v" x1="-293.51" y1="3676.72" x2="610.21" y2="3676.72" gradientTransform="matrix(1 0 0 -1 1582.66 7266.51)" gradientUnits="userSpaceOnUse"><stop offset=".14" stop-color="#191746" stop-opacity=".5"/><stop offset="1" stop-color="#1917db" stop-opacity="0"/></linearGradient><linearGradient id="c" x1="-850.7" y1="4545.35" x2="1404.1" y2="3458.51" gradientTransform="matrix(1 0 0 -1 1582.66 7266.51)" gradientUnits="userSpaceOnUse"><stop offset="0" stop-color="#5e6593"/><stop offset="1" stop-color="#140d4c"/></linearGradient><linearGradient id="w" x1="-568.92" y1="5131.49" x2="1693.66" y2="4040.89" xlink:href="#c"/><linearGradient id="i" x1="-745.22" y1="4932.63" x2="821" y2="4932.63" gradientTransform="matrix(1 0 0 -1 1582.66 7266.51)" gradientUnits="userSpaceOnUse"><stop offset="0" stop-color="#fdcd69"/><stop offset="1" stop-color="#fc6cac"/></linearGradient><linearGradient id="x" x1="-742.82" y1="5097.37" x2="816.1" y2="5097.37" gradientTransform="matrix(1 0 0 -1 1582.66 7266.51)" xlink:href="#d"/><linearGradient id="y" x1="2413.8" y1="-859.47" x2="1690.14" y2="393.96" gradientTransform="matrix(-.49 .87 .87 .49 2847.57 494.42)" gradientUnits="userSpaceOnUse"><stop offset=".01" stop-color="#bfa1d3"/><stop offset=".05" stop-color="#c6abd8"/><stop offset=".11" stop-color="#d8c6e4"/><stop offset=".2" stop-color="#f6f2f9"/><stop offset=".22" stop-color="#fff"/><stop offset=".25" stop-color="#f9f5fb"/><stop offset=".3" stop-color="#e8dbf1"/><stop offset=".36" stop-color="#cfb4e1"/><stop offset=".42" stop-color="#b398d4"/><stop offset=".49" stop-color="#9b80c9"/><stop offset=".56" stop-color="#8d71c2"/><stop offset=".61" stop-color="#886cc0"/><stop offset=".76" stop-color="#9374c3"/><stop offset="1" stop-color="#ae87c9"/></linearGradient><linearGradient id="z" x1="2302.79" y1="-945.56" x2="1582.83" y2="301.43" gradientTransform="matrix(-.49 .87 .87 .49 2847.57 494.42)" gradientUnits="userSpaceOnUse"><stop offset="0" stop-color="#5c29c8"/><stop offset=".23" stop-color="#b888fb"/><stop offset=".38" stop-color="#794bcd"/><stop offset=".54" stop-color="#49209d"/><stop offset=".61" stop-color="#4b21a0"/><stop offset=".68" stop-color="#5224ab"/><stop offset=".74" stop-color="#5d2abd"/><stop offset=".79" stop-color="#6b30d2"/><stop offset=".93" stop-color="#5b28b9"/><stop offset="1" stop-color="#5324ac"/></linearGradient><linearGradient id="k" x1="2655.65" y1="1595.38" x2="2851.9" y2="1595.38" gradientTransform="matrix(-2.51 3.9 4.64 2.28 1326.33 -12515.12)" gradientUnits="userSpaceOnUse"><stop offset=".23" stop-color="#5e6593"/><stop offset="1" stop-color="#140d4c"/></linearGradient><linearGradient id="e" x1="3144.51" y1="2788.61" x2="3144.51" y2="2974.9" gradientTransform="matrix(1 0 0 -1 0 5523.51)" gradientUnits="userSpaceOnUse"><stop offset="0" stop-color="#abd8f0"/><stop offset=".47" stop-color="#91adf3"/></linearGradient><linearGradient id="A" x1="3846.82" y1="2393.63" x2="3846.82" y2="2591.27" xlink:href="#e"/><linearGradient id="B" x1="4267.17" y1="1975.04" x2="4416.21" y2="1975.04" gradientTransform="matrix(1 0 0 -1 0 5523.51)" xlink:href="#a"/><linearGradient id="f" x1="4830.56" y1="3610.32" x2="5150.04" y2="3610.32" gradientTransform="rotate(180 4784.965 3633.255)" gradientUnits="userSpaceOnUse"><stop offset="0" stop-color="#879ff3"/><stop offset="1" stop-color="#7179f7"/></linearGradient><linearGradient id="g" x1="4848.88" y1="3600" x2="5168.36" y2="3600" gradientTransform="rotate(180 4784.965 3633.255)" gradientUnits="userSpaceOnUse"><stop offset=".04" stop-color="#575e8b"/><stop offset="1" stop-color="#525987"/></linearGradient><linearGradient id="h" x1="4848.62" y1="3600" x2="5168.61" y2="3600" gradientTransform="rotate(180 4784.965 3633.255)" gradientUnits="userSpaceOnUse"><stop offset="0" stop-color="#9c9c9c" stop-opacity="0"/><stop offset="1" stop-color="#a4a8d3"/></linearGradient><linearGradient id="E" x1="3983.93" y1="1010.53" x2="3983.93" y2="1161.23" gradientTransform="matrix(1 0 0 -1 0 5523.51)" xlink:href="#a"/><linearGradient id="G" x1="5289.87" y1="2594.54" x2="5805.29" y2="2594.54" xlink:href="#f"/><linearGradient id="I" x1="5321.42" y1="2582.76" x2="5836.83" y2="2582.76" xlink:href="#f"/><linearGradient id="J" x1="1314.69" y1="3709.91" x2="2702.28" y2="3709.91" gradientTransform="matrix(1 0 0 -1 1582.66 7266.51)" xlink:href="#g"/><linearGradient id="K" x1="1314.29" y1="3709.91" x2="2702.68" y2="3709.91" gradientTransform="matrix(1 0 0 -1 1582.66 7266.51)" xlink:href="#h"/><linearGradient id="L" x1="1418.57" y1="4185.64" x2="1620.89" y2="4185.64" gradientTransform="matrix(1 0 0 -1 1582.66 7266.51)" xlink:href="#f"/><linearGradient id="M" x1="1408.79" y1="-57.09" x2="1408.35" y2="-55.4" gradientTransform="matrix(149 0 0 228 -206670.43 16011.11)" xlink:href="#i"/><linearGradient id="N" x1="1838.4" y1="3940.61" x2="2040.73" y2="3940.61" gradientTransform="matrix(1 0 0 -1 1582.66 7266.51)" xlink:href="#f"/><linearGradient id="O" x1="1411.61" y1="-56.02" x2="1411.17" y2="-54.34" gradientTransform="matrix(149 0 0 228 -206670.43 16011.11)" xlink:href="#i"/><linearGradient id="P" x1="2279.45" y1="3726.63" x2="2481.78" y2="3726.63" gradientTransform="matrix(1 0 0 -1 1582.66 7266.51)" xlink:href="#f"/><linearGradient id="Q" x1="1414.57" y1="-55.08" x2="1414.12" y2="-53.39" gradientTransform="matrix(149 0 0 228 -206670.43 16011.11)" xlink:href="#i"/><linearGradient id="R" x1="1418.35" y1="3441.38" x2="2598.62" y2="3441.38" gradientTransform="matrix(1 0 0 -1 1582.66 7266.51)" xlink:href="#f"/><linearGradient id="S" x1="3063.41" y1="1581.11" x2="4917.4" y2="1581.11" gradientTransform="matrix(1 0 0 -1 0 5523.51)" gradientUnits="userSpaceOnUse"><stop offset="0" stop-color="#fc6cac"/><stop offset="1" stop-color="#ffef69"/></linearGradient><linearGradient id="T" x1="6127.41" y1="2245.49" x2="6781.37" y2="1569.75" gradientTransform="rotate(180 4638.045 3633.255)" gradientUnits="userSpaceOnUse"><stop offset="0" stop-color="#1200ec" stop-opacity=".1"/><stop offset="1" stop-color="#1500d9" stop-opacity="0"/></linearGradient><linearGradient id="j" x1="1741.21" y1="3009.72" x2="1503.36" y2="2572.8" gradientTransform="matrix(1 0 0 -1 1582.66 7266.51)" gradientUnits="userSpaceOnUse"><stop offset="0" stop-color="#384895"/><stop offset="1" stop-color="#1f3088"/></linearGradient><linearGradient id="U" x1="1825.96" y1="2952.77" x2="1651.18" y2="2516.04" xlink:href="#j"/><linearGradient id="V" x1="1817.77" y1="3872.2" x2="1698.75" y2="3503.91" gradientTransform="matrix(1 0 0 -1 1582.66 7266.51)" xlink:href="#k"/><linearGradient id="W" x1="-281.09" y1="6137.5" x2="-101.4" y2="6137.5" xlink:href="#i"/><linearGradient id="X" x1="-1273.95" y1="2736.58" x2="-100.82" y2="2736.58" xlink:href="#l"/><linearGradient id="Y" x1="-1259.9" y1="2849.51" x2="-114.9" y2="2849.51" xlink:href="#m"/><linearGradient id="Z" x1="-1274.13" y1="2868.65" x2="-100.88" y2="2868.65" xlink:href="#n"/><linearGradient id="aa" x1="-1157.36" y1="3392.16" x2="-226.51" y2="2854.72" xlink:href="#o"/><linearGradient id="ab" x1="-1157.36" y1="3392.16" x2="-226.51" y2="2854.72" xlink:href="#p"/><linearGradient id="ac" x1="-371.57" y1="2782.5" x2="-837.73" y2="3382.54" xlink:href="#q"/><linearGradient id="ad" x1="-1149.6" y1="3189.02" x2="-225.2" y2="3189.02" xlink:href="#b"/><linearGradient id="ae" x1="-1273.92" y1="3010.15" x2="-100.86" y2="3010.15" xlink:href="#b"/><mask id="C" x="4419.87" y="3454.53" width="319.5" height="403.32" maskUnits="userSpaceOnUse"><path fill="#fff" fill-rule="evenodd" d="M4419.87 3454.54h319.5v403.31h-319.5v-403.31z" data-name="mask"/></mask><mask id="D" x="4401.32" y="3464.59" width="319.99" height="403.82" maskUnits="userSpaceOnUse"><path fill="#fff" fill-rule="evenodd" d="M4401.59 3464.86h319.48v403.31h-319.48v-403.31z" data-name="mask-2"/></mask><mask id="F" x="3764.64" y="4346.64" width="515.42" height="650.66" maskUnits="userSpaceOnUse"><path fill="#fff" fill-rule="evenodd" d="M3764.64 4346.64h515.41v650.66h-515.41v-650.66z" data-name="mask-3"/></mask><mask id="H" x="3733.09" y="4358.42" width="515.42" height="650.66" maskUnits="userSpaceOnUse"><path fill="#fff" fill-rule="evenodd" d="M3733.09 4358.42h515.42v650.66h-515.42v-650.66z" data-name="mask-4"/></mask></defs><path d="M2129.34 3415.55L2689 3138.36a51.6 51.6 0 0150.31 2.92l158 101" fill="none" stroke-linecap="round" stroke-linejoin="round" stroke-width="12.04" stroke="url(#a)"/><path d="M2091.5 3351.91L2689 3055.8a51.58 51.58 0 0150.31 2.93l158 101" fill="none" stroke-linecap="round" stroke-linejoin="round" stroke-width="12.04" stroke="url(#r)"/><path d="M2024.42 3296.87L2689 2973.24a51.61 51.61 0 0150.31 2.93l158 101" fill="none" stroke-linecap="round" stroke-linejoin="round" stroke-width="12.04" stroke="url(#s)"/><circle cx="2708.54" cy="2968.79" r="21.93" fill="#5e67a2"/><circle cx="2708.54" cy="3051.35" r="21.93" fill="url(#d)"/><circle cx="2617.38" cy="3171.74" r="21.93" fill="#7fb0ff"/><path d="M2532.88 4199.52l-713.08-411.6c-83.48-48.16-219.34-48.16-302.83 0l-694.46 400.95a243.67 243.67 0 00-46.84 20.43L62.61 4620.89c-83.48 48.16-83.48 126.64 0 174.83l713.08 411.71c83.49 48.15 219.33 48.15 302.83 0l694.48-401a243.69 243.69 0 0046.82-20.41l713.07-411.62c83.47-48.24 83.47-126.69-.01-174.88z" fill="url(#t)"/><g opacity=".3"><path d="M2298.76 4132.53v-109.86l-30.39-16.89c-8.6 51.84-69.59 86-120.62 93.1l-347.43 203.18-151.7 54.75-484-249.76 11.18-6.46c-41.37-19.32-63.64-63.52-86-103.84l-32.57 19.42-19.37 5.45v112.66c0 21.53 14.21 43 42.58 59.44l484.88 280c56.75 32.76 149.15 32.76 205.93 0l484.92-279.86c27.91-16.13 42.1-37.22 42.55-58.39v-2.84z" fill="#404cf7"/><path d="M2147.75 4098.88l-347.43 203.18-132 47.66v148.54c37.29 0 74.58-8.19 103-24.58l484.87-279.86c27.91-16.13 42.1-37.22 42.55-58.39v-112.69l-27.74-15.48h-2.89c-9.5 51-69.83 84.59-120.36 91.62z" fill="#404cf7"/><path d="M1565.39 4362.05l-484.87-279.94c-56.76-32.78-56.76-86.11 0-118.88l484.85-279.94c56.76-32.78 149.15-32.78 205.93 0l484.87 279.94c56.76 32.78 56.76 86.12 0 118.88l-484.87 279.94c-56.76 32.79-149.14 32.79-205.91 0z" fill="url(#l)"/><path d="M1565.39 4362.05l-484.87-279.94c-56.76-32.78-56.76-86.11 0-118.88l484.85-279.94c56.76-32.78 149.15-32.78 205.93 0l484.87 279.94c56.76 32.78 56.76 86.12 0 118.88l-484.87 279.94c-56.76 32.79-149.14 32.79-205.91 0z" fill="#787aff"/></g><path d="M1668.36 4258.29c-33.11 0-66.18-7.29-91.4-21.85l-484.89-280c-25.16-14.55-39-34.14-39-55.23s13.86-40.66 39-55.21L1577 3566.11c50.39-29.12 132.43-29.12 182.77 0l484.89 279.94c25.17 14.55 39 34.14 39 55.23s-13.86 40.66-39 55.21l-484.85 279.92c-25.2 14.59-58.36 21.88-91.45 21.88zm0-705.61c-31.56 0-63.12 6.88-87.15 20.81l-484.85 279.94c-22.45 13-34.82 30-34.82 47.85s12.37 34.91 34.82 47.86l484.87 280c48 27.73 126.24 27.73 174.28 0l484.87-279.94c22.36-12.95 34.8-30 34.8-47.85s-12.37-34.91-34.8-47.86l-484.89-280c-24-13.86-55.6-20.81-87.15-20.81z" style="isolation:isolate" opacity=".42" fill="url(#m)"/><path d="M2298.76 3793.85v-166l-30.39-16.89c-8.6 51.83-69.59 86-120.62 93.1l-347.43 203.17-151.7 54.77-483.91-249.72 11.18-6.45c-41.37-19.33-63.64-63.54-86-103.85l-32.58 19.43-19.36 5.44v168.85c0 21.53 14.2 43 42.58 59.44L1565.4 4135c56.76 32.78 149.16 32.78 205.93 0l484.86-280c27.91-16.11 42.1-37.2 42.55-58.47v-2.84z" fill="url(#n)" opacity=".47"/><path d="M2298.76 3646.26v-109.85l-30.39-16.91c-8.6 51.86-69.59 86-120.62 93.12l-347.43 203.16-151.7 54.69-484-249.77 11.18-6.45c-41.37-19.31-63.64-63.51-86-103.85l-32.52 19.52-19.37 5.44V3648c0 21.54 14.21 43 42.59 59.44l484.87 280c56.76 32.78 149.15 32.78 205.93 0l484.87-279.92c27.91-16.13 42.1-37.22 42.55-58.48v-2.82z" fill="url(#o)"/><path d="M2298.76 3646.26v-109.85l-30.39-16.91c-8.6 51.86-69.59 86-120.62 93.12l-347.43 203.16-151.7 54.69-484-249.77 11.18-6.45c-41.37-19.31-63.64-63.51-86-103.85l-32.52 19.52-19.37 5.44V3648c0 21.54 14.21 43 42.59 59.44l484.87 280c56.76 32.78 149.15 32.78 205.93 0l484.87-279.92c27.91-16.13 42.1-37.22 42.55-58.48v-2.82z" fill="url(#p)"/><path d="M2147.75 3612.62l-347.43 203.16-132 47.66V4012c37.29 0 74.58-8.2 103-24.59l484.87-279.93c27.91-16.13 42.1-37.22 42.55-58.47v-112.69l-27.74-15.48h-2.89c-9.5 51.16-69.83 84.76-120.36 91.78z" style="isolation:isolate" fill="#140d4c" opacity=".3"/><path d="M1565.39 3875.79l-484.87-279.94c-56.76-32.78-56.76-86.12 0-118.9L1565.37 3197c56.76-32.68 149.15-32.68 205.93 0l484.87 280c56.76 32.78 56.76 86.12 0 118.88l-484.87 279.89c-56.76 32.8-149.14 32.8-205.91.02z" fill="url(#q)"/><path d="M1668.36 3825c-29.91 0-59.82-6.57-82.56-19.73L1207 3586.51c-22.83-13.18-35.4-31-35.4-50.12s12.57-36.93 35.4-50.1l378.78-218.73c45.55-26.28 119.62-26.26 165.12 0l378.8 218.71c22.82 13.18 35.4 31 35.4 50.12s-12.58 36.94-35.38 50.12l-378.84 218.69c-22.72 13.18-52.63 19.8-82.52 19.8zm-78.36-27.13c43.19 24.93 113.52 24.93 156.64 0l378.8-218.69c20.09-11.59 31.15-26.79 31.15-42.77s-11.06-31.17-31.17-42.78l-378.8-218.69c-43.17-24.9-113.51-25-156.63 0l-378.79 218.69c-20.1 11.59-31.16 26.78-31.16 42.76s11.06 31.18 31.16 42.78z" style="isolation:isolate" opacity=".42" fill="url(#b)"/><path d="M2256.19 3595.85l-484.87 279.94c-56.76 32.78-149.16 32.78-205.93 0l-484.87-279.94c-25.39-14.65-39.37-33.42-42.07-52.61-3.34 23.75 10.66 48.15 42.07 66.3l484.87 279.94c56.76 32.78 149.15 32.78 205.93 0l484.87-279.94c31.39-18.13 45.39-42.53 42-66.29-2.63 19.2-16.63 37.95-42 52.6z" fill="url(#u)"/><path d="M1289.15 3474.89s22.36 215 378.39 282.07c259.12 48.83 541.78-132.44 524.58-208.12s-146.2-139.31-331.95-134.15-571.02 60.2-571.02 60.2z" fill="url(#v)"/><path d="M893.94 2385.11v.7c0 .24.1 1.52.92 1.09 1.4-.74 386.51 1069.32 386.63 1069.63 23.17 63.07 47.2 107.52 131.25 148.85 172.1 84.64 360.49 85.55 528.13 2.06 82.45-41.07 108.53-91.28 123.42-149.07 0-.2 82.13-292.49 161.23-573.39C1164 2839.86 904.87 2404.35 893.94 2385.11z" fill="url(#c)"/><path d="M2370.15 2374.58c-4-91.84-1470.4-81.34-1476.21 10.53 10.93 19.24 270 454.75 1331.55 499.87 73.25-260.13 143.94-510.49 144.47-510.12.18.14.19-.28.19-.28z" fill="url(#w)"/><path d="M2370.15 2374.58c-4-91.84-1470.4-81.34-1476.21 10.53 10.93 19.24 270 454.75 1331.55 499.87 73.25-260.13 143.94-510.49 144.47-510.12.18.14.19-.28.19-.28z" fill="#323365"/><path d="M1080.29 2548.69c-150.63-74.08-229.22-170.27-235.2-266.59-.17-2.89-7.57-93.55-7.62-96.44-1.72-98 79.53 4 228.75-70.31 300.41-149.64 793.9-147.92 1102.27 3.7 152.47 75 229.9-43 234.13 54.69.12 2.72 1 108.91 1 111.64.08 97.06-73.45 193.52-221.14 267.08-300.35 149.54-793.83 147.88-1102.19-3.77z" fill="url(#i)"/><path d="M1075.37 2440C767 2288.39 760.62 2044.18 1061 1894.56s793.88-147.92 1102.23 3.68 314.84 395.86 14.45 545.47-793.94 147.96-1102.31-3.71z" fill="url(#x)"/><path d="M1110.8 2422.4c-288.26-141.78-294.31-370.09-13.48-509.95s742.19-138.34 1030.46 3.44 294.31 370.1 13.48 510-742.17 138.26-1030.46-3.49z" fill="url(#y)"/><path d="M1086.48 2006.05c280.84-139.87 742.18-138.32 1030.46 3.44 132.88 65.36 205.64 149.08 218.13 234.07 44-114.4-25.39-238.3-207.29-327.76-288.27-141.76-749.64-143.29-1030.46-3.44-151.36 75.4-219.24 176.49-204.67 275.86 25.76-66.82 90.21-130.49 193.83-182.17z" fill="url(#z)"/><path d="M1110.8 2422.4c-288.26-141.78-294.31-370.09-13.48-509.95s742.19-138.34 1030.46 3.44 294.31 370.1 13.48 510-742.17 138.26-1030.46-3.49z" fill="url(#k)"/><g data-name="chart 01"><path fill="none" stroke-linecap="round" stroke-linejoin="round" stroke-width="12.04" stroke="url(#e)" d="M3144.51 2554.63v174.24"/><path d="M3395.45 2160.71l-437.95-239.18a19 19 0 00-6.45-2.27c-22.36-3.08-53.66 21.69-53.66 31.63l40.19 458.3c0 10.51 7.72 23.3 17.32 28.58 135.33 73.17 260.85 188.85 406.77 269.24 9.53 5.16 49.24-16.78 51-38.15v-479.55c.03-10.58-7.67-23.31-17.22-28.6z" fill="#f1b868"/><path d="M3354.5 2187.09l-440.57-240.6c-9.53-5.16-17.32-1-17.32 9.51v479.55c0 10.53 7.72 23.31 17.32 28.61q203 109.73 421.87 230.3l18.7 10.32c9.54 5.16 17.2 1 17.2-9.51v-479.58c.07-10.59-7.7-23.37-17.2-28.6z" fill="#f1cd68"/><g fill="#fff" fill-rule="evenodd"><path d="M3265.52 2440.13c-8.6-4.66-15.48-.91-15.58 8.32l-.17 58.15c0 9.28 6.88 20.51 15.48 25.15s15.56 1 15.58-8.32l.19-58.16c0-9.23-6.88-20.5-15.48-25.14M3203.59 2327.68c-8.6-4.65-15.48-.91-15.58 8.32l-.42 137c0 9.29 6.88 20.5 15.48 25.15s15.48 1 15.59-8.33l.41-137c0-9.23-6.88-20.5-15.48-25.14M3141.26 2344.17c-8.6-4.64-15.48-.91-15.59 8.38l-.25 86.7c0 9.29 6.88 20.5 15.48 25.15s15.48 1 15.58-8.33l.26-86.7c0-9.29-6.88-20.64-15.48-25.2M3079.49 2176.51c-8.6-4.64-15.48-.91-15.58 8.33l-.67 220.73c0 9.29 6.88 20.51 15.48 25.15s15.48 1 15.58-8.32l.67-220.74c0-9.24-6.88-20.49-15.48-25.15M3017.49 2083.67c-8.6-4.65-15.48-.91-15.58 8.34l-.85 279.89c0 9.29 6.88 20.52 15.48 25.16s15.6 1 15.64-8.31l.84-279.9c0-9.24-6.88-20.5-15.48-25.18"/></g></g><g data-name="chart 02"><path fill="none" stroke-linecap="round" stroke-linejoin="round" stroke-width="12.04" stroke="url(#A)" d="M3846.82 2938.26v185.6"/><path d="M3583.16 2373.43c-11.07-6.4-20.1-1.26-20.14 11.49l-1.1 388.09c0 12.71 8.93 28.22 20 34.64L4154.15 3138c11.1 6.39 20.13 1.25 20.16-11.44l1.1-388.11c0-12.74-8.94-28.26-20-34.67z" fill="#97c3f5"/><path fill="#fff" d="M3590.61 2426.83l-.08 32.32 50.63 29.24.09-32.32-50.64-29.24z"/><path d="M3715.7 2503a10.18 10.18 0 014.8 7l22.22 140.17a52 52 0 0022.36 28.69c6.13 3.55 12.34 4.72 17.12 2.31l68-33.23a6.18 6.18 0 015.66.81 17.47 17.47 0 017.48 9.65l45.87 156.51a51.2 51.2 0 0022.36 28.88c9.31 5.35 18.6 5.4 22.36-3.06l11-24.22c1.27-2.77 4.39-2.73 7.48-.93a17.1 17.1 0 017.47 9.57l21.8 74.47a23.5 23.5 0 0010.32 13.24c4.27 2.46 8.6 2.5 10.32-1.37l46.12-184.9c1.11-4.33 5.16-4.47 9.11-2.17a19.15 19.15 0 019.17 13.56l31 292.2-442.72-260.3 35.85-265.24c.28-2.78 2.57-2.97 4.85-1.64z" fill="#7fb0ff"/><path d="M3671.91 2510.29a10.28 10.28 0 014.8 6.87l22.22 140.18a52 52 0 0022.36 28.69c6.13 3.54 12.34 4.71 17.12 2.32l68-33.24a6.24 6.24 0 015.66.82 17.43 17.43 0 017.48 9.65l45.87 156.52a51.15 51.15 0 0022.36 28.86c9.31 5.36 18.61 5.4 22.36-3.07l11-24.2c1.27-2.78 4.39-2.73 7.48-.94a17.07 17.07 0 017.47 9.56l21.8 74.48a23.5 23.5 0 0010.32 13.24c4.27 2.48 8.6 2.49 10.32-1.38l46.12-184.87c1.11-4.36 5.16-4.48 9.11-2.17a19.1 19.1 0 019.17 13.53l31 292.21-442.32-260.2 35.81-265.23c-.08-2.75 2.14-2.92 4.49-1.63z" fill="#fff"/></g><g data-name="chart 03"><path fill="none" stroke-linecap="round" stroke-linejoin="round" stroke-width="12.04" stroke="url(#B)" d="M4273.19 3512.36l137 72.21"/><g mask="url(#C)"><path d="M4723.89 3623c8.6 5 15.48 17 15.48 26.87l-.55 196.9c0 9.89-7 13.86-15.6 8.89l-287.85-166.37c-8.6-5-15.48-17-15.48-26.87l.56-196.9c0-9.89 7-13.86 15.6-8.89z" style="isolation:isolate" fill-rule="evenodd" opacity=".26" fill="url(#f)"/></g><g mask="url(#D)"><path d="M4705.57 3633.36c8.6 5 15.48 17 15.48 26.87l-.55 196.9c0 9.89-7 13.86-15.6 8.89l-287.85-166.37c-8.6-5-15.48-17-15.48-26.87l.55-196.9c0-9.89 7-13.86 15.6-8.89z" stroke-width=".507" fill-rule="evenodd" fill="url(#g)" stroke="url(#h)"/></g><path d="M4660.4 3664.29l-92.32-53.29c-3.75-2.15-6.78-.4-6.78 3.92v.38a15 15 0 006.78 11.73l92.32 53.32c3.74 2.15 6.76.41 6.76-3.91v-.44a14.91 14.91 0 00-6.76-11.71zM4541.76 3595.8l-79.56-45.94c-3.74-2.17-6.76-.41-6.76 3.9v.4a14.89 14.89 0 006.76 11.71l79.56 45.94c3.73 2.17 6.78.41 6.78-3.9v-.38a15 15 0 00-6.78-11.73zM4660.4 3739.62l-92.32-53.32c-3.75-2.15-6.78-.39-6.78 3.92v.38a14.91 14.91 0 006.78 11.73l92.32 53.32c3.74 2.15 6.76.41 6.76-3.9v-.4a15 15 0 00-6.76-11.73zM4541.76 3671.15l-79.56-45.94c-3.74-2.17-6.76-.41-6.76 3.9v.38a14.93 14.93 0 006.76 11.73l79.56 45.94c3.73 2.17 6.78.41 6.78-3.9v-.38a15 15 0 00-6.78-11.73zM4660.4 3701.92l-50-28.83c-3.75-2.15-6.78-.39-6.78 3.92v.38a15 15 0 006.78 11.73l50 28.85c3.73 2.16 6.76.41 6.76-3.91v-.38a15 15 0 00-6.76-11.76zM4588 3660.14l-42.4-24.61c-3.73-2.17-6.75-.43-6.75 3.89v.37a15 15 0 006.75 11.75l42.4 24.58c3.73 2.17 6.76.43 6.76-3.89v-.38a15 15 0 00-6.76-11.71zM4521.55 3621.61l-59.34-34.1c-3.75-2.15-6.77-.38-6.77 3.94v.37a14.91 14.91 0 006.77 11.72l59.34 34.09c3.73 2.15 6.78.39 6.78-3.92v-.38a15 15 0 00-6.78-11.72zM4660.39 3777.72l-80.51-46.44c-3.75-2.15-6.78-.4-6.78 3.92v.38a14.91 14.91 0 006.78 11.73l80.51 46.44c3.75 2.15 6.77.39 6.77-3.92v-.38a14.92 14.92 0 00-6.77-11.73zM4557.43 3718.36l-42.4-24.61c-3.73-2.17-6.76-.43-6.76 3.9v.38a15 15 0 006.76 11.73l42.4 24.63c3.73 2.17 6.76.41 6.76-3.9v-.38a15 15 0 00-6.76-11.75zM4491 3679.83l-28.8-16.54c-3.75-2.15-6.77-.4-6.77 3.92v.38a14.89 14.89 0 006.77 11.71l28.8 16.55c3.73 2.15 6.77.39 6.77-3.92v-.33a14.94 14.94 0 00-6.77-11.77z" fill="#f1cd68"/></g><g data-name="chart 04"><path fill="none" stroke-linecap="round" stroke-linejoin="round" stroke-width="12.04" stroke="url(#E)" d="M3983.93 4368.3v138.66"/><g mask="url(#F)"><path d="M4255.06 4618.51c13.87 8 25 27.4 25 43.33l-.89 317.66c0 15.94-11.3 22.36-25.15 14.36l-464.38-268.42c-13.76-8-25.05-27.4-25-43.34l.89-317.66c0-15.94 11.3-22.36 25.16-14.36z" style="isolation:isolate" fill-rule="evenodd" opacity=".26" fill="url(#G)"/></g><g mask="url(#H)"><path d="M4223.52 4630.3c13.86 8 25 27.39 25 43.32l-.89 317.66c0 15.94-11.3 22.36-25.15 14.36l-464.39-268.41c-13.76-8-25-27.4-25-43.35l.9-317.65c0-15.95 11.31-22.36 25.16-14.37z" fill-rule="evenodd" fill="url(#I)"/></g><path d="M4148.44 4866.12v8.43a6.34 6.34 0 01-9.51 5.55l-95.66-56.1a6.43 6.43 0 01-3.18-5.61V4810a6.34 6.34 0 019.58-5.59l95.66 56.08a6.46 6.46 0 013.17 5.59" style="isolation:isolate" fill="#fff" fill-rule="evenodd" opacity=".32"/><path d="M4190.7 4848.83v8.28a6.42 6.42 0 01-9.61 5.47l-138.89-79.12a6.34 6.34 0 01-3.2-5.51v-8.27a6.41 6.41 0 019.62-5.45l138.9 79.12a6.31 6.31 0 013.18 5.48" fill="#fff" fill-rule="evenodd"/><path d="M3979.39 4705.18c-6.31-3.66-11.47-.72-11.49 6.54l-.12 45.68a25.12 25.12 0 0011.4 19.78c6.33 3.65 11.47.74 11.49-6.55l.14-45.68a25.16 25.16 0 00-11.42-19.77zM3933.74 4616.78c-6.33-3.65-11.47-.71-11.49 6.55l-.31 107.62a25.1 25.1 0 0011.42 19.76c6.32 3.65 11.46.76 11.49-6.54l.3-107.63a25.12 25.12 0 00-11.41-19.76zM3887.8 4629.8c-6.33-3.67-11.47-.72-11.49 6.57l-.19 68.13a25.14 25.14 0 0011.41 19.76c6.33 3.64 11.47.75 11.49-6.56l.19-68.11a25.18 25.18 0 00-11.41-19.79zM3842.28 4498.05c-6.33-3.65-11.48-.72-11.49 6.53l-.5 173.44a25.08 25.08 0 0011.42 19.78c6.34 3.67 11.45.74 11.49-6.55l.48-173.44a25.14 25.14 0 00-11.4-19.76zM3796.58 4425.11c-6.33-3.65-11.48-.71-11.49 6.55l-.62 219.91a25.05 25.05 0 0011.4 19.76c6.35 3.67 11.51.78 11.52-6.51l.62-219.92a25.14 25.14 0 00-11.43-19.79z" fill="#fff"/></g><g data-name="main dashboard"><path d="M4329.43 3371.1c-2.73-7.39-8.06-14.41-14.19-17.95l-1355.32-782.48a16.93 16.93 0 00-4.8-1.92 10.31 10.31 0 00-2.88-.26c-5 .24-8.45 4.42-8.45 11.5V3708c0 10.32 7.22 22.79 16.13 27.95l1355.32 782.47c8.91 5.16 16.14 1 16.14-9.32v-1128a29.24 29.24 0 00-1.95-10z" fill="#324065"/><path d="M4283 3383.14c-2.74-7.39-8.07-14.41-14.19-17.95l-1355.33-782.48a16.87 16.87 0 00-4.79-1.92 10.42 10.42 0 00-2.89-.26c-5 .24-8.45 4.42-8.45 11.5v68.8h0v1059.22c0 10.32 7.23 22.79 16.13 27.95l1355.33 782.47c8.9 5.16 16.13 1 16.13-9.32v-1128a29.47 29.47 0 00-1.94-10.01z" stroke-width=".804" fill="url(#J)" stroke="url(#K)"/><path d="M3155.29 2940.74c-61.25-35.85-119.22-26.7-143.18 29.77-30 70.62 4.11 189.56 76.28 271.75l16.73-39.56c-48.88-57.77-71.65-139.49-50.91-188.3 16.91-39.81 57.76-46.25 100.93-21a174.54 174.54 0 0131.68 24.08l16.73-39.56a253.29 253.29 0 00-48.26-37.41" style="isolation:isolate" fill-rule="evenodd" opacity=".63" fill="url(#L)"/><path d="M3186.82 3017.15q4 3.75 7.95 7.83c56 57.91 83.33 146.88 61.11 198.79-.81 1.84-1.72 3.63-2.6 5.4-.33.64-.69 1.22-1.05 1.84-16.19 28.62-47.21 35.61-81.61 21.78a127.12 127.12 0 01-16.36-8c-1.46-.85-2.94-1.72-4.42-2.67-2.68-1.72-4.73-3.06-6.74-4.46l-.91-.65c-4.44-3.13-8.83-6.53-13.23-10.32l-1.72-1.44a218.59 218.59 0 01-4.87-4.42 18.61 18.61 0 01-1.72-1.72c-2.13-2-4.25-4.1-6.33-6.23-3.44-3.54-6.64-7.12-9.82-10.8l-16.87 39.42c3.22 3.61 6.47 7.22 9.82 10.66 3 3.1 6 6.08 9.05 8.93.84.83 1.72 1.72 2.58 2.44 2.3 2.15 4.62 4.23 6.88 6.28l2.32 2.06c6.26 5.34 12.56 10.32 18.82 14.66.49.38 1 .69 1.49 1 2.86 2 5.71 3.89 8.6 5.7l1 .62c2 1.2 3.91 2.39 5.85 3.44q6.89 4 13.76 7.32c3.44 1.72 6.72 3 10 4.34 52.49 20.91 99.48 7.72 120.48-41.28 31.54-73.6-7.31-199.88-86.69-282.07q-4-4.08-7.94-7.88z" fill-rule="evenodd" fill="url(#M)"/><path d="M3575.13 3185.76c-61.25-35.83-119.24-26.69-143.18 29.79-30 70.52 4.09 189.54 76.26 271.75l16.73-39.56c-48.88-57.79-71.63-139.48-50.89-188.31 16.89-39.82 57.76-46.25 100.93-21a177.09 177.09 0 0131.68 24.08l16.73-39.56a253.29 253.29 0 00-48.26-37.41" style="isolation:isolate" fill-rule="evenodd" opacity=".63" fill="url(#N)"/><path d="M3606.62 3262.2c2.67 2.49 5.34 5.16 8 7.8 56 57.93 83.33 146.89 61.13 198.8-.83 1.84-1.72 3.64-2.6 5.4-.33.63-.69 1.22-1 1.85-16.18 28.61-47.21 35.59-81.63 21.76a126.33 126.33 0 01-16.35-8c-1.47-.84-2.93-1.72-4.41-2.67-2.68-1.72-4.74-3.06-6.76-4.45l-.91-.65c-4.42-3.12-8.8-6.52-13.22-10.32l-1.72-1.45c-1.62-1.43-3.24-2.91-4.87-4.42a17.45 17.45 0 01-1.72-1.72c-2.12-2-4.25-4.11-6.33-6.24-3.44-3.55-6.62-7.12-9.82-10.8l-16.86 39.42c3.22 3.61 6.45 7.22 9.82 10.66 3 3.1 6 6.07 9.05 8.94.84.81 1.72 1.72 2.58 2.43 2.29 2.15 4.63 4.23 6.88 6.29.77.69 1.55 1.38 2.34 2q9.39 8 18.82 14.65c.48.38 1 .69 1.47 1 2.86 2 5.73 3.88 8.6 5.67l1 .62c2 1.22 3.91 2.39 5.85 3.44q6.88 4 13.76 7.33c3.44 1.63 6.72 3 10 4.35 52.5 20.9 99.47 7.71 120.4-41.38 31.53-73.6-7.31-199.88-86.69-282.07q-4-4.08-8-7.88z" fill-rule="evenodd" fill="url(#O)"/><path d="M4016.18 3399.74c-61.25-35.83-119.24-26.69-143.19 29.79-30 70.62 4.11 189.56 76.27 271.75l16.73-39.56c-48.86-57.77-71.63-139.48-50.89-188.3 16.89-39.81 57.75-46.25 100.92-21a175.87 175.87 0 0131.69 24.08l16.73-39.56a254.11 254.11 0 00-48.26-37.43" style="isolation:isolate" fill-rule="evenodd" opacity=".63" fill="url(#P)"/><path d="M4047.69 3476.17c2.65 2.5 5.31 5.16 7.93 7.83 56 57.91 83.33 146.88 61.13 198.79-.83 1.84-1.72 3.63-2.6 5.39-.33.63-.69 1.23-1 1.85-16.19 28.62-47.21 35.61-81.63 21.76a126.09 126.09 0 01-16.34-8c-1.46-.86-2.94-1.72-4.42-2.67-2.68-1.72-4.75-3.08-6.76-4.45l-.91-.66a180.37 180.37 0 01-13.23-10.32l-1.72-1.44c-1.61-1.45-3.23-2.91-4.86-4.44-.61-.53-1.19-1.08-1.81-1.72-2.12-2-4.25-4.09-6.33-6.24-3.44-3.53-6.62-7.11-9.82-10.79l-16.86 39.42c3.22 3.62 6.45 7.23 9.82 10.67 3 3.09 6 6.07 9.05 8.92.84.83 1.72 1.64 2.58 2.45 2.31 2.15 4.63 4.23 6.88 6.27.76.69 1.53 1.4 2.32 2 6.26 5.35 12.56 10.32 18.82 14.67.48.36 1 .69 1.48 1 2.85 2 5.73 3.88 8.6 5.69l1 .6c2 1.22 3.9 2.41 5.84 3.44q6.88 4 13.76 7.33c3.44 1.62 6.75 3 10 4.33 52.49 20.9 99.48 7.71 120.48-41.36 31.53-73.6-7.31-199.88-86.69-282.07q-4-4.08-8-7.88z" fill-rule="evenodd" fill="url(#Q)"/><path d="M4181.24 4308.56c0 13.16-9.23 18.47-20.64 11.9l-1139-657.55c-11.38-6.57-20.64-22.57-20.64-35.71v-285.51c0-13.16 9.22-18.47 20.64-11.9l1139 657.64c11.38 6.57 20.64 22.57 20.64 35.71" style="isolation:isolate" fill-rule="evenodd" opacity=".41" fill="url(#R)"/><path fill="#fff" d="M3063.41 3448.41l36.88 52.72 26.11 15.09 19.24-20.33 24.74 14.27 39.86-7.34 31.6 48.6 49.48 28.57 65.64 113.67 39.78 22.96 26.06-29.29 26.57 45.55 35.72 20.62 24.07-16.32 26.79 15.48 57.72-33.34 38.48 73.09 45.35 26.17 54.97 115.93 32.99 19.04 54.97 85.55 24.73 14.29 63.23-41.28 27.49 15.86 30.23-26.97 19.23 11.11 24.75 36.65 24.73 14.3 77.2-30.19v258.75l-1048.61-605.39v-237.82z"/><path fill="url(#S)" d="M3063.41 3594.23l54.75 31.6 70.09-32.65 23.35 32.79 46.29 26.71 82.9 128.55 37.12 21.41 53.59 67.44 41.23-14.28 36.43 17.86 84.62-48.87 42.5 76.23 33.9 19.57 69.17-50.51 13.28 7.67 44.44 57.43 31.6 1.03 75.59 135.64 56.35 32.54 46.73 80.8 18.59-10.75 40.51 23.39 45.58-23.73v117.52l-1048.61-605.39v-92z"/></g><path d="M3413.9 5063.14s-78 166.59-305.05 257.49-429.07 262.6-570.47 181.8-30.31-197 131.3-267.66S3102 5007.36 3102 5007.36z" fill="url(#T)"/><path d="M3115.92 4801.57c-2.46 24.08-6.77 46.44-15.24 63-4.19 4.57-9.44 7.34-11.9 12.57-13.16 28-16.05 55-6.88 198.64l33.73.72 4.32-50.76c4.16-20.64 15.72-50.67 20.4-69.31 10.16-40.63 11.14-61 17.39-90.88z" fill="#ffb9b3" fill-rule="evenodd"/><path d="M3045.22 4974.68c-3.67-.48-10.63-.79-11.41-1.72-1.72-1.94-5-11.47-2.63-13.28 4.18-2.82 12.82 12.18 14.04 15z" fill="#191a27" fill-rule="evenodd"/><path d="M3063.89 4917.17c4 12.84-1.72 25.23-5.72 38.56-14.12 46.59-22.36 49.21-16.41 70.28a94.38 94.38 0 0020.64 37c9.13 10.41 11.9 17.89 23.63 26 17.66 12.19 33.4 17.9 29.55-6.59a117.72 117.72 0 00-5.76-22.72c-12.52-29.08-27.09-41.85-19.2-78.12 5.87-26.95 15.19-44.72 3.08-62.85z" fill="#0d153e" fill-rule="evenodd"/><path d="M3066.68 4888.12c-5.3 24.33-13.23 44.72-35.59 71.56 2.83-.74 10 6.61 14 14.74 29.24-33.52 43.33-49.87 52.3-35.38-.86 12-5.29 34.06-9 51.14-1.22 5.62-2.58 18 1 26.57 11.45 27.52 32.43 67.6 24.44 80.74 2.82-3.55 6-13.21 5.95-26.25 0-18.92-3.29-44.72-3.68-60.46-.55-21.32 7.51-39.83 8.8-68.9a229.6 229.6 0 000-24.33c-1.22-20.64-3.44-47.82-17.92-55.52-5.16-2.76-18.52-.76-25.44 2.75-9.84 4.98-12.81 13.98-14.86 23.34z" fill="#0a1d69" fill-rule="evenodd"/><path d="M3266 4522.66l102.85-298.08 3.34-81.86c.55-13.22-6.5-22.94-10.67-33.29-54.23 16-84.55 33.19-142.75 31.14-17.46 26-41 55-42.29 111.35-1.6 71.57 3.88 119.33-18 239-65 218.82-31.28 211.21-56.15 356.58-2.1 15.48 45.66 27.83 61.91 18.17z" fill-rule="evenodd" fill="url(#j)"/><path d="M3266 4522.66l102.85-298.08 3.34-81.86c.55-13.22-6.5-22.94-10.67-33.29-11 3.23-20.94 6.51-30.37 9.68l-60.51 96.68c-23.22 47.36-29.08 108.47-45.87 122.6 19.11 46.28 10.85 139.31 4 190.46-19.56-6.57-37.53-9.3-56.76-16.49 13.21 11 37.53 22 51.07 35.83-24.63 88.42-36.48 178.73-44.72 269.86z" style="isolation:isolate" fill="#161f52" fill-rule="evenodd" opacity=".3"/><path d="M3306.11 4921.36c-.8 22.86-22.54 45-25.09 59.84-5.83 34.09 18.92 16.36 46.82 60.2 11.19-.1 35.84 40.23 69.19 42.36 7.67.48 21.36-18.11 6.21-31.25-6.74-3.92-12.76-1-18.32-5.85-11.55-10.23-25.19-94.22-22.49-118.4z" fill="#ffb9b3" fill-rule="evenodd"/><path d="M3293.39 4955c27.09 3.32 52.37 69.47 73.32 98.21 10.16 13.95 31.73-.45 23-4.18 4.46.31 20.85-1.63 32.94.31 17 2.73 11 19.76-.51 27.73-25.8 17.76-48.54 27.77-71.86 16a110.39 110.39 0 01-14.3-9.53 71.07 71.07 0 01-9.51-7.71c-7.55-9-10.44-23.59-17.34-36-2.28-4.11-4.14-5-5.6-3.87-2.84 4 .08 63.42 1.49 75.32-.75 3.44-12.35 6.11-14.67 3.44l-21.53-105.55a37.68 37.68 0 012.82-27.06c6.49-12.3 18.88-21.88 21.75-27.11z" fill="#0a1d69" fill-rule="evenodd"/><path d="M3364.08 5097.71a49.12 49.12 0 01-13.76-4.59 110.39 110.39 0 01-14.3-9.53 71.71 71.71 0 01-9.51-7.71c-8.17-9.78-12.16-28-21.24-40.45 3-1.86 10.94-1.72 18.92 11.4 11.92 21.92 20.09 38 35.83 48.66a24.23 24.23 0 004.06 2.22z" fill="#0d153e" fill-rule="evenodd"/><path d="M3442.52 4487.94c15.17-78.95 25.72-131.08 20.64-189.2-1.94-33.28-7.08-71.43-18-103.68-4.26-12.55-10.09-22.92-15.87-33.28-51.72 16-90.3 31.65-148.88 29.58-54.56 12.78-49.11 63.76-44.24 100.5 9.46 71.59 58.12 127.11 66 249.84-20.13 143-5.35 239.52-2.41 378.12.34 15.48 50 27.84 64.75 18.18 30.84-162.44 47.49-291.3 78.01-450.06z" fill-rule="evenodd" fill="url(#U)"/><path d="M3173 3964.26l103.3 23.58c20.72 9.29 5 53.32-15.48 58.48l-144.2-18.66c-36.74-7.79-45-31.61-37.05-50.5.17-.39.57-1.17.75-1.55 2.5-11.67 75.94-117.28 86.53-131.59 14.73-19.9 30.1-32.68 36.5-36.55 12.47-7.5 29-5.52 39.78 1.1 14.86 9.1 19.82 24.22 14 38.1-10.49 25.33-50.63 74.99-84.13 117.59z" fill="#7fb0ff" fill-rule="evenodd"/><path d="M3230.09 3795c-60.56-6.88-60.69 93-39.56 140 54.8 122.27 19.35 141.17 24.38 196.9l-1.14 22.38c52.06 77.53 202.95 71.48 221.27 15.48-1-3.44-1.72-18.22-3.06-21.87 3.58-49.15-20-87.87-15.48-121.36 7.67-56.25 38.27-76 21.79-124.12-12-16.57-44.72-43.11-78.58-61.68-47.71-26.1-101.01-42.49-129.62-45.73z" fill="#97c3f5" fill-rule="evenodd"/><path d="M3722.62 3579.63l.57.43c2.73-4.3 5.81-9 8.77-13.76-4.61 6.74-8.6 12.47-8.6 12.5z" fill="none"/><path d="M3673 3676.12c8.6-1.72 22.36-18.92 31-31s8.6-37.84 10.32-48.16c.58-3.44 4.26-9.66 8.91-16.94l-.57-.43.74-.76s4-5.76 8.6-12.5c6.19-9.86 11.86-19.88 13-27.06-1.94-6.29-8.49-10.88-13.27-4.85-9.64 12.15-24.36 31.82-34.61 44.36-19.68 12-38.65 51.7-55.18 75.49l1.16 1.94c8.64 8.02 23.9 21.11 29.9 19.91z" fill="#ffb9b3"/><path d="M3744 3548.4a10.73 10.73 0 001-9.09c-1.16 7.18-6.87 17.2-13 27.06 4.38-6.45 9.37-13.83 12-17.97zM3679.28 3685.63c5.93-11.11 25-11.49 34.51-26.4 10.69-16.82 28.71-41.43 25.8-53.32-2.06-8.6-8-19.64-16.47-25.9-4.65 7.27-8.33 13.47-8.91 16.94-1.72 10.32-1.72 36.12-10.32 48.16s-22.36 29.24-31 31c-6 1.2-21.26-11.89-29.91-19.87 8.31 13.65 18.67 29.05 36.3 29.39z" fill="#f2a9a5"/><path d="M3641.8 3654c-1.72 2.2-4.13 5.5-7 9.65-2.37 3.35-8.6 6-11.5 10.32-9.05 13.27-20 30.75-30.79 48.69-6.62 38.71-15.79 94.48-15.79 94.48-19.33-2.41-62.78 7.6-103.71 18.91-9 4.06-17.87 8-26.28 11.44-19.32 7.93-45.77 9.87-59.34 20.25-27 20.64-27.52 56.75-.38 83.48 11.68 11.49 25.32 18.72 57.15 6.16 43.36-17.08 98.64-54.81 122.5-69.55 10.83-6.71 38.18-25.44 45.27-35.11 7.39-10.1 10.49-23.51 13.26-28 19.09-31.39 34.78-72.61 50.63-113.26 1.47-3.75.42-13.46 1.95-17.09 2-4.7 4-9.27 6.05-13.76-11.41-12.18-30.82-25.61-42.02-26.61z" fill="#97c3f5" fill-rule="evenodd"/><path d="M3576.68 3817.16s9.17-55.77 15.79-94.48c-21 35.07-41.07 72-43.7 83.05-23.76 6.59-50.59 19-75.8 30.38 40.93-11.35 84.38-21.36 103.71-18.95z" fill="#7fb0ff"/><path d="M3230.09 3795c-60.56-6.88-60.69 93-39.56 140 54.8 122.27 19.35 141.17 24.38 196.9l-2.79 18.92c52.06 77.53 204.67 75 222.94 18.92-.91-3.2-1.62-15.83-2.74-20.73-54.93 52.51-134.43 38.62-181.42 10.58-4.36-20.64-1.72-29.72 1.1-38.2 37.84-40.71 131.24-26.09 154-137.84 6.6-32.44-14.83-60.95-35.66-86.7-10-12.35-17.4-18.8-30.78-37.43-21.85 5.16-62.52-2.08-67.39-11-1.72-3.11 6.88-30.4 5.52-33.74-37.54-16.44-25.6-17.18-47.6-19.68z" fill="#7fb0ff" fill-rule="evenodd"/><path d="M3249.51 3822.56c-4.69 19.88 67.92 41.36 92.88 30.54l.51-4.81c6.42-29.67 12.73-54.87 17.2-75.68 11.58 4.92 40 6.36 42.49 2.41-76.54-61.15-166.06-106.35-177.57-75.48 7.58 22.36 27.17 38.26 37 52.81 2.6 3.87 4.64 11.93 5.16 20-3 15.74-8.97 30.84-17.67 50.21z" fill="#f4aca8" fill-rule="evenodd"/><path d="M3402 3775.33c-6.59 4.3-53.92-9.27-57.24-11.1-38.15-21-55-74-62.23-84.67-9.8-14.57-50.09 42.31-57.67 20-12-35.74-9.77-76 22.91-104.11 56.76-48.78 145.94-13 158.7 42.23 5.16 22.67-1.26 24.56-.17 39.73 2 28 5.16 17.42 2.56 61.68-.94 16.8-2.45 33.35-6.86 36.24z" fill="#ffb9b3" fill-rule="evenodd"/><path d="M3260 3795.9c2 18.09 52.93 30.85 83.83 23.65 3.31-.78 5.37-1.4 6.56-3.44 4.54 2.49 16.9 20.34 18.31 29.23-26.71 25.8-111.09 10.65-121.34-19.48-2.44-7.28-4.69-20.86 12.64-29.96z" fill="#7fb0ff" fill-rule="evenodd"/><path d="M3191.41 3760.4c-48.57 40.62-147.91 89.28-125.86 130.71 20 37.62 68.79 59.74 53.85 83.54-12.44 19.68-41.68 39.41-6.88 71.17 17.9 16.38 61.64 60.2 150.94 37.51 87.05-22.15 178.38-97.33 105-179.54-46.89-52.58-86.26-102.49-70.52-131.4 10.2-18.67 65.36-15.59 82.7-42.28 23.39-36 44.32-107.05 24.26-133.5-34.4-45.36-57.22-12.68-90.31-28.69-63.12-30.58-90.18-13.61-119.85 34.19-26.46 42.89 35.26 125.99-3.33 158.29z" fill-rule="evenodd" fill="url(#V)"/><path d="M3206.2 3723.49l99.18 37.84s6.26 18.92-9.14 19.36-92.79-22-101.39-34.05 11.35-23.15 11.35-23.15z" fill="#404cf7"/><g data-name="shape 17"><path d="M1050.33 2176.32c-8.19-24.27-5.83-44.2 4.61-57 .31-.38 17.77-22.05 18.09-22.36 11.12-12.57 8.36 8.38 33.47 13.76 50.55 10.8 105.13 59.84 121.88 109.53 8.29 24.56 30.46 17.32 19.68 30.08-.3.36-20.26 23.34-20.64 23.7-11.17 12.28-30.43 17.2-55.28 11.9-50.48-10.88-105.06-59.93-121.81-109.61z" fill="#86a3ed"/><path d="M1070.13 2152.62c-16.75-49.69 10.64-81.21 61.21-70.41s105.11 59.82 121.86 109.51-10.65 81.21-61.2 70.41-105.12-59.82-121.87-109.51z" fill="#97c3f5"/><path d="M1089.25 2136.49c-8.77-24.08-5.83-44.22 4.61-57 .31-.4 17.77-22.07 18.1-22.36 11.11-12.57 8.36 8.38 33.48 13.76 50.55 10.78 105.11 59.82 121.86 109.51 8.29 24.58 30.46 17.32 19.68 30.08-.29.36-20.26 23.36-20.64 23.7-11.16 12.28-31.36 20.47-55.28 11.9-61.13-22.01-106.74-68.26-121.81-109.59z" fill="#808cf5"/><path d="M1109.05 2112.77c-16.75-49.69 10.66-81.2 61.21-70.41s105.11 59.83 121.86 109.5-10.64 81.22-61.19 70.52-105.18-59.92-121.88-109.61z" fill="#97c3f5"/></g><g data-name="shape 16" fill="none" stroke="#aed7ff" stroke-linejoin="round" stroke-width="10.32"><path d="M2183.52 1775.57c4.63 0 148.72-48.15 148.72-48.15l60.2 180.45-155.6 50z"/><path d="M2221.36 1811.69c3.44-1.72 103.2-31 103.2-31M2236.84 1851.25c3.44-1.72 103.2-31 103.2-31M2248.88 1889.09c3.44-1.72 103.2-31 103.2-31" stroke-linecap="round"/></g><g data-name="shape 15"><path d="M1955.71 1660.85c8.74-21.55 6.88-40.19-3.13-53.07-.31-.38-17.08-22.21-17.4-22.59-10.72-12.74-8.6 6.88-33.58 9.2-50.46 4.7-105.86 44.24-123.73 88.34-8.84 21.81-23 1.72-20.64 17.73 2 13 24.87 33.8 25.18 34.14 10.78 12.51 24.7 16.89 49.52 14.59 50.6-4.7 105.91-44.19 123.78-88.34z" fill="#97c3f5"/><path d="M1940.42 1640c17.87-44.1-8.6-76-59-71.36s-105.85 44.26-123.74 88.36 8.6 76 59 71.34 105.86-44.22 123.74-88.34z" fill="#c2d7ff"/><path d="M1916.15 1611c8.74-21.55 6.88-40.19-3.13-53.07-.31-.38-17.08-22.21-17.4-22.59-10.72-12.74-8.6 6.88-33.58 9.21-50.46 4.69-105.86 44.23-123.73 88.33-8.84 21.81-23 1.72-20.64 17.73 2 13 24.87 33.8 25.18 34.15 10.79 12.5 24.7 16.89 49.52 14.58 50.63-4.72 105.91-44.27 123.78-88.34z" fill="#97c3f5"/><path d="M1900.86 1590.15c17.87-44.1-8.6-76-59-71.36S1736 1563 1718.14 1607.14s8.6 76 59 71.34 105.86-44.23 123.72-88.33z" fill="#c2d7ff"/></g><g data-name="shape 14"><path fill="#86a3ed" d="M2042.45 2353.92l16.58 18.34 57.41-172.65-17.85-18.68-56.14 172.99z"/><path fill="#697ed5" d="M2042.61 2353.79l16.56 18.33-182.25 36.77-17.52-19.38 183.21-35.72z"/><path fill="#97c3f5" d="M1859.4 2389.51l183.21-35.72 55.98-172.86-183.14 36.31-56.05 172.27z"/><path d="M1917.13 2353.34a1.72 1.72 0 01-.3-1.93 4.49 4.49 0 011.1-1.72l104-110.07a19.48 19.48 0 012.94-2.58 8.2 8.2 0 013.22-1.28l11.33-2.28a2.66 2.66 0 012.25.27 1.72 1.72 0 01.31 1.95 4.49 4.49 0 01-1.1 1.72l-104 110.07a22.19 22.19 0 01-2.9 2.58 8.69 8.69 0 01-3.24 1.26l-11.33 2.28a2.61 2.61 0 01-2.28-.27zm15-54.66c-3.06-2.58-3.9-6.74-2.49-12.52.7-2.87 1.23-4.92 1.6-6.07s1.29-3.89 2.71-7.83a35.76 35.76 0 0110.87-15.48 40.35 40.35 0 0118.41-8.6c7.15-1.44 12.17-.82 15.12 1.88s3.69 7 2.27 12.83c-1 3.87-1.72 6.43-2.1 7.7s-1.12 3.25-2.2 6.19a35.41 35.41 0 01-11.18 15.29 41.3 41.3 0 01-18.12 8.48q-10.27 2-14.87-1.87zM1981 2337c-3.1-2.69-3.94-6.88-2.51-12.68.69-2.89 1.22-4.9 1.58-6.09s1.24-3.71 2.67-7.65a37.15 37.15 0 0111.07-15.69 40.32 40.32 0 0118.39-8.6c7.15-1.43 12.19-.82 15.13 1.88s3.65 7 2.07 13c-1 3.86-1.72 6.37-2 7.54s-1.12 3.23-2.22 6.21a36.64 36.64 0 01-11.18 15.48 40.36 40.36 0 01-18.11 8.6c-6.84 1.23-11.89.61-14.89-2zm-24.39-52.5a14.53 14.53 0 003.25-5.16c1.1-3 1.82-5 2.2-6.21s.91-3.25 1.55-5.95a6.17 6.17 0 00-.17-4.68c-.66-1.11-2.08-1.44-4.28-1-4 .82-7 3.61-8.83 8.36q-.81 2.1-2 6c-.83 2.63-1.41 4.68-1.72 6.11a6.14 6.14 0 00.36 4.59c.65 1.07 2 1.36 4.16.95a10.34 10.34 0 005.46-3.04zm48.74 38.31a17.14 17.14 0 003.44-5.44q1.65-4.46 2.21-6.21c.36-1.17.91-3.23 1.54-5.93a6.17 6.17 0 00-.34-4.58c-.65-1.06-2-1.39-4.18-1a10.39 10.39 0 00-5.52 3 14.53 14.53 0 00-3.25 5.16c-.52 1.39-1.21 3.44-2 6s-1.4 4.67-1.72 6.12a6.15 6.15 0 00.19 4.69q.94 1.65 4.28 1a10.08 10.08 0 005.36-2.85z" fill="#fff"/></g><g data-name="shape 13"><path d="M1604.59 2081.72c19.09 13 37.83 15.83 53 9.84.46-.19 26-10.11 26.47-10.32 15.17-6.6-4.7-9.3-.9-32.5 7.64-46.67-17.88-106.11-57-132.78-19.33-13.2-5.16-30.74-20.4-24.46l-28.46 12.16c-14.93 6.74-26 22.36-29.76 45.27-7.54 46.64 17.93 106.07 57.05 132.79z" fill="#f1a368"/><path d="M1632.79 2070.2c39.1 26.68 77 10.48 84.62-36.12s-17.88-106.12-57-132.79-77-10.46-84.62 36.22 17.89 106.01 57 132.69z" fill="#f1cf68"/></g><g data-name="shape 12"><path d="M1456.62 1138.31a62.94 62.94 0 0124.58 45.12c1.08 20.93-12.23 32.47-29.69 25.7l-107-41.42c-22.24-8.6-41.48-37.36-42.86-64s15.48-41.52 37.44-33a42.32 42.32 0 014.75 2.15c7.64-22.46 27.71-31.52 51.29-22.36 30.87 11.93 57.72 50.72 61.49 87.81zm-5.8 58.6c11.85 4.6 20.88-3.25 20.14-17.42-.67-12.74-8.92-26.37-19.61-32.44a10 10 0 01-4.66-7.7c-1.61-32.18-24.49-66.36-51-76.61-20.64-8-38 .88-43.32 22.07a3.18 3.18 0 01-3.6 2.69 3.37 3.37 0 01-1-.3 5.81 5.81 0 01-1.15-.62 33.85 33.85 0 00-6.59-3.44c-16.65-6.43-29.34 4.56-28.29 24.51s15.48 41.43 32 47.86l107 41.4" fill="url(#W)"/></g><g data-name="shape 11"><path d="M997.41 914.57c10.47-30.62 7.26-57.05-6.45-75.23-.41-.55-23.32-31.36-23.75-31.87-14.57-18-10.82 9.78-43.52 13.29C857.9 827.83 787.2 884.4 765.75 947c-10.6 31-30 2.58-26.13 25.3 3.15 18.37 34 47.71 34.4 48.16 14.65 17.63 33 23.75 65.36 20.26 65.89-6.96 136.62-63.5 158.03-126.15z" fill="#80a1f5"/><path d="M976.48 885.16c21.44-62.68-14.5-107.76-80.31-100.71s-136.49 63.64-157.94 126.26 14.52 107.76 80.32 100.69 136.5-63.57 157.93-126.24z" fill="#97c3f5"/><path d="M901.57 886.05c2.69 2.63 3.32 6.5 1.91 11.66-.72 2.56-1.25 4.39-1.6 5.44s-1.25 3.44-2.63 6.88a29.7 29.7 0 01-10.15 13.22 33.3 33.3 0 01-16.73 6.28q-9.68 1-13.52-3t-1.72-12c1-3.44 1.72-5.71 2.06-6.88s1.09-2.88 2.15-5.49a29.56 29.56 0 0110.32-13 34.09 34.09 0 0116.48-6.16c6.29-.58 10.73.42 13.43 3.05zm14.86-48.67a1.59 1.59 0 01.26 1.72 4 4 0 01-1.05 1.49l-96.16 91.57a18.83 18.83 0 01-2.67 2.12 7.74 7.74 0 01-2.94.86l-10.21 1.1a2.51 2.51 0 01-2-.48 1.56 1.56 0 01-.24-1.72 3.26 3.26 0 011-1.47L898.6 841a21 21 0 012.68-2.1 7.91 7.91 0 012.92-.88l10.32-1.06a2.31 2.31 0 011.91.42zm-37.15 59.51a11.74 11.74 0 00-3 4.5c-1.07 2.62-1.72 4.44-2.14 5.47s-.91 2.89-1.54 5.3a5.71 5.71 0 000 4.3c.53 1.06 1.84 1.49 3.82 1.27 3.62-.38 6.34-2.66 8.11-6.88.5-1.22 1.17-3 2-5.33s1.4-4.15 1.72-5.45a5.78 5.78 0 00-.17-4.23c-.57-1-1.82-1.41-3.71-1.22a8.37 8.37 0 00-5 2.27zm-20.52-50.09c2.72 2.7 3.44 6.64 2 11.8q-1.07 3.87-1.6 5.43c-.36 1.05-1.21 3.27-2.58 6.76a30.91 30.91 0 01-10.32 13.37 33.28 33.28 0 01-16.72 6.29c-6.43.71-11-.32-13.52-3s-3.06-6.76-1.5-12c1-3.44 1.72-5.68 2-6.73s1.07-2.85 2.14-5.48A30.34 30.34 0 01829 850.05a33.32 33.32 0 0116.46-6.26c6.16-.79 10.6.26 13.3 3.01zm-22.2 10.84a14 14 0 00-3.2 4.64c-1.07 2.6-1.72 4.42-2.13 5.47s-.92 2.89-1.57 5.3a5.89 5.89 0 00.21 4.23c.57 1 1.72 1.43 3.73 1.24a8.38 8.38 0 005-2.26 12 12 0 003.06-4.5c.5-1.22 1.15-3 2-5.35s1.37-4.15 1.72-5.42a5.81 5.81 0 000-4.3c-.57-1.1-1.84-1.51-3.82-1.29a8.29 8.29 0 00-5 2.18z" fill="#fff"/></g><g data-name="shape 09"><path d="M1724.16 469.79c-8.74-21.55-6.88-40.2 3.14-53.08.3-.38 17.08-22.2 17.39-22.58 10.72-12.75 8.52 6.88 33.59 9.2 50.45 4.69 105.85 44.24 123.72 88.34 8.84 21.8 23 1.72 20.64 17.73-2 13-24.87 33.79-25.18 34.14-10.79 12.5-24.7 16.89-49.5 14.58-50.53-4.69-105.96-44.23-123.8-88.33z" fill="#b3beff"/><path d="M1739.46 449c-17.88-44.1 8.52-76 59-71.36s105.84 44.21 123.71 88.36-8.6 76-59 71.35-105.84-44.29-123.71-88.35z" fill="#92a2ff"/><path d="M1763.71 419.91c-8.73-21.55-6.88-40.2 3.15-53.08.29-.38 17.08-22.2 17.39-22.58 10.72-12.75 8.51 6.88 33.59 9.2 50.45 4.7 105.85 44.24 123.72 88.34 8.84 21.81 23 1.72 20.64 17.73-2 13-24.87 33.8-25.18 34.14-10.79 12.5-24.7 16.89-49.5 14.59-50.52-4.7-105.93-44.25-123.81-88.34z" fill="#b3beff"/><path d="M1779 399.08c-17.88-44.1 8.52-76 59-71.36s105.86 44.25 123.73 88.35-8.6 76-59 71.35-105.84-44.24-123.73-88.34z" fill="#92a2ff"/></g><g data-name="shape 08"><path d="M2455.84 1177.15c13.86 21.64 33.13 33.9 53.2 36.36.6 0 34.4 4.37 35 4.42 20.47 1.89 0-10.82 17.2-29.75 34.4-38.08 39.42-104.92 11.05-149.14-14-21.9 11.42-30.37-8.93-32.59l-38.27-3.8c-20.28-1.72-41.28 6.63-58.17 25.36-34.51 38.08-39.46 104.85-11.08 149.14z" fill="#aec1d1"/><path d="M2493.46 1181.43c28.37 44.28 79.34 49.31 113.8 11.22s39.41-104.92 11-149.14-79.26-49.31-113.76-11.23-39.42 104.85-11.04 149.15z" fill="#ced8e7"/></g><g data-name="shape 07" fill="none" stroke="#d6b0ff" stroke-linejoin="round" stroke-width="10.32"><path d="M1715.69 962c4.63 0 148.73-48.16 148.73-48.16l60.2 180.46-155.61 50z"/><path d="M1753.53 998.16c3.44-1.72 103.2-31 103.2-31M1769 1037.71c3.44-1.71 103.2-31 103.2-31M1781.05 1075.55c3.44-1.72 103.2-31 103.2-31" stroke-linecap="round"/></g><g data-name="shape 06"><path fill="#80a1f5" d="M2300.05 762.66l-17.58 12.44-17.94-159.98 18.58-13.14 16.94 160.68z"/><path fill="#80a1f5" d="M2299.94 762.52l-17.57 12.42 150.03 68.95 18.57-13.14-151.03-68.23z"/><path fill="#97c3f5" d="M2450.97 830.75l-151.03-68.23-16.83-160.54 150.87 68.75 16.99 160.02z"/></g><g data-name="shape 05"><path fill="#e5bd57" d="M1270.85 211.42l17.56 12.43 17.94-159.97-18.58-13.14-16.92 160.68z"/><path fill="#f1a368" d="M1270.93 211.28l17.58 12.42-150.03 68.95-18.58-13.14 151.03-68.23z"/><path fill="#f1cf68" d="M1119.9 279.51l151.03-68.23 16.84-160.54-150.86 68.74-17.01 160.03z"/></g><g data-name="shape 04"><path fill="#c3a0ef" d="M2119.45 160.68l-17.58 12.43-17.94-159.97L2102.51 0l16.94 160.68z"/><path fill="#af8fe2" d="M2119.35 160.54l-17.58 12.42 150.03 68.95 18.58-13.14-151.03-68.23z"/><path fill="#d6b0ff" d="M2270.38 228.77l-151.03-68.23L2102.51 0l150.88 68.75 16.99 160.02z"/></g><g data-name="shape 03"><path d="M1666.43 2447.4c-14.13 9.65-28 11.72-39.24 7.3-.35-.14-19.27-7.49-19.6-7.64-11.21-4.9 3.44-6.88.68-24.08-5.66-34.54 13.22-78.52 42.15-98.26 14.31-9.75 3.82-22.74 15.1-18.09.31.13 20.75 8.85 21.06 9 11.05 5 19.24 16.51 22 33.49 5.67 34.58-13.22 78.56-42.15 98.28z" fill="#af8fe2"/><path d="M1645.57 2438.91c-29 19.74-57 7.74-62.62-26.78s13.22-78.52 42.15-98.26 57-7.74 62.63 26.79-13.23 78.52-42.16 98.25z" fill="#d6b0ff"/></g><g data-name="shape 21" fill="none" stroke="#aed7ff" stroke-linejoin="round" stroke-width="10.32"><path d="M1305.4 1651.74c-4.64 0-148.74-48.16-148.74-48.16l-60.2 180.42 155.57 50z"/><path d="M1267.56 1687.86c-3.44-1.72-103.2-31-103.2-31M1252.08 1727.42c-3.44-1.72-103.2-31-103.2-31M1240 1765.25c-3.44-1.72-103.2-31-103.2-31" stroke-linecap="round"/></g><g data-name="lines 02" fill="none" stroke="#97c3f5" stroke-linecap="round" stroke-miterlimit="10" stroke-width="6.88"><path style="isolation:isolate" opacity=".43" d="M664.8 1476.3l347.74 886.65M549.57 1164.99l57.07 145.35M2541.58 1508.98l-347.74 886.65M2656.82 1197.67l-57.07 145.35"/><path style="isolation:isolate" opacity=".44" d="M1476.62 2284.68l40.21 240.4M1450.82 2150.52l14.41 82.17M1733.55 2396.48l-7.54 128.99"/><path style="isolation:isolate" opacity=".54" d="M2004.65 1765.25l-41.28 153.08"/><path style="isolation:isolate" opacity=".55" d="M2039.04 946.56l-17.2 72.24"/></g><g><g opacity=".3"><path d="M1481.78 4632.14v-102.2l-28.28-15.74c-8 48.24-64.75 80-112.22 86.63l-323.35 189-141 50.95-450.36-232.34 10.32-6c-38.47-18-59.21-59.11-80-96.62l-30.32 18.07-18 5.08v104.81c0 20 13.21 40.06 39.56 55.31l451.15 260.47c52.81 30.5 138.76 30.5 191.58 0l451.4-260.38c26-15 39.18-34.62 39.56-54.33v-2.7z" fill="#404cf7"/><path d="M1341.28 4600.83l-323.35 189-122.65 44.34v138.22c34.69 0 69.4-7.62 95.8-22.88l451.14-260.38c26-15 39.18-34.62 39.56-54.33V4530l-25.8-14.38h-2.7c-8.86 47.38-64.98 78.68-112 85.21z" fill="#404cf7"/><path d="M799.44 4845.69l-451.11-260.46c-52.83-30.49-52.83-80.11 0-110.61l451.15-260.47c52.82-30.49 138.76-30.49 191.58 0l451.16 260.47c52.82 30.5 52.82 80.12 0 110.61L991 4845.69c-52.72 30.51-138.72 30.51-191.56 0z" fill="url(#X)"/><path d="M799.44 4845.69l-451.11-260.46c-52.83-30.49-52.83-80.11 0-110.61l451.15-260.47c52.82-30.49 138.76-30.49 191.58 0l451.16 260.47c52.82 30.5 52.82 80.12 0 110.61L991 4845.69c-52.72 30.51-138.72 30.51-191.56 0z" fill="#787aff"/></g><path d="M895.28 4749.15c-30.81 0-61.59-6.78-85-20.32l-451.2-260.47c-23.42-13.53-36.32-31.76-36.32-51.37s12.9-37.84 36.32-51.38l451.13-260.45c46.9-27.09 123.16-27.09 170.08 0l451.15 260.47c23.42 13.54 36.32 31.77 36.32 51.38s-12.9 37.83-36.32 51.37l-451.13 260.45c-23.48 13.54-54.31 20.32-85.03 20.32zm0-656.51c-29.38 0-58.74 6.47-81.08 19.37l-451.14 260.45c-20.88 12-32.37 27.88-32.37 44.53s11.49 32.47 32.37 44.53L814.22 4722c44.71 25.8 117.43 25.8 162.14 0l451.14-260.46c20.88-12 32.37-27.88 32.37-44.52s-11.49-32.48-32.37-44.53L976.29 4112c-22.35-12.9-51.77-19.37-81-19.37z" style="isolation:isolate" opacity=".42" fill="url(#Y)"/><path d="M1481.78 4317v-154.46l-28.28-15.72c-8 48.16-64.75 80-112.22 86.63l-323.35 189-141 50.95L426.57 4241l10.32-6c-38.47-18-59.21-59.09-80-96.62l-30.32 18.09-18 5.06v157.1c0 20 13.21 40.06 39.56 55.31l451.15 260.47c52.81 30.5 138.76 30.5 191.58 0L1442.22 4374c26-15 39.18-34.62 39.56-54.33V4317z" fill="url(#Z)" opacity=".47"/><path d="M1481.78 4179.7v-102.21l-28.28-15.72c-8 48.24-64.75 80-112.22 86.63l-323.35 189-141 51-450.3-232.4 10.31-6c-38.47-18-59.21-59.1-80-96.61l-30.33 18.07-18 5.06v104.83c0 20 13.2 40.06 39.55 55.31l451.13 260.44c52.82 30.5 138.76 30.5 191.58 0l451.35-260.45c26-15 39.18-34.62 39.56-54.33v-2.63z" fill="url(#aa)"/><path d="M1481.78 4179.7v-102.21l-28.28-15.72c-8 48.24-64.75 80-112.22 86.63l-323.35 189-141 51-450.3-232.4 10.31-6c-38.47-18-59.21-59.1-80-96.61l-30.33 18.07-18 5.06v104.83c0 20 13.2 40.06 39.55 55.31l451.13 260.44c52.82 30.5 138.76 30.5 191.58 0l451.35-260.45c26-15 39.18-34.62 39.56-54.33v-2.63z" fill="url(#ab)"/><path d="M1341.28 4148.4l-323.35 189-122.65 44.34V4520c34.69 0 69.4-7.62 95.8-22.86l451.14-260.47c26-15 39.18-34.62 39.56-54.33V4077.47l-25.8-14.36h-2.7c-8.86 47.49-64.98 78.74-112 85.29z" style="isolation:isolate" fill="#140d4c" opacity=".3"/><path d="M799.44 4393.34L348.33 4132.8c-52.83-30.51-52.83-80.13 0-110.63l451.15-260.45c52.82-30.49 138.76-30.49 191.58 0l451.16 260.47c52.82 30.5 52.82 80.12 0 110.61L991 4393.34c-52.72 30.42-138.72 30.42-191.56 0z" fill="url(#ac)"/><path d="M895.28 4346c-27.83 0-55.66-6.1-76.85-18.35L466 4124.11c-21.24-12.26-32.92-28.82-32.92-46.64s11.68-34.4 32.92-46.61l352.45-203.51c42.36-24.45 111.28-24.44 153.66 0l352.45 203.49c21.24 12.26 32.92 28.81 32.92 46.63s-11.68 34.4-32.9 46.64l-352.47 203.47c-21.23 12.27-49.06 18.42-76.83 18.42zm-72.88-25.18c40.18 23.19 105.56 23.19 145.73 0l352.46-203.48c18.69-10.79 29-24.93 29-39.8s-10.32-29-29-39.79l-352.47-203.53c-40.16-23.17-105.54-23.22-145.73 0L470 4037.72c-18.71 10.79-29 24.91-29 39.77s10.32 29 29 39.8z" style="isolation:isolate" opacity=".42" fill="url(#ad)"/><path d="M1442.22 4132.8L991 4393.34c-52.82 30.49-138.77 30.49-191.59 0L348.33 4132.8c-23.61-13.64-36.63-31.1-39.14-49-3.1 22.1 9.92 44.81 39.14 61.68L799.48 4406c52.82 30.49 138.76 30.49 191.58 0l451.16-260.45c29.24-16.88 42.23-39.56 39.13-61.68-2.54 17.85-15.58 35.31-39.13 48.93z" fill="url(#ae)"/></g><path d="M636.43 350.9a73.38 73.38 0 00-94.31 95.31 73.64 73.64 0 0049.88 44.3c11.18 2.9 20.66 11.34 25.4 22.56l1.22 2.91a11.74 11.74 0 00-3.62 13.77l.67 1.58a11.74 11.74 0 0015.39 6.25l1.85-.78a12 12 0 00.87 3.89l.67 1.58a11.73 11.73 0 0015.39 6.26l25.52-10.78a11.74 11.74 0 006.26-15.4l-.67-1.58a12.07 12.07 0 00-2.18-3.33l1.84-.78a11.75 11.75 0 006.26-15.4l-.67-1.58a11.69 11.69 0 00-12.4-7l-1.22-2.91c-4.7-11.13-3.88-23.92 2.21-35.15a73.32 73.32 0 00-38.4-103.72zm38 174.46a3.93 3.93 0 01-2.08 5.13l-25.52 10.78a4 4 0 01-5.14-2.09l-.69-1.58a3.94 3.94 0 012.09-5.13l25.52-10.78a3.89 3.89 0 015.13 2.08zm4.6-22.63l.67 1.58a3.93 3.93 0 01-2.08 5.13l-12 5.08-25.52 10.77-12 5.08a4 4 0 01-5.14-2.09l-.66-1.58a3.93 3.93 0 012.08-5.13l49.55-20.93a3.94 3.94 0 015.07 2.09zm-64.82-41.9L606.8 464a5.87 5.87 0 01-7.7-3.13l-.83-2a5.87 5.87 0 013.12-7.7l2-.83a5.86 5.86 0 017.69 3.13zm27.47 44.92L624.44 465l8.8-3.71L650.47 502l-8.8 3.72zM668 450.88a48.08 48.08 0 00-2.52 41.92l1 2.47-8.8 3.73-17.22-40.79 7.39-3.12a13.75 13.75 0 007.3-18l-.84-2a13.73 13.73 0 00-18-7.3l-2 .84a13.74 13.74 0 00-7.3 18l3.12 7.39-8.8 3.72-3.12-7.4a13.73 13.73 0 00-18-7.29l-2 .83a13.76 13.76 0 00-7.3 18l.84 2a13.73 13.73 0 0018 7.29l7.39-3.12 17.23 40.79-8.8 3.72-1-2.46a46.53 46.53 0 00-30.63-27.1 65.5 65.5 0 01-12-122.44 65.55 65.55 0 0186 90.35zm-30.53.14l-3.12-7.4a5.86 5.86 0 013.12-7.69l2-.84a5.87 5.87 0 017.7 3.13l.84 2a5.88 5.88 0 01-3.13 7.7zM564.613 321.116l7.213-3.045 8.437 19.982-7.214 3.045zM508.02 374.706l2.947-7.254 20.095 8.164-2.947 7.254zM634.356 332.021l8.164-20.095 7.254 2.947-8.164 20.095zM502.128 450.425l19.982-8.436 3.046 7.213-19.982 8.437zM688.1 371.908l19.981-8.437 3.046 7.214-19.982 8.436z" fill="#aed7ff"/><rect x="1520.72" y="694.58" width="160.78" height="223.5" rx="19.81" transform="rotate(-23.78 1601.072 806.323)" style="isolation:isolate" fill="#3e497c"/><rect x="1525.11" y="684.82" width="160.78" height="223.5" rx="19.81" transform="rotate(-23.78 1605.459 796.558)" style="isolation:isolate" fill="#515c8d"/><text transform="matrix(.92 -.4 .4 .92 1553.02 774.41)" font-size="52.548" fill="#fff" font-family="MyriadPro-Regular,Myriad Pro">101<tspan x="0" y="63.06">001</tspan><tspan x="0" y="126.12">101</tspan></text><rect x="2109.52" y="1056.56" width="158.81" height="220.75" rx="19.81" transform="rotate(20.39 2189.216 1167.164)" style="isolation:isolate" fill="#73a8f8"/><rect x="2119.35" y="1052.67" width="158.81" height="220.75" rx="19.81" transform="rotate(20.39 2199.05 1163.272)" style="isolation:isolate" fill="#81c4f7"/><text transform="matrix(.94 .35 -.35 .94 2176.74 1111.17)" font-size="51.903" fill="#fff" font-family="MyriadPro-Regular,Myriad Pro">101<tspan x="0" y="62.28">001</tspan><tspan x="0" y="124.57">101</tspan></text><rect x="2499.97" y="132.38" width="144.36" height="200.67" rx="19.81" transform="rotate(-13.18 2571.63 232.71)" style="isolation:isolate" fill="#feb163"/><rect x="2505.45" y="124.49" width="144.36" height="200.67" rx="19.81" transform="rotate(-13.18 2577.102 224.834)" style="isolation:isolate" fill="#fdd060"/><text transform="rotate(-13.18 2118.376 -10872.716)" font-size="47.181" fill="#fff" font-family="MyriadPro-Regular,Myriad Pro">101<tspan x="0" y="56.62">001</tspan><tspan x="0" y="113.23">101</tspan></text><ellipse cx="1216.33" cy="637.54" rx="83.33" ry="78.83" fill="none" stroke="#f99dcb" stroke-linecap="round" stroke-linejoin="round" stroke-width="9.701"/><path d="M1234.86 619.86s-16.91-21.25-29.47-5.17c-13.86 17.75 21.71 22.23 29.47 32.54 12 16-15.47 40.69-33 14.73M1217.95 592.07v15.89M1219.86 674.07v12.88" fill="none" stroke="#f99dcb" stroke-linecap="round" stroke-linejoin="round" stroke-width="9.701"/><path d="M993.29 3962.89c9.34 5.06 13.19 15.9 8.61 24.21s-15.9 10.9-25.2 5.9l-109.88-59.64c-9.34-5.06-13.19-15.9-8.61-24.21s15.87-10.93 25.2-5.86zM877.14 4173.39c9.33 5.07 13.18 15.91 8.6 24.21s-15.86 10.93-25.2 5.86l-109.88-59.64c-9.34-5.06-13.19-15.9-8.61-24.21s15.87-10.92 25.2-5.86zM1070.41 4141.51c9.34 5.07 13.19 15.91 8.61 24.22s-15.87 10.92-25.2 5.86l-287.39-156c-9.33-5.06-13.18-15.9-8.6-24.21s15.86-10.93 25.2-5.86zM973.79 4157.46c9.34 5.07 13.19 15.91 8.61 24.21s-15.86 10.93-25.2 5.87l-257.8-139.92c-9.33-5.07-13.19-15.91-8.6-24.21s15.86-10.93 25.2-5.86zM1031.87 4052.21c9.34 5.07 13.19 15.91 8.61 24.21s-15.86 10.93-25.2 5.86l-152.14-82.57c-9.34-5.07-13.19-15.91-8.61-24.21s15.87-10.93 25.2-5.86z" fill="#fff"/><path d="M812.42 3972.19c9.34 5.06 20.62 2.44 25.2-5.86s.73-19.15-8.6-24.22-20.62-2.44-25.21 5.87-.72 19.14 8.61 24.21zM761.71 3944.66c9.34 5.07 20.62 2.44 25.2-5.86s.73-19.14-8.61-24.21-20.62-2.44-25.2 5.86-.73 19.14 8.61 24.21zM648.69 4020.09c9.33 5.07 20.62 2.45 25.2-5.86s.73-19.14-8.61-24.21-20.62-2.44-25.2 5.86-.73 19.12 8.61 24.21zM700 4116.3c9.33 5.07 20.61 2.44 25.2-5.86s.73-19.14-8.61-24.21-20.62-2.45-25.2 5.86-.78 19.14 8.61 24.21z" fill="#82b5cd" fill-rule="evenodd"/></svg>