<svg xmlns="http://www.w3.org/2000/svg" xmlns:xlink="http://www.w3.org/1999/xlink" viewBox="0 0 1695.87 1943.56"><defs><linearGradient id="c" x1="2119.46" y1="2095.29" x2="2073.71" y2="2016.05" gradientTransform="matrix(.9 -.01 -.01 .91 167.54 178.51)" gradientUnits="userSpaceOnUse"><stop offset="0" stop-color="#1917db" stop-opacity="0"/><stop offset="1" stop-color="#1917ee" stop-opacity=".1"/></linearGradient><linearGradient id="a" x1="1823.42" y1="1948.97" x2="2164.99" y2="1948.97" gradientUnits="userSpaceOnUse"><stop offset="0" stop-color="#6f7ef8"/><stop offset="1" stop-color="#99daf1"/></linearGradient><linearGradient id="b" x1="1823.42" y1="1888.07" x2="2164.99" y2="1888.07" gradientUnits="userSpaceOnUse"><stop offset="0" stop-color="#e7e7fb"/><stop offset=".36" stop-color="#d0d0f7"/><stop offset=".71" stop-color="#c2c2f4"/><stop offset="1" stop-color="#bdbdf3"/></linearGradient><linearGradient id="k" x1="1823.42" y1="1888.07" x2="2164.99" y2="1888.07" xlink:href="#a"/><linearGradient id="l" x1="1823.42" y1="1818.89" x2="2164.99" y2="1818.89" xlink:href="#b"/><linearGradient id="d" x1="1827.51" y1="1786.01" x2="2160.89" y2="1786.01" gradientUnits="userSpaceOnUse"><stop offset="0" stop-color="#99fff1"/><stop offset="1" stop-color="#6f7ef8"/></linearGradient><linearGradient id="m" x1="1823.42" y1="1780.44" x2="2164.99" y2="1780.44" xlink:href="#a"/><linearGradient id="e" x1="1857.4" y1="1628.02" x2="2128.4" y2="1784.48" gradientUnits="userSpaceOnUse"><stop offset="0" stop-color="#babcfc"/><stop offset=".24" stop-color="#a8abf4"/><stop offset=".71" stop-color="#7a7fe0"/><stop offset="1" stop-color="#5a61d2"/></linearGradient><linearGradient id="f" x1="1857.4" y1="1628.02" x2="2128.4" y2="1784.48" gradientUnits="userSpaceOnUse"><stop offset="0" stop-color="#a4c8ff"/><stop offset=".05" stop-color="#99b9f3"/><stop offset=".2" stop-color="#7c90d4"/><stop offset=".35" stop-color="#646eba"/><stop offset=".5" stop-color="#5154a6"/><stop offset=".66" stop-color="#444297"/><stop offset=".82" stop-color="#3c378f"/><stop offset="1" stop-color="#39338c"/></linearGradient><linearGradient id="n" x1="1859.62" y1="1687.16" x2="2128.78" y2="1687.16" xlink:href="#a"/><linearGradient id="o" x1="1823.43" y1="1739.24" x2="2164.98" y2="1739.24" xlink:href="#a"/><linearGradient id="p" x1="2588.71" y1="1961.2" x2="2570.43" y2="1929.53" gradientTransform="matrix(-1 0 0 1 4670.61 0)" xlink:href="#a"/><linearGradient id="q" x1="2580.77" y1="1962.78" x2="2565.08" y2="1935.6" gradientTransform="matrix(-1 0 0 1 4670.61 0)" xlink:href="#a"/><linearGradient id="i" x1="2557.15" y1="1971.3" x2="2565.15" y2="1957.5" gradientTransform="matrix(-1 0 0 1 4670.61 0)" gradientUnits="userSpaceOnUse"><stop offset=".03" stop-color="#6b22c3"/><stop offset=".22" stop-color="#7146cd"/><stop offset=".63" stop-color="#80a1e7"/><stop offset="1" stop-color="#8ef5ff"/></linearGradient><linearGradient id="r" x1="2365.73" y1="2013.24" x2="2569.72" y2="2013.24" gradientTransform="matrix(-1 0 0 1 2941.34 -851.81)" xlink:href="#a"/><linearGradient id="s" x1="3388.6" y1="2093.42" x2="3342.85" y2="2014.18" xlink:href="#c"/><linearGradient id="t" x1="2961.91" y1="1927.01" x2="3303.48" y2="1927.01" xlink:href="#a"/><linearGradient id="u" x1="2961.91" y1="1866.11" x2="3303.48" y2="1866.11" xlink:href="#b"/><linearGradient id="v" x1="2961.91" y1="1866.11" x2="3303.48" y2="1866.11" xlink:href="#a"/><linearGradient id="w" x1="2961.91" y1="1796.93" x2="3303.48" y2="1796.93" xlink:href="#b"/><linearGradient id="x" x1="2966.01" y1="1764.05" x2="3299.39" y2="1764.05" xlink:href="#d"/><linearGradient id="y" x1="2961.91" y1="1758.48" x2="3303.48" y2="1758.48" xlink:href="#a"/><linearGradient id="z" x1="2995.9" y1="1606.06" x2="3266.9" y2="1762.52" xlink:href="#e"/><linearGradient id="A" x1="2995.9" y1="1606.06" x2="3266.9" y2="1762.52" xlink:href="#f"/><linearGradient id="B" x1="2998.12" y1="1665.2" x2="3267.27" y2="1665.2" xlink:href="#a"/><linearGradient id="C" x1="2961.92" y1="1717.28" x2="3303.47" y2="1717.28" xlink:href="#a"/><linearGradient id="h" x1="3061.6" y1="2535.62" x2="3290.43" y2="2772.07" gradientTransform="matrix(-1 0 0 1 5066.49 0)" gradientUnits="userSpaceOnUse"><stop offset="0" stop-color="#1917ee" stop-opacity=".1"/><stop offset="1" stop-color="#1917db" stop-opacity="0"/></linearGradient><linearGradient id="g" x1="3651.32" y1="2373.31" x2="3768.01" y2="2373.31" gradientTransform="matrix(-1 0 0 1 5753.24 0)" gradientUnits="userSpaceOnUse"><stop offset=".21" stop-color="#322b61"/><stop offset=".74" stop-color="#353043"/></linearGradient><linearGradient id="D" x1="1640.07" y1="2063.39" x2="1642.12" y2="2063.39" gradientTransform="translate(386.07)" gradientUnits="userSpaceOnUse"><stop offset="0" stop-color="#bcbec0"/><stop offset=".15" stop-color="#cfd0d2"/><stop offset=".33" stop-color="#dcddde"/><stop offset=".56" stop-color="#e4e5e6"/><stop offset="1" stop-color="#e6e7e8"/></linearGradient><linearGradient id="E" x1="2013.02" y1="1990.39" x2="2086.46" y2="1990.39" xlink:href="#g"/><linearGradient id="F" x1="3164.5" y1="2579.96" x2="3410.74" y2="2834.41" xlink:href="#h"/><linearGradient id="G" x1="2919.26" y1="2150.61" x2="3041.42" y2="2150.61" gradientUnits="userSpaceOnUse"><stop offset=".19" stop-color="#eece1b"/><stop offset="1" stop-color="#e17900"/></linearGradient><linearGradient id="H" x1="2659.04" y1="2252.26" x2="2859.83" y2="2083.31" gradientTransform="matrix(-1 0 0 1 5817.75 0)" gradientUnits="userSpaceOnUse"><stop offset="0" stop-color="#e17900"/><stop offset=".81" stop-color="#ffce00"/></linearGradient><linearGradient id="I" x1="3226.74" y1="2194.24" x2="3100.08" y2="2199.91" gradientUnits="userSpaceOnUse"><stop offset=".19" stop-color="#ffce1b"/><stop offset="1" stop-color="#e17900"/></linearGradient><linearGradient id="J" x1="3046.48" y1="1944.25" x2="3028.2" y2="1912.58" xlink:href="#a"/><linearGradient id="K" x1="3038.55" y1="1945.84" x2="3022.86" y2="1918.65" xlink:href="#a"/><linearGradient id="L" x1="3014.92" y1="1954.35" x2="3022.92" y2="1940.56" xlink:href="#i"/><linearGradient id="M" x1="1094.23" y1="1144.48" x2="1298.22" y2="1144.48" xlink:href="#a"/><linearGradient id="N" x1="254.3" y1="1808.6" x2="1097.01" y2="1248.12" gradientUnits="userSpaceOnUse"><stop offset="0" stop-color="#1917db" stop-opacity="0"/><stop offset="1" stop-color="#1917ee" stop-opacity=".1"/></linearGradient><linearGradient id="O" x1="2241.9" y1="2207.62" x2="2884.17" y2="2207.62" xlink:href="#g"/><linearGradient id="P" x1="2242.62" y1="2031.64" x2="2884.28" y2="2031.64" xlink:href="#a"/><linearGradient id="Q" x1="1288.29" y1="1977.33" x2="2856.46" y2="1977.33" gradientTransform="matrix(-1 0 0 1 2779.2 -851.81)" xlink:href="#a"/><linearGradient id="R" x1="2538.48" y1="2350.59" x2="2569.67" y2="1158.65" gradientUnits="userSpaceOnUse"><stop offset="0" stop-color="#fffff8"/><stop offset=".13" stop-color="#ebf8f7" stop-opacity=".81"/><stop offset=".31" stop-color="#d3eff5" stop-opacity=".57"/><stop offset=".48" stop-color="#bee7f4" stop-opacity=".36"/><stop offset=".64" stop-color="#aee2f2" stop-opacity=".21"/><stop offset=".78" stop-color="#a2ddf2" stop-opacity=".09"/><stop offset=".91" stop-color="#9bdbf1" stop-opacity=".02"/><stop offset="1" stop-color="#99daf1" stop-opacity="0"/></linearGradient><linearGradient id="j" x1="2380.36" y1="2319.6" x2="2410.81" y2="1156.2" gradientUnits="userSpaceOnUse"><stop offset="0" stop-color="#f7fcf7" stop-opacity=".05"/><stop offset=".02" stop-color="#f8fcf7" stop-opacity=".06"/><stop offset=".2" stop-color="#fcfef8" stop-opacity=".14"/><stop offset=".37" stop-color="#fefff8" stop-opacity=".18"/><stop offset=".56" stop-color="#fffff8" stop-opacity=".2"/><stop offset="1" stop-color="#f6fcf7" stop-opacity="0"/></linearGradient><linearGradient id="S" x1="2566.23" y1="2350.41" x2="2597.32" y2="1162.58" xlink:href="#j"/><linearGradient id="T" x1="2714.13" y1="2146.17" x2="2744.74" y2="976.72" xlink:href="#j"/><linearGradient id="U" x1="2562.51" y1="1604.28" x2="2839.13" y2="1604.28" xlink:href="#a"/><linearGradient id="V" x1="2591.28" y1="2247.07" x2="2663.56" y2="2247.07" xlink:href="#a"/><linearGradient id="W" x1="2600.25" y1="2247.32" x2="2654.19" y2="2247.32" xlink:href="#a"/><linearGradient id="X" x1="2433.6" y1="2246.53" x2="2554" y2="2246.53" xlink:href="#a"/><linearGradient id="Y" x1="2665.28" y1="1632.35" x2="2665.28" y2="1632.35" xlink:href="#j"/><linearGradient id="Z" x1="2527.52" y1="1265.33" x2="2805.84" y2="1265.33" xlink:href="#a"/><linearGradient id="aa" x1="2479.33" y1="2533.46" x2="2703.43" y2="2533.46" xlink:href="#a"/><linearGradient id="ab" x1="2433.99" y1="2696.65" x2="2618.75" y2="2696.65" gradientUnits="userSpaceOnUse"><stop offset=".2" stop-color="#a9a7f3"/><stop offset=".41" stop-color="#b5b3f5"/></linearGradient><linearGradient id="ac" x1="2399.04" y1="2694.04" x2="2583.8" y2="2694.04" gradientUnits="userSpaceOnUse"><stop offset=".69" stop-color="#cac9fa"/><stop offset="1" stop-color="#d8d8fd"/></linearGradient><linearGradient id="ad" x1="2388.75" y1="1574.19" x2="2474.66" y2="1574.19" gradientTransform="matrix(1 -.38 -.05 1.02 91.95 877.62)" gradientUnits="userSpaceOnUse"><stop offset="0" stop-color="#7179f7"/><stop offset="1" stop-color="#abd8f0"/></linearGradient></defs><g data-name="Слой 1"><g opacity=".3"><path d="M1945.19 2086.14l-198.62-114.67c-23.26-13.43-23-35.67.5-49.58l201-118.79c23.53-13.91 61.59-14.3 84.85-.87l198.62 114.67c23.26 13.43 23 35.67-.5 49.58l-201 118.79c-23.53 13.91-61.6 14.3-84.85.87z" transform="translate(-1729.27 -851.81)" fill="url(#c)" style="fill:url(#replace-gradient-4_6)"/><path d="M2165 1888.07l-7.53-4.18-.71-.4c0 .14-.05.26-.07.4-1.61 8.63-8.59 15.43-16.94 19.77h-.06l-1.2.61h-.11c-.39.18-.78.37-1.17.54l-.16.07-1.13.49-.24.1-1.07.42-.29.11-1 .37-.38.13-.94.31-.45.14-.87.27-.51.14-.82.22-.62.16-.7.17-.72.16-.6.12-.88.17-.43.08-1.29.2-94.13 55-41.07 14.83-131.12-67.66 3-1.75c-11.2-5.23-17.24-17.21-23.3-28.13l-8.83 5.26-5.24 1.48v30.52c0 5.83 3.84 11.66 11.53 16.1l131.36 75.84c11.36 6.56 28 8.26 42.1 5.12l.64-.13c.28-.06.55-.15.82-.21a47.65 47.65 0 0012.23-4.78l131.35-75.84c7.57-4.36 11.41-10.08 11.53-15.82v-.76z" transform="translate(-1729.27 -851.81)" fill="url(#a)"/><path d="M1966.31 1980L1835 1904.17c-15.38-8.88-15.38-23.33 0-32.2l131.36-75.84c15.38-8.88 40.4-8.88 55.78 0l131.31 75.87c15.38 8.88 15.38 23.33 0 32.21L2022.1 1980c-15.38 8.89-40.41 8.89-55.79 0z" transform="translate(-1729.27 -851.81)" fill="url(#b)"/><path d="M1966.31 1980L1835 1904.17c-15.38-8.88-15.38-23.33 0-32.2l131.36-75.84c15.38-8.88 40.4-8.88 55.78 0l131.31 75.87c15.38 8.88 15.38 23.33 0 32.21L2022.1 1980c-15.38 8.89-40.41 8.89-55.79 0z" transform="translate(-1729.27 -851.81)" fill="url(#k)" opacity=".47"/></g><g opacity=".3"><path d="M435.73 996.84v-29.76l-8.24-4.58c-2.32 14-18.85 23.31-32.67 25.23l-94.13 55-41.07 14.83L128.5 989.9l3-1.75c-11.2-5.23-17.24-17.21-23.3-28.13l-8.83 5.26-5.24 1.48v30.52c0 5.83 3.84 11.66 11.53 16.1l131.36 75.84c15.38 8.88 40.41 8.88 55.79 0l131.35-75.84c7.57-4.36 11.41-10.08 11.53-15.81v-.77z" fill="#620df9"/><path d="M394.81 987.73l-94.13 55-35.75 12.91v40.24c10.1 0 20.21-2.22 27.9-6.66l131.35-75.84c7.57-4.36 11.41-10.08 11.53-15.81v-30.53l-7.53-4.18h-.78c-2.56 13.86-18.9 22.96-32.59 24.87z" fill="#620dec"/><path d="M1966.31 1910.83L1835 1835c-15.38-8.88-15.38-23.33 0-32.21l131.31-75.79c15.38-8.88 40.4-8.88 55.78 0l131.36 75.84c15.38 8.88 15.38 23.33 0 32.21l-131.35 75.83c-15.38 8.83-40.41 8.83-55.79-.05z" transform="translate(-1729.27 -851.81)" fill="url(#l)"/><path d="M237.04 1059.02l-131.31-75.83c-15.38-8.88-15.38-23.33 0-32.21l131.31-75.79c15.38-8.88 40.4-8.88 55.78 0l131.36 75.84c15.38 8.88 15.38 23.33 0 32.21l-131.35 75.83c-15.38 8.83-40.41 8.83-55.79-.05z" fill="#787aff"/></g><path d="M1994.2 1882.72c-9 0-17.92-2-24.76-5.92l-131.36-75.8c-6.81-3.94-10.57-9.25-10.57-15s3.76-11 10.57-15l131.36-75.83c13.65-7.89 35.86-7.89 49.52 0l131.36 75.84c6.82 3.93 10.57 9.24 10.57 15s-3.75 11-10.57 15L2019 1876.8c-6.86 3.95-15.83 5.92-24.8 5.92zm0-191.15c-8.55 0-17.1 1.88-23.61 5.64L1839.24 1773c-6.08 3.51-9.43 8.12-9.43 13s3.35 9.45 9.43 13l131.36 75.84c13 7.52 34.2 7.52 47.21 0l131.35-75.84c6.08-3.51 9.43-8.12 9.43-13s-3.35-9.45-9.43-13l-131.35-75.84c-6.51-3.71-15.06-5.59-23.61-5.59z" transform="translate(-1729.27 -851.81)" opacity=".42" fill="url(#d)"/><path d="M2165 1756.9v-45l-8.24-4.58c-2.32 14.05-18.85 23.3-32.67 25.23l-94.13 55-41.07 14.83-131.12-67.66 3-1.75c-11.2-5.23-17.24-17.21-23.3-28.13l-8.83 5.26-5.24 1.48v45.74c0 5.83 3.84 11.66 11.53 16.1l131.36 75.84c15.38 8.88 40.41 8.88 55.79 0l131.35-75.84c7.57-4.36 11.41-10.08 11.53-15.82v-.76z" transform="translate(-1729.27 -851.81)" fill="url(#m)" opacity=".47"/><path d="M2165 1716.92v-29.76l-8.24-4.58c-2.32 14.05-18.85 23.3-32.67 25.23l-94.13 55-41.07 14.83-131.13-67.64 3-1.75c-11.2-5.24-17.24-17.21-23.3-28.13l-8.83 5.26-5.24 1.47v30.53c0 5.83 3.84 11.66 11.53 16.1l131.36 75.84c15.38 8.88 40.41 8.88 55.79 0l131.35-75.84c7.57-4.37 11.41-10.08 11.53-15.82v-.77z" transform="translate(-1729.27 -851.81)" fill="url(#e)"/><path d="M2165 1716.92v-29.76l-8.24-4.58c-2.32 14.05-18.85 23.3-32.67 25.23l-94.13 55-41.07 14.83-131.13-67.64 3-1.75c-11.2-5.24-17.24-17.21-23.3-28.13l-8.83 5.26-5.24 1.47v30.53c0 5.83 3.84 11.66 11.53 16.1l131.36 75.84c15.38 8.88 40.41 8.88 55.79 0l131.35-75.84c7.57-4.37 11.41-10.08 11.53-15.82v-.77z" transform="translate(-1729.27 -851.81)" fill="url(#f)"/><path d="M394.81 856l-94.13 55-35.75 12.91v40.28c10.1 0 20.21-2.22 27.9-6.66l131.35-75.84c7.57-4.37 11.41-10.08 11.53-15.82v-30.53l-7.53-4.18h-.78c-2.56 13.83-18.9 22.93-32.59 24.84z" fill="#140d4c" opacity=".3"/><path d="M238.61 929.43l-131.36-75.84c-15.38-8.88-15.38-23.32 0-32.2l131.35-75.84c15.38-8.88 40.41-8.88 55.79 0l131.34 75.84c15.38 8.88 15.38 23.33 0 32.21l-131.36 75.83c-15.36 8.88-40.38 8.88-55.76 0z" fill="#5e67a2"/><path d="M1994.2 1765.33c-8.09 0-16.2-1.78-22.37-5.34l-102.62-59.26c-6.18-3.57-9.59-8.39-9.59-13.57s3.41-10 9.59-13.58l102.62-59.25c12.34-7.12 32.4-7.12 44.74 0l102.62 59.25c6.19 3.57 9.59 8.39 9.59 13.58s-3.4 10-9.58 13.58L2016.57 1760c-6.16 3.55-14.27 5.33-22.37 5.33zM1973 1758c11.7 6.76 30.73 6.76 42.43 0l102.57-59.25c5.44-3.14 8.44-7.26 8.44-11.59s-3-8.44-8.44-11.59l-102.62-59.24c-11.7-6.75-30.73-6.76-42.44 0l-102.61 59.25c-5.45 3.14-8.44 7.26-8.44 11.59s3 8.44 8.44 11.58z" transform="translate(-1729.27 -851.81)" opacity=".42" fill="url(#n)"/><path d="M2153.45 1703.26l-131.35 75.84c-15.38 8.88-40.41 8.88-55.79 0L1835 1703.26c-6.87-4-10.66-9-11.39-14.25-.9 6.44 2.89 13 11.39 18l131.36 75.84c15.38 8.88 40.41 8.88 55.79 0l131.3-75.85c8.51-4.91 12.3-11.52 11.4-18-.73 5.21-4.53 10.3-11.4 14.26z" transform="translate(-1729.27 -851.81)" fill="url(#o)"/><path d="M2078.59 1953.73c0 3.75 1.3 6.41 3.4 7.69l3.92 2.27c2.19 1.23.79-1.55 4.11-3.47 6.7-3.86 12.12-13.22 12.12-20.89 0-3.8 3.51-3.83 1.36-5.1l-4.33-2.33c-2.19-1.18-5.17-1-8.46.93-6.71 3.87-12.12 13.22-12.12 20.9z" transform="translate(-1729.27 -851.81)" fill="url(#p)"/><path d="M353.55 1104.29c0 7.68 5.42 10.77 12.11 6.91s12.12-13.22 12.12-20.9-5.43-10.77-12.12-6.91-12.11 13.22-12.11 20.9z" fill="#8794d8"/><path d="M2085.77 1955.56c0 3.22 1.11 5.5 2.91 6.6l5.87 3.5c1.88 1 .67-1.33 3.53-3 5.74-3.32 10.4-11.35 10.4-17.94 0-3.26 3-3.28 1.16-4.37l-6.22-3.55c-1.87-1-4.43-.82-7.25.81-5.75 3.33-10.4 11.39-10.4 17.95z" transform="translate(-1729.27 -851.81)" fill="url(#q)"/><path d="M362.62 1107.33c0 6.59 4.66 9.24 10.4 5.93s10.4-11.35 10.4-17.94-4.66-9.24-10.4-5.93-10.4 11.35-10.4 17.94z" fill="#8794d8"/><path d="M2097.39 1957.41c0 3.8 2.69 5.34 6 3.42a13.22 13.22 0 006-10.35c0-3.8-2.69-5.33-6-3.42a13.23 13.23 0 00-6 10.35z" transform="translate(-1729.27 -851.81)" fill="url(#i)"/><path fill="none" stroke-width="7" opacity=".49" stroke="url(#r)" d="M573.86 1219.28l-200.49-115.71"/><g opacity=".3"><path d="M3091.19 2072.62l-198.63-114.68c-23.25-13.42-23-35.66.51-49.57l201-118.79c23.54-13.91 61.6-14.3 84.86-.88l198.62 114.68c23.26 13.42 23 35.66-.5 49.57l-201 118.79c-23.54 13.91-61.61 14.31-84.86.88z" transform="translate(-1729.27 -851.81)" fill="url(#s)" style="fill:url(#replace-gradient-4_5)"/><path d="M3303.48 1866.11l-7.52-4.18-.71-.4c0 .14-.05.26-.08.4-1.6 8.63-8.59 15.43-16.94 19.77h-.05l-1.21.61-.1.05c-.39.18-.78.37-1.18.54l-.15.07-1.13.49-.25.1-1.06.42-.3.11-1 .37-.39.13-.93.31-.45.14-.88.27-.5.14-.82.22-.62.16-.7.17-.73.16-.59.12-.88.17-.43.08-1.3.2-94.12 55-41.08 14.83-131.12-67.56 3-1.75c-11.21-5.23-17.24-17.21-23.31-28.13l-8.82 5.26-5.25 1.48v30.52c0 5.83 3.85 11.66 11.54 16.1l131.36 75.84c11.36 6.56 28 8.26 42.09 5.12l.65-.13c.28-.06.54-.15.82-.21a47.58 47.58 0 0012.22-4.78l131.44-75.87c7.56-4.36 11.4-10.08 11.53-15.82v-.77z" transform="translate(-1729.27 -851.81)" fill="url(#t)"/><path d="M3104.81 1958.05l-131.36-75.84c-15.38-8.88-15.38-23.33 0-32.2l131.35-75.84c15.38-8.88 40.41-8.88 55.79 0L3292 1850c15.38 8.88 15.38 23.33 0 32.21l-131.36 75.83c-15.43 8.89-40.45 8.89-55.83.01z" transform="translate(-1729.27 -851.81)" fill="url(#u)"/><path d="M3104.81 1958.05l-131.36-75.84c-15.38-8.88-15.38-23.33 0-32.2l131.35-75.84c15.38-8.88 40.41-8.88 55.79 0L3292 1850c15.38 8.88 15.38 23.33 0 32.21l-131.36 75.83c-15.43 8.89-40.45 8.89-55.83.01z" transform="translate(-1729.27 -851.81)" fill="url(#v)" opacity=".47"/></g><g opacity=".3"><path d="M1574.21 974.88v-29.76l-8.23-4.58c-2.33 14.05-18.86 23.3-32.68 25.23l-94.12 55-41.08 14.83-131.11-67.66 3-1.75c-11.21-5.23-17.24-17.21-23.31-28.13l-8.82 5.26-5.25 1.48v30.52c0 5.83 3.85 11.66 11.54 16.1l131.36 75.84c15.38 8.88 40.4 8.88 55.78 0l131.44-75.8c7.56-4.36 11.4-10.08 11.53-15.81v-.77z" fill="#620df9"/><path d="M1533.3 965.77l-94.12 55-35.75 12.91v40.24c10.1 0 20.2-2.22 27.89-6.66l131.41-75.8c7.56-4.36 11.4-10.08 11.53-15.81v-30.53l-7.52-4.18h-.79c-2.62 13.82-18.96 22.92-32.65 24.83z" fill="#620dec"/><path d="M3104.81 1888.87L2973.45 1813c-15.38-8.88-15.38-23.33 0-32.21L3104.8 1705c15.38-8.88 40.41-8.88 55.79 0l131.41 75.83c15.38 8.88 15.38 23.33 0 32.21l-131.36 75.83c-15.43 8.88-40.45 8.88-55.83 0z" transform="translate(-1729.27 -851.81)" fill="url(#w)"/><path d="M1375.54 1037.06l-131.36-75.87c-15.38-8.88-15.38-23.33 0-32.21l131.35-75.79c15.38-8.88 40.41-8.88 55.79 0l131.41 75.83c15.38 8.88 15.38 23.33 0 32.21l-131.36 75.83c-15.43 8.88-40.45 8.88-55.83 0z" fill="#787aff"/></g><path d="M3132.7 1860.76c-9 0-17.93-2-24.76-5.92L2976.58 1779c-6.82-3.94-10.57-9.25-10.57-15s3.75-11 10.57-15l131.35-75.83c13.66-7.89 35.86-7.89 49.52 0l131.36 75.84c6.82 3.93 10.58 9.24 10.58 15s-3.76 11-10.58 15l-131.35 75.83c-6.83 3.95-15.79 5.92-24.76 5.92zm0-191.15c-8.54 0-17.09 1.88-23.6 5.64l-131.36 75.83c-6.07 3.51-9.42 8.12-9.42 13s3.35 9.45 9.42 13l131.36 75.84c13 7.52 34.2 7.52 47.21 0l131.35-75.92c6.08-3.51 9.43-8.12 9.43-13s-3.35-9.45-9.43-13l-131.36-75.84c-6.51-3.67-15.06-5.55-23.61-5.55z" transform="translate(-1729.27 -851.81)" opacity=".42" fill="url(#x)"/><path d="M3303.48 1734.94v-45l-8.23-4.58c-2.33 14-18.86 23.3-32.68 25.23l-94.12 55-41.08 14.83-131.11-67.66 3-1.75c-11.21-5.23-17.24-17.21-23.31-28.13l-8.82 5.26-5.25 1.48v45.74c0 5.83 3.85 11.66 11.54 16.1l131.36 75.84c15.38 8.88 40.4 8.88 55.78 0l131.44-75.78c7.56-4.36 11.4-10.08 11.53-15.82v-.76z" transform="translate(-1729.27 -851.81)" fill="url(#y)" opacity=".47"/><path d="M3303.48 1695v-29.8l-8.23-4.58c-2.33 14.05-18.86 23.3-32.68 25.23l-94.12 55-41.08 14.83-131.11-67.66 3-1.75c-11.21-5.24-17.24-17.21-23.31-28.13l-8.82 5.26-5.25 1.47v30.53c0 5.83 3.85 11.66 11.54 16.1l131.36 75.84c15.38 8.88 40.4 8.88 55.78 0l131.44-75.8c7.56-4.37 11.4-10.08 11.53-15.82v-.77z" transform="translate(-1729.27 -851.81)" fill="url(#z)"/><path d="M3303.48 1695v-29.8l-8.23-4.58c-2.33 14.05-18.86 23.3-32.68 25.23l-94.12 55-41.08 14.83-131.11-67.66 3-1.75c-11.21-5.24-17.24-17.21-23.31-28.13l-8.82 5.26-5.25 1.47v30.53c0 5.83 3.85 11.66 11.54 16.1l131.36 75.84c15.38 8.88 40.4 8.88 55.78 0l131.44-75.8c7.56-4.37 11.4-10.08 11.53-15.82v-.77z" transform="translate(-1729.27 -851.81)" fill="url(#A)"/><path d="M1533.3 834.04l-94.12 55-35.75 12.91v40.24c10.1 0 20.2-2.22 27.89-6.66l131.41-75.8c7.56-4.37 11.4-10.08 11.53-15.82v-30.52l-7.53-4.2h-.79c-2.61 13.84-18.95 22.94-32.64 24.85z" fill="#140d4c" opacity=".3"/><path d="M1375.54 905.33l-131.36-75.84c-15.38-8.88-15.38-23.33 0-32.21l131.35-75.83c15.38-8.88 40.41-8.88 55.79 0l131.41 75.84c15.38 8.88 15.38 23.32 0 32.2l-131.36 75.84c-15.43 8.86-40.45 8.86-55.83 0z" fill="#5e67a2"/><path d="M3132.7 1743.37c-8.1 0-16.2-1.78-22.37-5.34l-102.62-59.26c-6.19-3.57-9.59-8.39-9.59-13.57s3.4-10 9.59-13.58l102.61-59.25c12.34-7.12 32.41-7.12 44.75 0l102.62 59.25c6.18 3.57 9.58 8.39 9.58 13.58s-3.4 10-9.58 13.58L3155.07 1738c-6.17 3.59-14.27 5.37-22.37 5.37zm-21.22-7.34c11.7 6.76 30.74 6.76 42.44 0l102.62-59.24c5.44-3.14 8.43-7.26 8.43-11.59s-3-8.44-8.44-11.59l-102.62-59.24c-11.69-6.75-30.73-6.77-42.43 0l-102.62 59.25c-5.44 3.14-8.44 7.26-8.44 11.59s3 8.44 8.44 11.58z" transform="translate(-1729.27 -851.81)" opacity=".42" fill="url(#B)"/><path d="M3292 1681.3l-131.36 75.84c-15.38 8.88-40.4 8.88-55.78 0l-131.36-75.84c-6.87-4-10.67-9-11.4-14.25-.9 6.43 2.89 13 11.4 18l131.36 75.84c15.38 8.88 40.4 8.88 55.78 0L3292 1685c8.5-4.91 12.29-11.52 11.39-18-.78 5.25-4.57 10.34-11.39 14.3z" transform="translate(-1729.27 -851.81)" fill="url(#C)"/><path d="M2101.92 2554.43s.48 39.79-88.75 75.52-168.63 103.21-224.17 71.45-11.91-77.41 51.61-105.19 198.34-76.4 198.34-76.4z" transform="translate(-1729.27 -851.81)" fill="url(#h)"/><path d="M446.53 1376.91a33.4 33.4 0 014 .07c7.8.68 11 3 18.17 14.53 2.1 3.37 3.77 4.12 6.46 5.66l11.26 5c3.27 1.84 4.76 3.85 4.7 5.21-.24 5-17.38 5.11-18.89 5l-2.51-.26a28.92 28.92 0 01-19.54-12.17c-2.33-3.4-5-6.84-6.45-7.61l-11.75-6.07s6.29-9.18 14.55-9.36z" fill="#f8c4bd" fill-rule="evenodd"/><path d="M432.02 1386.27s4.06-7.5 10.41-11l7.74 1.68zM456.73 1378.32s12.08 3.51 18.29 8.23-.27 4.68-3.09 3.6a16.76 16.76 0 00-6.69-.63c-.32 0-8.51-11.2-8.51-11.2z" fill="#f8c4bd" fill-rule="evenodd"/><path d="M350.27 1246.1c3.8 25.59 9.83 57.36 11.21 71.24 2.37 24.26 10.95 32.61 10.95 32.61h.08c.72.55 7.35 5.75 15.91 12.48 4.44 3.51 9.44 7.41 14.4 11.28 13.58 10.61 27 21.11 29.1 22.67 4.44 3.3 10.92-1.14 19.19-10.42s4.78-14 4.78-14-56.81-52.93-58.58-55-14.66-76.76-21.76-100.08-21.24-12.92-27.17-7.87c-2.52 2.18-.94 17.91 1.89 37.09z" fill="#5e67a2"/><path d="M350.27 1246.1c3.8 25.59 9.83 57.36 11.21 71.24 2.37 24.26 10.95 32.61 10.95 32.61h.08c.72.55 7.35 5.75 15.91 12.48 4.44 3.51 9.44 7.41 14.4 11.28 2.71-7.82-23.42-12.76-22.41-75.45.57-34-8-75.42-8-75.42s-10.02 10.35-22.14 23.26z" style="mix-blend-mode:multiply" fill="#d1d3d4"/><path d="M382.93 1710.55c-1.46 2.11-4.63 3.7-10.27 4.35-25.56 3.09-37.29-12-38-12.93s-4.35-1.11-8-1-12-3.22-14.92-4.76-2.16-3.07-2.16-3.07l.52-3.3 4.26-27 30.19 2.29c-.47 7.25 10.14 16.17 19.55 20.67 7.24 3.48 23.9 17.39 18.83 24.75zM287.48 1736.24c0 8.34-.65 16.51-6.91 20.28a14.31 14.31 0 01-3 1.32h-.06c-9.07 2.73-17.75-4.44-20.74-11.44s0-38.92 0-38.92v-19.29l3.06.1 24.73.75s.16 7.62 0 15.24 2.92 22.44 2.92 31.96z" fill="#1e1a23"/><path d="M277.52 1757.84c-9.07 2.73-17.75-4.44-20.74-11.44s0-38.92 0-38.92v-18.15l3.61.39c0 6.37-3.33 19.71 3.51 21.3 6.48 1.5-4 3.3-5.25 17.1-1.51 16.36 3.48 26.37 12.06 28.63a28.29 28.29 0 004.11.65 10.66 10.66 0 012.7.44z" style="mix-blend-mode:multiply" fill="#a7a9ac"/><path d="M2092.36 2402c-1.61 17.81-15.23 96.39-18.33 114.79-.23 1.38-23.11 7.54-31-1.09a3.74 3.74 0 01-.73-2.36c.86-11.78 6.92-98.63 7.65-106.48.12-1.22.18-3.19.2-5.72.11-16.72-1.71-57.15-1.71-57.15-.45 1.77-5.13 31.13-10 62.87-4.6 30.19-21.32 119.63-23.9 136.92-.2 1.41-23.74 5.44-28.83-3.17a5.2 5.2 0 01-.47-2.52c.83-12.3 7.15-106.63 9.65-122.36 3-18.59.15-113.26.44-135.73s.88-57.45.88-57.45a15.63 15.63 0 0013.86 2.55c26.6-7.28 80.5-29.72 88.25-23.33 10.16 8.44-4.24 180.79-5.96 200.23z" transform="translate(-1729.27 -851.81)" fill="url(#g)"/><path d="M344.16 1392.87a99.15 99.15 0 01-11.15 3.72c-.83.26-1.71.46-2.59.7a86.39 86.39 0 01-21.07 2.83c-2.83 0-5.67-.1-8.4-.33-1.27-.06-2.54-.16-3.79-.29a137.37 137.37 0 01-28.34-6.22c-5.31-1.94-9-70-10.38-113.87-.05-1.46-.08-2.91-.13-4.34v-.16c-.6-20.18-.67-35.13-.1-36.14 7.93-14.63 42.74-30.47 42.74-30.47s49.28-17.18 62.53-2.75c8.56 9.33 9 58.36 7.86 101.55-.52 19.86 1.64 50.52 2.39 55.59 1.9 13.62-3 19.5-29.57 30.18z" fill="#cad2ff"/><path d="M2028.19 2065.91v-5a7.89 7.89 0 00-2 1z" transform="translate(-1729.27 -851.81)" fill="url(#D)"/><path d="M328.12 1205.55c1.9 3.9 4.29 4 4.53 4 0 0 16.59 40.81 18.64 59.28 1.56 13.93 5.23 43.24 5.67 57.72.1 4.44.23 10.22.36 16.82.7 34.5 1.61 91.41 6.08 94.3 5.31 3.46 20.26-7.51 17.17-42.56s-3.64-70.54-5-112.48c-1.53-48.07-1.09-79.42-15.88-82.86-11.6-2.7-25.72-.13-30.22 3.1-1.27.88-1.74 1.79-1.35 2.68z" fill="#5e67a2"/><path d="M328.12 1205.55c1.9 3.9 4.29 4 4.53 4 0 0 16.59 40.81 18.64 59.28 1.56 13.93 5.23 43.24 5.67 57.72.1 4.44.23 10.22.36 16.82 3.17-6.89 3.38-84 3.38-84l-6.24-4.42 3.9-10s-1.54-8.5-9.36-26.69a24.93 24.93 0 00-19.56-15.42c-1.24.91-1.71 1.82-1.32 2.71z" style="mix-blend-mode:multiply" fill="#bcbec0"/><path d="M332.59 1203.86l.06 10.4v3.38c-.88 3-3 11.2-16.48 7.07-9.1-2.78-17.6-10-17.6-10l.33-35.18z" fill="#f8c4bd"/><path d="M332.59 1203.86l.06 10.4c-15.42-3.85-27-9.88-33.21-20.78l-.52-14z" fill="#f2b19f"/><path d="M326.3 1125.75c-19.6-.23-30 7.38-30.42 36.4-.83-1-9.07-4.47-8.94 3.49.08 3.17 2.23 10.11 7.69 11.46.73 2.89 2.94 15.19 14 21.74 6.89 4.08 20.46 6.81 26.65 6.71 13.6-.24 16.57-12.9 18.44-37.37 2.41-31.82.79-42.12-27.42-42.43z" fill="#f8c4bd"/><path d="M2016.47 2013.39c-1.07-3.64-4.47-16.23-3.15-27 1.61-12.82 13.44-27.46 35.52-26.7s37.8 20 37.62 29-9.44 13.54-25.79 11.1c-14.07-2.13-15.34-4.71-19.09-1.64s-2.31 11-4.36 15.31-3.83 7.83-5.52 7.75c-3-.15-3.27-4.65-6.26-6.52-1.38-.84-6-2.79-8-1.1-.44.34-.82.41-.97-.2z" transform="translate(-1729.27 -851.81)" fill="url(#E)"/><path d="M328.04 1224.47l-5.64 20.51s-26.34-13.93-31.17-30l5.64-4.91a29.16 29.16 0 002 3.69c4.73 5.59 15.68 12.12 29.17 10.71z" fill="#fff"/><path d="M337.35 1237.99l-2.1 10.58s-1.69 2.08-5.72 1.3l-6.5-7.57 5-17.83z" fill="#e06fab"/><path d="M329.53 1249.87s4.26 102.18 2.62 116.82l11.83 14.38 11.75-18.88s-12.82-101.64-20.46-113.65z" fill="#e06fab"/><path d="M339.12 1226.58c-1-6.47-6.5-17-6.5-17l.05 3.43c.45 9.73-4.63 11.49-4.63 11.49l9.83 14.3c1.02-3.77 1.95-7.82 1.25-12.22z" fill="#fff"/><path d="M382.91 1710.57c-1.46 2.11-4.63 3.7-10.27 4.35-25.56 3.09-37.29-12-38-12.93s-4.35-1.11-8-1-12-3.22-14.92-4.76-2.16-3.07-2.16-3.07l.52-3.3c2.81 1.85 15.13 9.49 23.66 8.66-.08.04 24.13 22.25 49.17 12.05z" style="mix-blend-mode:multiply" fill="#a7a9ac"/><path d="M320.84 1549.34c.11-16.72-1.71-57.15-1.71-57.15l16.9-66.87z" style="mix-blend-mode:multiply" fill="#bcbec0"/><path d="M328.04 1381.1c-1.22 62.86-10.55 81.82-23.14 82.1a37.5 37.5 0 01-6.31-.67c-1.3-.24-2.73-.55-4.21-.89-.71-.15-1.43-.31-2.21-.52s-1.41-.36-2.13-.57c-.86-.23-1.74-.52-2.65-.73v-.05c-11.7-3.33-24.94-8.27-30.63-10.43-1.77-.7-2.81-1.09-2.81-1.09s11.91-49.27 13.47-76.85c.07-1.95.13-3.75.13-5.38 0-16.59-20.61-52.7-22.33-88.14-1-19.92 5.6-42.91 13.14-47.2 12-6.84 26.14-15.67 31.47-17.93a58.8 58.8 0 017.15-2.68l-.65 1.9c6 7 26.6 71.21 31 138.16.61 10.32.92 20.7.71 30.97z" fill="#5e67a2"/><path d="M298.56 1462.53a31.87 31.87 0 00-4.21-.89c-.71-.15-1.43-.31-2.21-.52s-1.41-.36-2.13-.57c-.86-.23-1.74-.52-2.65-.73v-.05c-11.7-3.33-24.94-8.27-30.63-10.43 3.61-20.9 9.62-57.69 10.66-77.94.07-1.95.13-3.75.13-5.38 0-16.59-10.09-64.59-11.81-100 6.19-.05 22.93 1.38 26.76 9.6 5.28 11.49.52 56.89 0 67.73-1.25 26.21-4.92 70.06-3 83.87 2.14 16.22 2.16 27.09 19.09 35.31z" style="mix-blend-mode:multiply" fill="#d1d3d4"/><path d="M265.14 1432.65a33.49 33.49 0 012 3.53c3.31 7.1 2.92 11-3.51 23-1.87 3.49-1.69 5.32-1.68 8.41l1.25 12.28c0 3.75-1 6-2.16 6.67-4.41 2.27-13.1-12.5-13.73-13.89l-1-2.31a28.93 28.93 0 01.79-23c1.78-3.72 3.41-7.78 3.37-9.39l-.6-13.21s11 .84 15.27 7.91z" fill="#f8c4bd" fill-rule="evenodd"/><path d="M249.8 1424.75s8.52-.23 14.72 3.53l2.41 7.55zM269.05 1442.19s3 12.22 2 19.95-4.19 2.1-4.66-.87a16.48 16.48 0 00-2.8-6.12c-.18-.27 5.46-12.96 5.46-12.96z" fill="#f8c4bd" fill-rule="evenodd"/><path d="M240.16 1325.33c0 47 3.75 94.71 4.86 104.56a4.09 4.09 0 002.86 3.31c4.27.93 12.95 2.13 19.95-1.49a4.86 4.86 0 002.23-4c0-13.13-.23-87.07 2.52-106.33 2.84-19.74 18.65-91.73-10.68-86.53-11.47 1.99-21.74 40.97-21.74 90.48z" fill="#fffffd"/><path d="M282.26 1269.76v.08c-.57 13.39-2.89 28.7-5.33 43.29-.6 3.43-1.07 6.37-1.41 8.63-.18 1.33-.33 2.81-.52 4.5-2 20.33-2 80.18-2 96.87a7.79 7.79 0 01-3.28 3.62 29 29 0 01-13.44 2.94 46.53 46.53 0 01-9.83-1.1 7.33 7.33 0 01-5.12-4.57c-1.48-14-4.16-58.81-4.16-98.69 0-43.22 7.12-92.19 22.8-95a26.49 26.49 0 016.32-.21c4.29 1.23 6.6 3.16 9.46 6.49 5.6 6.63 7.08 18.77 6.51 33.15z" fill="#5e67a2"/><path d="M292.14 1477.76c-.68-.15-1.41-.34-2.13-.57 2.39-.21 2.91.05 2.13.57z" style="mix-blend-mode:multiply" fill="#d1d3d4"/><path d="M303.94 1279.19l5.7-17.78h-7.65s-6.94-20.73-11-29.82c-3.3-7.33-1.92-15.78-1.27-18.85a58.8 58.8 0 017.15-2.68l-.65 1.9c6 7 26.6 71.21 31 138.16-5.16-21.44-23.28-70.93-23.28-70.93z" style="mix-blend-mode:multiply" fill="#bcbec0"/><path d="M3057.29 2611.61s28.95 37.12 118.18 72.84 168.63 103.21 224.21 71.45 11.91-77.4-51.61-105.19-244.72-92.37-244.72-92.37z" transform="translate(-1729.27 -851.81)" fill="url(#F)"/><path d="M1314.33 1399.34c-.63 5.95.28 15-.18 37.44-.32 15.83 1.8 43.48 3.46 67.22.69 9.83 2 18.52 2.92 26.17.64 5.56 3.06 11 3.87 16.45 6 40.66 13.76 77.62 18.37 126.78 1.07 11.3 2.26 17.11.26 28.34-.38 2.18-1.47 4.38-1.75 6.57-1.39 10.85-2.44 21.63-6.69 30.64-.61 1.31-1.57 4.77-2.33 6.2 0 0 9.71 3.38 10.89 3.55s16.84-4.19 16.84-4.19 5.83-26.13 5.74-27.64c-1-17.13 10.87-14 .32-26.95-1-1.62-.73-1.76-.72-3.68.13-16.94 3-41.52 5.17-63.51 6.18-62.83-4.31-58.32-6.66-88.34 4.32-36.14 13.07-87.45 12.15-131.92z" fill="#f2b19f" fill-rule="evenodd"/><path d="M1336.66 1734.19c-1.68 3.09-3.5 7.52-5 10.86a68.74 68.74 0 00-4 10.52 5 5 0 00.36 4.23c3.78 5.08 22.73-4.18 29.08-9.79 4.1-3.62 4.18-7.9 5.14-13.13 1.45-7.86 1.69-8.74 3.58-16.81l2.13 21.91 1.8 1.09a243.91 243.91 0 012.71-28.35c.55-3 1.49-6.51 1.62-8.19.78-9.92-4.13-14.8-8.64-17.59 1.66 6-2.71 15.84-4.7 28.19-2.08 12.93-9.24 27.06-14.87 28.26-2.37.5-7.61-2.46-10.46-4.08-1.08-.62.15-4.32 1.25-7.12z" fill="#404776" fill-rule="evenodd"/><path d="M1391.03 1380.41c6.42 20.87 19.22 40 21.73 56.36s1.16 32.12-2 56.76c-2.16 16.75-10.67 54.54-8.86 68.89 2.65 21 10.29 33.43 12.82 58 2 19.79-1.22 48.54-2.2 75.94-.37 10.42.52 10.57 3 20a71.07 71.07 0 011.77 9.78 146.37 146.37 0 01.69 29.65c-.33 4.18-1.88 6.19-2.28 11.91l-23.31 7.42c.54-4.95 1.24-12.52 1.55-20.87.28-7.47.21-15.55.19-23 0-10.62 1-17.29-.87-27.33-6.26-33.4-16-62.79-22.55-90.25-3.44-14.35-4.45-27.12-9.49-47.64a140.25 140.25 0 01-4.27-25.33c-1.33-22.83-5.7-50.23-5.84-73.66-18.86-27.35-31.12-40.78-36.23-55-1-9.27 2.26-20.45 2.26-20.45z" fill="#f8c4bd" fill-rule="evenodd"/><path d="M1413.29 1708.33c2 4.62 3.93 7 5 13.5s-.64 17.17.67 25.25l2.08 12.83c1.21 7.47 0 12.92-7.73 20.23-7 6.63-14.22 9.91-18.57 8.45-3.21-1.08-6.31-6.08-3.51-20.69 2.33-12.17 2.22-23.69 2.83-36.64.83 12.55 1.15 16.82-.27 29.4-.4 3.51-.61 9.19 3.51 9.24 17 .21 17.29-4.39 18-9.73 1.88-14.27 1.43-39.14-2.01-51.84z" fill="#404776" fill-rule="evenodd"/><path d="M1381.62 1420.71c-4.28-6.92-9.48-20.95-14.67-37.25-22.47 2.87-51.91 7-52.4 10.11l-.22 5.77c-.63 5.95-5.67 13.63-6.13 36s7 72.08 9.93 98.21c1.58 9.18 26.09 29.06 52.7 37.47l1.31.4c5.4-43.23 21.46-131.37 9.48-150.71z" fill="#4f537f"/><path d="M1406.97 1554.08c-1.28-6-2.3-12.69-1.43-19.66 6.66-53.52 11-73.05 7.22-97.64-2.51-16.38-15.31-35.5-21.73-56.37-3.17.48-12.74 1.6-24.08 3.05 5.19 16.3 10.39 30.33 14.67 37.25 12 19.34-4.08 107.49-9.48 150.73 21.2 6.27 38.72.9 34.83-17.36z" fill="#3f4572"/><path d="M1438.18 1270.93c-48.79 26.25-69.22-23.93-74.26-61.78-2.17-16.29-1.61-31.87 5.44-41.62 7.4-10.25 19.8-14.39 32-13.91 26.37 1 40.52 26.06 34.16 52.22-6.26 25.56-18.51 53.25 2.66 65.09z" fill="#2a345e" fill-rule="evenodd"/><path d="M1373.73 1168.66c13.32-6.85 32.42 8.55 26.19 29.5-2.09-11.06-8.55-23.31-26.19-29.5z" fill="#f3d75e" fill-rule="evenodd"/><path d="M1375.29 1166.86c-46.81-15.51-67.11 50.34-26.68 79.22 51.26 21.46 78.65-62 26.68-79.22z" fill="#404776" fill-rule="evenodd"/><path d="M1223.43 1317.87c16.11 4.55 38.12 20.28 53.45 23.75 4.83 1.09 12.4 3.21 16.2-.9 19.71-21.3-7.69-14.3-10-22.35-14-10.43-36-5.5-53.92-15.17a32.77 32.77 0 00-3.5-2.06c-7-3.51-11-3.22-23.2 2.92-3.57 1.79-5.4 1.56-8.51 1.47l-12.29-1.58c-3.77-.14-6.11.79-6.76 2-2.4 4.38 12.21 13.5 13.59 14.16l2.29 1.1a29.06 29.06 0 0023.13-.19c3.82-1.7 7.91-3.23 9.52-3.15z" fill="#f8c4bd" fill-rule="evenodd"/><path d="M3029.26 2194.41c14.52-13.54 35.12-33.23 42.49-48.78 4.79-10.11 5.68-38.49-9.77-42.08-5.17-3.25-13 17.88-18.32 26.42-9.57 15.41-16.66 24.63-27.89 38.87-11.93-7.74-28.39-8.51-43.88-12.35a15.3 15.3 0 00-7.13-.2 24.34 24.34 0 01-5.4-1.88c-1.75.48-7.57 10.53-6.57 16.45 1.23.35 4 1.19 5.26 1.64 1.83.65 2.86 2.4 4.67 3.38 6.17 3.32 33.88 17.1 47.67 20.21 5.25 1.19 13.71 3.92 17.84-.54z" transform="translate(-1729.27 -851.81)" fill-rule="evenodd" fill="url(#G)"/><path d="M1299.99 1342.6c4.81-4.49 10.29-9.65 15.73-15.11-11.43-10-10.38-27.76-3-38.56a99.37 99.37 0 0010.11-17.86 80.36 80.36 0 012.25-10.22 14.52 14.52 0 011.68-4c-2.36 3-3.75 8.83-7.63 17-6.62 14-16.68 22.18-17.49 38.66-.59 12.16-6.14 26.5-15.2 33 4.56.94 9.6 1.35 12.5-1.78z" style="mix-blend-mode:multiply" fill="#df9a75" fill-rule="evenodd" opacity=".35"/><path d="M3130 2210.65c-8.94 20.71 6.27 32.16.79 46.42l2.12 4.75c-16.33 11.72-75.15 17.5-89.78-5.74l-.31-11.59c-2.52-5.55-.86-19.57-.12-23.27 2.35-11.77 1.25-18 2.54-31.62.32-3.44 1-5.6 1.28-9.09-13-9.72-12.18-28.52-4.47-39.77a99.37 99.37 0 0010.11-17.86 81 81 0 012.25-10.23 17 17 0 012.72-5.58c3.71-5.3 9.71-5.93 22-3.12 24.29 5.57 49.3 18.18 60.46 30.07 8.12 8.65 7.8 18.24 3.14 39-3.06 13.31-8.22 27.12-12.73 37.63z" transform="translate(-1729.27 -851.81)" fill-rule="evenodd" fill="url(#H)"/><path d="M1400.87 1358.72c-8.95 20.7 5.89 32.53.41 46.79l-.69 4.85c-16.32 12.71-72.33 16.78-87-6.46l.31-10.11c0-.4 28.67 25.43 61.3 11.06 7.09-3.12 13.51-18.63 4.33-48.25-.87-2.82-11.27-3-26-13.86 10.87 4.61 31.37 10.93 32.39-16.74.45-12.37 2.27-21.67 8.6-30.27 3.07-4.17 21.07 17.7 18.33 28.19a263.43 263.43 0 01-11.98 34.8z" style="mix-blend-mode:multiply" fill="#df9a75" fill-rule="evenodd" opacity=".35"/><path d="M1338.61 1262.3c-1.79 5.89-2.39 35.24.14 47.92 10-12 46.71-30.2 42.26-40.47-5.06-11.69-39.28-17.7-42.4-7.45z" fill="#f8c4bd" fill-rule="evenodd"/><path d="M1372.13 1234.89a63.64 63.64 0 002.43 31.2c-8.76 8.11-24.33 4.66-27.95-2.68.77-4.75 1.66-9.12 2.17-14z" fill="#f8c4bd" fill-rule="evenodd"/><path d="M1372.13 1234.89a61.21 61.21 0 00-.78 15.1c-2.57 10.38-22 17.39-24 9.13.55-3.19 1.09-6.32 1.44-9.71z" fill="#f2b19f" fill-rule="evenodd"/><path d="M1372.6 1228.03c-2.82-.55-5 .73-6.75 2.87-1.41 1.73-2.6 4.15-4.75 5.08.15-3-1-6-2.25-8.74a70.61 70.61 0 00-5.81-9.71c-4.48-6.5-9.6-12.59-13.68-19.35-1.54-2.54-3.26-5.49-3.4-8.54a36.85 36.85 0 00-5.52 14 37.75 37.75 0 00-.33 7.36c.11 2.41.54 4.77-.26 7.11-1.38 4-3.47 7.67-3.55 12-.06 3.86 1.34 7.57 2.2 11.28 1 4.08 1.15 9.16 5 11.67 3.43 2.24 8.18 2.5 12.12 1.92a55.22 55.22 0 0012.82-3.78c2-.83 4.06-1.74 6-2.74a16.8 16.8 0 004.68-3.12 13.91 13.91 0 002.52-4.63c.19-.49.39-1 .6-1.46a5.25 5.25 0 011.33-1.57 10 10 0 002.12-3.09c1.04-2.5-.14-5.99-3.09-6.56z" fill="#f8c4bd" fill-rule="evenodd"/><path d="M1335.96 1189.64c3.67 16.3 25 28.64 25.14 46.34-5.82-18.4-26.47-30.99-25.14-46.34z" fill="#f2b19f" fill-rule="evenodd"/><path d="M3140.64 2133.92c19.13 8 35.49 45.44 52.87 67.78 3.43 4.41 3.51 8.78 1.69 12a33 33 0 01-3.42 6.14c-8.25 12.14-15 22.48-32.64 37.49a10.59 10.59 0 01-4.54 2.13c-1.11.92-2.66 2.57-3.84 3.53 1.46-1.89-7.32-11.35-11.3-10.72q1.54-1.9 3.13-4.1a5.87 5.87 0 011.19-3.76c7.37-10.67 14.51-24.88 23.63-34.87-15.47-12.49-24.73-21-37.47-36.56-17.94-21.79-3.89-45.15 10.7-39.06z" transform="translate(-1729.27 -851.81)" fill-rule="evenodd" fill="url(#I)"/><path d="M1217.79 1299.76c-.3-.88-1.63-1.33-6.51-3s-6.36-3.11-8.88-3.56-3.25 1.48-1.92 3.26 4.89 4.33 5.33 5a35 35 0 003 3.12zM1411.63 1400.62s-15.28 3.38-17.57 4.8-3.28 2.82-1.82 3.71 5 .62 7.29 0c0 0-6.73 5.18-8.57 7.76-2.1 2.94-.4 2.5-.4 2.5s6.94 6.87 9.28 9.34 4.29 4.42 4.29 4.42 5.11-7.24 7.5-10.78 9.86-11.16 9.86-11.16 2.24-8.97-9.86-10.59z" fill="#f8c4bd" fill-rule="evenodd"/><path d="M1410.19 1400.49a9.87 9.87 0 012.08.87c1.55.77 8.33 5 9.22 9.85l4.09-3.6s-6.13-9.43-12.26-11.22l-3.13 3.81" fill="#4f537f" fill-rule="evenodd"/><circle cx="1418.74" cy="1403.53" r="2.91" fill="#fff"/><path fill="#373f6b" fill-rule="evenodd" d="M1390.96 1416.88l17.16 16.27v3.91l-20.2-18.32 3.04-1.86z"/><path d="M3049.79 1936.78c0 3.75-1.3 6.41-3.4 7.7l-3.92 2.27c-2.19 1.22-.79-1.56-4.12-3.47-6.69-3.87-12.11-13.22-12.11-20.9 0-3.8-3.51-3.83-1.36-5.1l4.33-2.33c2.19-1.18 5.17-1 8.46.94 6.69 3.86 12.12 13.22 12.12 20.89z" transform="translate(-1729.27 -851.81)" fill="url(#J)"/><path d="M1316.29 1087.34c0 7.68-5.42 10.77-12.11 6.91s-12.12-13.22-12.12-20.9 5.42-10.77 12.12-6.9 12.11 13.21 12.11 20.89z" fill="#8794d8"/><path d="M3042.61 1938.62c0 3.21-1.11 5.49-2.92 6.6l-5.86 3.49c-1.88 1-.68-1.33-3.53-3-5.74-3.31-10.4-11.34-10.4-17.93 0-3.26-3-3.29-1.17-4.38l6.22-3.54c1.88-1 4.44-.83 7.26.8 5.79 3.34 10.4 11.34 10.4 17.96z" transform="translate(-1729.27 -851.81)" fill="url(#K)"/><path d="M1307.22 1090.38c0 6.59-4.66 9.25-10.4 5.93s-10.4-11.34-10.4-17.93 4.66-9.25 10.4-5.93 10.4 11.34 10.4 17.93z" fill="#8794d8"/><path d="M3031 1940.46c0 3.81-2.69 5.34-6 3.43a13.25 13.25 0 01-6-10.36c0-3.8 2.69-5.33 6-3.42a13.23 13.23 0 016 10.35z" transform="translate(-1729.27 -851.81)" fill="url(#L)"/><path fill="none" stroke-width="7" opacity=".49" stroke="url(#M)" d="M1095.98 1202.34l200.49-115.72"/><ellipse cx="817.28" cy="1434.16" rx="358.83" ry="205.8" fill="url(#N)"/><path d="M2883.53 2206.06l.64-108.49-65.13-.49c-58.55-44.47-151.56-73.22-256.31-73.22-101.75 0-192.42 27.13-251.2 69.45l-68.91-.51-.69 113.49V2211.15h.08c3.29 99.86 145.63 180.23 320.75 180.23s317.47-80.37 320.76-180.23v-.83c0-.9.06-1.8.06-2.7-.01-.52-.04-1.04-.05-1.56z" transform="translate(-1729.27 -851.81)" fill="url(#O)"/><ellipse cx="834.18" cy="1240.99" rx="320.83" ry="183.76" fill="#404776"/><ellipse cx="834.18" cy="1189.58" rx="290.21" ry="166.22" fill="#121212"/><path d="M2884.28 2028.74c0 101.49-140.43 189.57-317.62 189.57-146.75 0-324-42.93-324-189.57 0-101.49 143.64-183.77 320.83-183.77s320.79 82.28 320.79 183.77z" transform="translate(-1729.27 -851.81)" fill="url(#P)"/><ellipse cx="834.18" cy="1125.52" rx="290.21" ry="166.22" fill="url(#Q)"/><path d="M2342.09 851.81v1119.47c0 69.89 98.92 126.55 220.95 126.55S2784 2041.17 2784 1971.28V851.81z" transform="translate(-1729.27 -851.81)" fill="url(#R)"/><path d="M2372.35 851.81v1183.65c15.49 15.05 36.26 28.1 60.86 38.32v-1222z" transform="translate(-1729.27 -851.81)" fill="url(#j)"/><path d="M2557.74 851.81v1246h5.06a378.2 378.2 0 0057.87-4.39V851.81z" transform="translate(-1729.27 -851.81)" fill="url(#S)"/><path d="M2682.94 851.81V2077.5c60.67-22.56 100.81-61.7 100.81-106.22V851.81z" transform="translate(-1729.27 -851.81)" fill="url(#T)"/><path d="M635.15 685.96l115.75-63.21c2.5-1.38 13.47 2.11 13.47 4.88l-8.92 123.61a9.51 9.51 0 01-4.55 7.51c-35.56 19.22-64.29 39.77-102.62 60.89-1.1.6-3.2 7.91-5 7.13-2.5 1.37-12.71-4.54-12.71-7.31v-126a9.47 9.47 0 014.58-7.5z" fill="#404776"/><path d="M645.73 690.56l115.74-63.22c2.51-1.37 4.55-.26 4.55 2.5v126a9.51 9.51 0 01-4.55 7.51q-53.33 28.83-110.83 60.5l-4.91 2.71c-2.51 1.38-4.54.27-4.54-2.5v-126a9.46 9.46 0 014.54-7.5zM909.93 711.47l115.8-63.21c2.5-1.38 13.47 2.11 13.47 4.88l-8.92 123.61a9.49 9.49 0 01-4.55 7.51c-35.56 19.22-64.29 39.77-102.63 60.89-1.09.6-3.19 7.92-4.94 7.13-2.5 1.37-12.72-4.54-12.72-7.3v-126a9.48 9.48 0 014.49-7.51z" fill="#5e67a2"/><path d="M2649.8 1567.88l115.75-63.21c2.5-1.38 4.55-.27 4.55 2.5v126a9.51 9.51 0 01-4.55 7.51q-53.33 28.83-110.83 60.51l-4.92 2.7c-2.5 1.38-4.53.27-4.53-2.49v-126a9.47 9.47 0 014.53-7.52z" transform="translate(-1729.27 -851.81)" fill="url(#U)"/><path d="M1024.06 1357.92s17.4-4.91 50.24-27.86" fill="none" stroke="#628fec" stroke-linecap="round" stroke-miterlimit="10" stroke-width="12"/><circle cx="1000.34" cy="1367.89" r="6.52" fill="#628fec"/><circle cx="979.82" cy="1374.42" r="6.52" fill="#f3d75e"/><circle cx="959.51" cy="1380.94" r="6.52" fill="#e06fab"/><path d="M2662.66 2239.77l.08.22a12.69 12.69 0 01-8.19 16.61 136 136 0 01-51.91 5.44 12.66 12.66 0 01-11.26-14.13 12.7 12.7 0 0112.65-11.2c10.62 0 27.32-.74 43.74-4.82a12.68 12.68 0 0114.89 7.88z" transform="translate(-1729.27 -851.81)" fill="url(#V)" opacity=".42"/><path d="M2601.75 2249.33s20.25 3.44 50.94-4.73" transform="translate(-1729.27 -851.81)" fill="none" stroke-linecap="round" stroke-miterlimit="10" stroke-width="3" stroke="url(#W)"/><circle cx="656.75" cy="1366.5" r="6.52" fill="#e06fab"/><circle cx="676.59" cy="1373.76" r="6.52" fill="#f3d75e"/><circle cx="636.56" cy="1357.92" r="6.52" fill="#628fec"/><path d="M2435.1 2239.27s9.34-14.44 24.32-6.39c11.9 6.39 10.61 21.11 27.67 25.37 17.81 4.45 26-14.73 41.93-14.15s23.48 18.52 23.48 18.52" transform="translate(-1729.27 -851.81)" fill="none" stroke-linecap="round" stroke-miterlimit="10" stroke-width="3" stroke="url(#X)"/><circle cx="822.28" cy="1408.86" r="4.99" fill="#e06fab"/><path fill="none" stroke="#fff" stroke-miterlimit="10" stroke-width="2" d="M933.9 734.5v86.88l90.66-51.56"/><path fill="#fff" d="M930.51 738.48l3.39-3.39 3.4 3.39v-2.88l-3.4-3.39-3.39 3.39v2.88zM1022.77 774.73l1.27-4.62-4.62-1.27 2.5-1.42 4.62 1.27-1.27 4.62-2.5 1.42z"/><path fill="none" stroke="#ffff6f" stroke-miterlimit="10" stroke-width="2" d="M934.9 819.21l15.05-45.83 22.32 16.58 21.38-41.44 10.92 10.18 14.34-42.66"/><path fill="#ffff6f" d="M1020.85 720.89l-2.13-4.29-4.29 2.13.91-2.73 4.3-2.13 2.13 4.29-.92 2.73z"/><path d="M792.18 372.53l115.75-63.22c2.5-1.37 13.47 2.12 13.47 4.88l-8.92 123.61a9.51 9.51 0 01-4.55 7.52c-35.55 19.22-64.29 39.77-102.62 60.88-1.09.6-3.19 7.92-4.95 7.13-2.5 1.38-12.71-4.53-12.71-7.3v-126a9.47 9.47 0 014.53-7.5z" fill="#5e67a2"/><path d="M2532.06 1228.93l115.75-63.21c2.5-1.37 4.55-.26 4.55 2.5v126a9.51 9.51 0 01-4.55 7.52q-53.34 28.82-110.84 60.5l-4.91 2.71c-2.51 1.37-4.54.26-4.54-2.5v-126a9.49 9.49 0 014.54-7.52z" transform="translate(-1729.27 -851.81)" fill="url(#Z)"/><path d="M614.07 1132.98a55.91 55.91 0 002.1 8 83.59 83.59 0 003 7.74 106.91 106.91 0 007.86 14.61 128.1 128.1 0 0021.43 25.19c16.3 15 35.86 26.05 56.38 34.14a303.53 303.53 0 0064 16.85 476.44 476.44 0 0066.11 5.38l8.3.08h4.12l4.14-.17c5.51-.29 11-.73 16.53-1.27q16.5-1.65 32.85-4.6a332.29 332.29 0 0063.78-17.87 213.81 213.81 0 0029.75-14.56 153.62 153.62 0 0026.54-19.73 115.39 115.39 0 0020.83-25.65 105.4 105.4 0 0012.11-30.78 105.6 105.6 0 01-11.69 31 116 116 0 01-20.58 26.11 153.65 153.65 0 01-26.56 20.1 215 215 0 01-29.82 14.91 280.45 280.45 0 01-31.55 10.76c-10.7 3-21.55 5.46-32.48 7.47s-21.94 3.58-33 4.71c-5.53.56-11.07 1-16.62 1.32l-4.18.19c-1.39.06-2.81 0-4.19 0l-8.32-.06a479 479 0 01-66.37-5.58c-21.92-3.52-43.66-8.87-64.29-17.23s-40.21-19.61-56.48-34.85a128.28 128.28 0 01-21.18-25.64 107.13 107.13 0 01-7.67-14.77 73.23 73.23 0 01-4.85-15.8z" fill="#fff"/><circle cx="862.59" cy="1518.46" r="13.17" fill="#8794d8"/><circle cx="862.59" cy="1518.46" r="9.89" fill="#5e67a2"/><path d="M2591.86 2370.27c7.76 12.17 77.71 176.29 105.78 233.37a22.16 22.16 0 01-13.37 31l-201.44 62.05" transform="translate(-1729.27 -851.81)" fill="none" stroke-linecap="round" stroke-linejoin="round" stroke-width="7" opacity=".61" stroke="url(#aa)"/><path d="M2600.06 2717.3c13.16 13 20.69 33.94 18.23 52.06-3 22.19-36 35.46-67 17.93l-82-60.51c-23-13.28-38.63-47.14-34.77-75.41 3.81-28.1 25.62-40.65 48.35-27.5 1.61.92-16.62-14.45-15-13.26 13-22.14 57.08-11.39 81.46 2.69 32.02 18.46 54.04 64.32 50.73 104z" transform="translate(-1729.27 -851.81)" fill="url(#ab)"/><path d="M2565.1 2711.07c13.17 13 20.7 33.94 18.23 52.06-3 22.19-20.17 31.78-38.23 21.34l-110.71-63.92c-23-13.28-38.62-47.14-34.77-75.41 3.82-28.1 25.62-40.64 48.36-27.5a50.76 50.76 0 014.85 3.17c13-22.14 37.21-27.82 61.6-13.73 31.96 18.45 53.98 64.31 50.67 103.99z" transform="translate(-1729.27 -851.81)" fill="url(#ac)"/><path d="M2455.54 1553.27a94.15 94.15 0 002.52-9.67c2-9.91.87-15.53-3.19-16.25-1.73-.3-4.8.23-9.6 4.51l.83 1.45-.83-1.45a79.76 79.76 0 00-11.14 13.08c-6.8-5.53-14-7.49-19.6-2.53s-6.45 14.26-4.43 24.16a68.07 68.07 0 00-13.5 9c-4.92 4.39-6.33 7.89-6.64 10.07-1.06 7.23 7.62 9.7 19.54 9a94.15 94.15 0 00-2.52 9.67c-2 9.91-.87 15.53 3.19 16.25 1.73.31 4.8-.23 9.6-4.51a79.34 79.34 0 0011.14-13.08c6.8 5.53 14 7.49 19.6 2.53s6.45-14.26 4.43-24.16a68.07 68.07 0 0013.5-9c4.92-4.38 6.33-7.89 6.64-10.06 1.06-7.28-7.62-9.76-19.54-9.01zm-9.45-20c3.11-2.77 5.79-4.17 7.75-3.82 4.45.79 4.07 10.36-.17 23.92a97.32 97.32 0 00-10.35 1.52 54.49 54.49 0 00-8-9 76.58 76.58 0 0110.77-12.58zm-1.51 42.74a212.1 212.1 0 01-5.08 9.89c-3 1-6 2-9.16 2.87q-3.77 1-7.31 1.77-1.72-2.46-3.33-5.25t-2.86-5.57a198.768 198.768 0 018.71-17.9c3-1 6-2 9.15-2.87q3.77-1 7.31-1.77 1.72 2.46 3.33 5.25t2.86 5.57q-1.66 4-3.62 8.05zm4.55-5.92a66.1 66.1 0 013.43 10.33c-3.33 1.64-6.94 3.21-10.75 4.64 1.53-2.84 3-5.76 4.46-8.75 1.01-2.05 1.96-4.13 2.86-6.18zm-11 18.28c-2.33 4.11-4.71 7.94-7 11.4a51.48 51.48 0 01-6.78-7.47q2.86-.64 5.75-1.43c2.67-.71 5.38-1.55 8.02-2.46zm-17.64 2.68c-3 .55-5.79.93-8.41 1.16 1-3 2.2-6.26 3.57-9.62.71 1.47 1.47 2.91 2.26 4.31s1.67 2.85 2.57 4.19zm-4.57-13.41a65.76 65.76 0 01-3.43-10.33c3.33-1.64 6.94-3.21 10.75-4.64-1.53 2.84-3 5.76-4.46 8.75-1.01 2.13-1.97 4.21-2.87 6.26zm11-18.28c2.33-4.11 4.71-7.94 7-11.4a51.48 51.48 0 016.78 7.47q-2.86.65-5.75 1.43c-2.68.79-5.39 1.63-8.03 2.54zm17.64-2.68c3-.55 5.79-.93 8.41-1.16-1 3-2.2 6.27-3.57 9.62-.71-1.47-1.47-2.91-2.26-4.31s-1.68-2.76-2.58-4.11zm-29.2-12.86c4.25-3.79 10.78-2.29 17.38 3.1-2.73 4-5.48 8.49-8.15 13.27a125.08 125.08 0 00-12.51 5.33c-1.97-9.52-1-17.85 3.28-21.66zm-23.45 41.19c.36-2.47 2.33-5.24 5.52-8.08a64.85 64.85 0 0113.07-8.62 69.23 69.23 0 004.17 12.2c-1.72 4.1-3.23 8.08-4.47 11.85-11.68.76-19.09-1.82-18.29-7.31zm27 29.45c-3.11 2.77-5.79 4.17-7.75 3.82-4.45-.79-4.07-10.36.17-23.92a97.32 97.32 0 0010.35-1.52 54.49 54.49 0 008 8.95 76.58 76.58 0 01-10.68 12.71zm30.73-10.55c-4.25 3.79-10.78 2.29-17.38-3.09 2.74-4 5.48-8.5 8.15-13.28a125.08 125.08 0 0012.51-5.33c2.02 9.65 1.08 17.93-3.24 21.79zm23.45-41.19c-.36 2.47-2.33 5.24-5.52 8.08a64.85 64.85 0 01-13.07 8.62 69.23 69.23 0 00-4.17-12.2c1.73-4.1 3.23-8.08 4.48-11.84 11.71-.69 19.12 1.89 18.32 7.38z" transform="translate(-1729.27 -851.81)" fill="url(#ad)"/><path d="M729.79 692.62c-1.92 1.72-4.2 1.86-5.09.31s0-4.2 1.89-5.92 4.2-1.85 5.09-.3.05 4.2-1.89 5.91z" fill="#c78fea"/><ellipse cx="2409.71" cy="1555.52" rx="5.37" ry="3.5" transform="rotate(-51.24 657.016 2932.646)" fill="#efbe18"/><path d="M674.79 744.94c-2.17 1.94-4.75 2.09-5.74.35s-.05-4.75 2.12-6.68 4.75-2.09 5.75-.34.04 4.74-2.13 6.67z" fill="#9ecbd7"/><path d="M682.17 700.51c.83.21 1.24.87.93 1.47a1.9 1.9 0 01-2.08.73c-.83-.21-1.24-.87-.92-1.47a1.88 1.88 0 012.07-.73zM730.15 686.42c.83.2 1.24.86.92 1.47a1.89 1.89 0 01-2.07.72c-.83-.2-1.24-.86-.93-1.47a1.88 1.88 0 012.08-.72zM674.73 738.26c.83.2 1.24.86.92 1.47a1.88 1.88 0 01-2.07.73c-.83-.21-1.24-.87-.92-1.48a1.88 1.88 0 012.07-.72z" fill="#fff"/><path d="M876.73 372.69c-5-4.24-11.44-5-18.08-2.15-12.48 5.33-22.12 22.4-21.93 38.86.12 10.12 4 18.47 10.28 22.36 3.11 1.92 5.06 6.18 5.22 11.39l.05 1.35a7.26 7.26 0 00-2.7 5.87v.74c.09 2.78 1.89 4.4 4 3.62l.66-.24a7.55 7.55 0 00-.18 1.77v.73c.09 2.79 1.89 4.41 4 3.63l9.1-3.31c2.14-.78 3.79-3.65 3.7-6.44v-.73a5.62 5.62 0 00-.29-1.6l.66-.24c2.13-.77 3.79-3.65 3.7-6.43v-.74c-.07-2.31-1.34-3.81-3-3.79v-1.35a26.33 26.33 0 014.73-15.38 47.57 47.57 0 008.31-27.88c-.23-8.68-3.23-15.79-8.23-20.04zm-8.37 79.1a2.3 2.3 0 01-1.23 2.15l-9.1 3.31c-.71.25-1.32-.29-1.34-1.21v-.74a2.27 2.27 0 011.23-2.14l9.1-3.32c.73-.26 1.32.29 1.34 1.21zm4-9.72v.73a2.28 2.28 0 01-1.23 2.15l-4.28 1.56-9.1 3.31-4.29 1.56c-.7.26-1.31-.29-1.34-1.21v-.74a2.27 2.27 0 011.23-2.14l17.67-6.43c.71-.26 1.36.33 1.39 1.21zm-15.14-22.15l-2.64 1c-1.07.39-2-.42-2-1.81v-.92a3.41 3.41 0 011.85-3.22l.71-.26c1.06-.38 2 .43 2 1.82zm3.29 21.37l-.61-19 3.14-1.14.61 19-3.14 1.14zm14.41-22.72a31.32 31.32 0 00-5.6 18.35v1.15l-3.14 1.14-.61-19 2.64-1c2.47-.91 4.41-4.28 4.31-7.52v-.92c-.1-3.23-2.21-5.13-4.69-4.23l-.71.26c-2.48.9-4.42 4.28-4.31 7.51l.11 3.44-3.14 1.14-.11-3.44c-.1-3.23-2.21-5.13-4.69-4.23l-.71.25c-2.48.91-4.42 4.28-4.31 7.52v.92c.1 3.23 2.21 5.13 4.69 4.23l2.63-1 .62 19-3.14 1.15v-1.15c-.2-6.26-2.57-11.36-6.33-13.67-5.63-3.48-9.07-10.95-9.18-20-.17-14.7 8.43-29.94 19.58-34.7 5.94-2.53 11.69-1.85 16.16 1.93s7.07 10.13 7.32 17.88a42.17 42.17 0 01-7.34 24.99zm-9.42-1.66l-.11-3.44a3.41 3.41 0 011.85-3.22l.71-.25c1.06-.39 2 .42 2 1.81v.92a3.43 3.43 0 01-1.85 3.22zM858.08 355.48l2.58-.93.3 9.28-2.58.94-.3-9.29zM836.22 372.89l5.25 4.73-1.74 3.04-5.25-4.74 1.74-3.03zM880.19 365.94l-1.9-1.71 4.83-8.4 1.89 1.71-4.82 8.4zM823.96 408.99l7.13-2.6.1 3.36-7.12 2.59-.11-3.35zM890.27 384.86l7.12-2.6.11 3.36-7.12 2.59-.11-3.35z" fill="#f3d75e"/></g></svg>