<svg xmlns="http://www.w3.org/2000/svg" xmlns:xlink="http://www.w3.org/1999/xlink" viewBox="0 0 1773.82 2018"><defs><linearGradient id="g" x1="1033.03" y1="1557.18" x2="1586.94" y2="1305.98" gradientUnits="userSpaceOnUse"><stop offset=".58" stop-opacity=".1"/><stop offset="1" stop-color="#1500d9" stop-opacity="0"/></linearGradient><linearGradient id="d" x1="3642.25" y1="1274.47" x2="3936.3" y2="1274.47" gradientTransform="matrix(-1 0 0 1 6938.9 0)" gradientUnits="userSpaceOnUse"><stop offset="0" stop-color="#859df1"/><stop offset="1" stop-color="#7179f5"/></linearGradient><linearGradient id="j" x1="2658.53" y1="1173.76" x2="2650.5" y2="1274.89" gradientTransform="rotate(88.07 2657.078 1192.895)" gradientUnits="userSpaceOnUse"><stop offset=".19" stop-color="#726dff"/><stop offset=".2" stop-color="#736eff"/><stop offset=".38" stop-color="#a190e9"/><stop offset=".56" stop-color="#c4acd9"/><stop offset=".73" stop-color="#debfcd"/><stop offset=".88" stop-color="#eecbc6"/><stop offset="1" stop-color="#f3cfc3"/></linearGradient><linearGradient id="k" x1="2657.64" y1="1155.1" x2="2639.9" y2="1319.71" gradientTransform="rotate(88.07 2658.64 1146.4)" gradientUnits="userSpaceOnUse"><stop offset=".01" stop-color="#626af4"/><stop offset=".47" stop-color="#c27ae2"/></linearGradient><linearGradient id="l" x1="2656.57" y1="1086.1" x2="2672.21" y2="1250.93" gradientUnits="userSpaceOnUse"><stop offset=".37" stop-color="#8483f6"/><stop offset=".64" stop-color="#efd58a"/></linearGradient><linearGradient id="m" x1="2547.78" y1="899.77" x2="2818.7" y2="1031.68" gradientUnits="userSpaceOnUse"><stop offset=".31" stop-color="#ece270"/><stop offset=".82" stop-color="#f2cc00"/></linearGradient><linearGradient id="a" x1="2724.43" y1="870.97" x2="2724.43" y2="1013.37" gradientUnits="userSpaceOnUse"><stop offset="0" stop-color="#fff" stop-opacity="0"/><stop offset="1" stop-color="#decb7c"/></linearGradient><linearGradient id="n" x1="2654.32" y1="952.66" x2="2483.17" y2="869.25" gradientUnits="userSpaceOnUse"><stop offset="0" stop-color="#fff" stop-opacity="0"/><stop offset="1" stop-color="#fff"/></linearGradient><linearGradient id="o" x1="2664.5" y1="884.28" x2="2664.5" y2="959.66" xlink:href="#a"/><linearGradient id="b" x1="2424.61" y1="1214.53" x2="2480" y2="1214.53" gradientUnits="userSpaceOnUse"><stop offset=".21" stop-color="#332d61"/><stop offset=".74" stop-color="#373345"/></linearGradient><linearGradient id="q" x1="911.93" y1="629.5" x2="1228.34" y2="629.5" xlink:href="#b"/><linearGradient id="r" x1="2416.39" y1="1794.71" x2="2805.01" y2="1794.71" xlink:href="#b"/><linearGradient id="s" x1="2406.65" y1="1794.71" x2="2814.75" y2="1794.71" xlink:href="#b"/><linearGradient id="t" x1="2761.57" y1="1877.82" x2="2832.17" y2="1877.82" xlink:href="#b"/><linearGradient id="c" x1="3203.11" y1="1754.13" x2="3494.92" y2="1754.13" gradientTransform="matrix(-1 0 0 1 4131.44 -675)" gradientUnits="userSpaceOnUse"><stop offset="0" stop-color="#7179f7"/><stop offset="1" stop-color="#abd8f0"/></linearGradient><linearGradient id="u" x1="3360.69" y1="1607.11" x2="3593.28" y2="1657.75" gradientTransform="matrix(-1 0 0 1 5682.1 0)" xlink:href="#c"/><linearGradient id="v" x1="2941.73" y1="1840.08" x2="2692.02" y2="1645.33" gradientTransform="matrix(-1 0 0 1 5682.1 0)" xlink:href="#c"/><linearGradient id="x" x1="2904.48" y1="1507.98" x2="3407.77" y2="1839.81" gradientTransform="matrix(-1 0 0 1 5682.1 0)" xlink:href="#c"/><linearGradient id="y" x1="3046.69" y1="1632.98" x2="3244.53" y2="1632.98" gradientTransform="matrix(-1 0 0 1 5682.1 0)" gradientUnits="userSpaceOnUse"><stop offset=".53" stop-color="#fff"/><stop offset="1" stop-color="#ecf1fb" stop-opacity=".59"/></linearGradient><linearGradient id="z" x1="3556.83" y1="1490.04" x2="3856.31" y2="1490.04" gradientTransform="scale(-1 1) rotate(58 10.294 -4039.995)" xlink:href="#c"/><linearGradient id="A" x1="3873.65" y1="1533.69" x2="4005.59" y2="1246.58" gradientTransform="scale(-1 1) rotate(58 10.294 -4039.995)" xlink:href="#c"/><linearGradient id="C" x1="3614.43" y1="1730.96" x2="3900.17" y2="1730.96" xlink:href="#d"/><linearGradient id="D" x1="3328.07" y1="1626.42" x2="3093.84" y2="1790.08" xlink:href="#c"/><linearGradient id="E" x1="1550.65" y1="1320.17" x2="2012.3" y2="1320.17" xlink:href="#c"/><linearGradient id="G" x1="1626.98" y1="1757.4" x2="1952.3" y2="1757.4" xlink:href="#d"/><linearGradient id="H" x1="1640.8" y1="1526.42" x2="1826.19" y2="1793.75" xlink:href="#c"/><linearGradient id="I" x1="2243.65" y1="1433.82" x2="2243.65" y2="1433.82" xlink:href="#c"/><linearGradient id="J" x1="2007" y1="1206" x2="2007" y2="1206" xlink:href="#c"/><linearGradient id="e" x1="3193.09" y1="1472.64" x2="3200.41" y2="1475.95" gradientTransform="matrix(1 -.07 -.07 -1 -844.55 3086.76)" gradientUnits="userSpaceOnUse"><stop offset="0" stop-color="#7179f7"/><stop offset=".31" stop-color="#8397f5"/></linearGradient><linearGradient id="K" x1="3184.88" y1="1496.1" x2="3190.7" y2="1498.4" xlink:href="#e"/><linearGradient id="L" x1="3179.45" y1="1521.16" x2="3185.07" y2="1522.06" xlink:href="#e"/><linearGradient id="M" x1="3160.07" y1="1481.53" x2="3166.19" y2="1484.14" xlink:href="#e"/><linearGradient id="N" x1="3156.79" y1="1507.84" x2="3161.1" y2="1508.64" xlink:href="#e"/><linearGradient id="O" x1="3168.08" y1="1454.02" x2="3175.61" y2="1458.34" xlink:href="#e"/><linearGradient id="P" x1="3179.99" y1="1463.47" x2="3188.51" y2="1468.28" xlink:href="#e"/><linearGradient id="Q" x1="3171.85" y1="1488.9" x2="3178.48" y2="1492.01" xlink:href="#e"/><linearGradient id="R" x1="3165.52" y1="1517.18" x2="3171.54" y2="1519.18" xlink:href="#e"/><linearGradient id="S" x1="3207.24" y1="1479.32" x2="3217.07" y2="1484.93" xlink:href="#e"/><linearGradient id="T" x1="3197.97" y1="1501.63" x2="3204.19" y2="1505.54" xlink:href="#e"/><linearGradient id="U" x1="3190.71" y1="1520.47" x2="3196.33" y2="1522.88" xlink:href="#e"/><linearGradient id="V" x1="3175.2" y1="1437.08" x2="3323.22" y2="1365.63" gradientTransform="matrix(1 -.07 -.07 -1 -844.55 3086.76)" xlink:href="#c"/><linearGradient id="W" x1="2277.26" y1="1390.17" x2="2308.48" y2="1390.17" xlink:href="#c"/><linearGradient id="X" x1="3140.07" y1="2293.07" x2="3144.48" y2="2298.57" gradientTransform="rotate(88.84 2855.028 1827.775)" xlink:href="#c"/><linearGradient id="Y" x1="3126.9" y1="2303.43" x2="3131.79" y2="2307.22" gradientTransform="rotate(88.84 2855.028 1827.775)" xlink:href="#c"/><linearGradient id="Z" x1="3113.49" y1="2310.02" x2="3116.67" y2="2314.06" gradientTransform="rotate(88.84 2855.028 1827.775)" xlink:href="#c"/><linearGradient id="aa" x1="3119.19" y1="2296.69" x2="3122.01" y2="2300.85" gradientTransform="rotate(88.84 2855.028 1827.775)" xlink:href="#c"/><linearGradient id="ab" x1="3131.84" y1="2285.61" x2="3136.37" y2="2290.26" gradientTransform="rotate(88.84 2855.028 1827.775)" xlink:href="#c"/><linearGradient id="ac" x1="3102.35" y1="2304.35" x2="3105.41" y2="2308.88" gradientTransform="rotate(88.84 2855.028 1827.775)" xlink:href="#c"/><linearGradient id="ad" x1="3110.79" y1="2286.68" x2="3114.58" y2="2292.55" gradientTransform="rotate(88.84 2855.028 1827.775)" xlink:href="#c"/><linearGradient id="ae" x1="3124.76" y1="2276.38" x2="3128.67" y2="2282.25" gradientTransform="rotate(88.84 2855.028 1827.775)" xlink:href="#c"/><linearGradient id="af" x1="3095.38" y1="2295.77" x2="3098.32" y2="2301.15" gradientTransform="rotate(88.84 2855.028 1827.775)" xlink:href="#c"/><linearGradient id="ag" x1="3137.24" y1="2308.06" x2="3140.42" y2="2311.97" gradientTransform="rotate(88.84 2855.028 1827.775)" xlink:href="#c"/><linearGradient id="ah" x1="3150.85" y1="2298.83" x2="3155.62" y2="2304.09" gradientTransform="rotate(88.84 2855.028 1827.775)" xlink:href="#c"/><linearGradient id="ai" x1="3124.7" y1="2314.04" x2="3127.63" y2="2316.98" gradientTransform="rotate(88.84 2855.028 1827.775)" xlink:href="#c"/><linearGradient id="aj" x1="3131.73" y1="2233.83" x2="3218.3" y2="2233.83" gradientTransform="rotate(88.84 2855.028 1827.775)" xlink:href="#c"/><linearGradient id="ak" x1="2491.03" y1="2124.26" x2="2471.71" y2="2112.4" xlink:href="#c"/><linearGradient id="al" x1="3572" y1="2069.63" x2="3941" y2="2069.63" gradientTransform="rotate(180 2790 1702)" gradientUnits="userSpaceOnUse"><stop offset="0" stop-color="#e1639f"/><stop offset=".49" stop-color="#e1639f"/><stop offset="1" stop-color="#f1c755"/></linearGradient><linearGradient id="f" x1="3833.01" y1="3424.82" x2="4129.54" y2="3516.55" gradientTransform="matrix(-.87 -.49 .87 -.49 2271.81 5021.95)" gradientUnits="userSpaceOnUse"><stop offset="0" stop-color="#e1639a"/><stop offset=".46" stop-color="#e1639f"/><stop offset="1" stop-color="#f1c755"/></linearGradient><linearGradient id="am" x1="3898.19" y1="3444.99" x2="4069.87" y2="3498.09" xlink:href="#f"/><mask id="h" x="1451.96" y="413.87" width="294.05" height="371.2" maskUnits="userSpaceOnUse"><path fill="#fff" fill-rule="evenodd" d="M3002.61 1088.87h294.05v371.2h-294.05v-371.2z" transform="translate(-1550.65 -675)"/></mask><mask id="B" x="1488.09" y="875.6" width="285.74" height="360.71" maskUnits="userSpaceOnUse"><g data-name="mask-52"><path data-name="path-51" fill="#fff" fill-rule="evenodd" d="M3038.74 1550.61h285.74v360.7h-285.74v-360.7z" transform="translate(-1550.65 -675)"/></g></mask><mask id="F" x="76.33" y="877.06" width="325.32" height="410.68" maskUnits="userSpaceOnUse"><g data-name="mask-52"><path data-name="path-51" fill="#fff" fill-rule="evenodd" d="M1952.3 1552.07h-325.32v410.67h325.32v-410.67z" transform="translate(-1550.65 -675)"/></g></mask><radialGradient id="i" cx="2676.5" cy="923.13" fx="2655.451" fy="942.242" r="255.21" gradientTransform="matrix(.99853 .05425 -.0548 1.00851 54.3 -148.53)" gradientUnits="userSpaceOnUse"><stop offset=".31" stop-color="#ff1"/><stop offset=".72" stop-color="#ead767" stop-opacity="0"/></radialGradient><radialGradient id="w" cx="1575.36" cy="1413.21" r="458.43" gradientTransform="matrix(.87 0 0 .83 1072.82 688.74)" gradientUnits="userSpaceOnUse"><stop offset=".01" stop-color="#d1e1f4"/><stop offset="1" stop-color="#b3cdf4"/></radialGradient><clipPath id="p" transform="translate(-1550.65 -675)"><path d="M2814.21 2359.76l-17.42 10.13c9.57-5.57 15.51-17.41 15.56-34.23l17.42-10.12c-.05 16.82-5.99 28.66-15.56 34.22z" fill="none"/></clipPath></defs><g data-name="Слой 1"><path d="M912.55 1994.6l-461.53-266.47c-54-31.2-54.05-82 0-113.16l461.53-266.47c54-31.19 142-31.19 196 0l461.53 266.5c54 31.2 54 82 0 113.16l-461.52 266.44c-54.04 31.2-141.97 31.2-196.01 0z" fill="#331fec" opacity=".32"/><path d="M935.98 1922.85l-461.54-266.46c-54-31.2-54-82 0-113.17l461.53-266.46c54-31.2 142-31.2 196 0l461.54 266.47c54 31.2 54 82 0 113.16l-461.52 266.46c-54.04 31.2-141.97 31.2-196.01 0z" fill="#6e78c4"/><path fill="url(#g)" d="M1246.71 1695.56l286.98-187.42-401.19-231.35-221.74 180.2 335.95 238.57z"/><g mask="url(#h)"><path d="M3282.4 1244c7.9 4.57 14.28 15.63 14.26 24.72l-.52 181.22c0 9.1-6.44 12.76-14.35 8.19L3016.87 1305c-7.9-4.57-14.29-15.63-14.26-24.73l.51-181.22c0-9.09 6.45-12.75 14.36-8.19z" transform="translate(-1550.65 -675)" fill-rule="evenodd" opacity=".26" fill="url(#d)"/></g><path d="M1714.91 578.47l-264.92-153.14c-7.91-4.57-14.33-.9-14.36 8.19l-.51 181.22c0 .58 0 1.16.07 1.74v55.69l32.33-22.21 246.83 142.64c7.91 4.57 14.33.9 14.35-8.19l.52-181.22c-.03-9.09-6.41-20.19-14.31-24.72z" fill="#6e78c4"/><path d="M2890.86 879.43c4-118.73-89.33-200.3-207.7-204.28S2466.21 746.28 2462.21 865c-3.91 116.31 55.06 135.54 83.76 196.21 9 19 5.06 35.5 5.06 35.5-1.52 45.18 46.93 72.08 115.45 74.38s118.68-21.28 120.19-66.45c0 0-2.8-16.75 7.43-35.09 32.71-58.55 92.84-73.8 96.76-190.12z" transform="translate(-1550.65 -675)" fill="url(#i)"/><ellipse cx="2657.02" cy="1192.76" rx="38.15" ry="50.74" transform="rotate(-88.07 1532.77 1657.109)" fill="url(#j)"/><path d="M1057.05 508.15c14.59 8.48 34.56 14.07 56.74 14.82a134 134 0 0043.23-5.32c-.58-20.25-22.17-37.11-49.36-38-24.39-.84-45.17 11.42-50.61 28.5z" fill="#242528" opacity=".76"/><ellipse cx="2658.59" cy="1146.28" rx="46.51" ry="82.81" transform="rotate(-88.07 1534.322 1610.622)" fill="url(#k)"/><path d="M1109.5 424.79c-36.36-1.22-67.66 10.91-79.39 28.85 6.37 21.86 39.54 39.37 80.09 40.74 36.36 1.22 67.66-10.91 79.39-28.85-6.37-21.86-39.54-39.37-80.09-40.74z" fill="#242528" opacity=".76"/><path d="M2742.32 1120.3c-.86 25.68-38.62 45.24-84.33 43.7s-82.07-23.59-81.2-49.26 38.62-45.24 84.33-43.7 82.06 23.59 81.2 49.26z" transform="translate(-1550.65 -675)" fill="url(#l)"/><path d="M1144.71 462.45c29.24-2.28 36.28 1.65 33.36 7.21 8.32-6.9 13.29-15.24 13.6-24.36.32-9.55-4.51-18.59-13.06-26.27l-123.87 25.35s22.82 23.32 89.97 18.07z" fill="#242528" opacity=".61"/><path d="M2819.84 929c2.81-83.41-62.75-140.71-145.9-143.5s-152.4 50-155.21 133.37c-2.74 81.71 38.68 95.21 58.84 137.83a41.07 41.07 0 013.55 24.94c-1.06 31.74 33 50.63 81.11 52.25s83.36-15 84.43-46.68a41.05 41.05 0 015.21-24.65c22.98-41.17 65.22-51.86 67.97-133.56z" transform="translate(-1550.65 -675)" fill="url(#m)"/><path d="M2753 1063c23-41.17 65.22-51.86 68-133.57 2.5-74.55-49.61-128.2-120.08-140.76 63.7 16.56 109.28 68.07 106.93 137.9-2.74 81.71-45 92.4-68 133.57a41.08 41.08 0 00-5.22 24.64c-1.07 31.74-36.3 48.3-84.43 46.68a171.31 171.31 0 01-22.42-2.17 155.25 155.25 0 0035.56 5c48.13 1.62 83.36-14.94 84.43-46.68A41.07 41.07 0 012753 1063z" transform="translate(-1550.65 -675)" style="mix-blend-mode:multiply" opacity=".57" fill="url(#a)"/><path d="M2610.94 1087.4a41.16 41.16 0 00-3.55-24.94c-20.16-42.63-61.59-56.13-58.84-137.84 2.8-83.4 72.06-136.17 155.21-133.37q7.75.25 15.3 1.15a176 176 0 00-48.29-8.33c-83.15-2.79-152.41 50-155.21 133.38-2.75 81.7 38.68 95.21 58.84 137.83a41.07 41.07 0 013.55 24.94c-1 29.1 27.57 47.39 69.43 51.48-23.07-8.58-37.13-23.7-36.44-44.3z" transform="translate(-1550.65 -675)" style="mix-blend-mode:overlay" opacity=".42" fill="url(#n)"/><path d="M2678.75 979.87c-9.62 14.31-9 34.83-9.5 51.73-1.49.07-3 .12-4.46.1a4.36 4.36 0 00-1.18.17 4.66 4.66 0 00-1.17-.25c-1.46-.08-2.93-.22-4.4-.4.61-14.73 1.18-29.85-2.89-44-6.28-21.89-26.35-21.45-34.82-1.3-11.28 26.83 6.07 45.74 29.59 51.69 0 .36 0 .74-.05 1.1l-3.12 92.94c2.57.26 5.18.47 7.85.63q1.56-46.61 3.13-93.2c1.47.18 2.95.33 4.45.42a4 4 0 001.17-.12 4.27 4.27 0 001.17.2c1.5 0 3 0 4.47-.11q-1.29 38.2-2.57 76.41l-.56 16.69c2.67 0 5.3-.07 7.87-.19l3.12-92.76v-1c21-3.52 38.31-16.84 34.89-41.59-2.16-16.03-19.38-37.42-32.99-17.16zm-28.38 50c-13.95-3.35-25.81-11.63-25.5-28.32.16-8.68 9.74-34.46 20.2-18.84 8.08 12.05 6.4 31.29 5.3 47.16zm26.58.89c0-16-.41-35.21 8.45-46.69 11.5-14.88 19.32 11.48 18.9 20.15-.82 16.67-13.2 24.14-27.3 26.54z" transform="translate(-1550.65 -675)" style="mix-blend-mode:multiply" fill="url(#o)"/><path d="M1068.35 212.62c-11.3 19.54-28.91 30.49-39.34 24.47s-9.72-26.76 1.57-46.3 28.91-30.5 39.34-24.47 9.73 26.75-1.57 46.3zM913.01 1625.69a10.17 10.17 0 11-10.57 17.36l-58.94-35.9a10.17 10.17 0 1110.57-17.36zM839 1747.2a10.17 10.17 0 11-10.57 17.36l-58.94-35.9a10.17 10.17 0 1110.57-17.36zM948.53 1730.62a10.174 10.174 0 11-10.58 17.38l-154.15-93.89a10.17 10.17 0 1110.57-17.36zM893.77 1738.92a10.17 10.17 0 11-10.57 17.36l-138.28-84.23a10.17 10.17 0 1110.57-17.36zM930.78 1678.16a10.17 10.17 0 11-10.57 17.36l-81.61-49.71a10.17 10.17 0 1110.57-17.35z" fill="#fff"/><path d="M811.4 1629.24a10.17 10.17 0 10-3.79-14.2 10.4 10.4 0 003.79 14.2zM784.19 1612.68a10.17 10.17 0 10-3.78-14.21 10.41 10.41 0 003.78 14.21zM717.72 1655.48a10.17 10.17 0 10-3.78-14.2 10.39 10.39 0 003.78 14.2zM742.28 1712.09a10.17 10.17 0 10-3.78-14.2 10.41 10.41 0 003.78 14.2z" fill="#82b5cd" fill-rule="evenodd"/><g style="isolation:isolate"><g style="isolation:isolate"><path d="M865.77 1434v-2" fill="#2d2d2d"/><path d="M865.87 1436.11c-.05-.7-.08-1.4-.1-2.1" fill="#2f2f2f"/><path d="M866.03 1438.22c-.06-.7-.12-1.41-.16-2.11" fill="#303030"/><path d="M866.27 1440.35q-.14-1.07-.24-2.13" fill="#313131"/><path d="M866.58 1442.54c-.11-.73-.22-1.46-.31-2.19" fill="#323232"/><path d="M866.96 1444.74c-.14-.74-.26-1.47-.38-2.2" fill="#343434"/><path d="M867.42 1447c-.16-.76-.32-1.52-.46-2.27" fill="#353535"/></g><g clip-path="url(#p)" style="clip-path:url(#clip-path)"><path d="M1261.7 1660.66l17.42-10.12v.15l-17.42 10.13v-.16" fill="#2d2d2d"/></g><path d="M2478.3 1212.18c-.73-.4-1.46-.78-2.18-1.13s-1.45-.7-2.17-1-1.42-.63-2.13-.91-1.44-.56-2.15-.81-1.43-.48-2.14-.7-1.48-.42-2.21-.61-1.46-.34-2.18-.48-1.57-.28-2.34-.39-1.59-.19-2.37-.24-1.69-.09-2.51-.08-1.86 0-2.77.13a26.61 26.61 0 00-11.12 3.47l-17.42 10.12a26.5 26.5 0 014.32-2 28.44 28.44 0 013.73-1 30.66 30.66 0 013.07-.45c.91-.08 1.83-.13 2.77-.13s1.66 0 2.51.08 1.57.14 2.37.25 1.55.23 2.34.38 1.45.3 2.18.49 1.47.38 2.21.61 1.42.44 2.14.69 1.43.52 2.15.81 1.42.59 2.13.91 1.44.66 2.17 1 1.45.73 2.18 1.13c.57.31 1.13.62 1.7 1l17.42-10.12c-.57-.4-1.13-.72-1.7-1.02z" transform="translate(-1550.65 -675)" fill="url(#b)"/><path d="M1210.86 743.27c18.7 10.79 33.82 37 33.76 58.47l-2.41 847.67c-.06 21.49-15.28 30.14-34 19.34l-299-172.62c-18.7-10.8-33.8-37-33.74-58.44l2.41-847.67c.06-21.49 15.26-30.17 34-19.38l37.22 21.49c4.91 2.84 8.9 9.75 8.88 15.39v9.16c0 12.81 9 28.4 20.11 34.84l166.38 96.06c11.15 6.43 20.21 1.27 20.25-11.54v-9.15c0-5.65 4-8 8.95-5.1z" fill="#434775"/><path fill="url(#q)" d="M911.93 548.25l17.42-10.12 298.99 172.62-17.42 10.12-298.99-172.62z"/><path d="M2761.54 1407.07c24 13.88 43.55 47.67 43.47 75.29l-2.4 847.68c-.08 27.63-19.71 38.81-43.76 24.93l-299-172.62c-24-13.89-43.55-47.67-43.47-75.3l2.4-847.67c.08-27.63 19.71-38.82 43.76-24.93zm31.32 917.34l2.41-847.67c.06-21.49-15.06-47.68-33.76-58.47l-37.2-21.48c-4.94-2.85-8.93-.55-8.95 5.1v9.15c0 12.81-9.1 18-20.25 11.54l-166.38-96.06c-11.14-6.43-20.15-22-20.11-34.84v-9.15c0-5.65-4-12.56-8.88-15.4l-37.22-21.49c-18.7-10.79-33.9-2.11-34 19.38l-2.41 847.67c-.06 21.49 15 47.64 33.74 58.44l299 172.62c18.7 10.8 33.92 2.15 34-19.34" transform="translate(-1550.65 -675)" fill="url(#r)"/><path d="M2761.57 1395.87c29.47 17 53.28 58.26 53.18 92.12l-2.4 847.67c-.1 33.86-24.06 47.52-53.53 30.51l-299-172.63c-29.47-17-53.28-58.25-53.18-92.11l2.4-847.68c.09-33.86 24.06-47.51 53.53-30.5zm41 934.17l2.4-847.68c.08-27.63-19.42-61.41-43.47-75.29l-299-172.62c-24.05-13.89-43.68-2.7-43.76 24.93l-2.4 847.67c-.08 27.63 19.42 61.41 43.47 75.3l299 172.62c24.05 13.88 43.68 2.7 43.76-24.93" transform="translate(-1550.65 -675)" fill="url(#s)"/><path d="M2832.17 1477.87v-2.41c0-.8-.07-1.72-.12-2.58s-.12-1.73-.21-2.6-.18-1.74-.29-2.61-.24-1.79-.38-2.68-.3-1.8-.46-2.7-.37-1.85-.57-2.78-.42-1.86-.65-2.8-.48-1.88-.75-2.83-.53-1.88-.82-2.82-.57-1.83-.88-2.75-.62-1.82-1-2.72-.64-1.75-1-2.62-.69-1.72-1-2.59-.72-1.69-1.09-2.54-.78-1.72-1.18-2.57-.89-1.89-1.36-2.82-1.09-2.14-1.65-3.2c-.85-1.58-1.72-3.15-2.63-4.69-1.26-2.14-2.58-4.25-4-6.31q-1.64-2.45-3.38-4.81c-.77-1-1.56-2.09-2.37-3.11-.68-.86-1.36-1.71-2.06-2.54s-1.36-1.62-2.06-2.42-1.37-1.54-2.07-2.3-1.45-1.53-2.19-2.28-1.49-1.5-2.25-2.23a97.185 97.185 0 00-4.71-4.25c-.8-.68-1.58-1.31-2.38-1.94s-1.55-1.2-2.34-1.78-1.54-1.12-2.32-1.65-1.51-1-2.27-1.5-1.5-.94-2.25-1.38l-.53-.31-17.42 10.12.53.31c.75.44 1.51.91 2.26 1.38s1.51 1 2.26 1.5 1.55 1.08 2.32 1.65 1.57 1.18 2.34 1.79 1.59 1.27 2.38 1.94 1.59 1.36 2.37 2.06 1.57 1.44 2.34 2.18 1.51 1.47 2.25 2.23 1.47 1.51 2.19 2.29 1.39 1.52 2.07 2.3 1.39 1.59 2.06 2.41 1.39 1.68 2.06 2.54c.81 1 1.6 2.06 2.37 3.11 1.16 1.58 2.29 3.18 3.38 4.82q2.07 3.09 4 6.3c.91 1.55 1.78 3.11 2.63 4.69.56 1.06 1.12 2.13 1.65 3.2s.92 1.88 1.36 2.82.8 1.71 1.18 2.57.73 1.7 1.09 2.55.7 1.72 1 2.59.66 1.74 1 2.61.64 1.81 1 2.72.6 1.84.88 2.76.56 1.88.83 2.82.5 1.88.74 2.83.45 1.86.65 2.79.39 1.86.57 2.79.32 1.79.46 2.69.27 1.79.38 2.68.21 1.75.29 2.62.16 1.73.21 2.59.1 1.72.12 2.58 0 1.61 0 2.41l-2.4 846.9c0 .87 0 2.66-.06 3.5s-.09 1.7-.16 2.52-.16 1.73-.26 2.57-.24 1.72-.38 2.55-.33 1.76-.53 2.61-.45 1.84-.71 2.73-.59 1.9-.93 2.81-.82 2.06-1.28 3a33.55 33.55 0 01-2 3.65 27.27 27.27 0 01-9.24 9l17.42-10.13a27.14 27.14 0 009.24-9 33.55 33.55 0 002-3.65c.46-1 .89-2 1.28-3s.65-1.84.93-2.81.5-1.79.71-2.72.37-1.72.53-2.61.27-1.68.38-2.55.19-1.7.26-2.57l.16-2.52c0-.71.05-1.85.05-2.73z" transform="translate(-1550.65 -675)" fill="url(#t)"/></g><path fill="url(#c)" d="M638.74 1119.31l-2.21-72.26 289.59-8.11 2.21 72.26-289.59 8.11z"/><path d="M691.35 1132.69c-24.42 27.84-67.81 31.47-96.91 8.1s-32.88-64.89-8.46-92.73 67.81-31.47 96.91-8.1 32.89 64.89 8.46 92.73z" fill="#60659f"/><path d="M2279.4 1484.81l1.68.55a36.72 36.72 0 0123.25 47.2L2228.51 1746a36.47 36.47 0 01-22.52 22.39c-7.49 2.55-16.44 4-25 1.57q-.8-.23-1.56-.48c-19.29-6.38-29.2-27.77-22.4-46.91l76.41-215.17a36.71 36.71 0 0145.96-22.59z" transform="translate(-1550.65 -675)" fill="url(#u)"/><path d="M1117.2 1418.05c46 25.39 46 66.54 0 91.93s-120.45 25.39-166.41 0-46-66.54 0-91.93 120.46-25.39 166.41 0z" fill="#434775" style="fill:#434775"/><path d="M987.91 1095.1c0 36.35-30.8 65.82-68.79 65.82s-68.77-29.47-68.77-65.82 30.8-65.81 68.79-65.81 68.77 29.46 68.77 65.81z" fill="#51537e"/><path d="M2722.42 1813.68v2.83a127 127 0 00-23.18-16.19c-63.25-34.94-165.79-34.94-229 0a126.82 126.82 0 00-23.33 16.31v-4h-24.22v34.19c.53 22.61 48.18 281.73 48.18 281.73 2.94 18 11.46 31.74 33.4 43.86 44.44 24.55 116.49 24.55 160.93 0 21.6-11.93 32.67-27.47 33.27-43.11a7.71 7.71 0 000-1l.79-22.79s46.48-235.41 47.33-257.67a10.47 10.47 0 00.06-1.37v-32.82z" transform="translate(-1550.65 -675)" fill="url(#v)"/><path d="M2722.42 1816.51a127 127 0 00-23.18-16.19c-63.25-34.94-165.79-34.94-229 0a126.82 126.82 0 00-23.33 16.31v-4h-24.22v34.19c.53 22.61 16.31 45.16 47.55 62.42 63.25 34.94 165.79 34.94 229 0 30.74-17 46.5-39.1 47.35-61.36a10.47 10.47 0 00.06-1.37v-32.82h-24.23z" transform="translate(-1550.65 -675)" fill="url(#w)"/><path d="M1148.52 1074.54c63.25 34.94 63.25 91.59 0 126.53s-165.79 34.94-229 0-63.25-91.59 0-126.53 165.75-34.94 229 0z" fill="#ebf2f7"/><path d="M990.14 956.19v170.46c7.72 32.39 80 32.38 87.71 0V956.19z" fill="#60659f"/><path d="M2754.7 1627.63c0 83.79-71 151.72-158.56 151.72s-158.57-67.93-158.57-151.72 71-151.72 158.57-151.72 158.56 67.93 158.56 151.72z" transform="translate(-1550.65 -675)" fill="url(#x)"/><path d="M1045.49 800.91c-5.21 0-10.36.26-15.44.73-36.41 15.67-77.12 38.73-67.36 60.62 13.6 30.49 133.62-10.92 181-28.68a162.42 162.42 0 00-98.2-32.67z" fill="#fff"/><path d="M1211.49 950.65c0 38.61-28.33 85.55-63.27 104.85s-63.27 3.66-63.27-35 28.32-85.55 63.27-104.85 63.27-3.65 63.27 35z" fill="#60659f"/><path d="M1186.35 964.52c0 23.28-17.09 51.6-38.16 63.24s-38.16 2.2-38.16-21.08 17.08-51.6 38.16-63.24 38.16-2.21 38.16 21.08z" fill="#51537e"/><path d="M1175.17 940.87a34 34 0 012.8 14.26c0 23.29-17.08 51.6-38.16 63.25-10.52 5.81-20.05 6.36-26.95 2.57 5.66 12.31 19.35 15.65 35.36 6.81 21.07-11.64 38.16-40 38.16-63.24-.03-11.66-4.29-19.85-11.21-23.65z" fill="#878cc6"/><path d="M2616.57 1631.27c-63.44-25-149.83-57.37-154-85.31a146 146 0 00-21.63 112.72c21.77 27.25 81.08 54.45 104.67 59 92.69 17.79 108.39-71.68 70.96-86.41z" transform="translate(-1550.65 -675)" fill="url(#y)"/><path d="M1010.78 1005.74a11.14 11.14 0 01-5.31-8.81c0-9-6.62-20-14.76-24.44s-14.75-.84-14.75 8.15c0 3.24-2.38 4.55-5.31 2.93a11.15 11.15 0 01-5.31-8.8c0-15.46 11.38-21.75 25.37-14s25.38 26.59 25.38 42c0 3.23-2.38 4.59-5.31 2.97zM935.52 964.16a11.13 11.13 0 01-5.31-8.8c0-9-6.62-19.95-14.76-24.45s-14.75-.83-14.75 8.15c0 3.24-2.38 4.56-5.31 2.94a11.15 11.15 0 01-5.31-8.8c0-15.46 11.38-21.75 25.38-14s25.37 26.59 25.37 42c0 3.27-2.38 4.58-5.31 2.96z" fill="#60659f"/><ellipse cx="2726.77" cy="1871.28" rx="68.79" ry="65.82" transform="rotate(-58 1342.686 2932.512)" fill="#60659f"/><path d="M916.35 1432.81c2.36 13 3.8 20.73 3.8 20.73 2.94 18 11.46 31.74 33.4 43.86 44.44 24.55 116.49 24.55 160.93 0 21.6-11.93 32.67-27.47 33.27-43.11a7.71 7.71 0 000-1l.79-22.79c-20.19 9.66-114.14 71.78-232.19 2.31z" fill="#373d6b"/><path d="M2749.44 2170.87a38.53 38.53 0 01-29 12.91c-20.64-.24-36.52-17.51-35.47-38.58l12.67-254.13c1.06-21.07 18.64-38 39.29-37.73s36.52 17.51 35.47 38.58l-12.67 254.13a40 40 0 01-10.29 24.82z" transform="translate(-1550.65 -675)" fill="url(#z)"/><path d="M1204.11 1452.49c21.51 20.09 22.27 54.81 1.7 77.56s-54.69 24.91-76.21 4.82-22.27-54.82-1.7-77.57 54.7-24.9 76.21-4.81z" fill="#60659f"/><path d="M2688.84 2136.28l-113.94-1.78-66.42-1c-20.64-.33-38.3 16.49-39.43 37.56a36.94 36.94 0 0011.4 29.1 35.42 35.42 0 0023.91 9.64l130 2 50.37.76c20.64.32 38.29-16.49 39.43-37.56s-14.68-38.39-35.32-38.72z" transform="translate(-1550.65 -675)" fill="url(#A)"/><path d="M1001.58 1461.64c18.75 17.52 19.42 47.8 1.48 67.63s-47.68 21.71-66.44 4.2-19.42-47.8-1.48-67.63 47.68-21.71 66.44-4.2z" fill="#60659f"/><path d="M777.67 832.75c-5.64 28.89-34.69 47.94-64.88 42.55s-50.11-33.19-44.47-62.08 34.69-47.94 64.88-42.54 50.15 33.18 44.47 62.07z" fill="#6064bb"/><path d="M1672.35 605.92l-85-49.06c-3.44-2-6.23-.38-6.23 3.6v.35a13.77 13.77 0 006.23 10.79l85 49.06c3.44 2 6.23.38 6.23-3.6v-.35a13.77 13.77 0 00-6.23-10.79zM1563.14 542.89l-73.22-42.28c-3.45-2-6.23-.38-6.23 3.6v.35a13.72 13.72 0 006.23 10.79l73.22 42.28c3.44 2 6.23.37 6.23-3.6v-.35a13.78 13.78 0 00-6.23-10.79zM1672.35 675.27l-85-49.06c-3.44-2-6.23-.38-6.23 3.6v.35a13.78 13.78 0 006.23 10.84l85 49c3.44 2 6.23.38 6.23-3.6v-.35a13.78 13.78 0 00-6.23-10.78zM1563.14 612.24L1489.92 570c-3.45-2-6.23-.38-6.23 3.59v.36a13.74 13.74 0 006.23 10.79l73.22 42.28c3.44 2 6.23.38 6.23-3.6V623a13.77 13.77 0 00-6.23-10.76zM1672.35 640.6l-46-26.6c-3.45-2-6.24-.38-6.24 3.59v.36a13.75 13.75 0 006.24 10.79l46 26.56c3.44 2 6.23.37 6.23-3.6v-.35a13.77 13.77 0 00-6.23-10.75zM1605.67 602.11l-39-22.66c-3.43-2-6.22-.39-6.22 3.59v.35a13.83 13.83 0 006.22 10.81l39 22.65c3.44 2 6.23.39 6.23-3.58v-.35a13.8 13.8 0 00-6.23-10.81zM1544.53 566.65l-54.61-31.38c-3.44-2-6.23-.36-6.23 3.61v.36a13.75 13.75 0 006.23 10.78l54.61 31.37c3.45 2 6.25.36 6.25-3.61v-.35a13.73 13.73 0 00-6.25-10.78zM1672.35 710.33l-74.11-42.71c-3.44-2-6.23-.37-6.23 3.6v.36a13.78 13.78 0 006.23 10.79l74.11 42.7c3.44 2 6.24.37 6.24-3.6v-.35a13.76 13.76 0 00-6.24-10.79zM1577.56 655.7l-39-22.66c-3.44-2-6.23-.39-6.23 3.59v.35a13.82 13.82 0 006.23 10.81l39 22.65c3.44 2 6.22.39 6.22-3.58v-.35a13.79 13.79 0 00-6.22-10.81zM1516.42 620.24l-26.5-15.24c-3.44-2-6.23-.36-6.23 3.61v.36a13.76 13.76 0 006.23 10.78l26.5 15.23c3.45 2 6.24.36 6.24-3.61V631a13.73 13.73 0 00-6.24-10.76z" fill="#fff"/><g mask="url(#B)"><path d="M3310.62 1701.32c7.68 4.44 13.88 15.19 13.86 24l-.5 176.1c0 8.84-6.26 12.4-13.95 8l-257.44-148.8c-7.67-4.44-13.88-15.19-13.85-24l.5-176.1c0-8.84 6.26-12.4 14-8z" transform="translate(-1550.65 -675)" fill-rule="evenodd" opacity=".26" fill="url(#C)"/></g><path d="M3294.26 1710.55l-257.44-148.81c-7.68-4.44-13.92-.88-14 8l-.45 160.61-.05-.07v71.14l32.76-20.63 238.54 137.88c7.68 4.44 13.92.88 13.94-8l.5-176.11c.08-8.82-6.12-19.56-13.8-24.01z" transform="translate(-1550.65 -675)" fill="url(#D)"/><path d="M1711.42 1090.34l-91.36-52.75c-3.7-2.13-6.7-.41-6.7 3.87v.38a14.8 14.8 0 006.7 11.6l91.36 52.75c3.7 2.13 6.7.4 6.7-3.87v-.38a14.8 14.8 0 00-6.7-11.6zM1640.25 1009.25l-89.64-51.75c-4.21-2.44-7.62-.47-7.62 4.4v.43a16.83 16.83 0 007.63 13.21l89.63 51.75c4.21 2.44 7.63.46 7.63-4.4v-.43a16.87 16.87 0 00-7.63-13.21zM1711.42 1127.62l-49.46-28.55c-3.7-2.14-6.7-.41-6.7 3.86v.38a14.8 14.8 0 006.7 11.61l49.46 28.55c3.7 2.14 6.7.41 6.7-3.87v-.38a14.83 14.83 0 00-6.7-11.6zM1639.76 1086.24l-42-24.36c-3.69-2.14-6.69-.42-6.69 3.86v.38a14.88 14.88 0 006.69 11.62l42 24.35c3.69 2.15 6.69.42 6.69-3.85v-.38a14.86 14.86 0 00-6.69-11.62zM1574.02 1048.12l-58.67-33.74c-3.7-2.13-6.7-.39-6.7 3.88v.38a14.76 14.76 0 006.7 11.59l58.72 33.73c3.71 2.13 6.71.4 6.71-3.88v-.38a14.73 14.73 0 00-6.76-11.58z" fill="#fff"/><path d="M1978.36 1078.13c8.3-4.79 34.58-2.77 33.2 30.43l.74 189.61c0 9.5-6.68 21.12-15 25.91l-391.07 228.53c-49.8 31.81-52.54-11.25-52.57-20.75l-2.76-159.08c0-1.27-.08-3.09-.18-5.33a79.25 79.25 0 0140.5-72.82z" transform="translate(-1550.65 -675)" opacity=".46" fill="url(#E)" style="opacity:0.46;fill:url(#Безымянный_градиент_3-8)"/><path d="M457.17 416.52c8.3-4.79 34.59-2.76 33.2 30.44l.74 189.6c0 9.5-6.68 21.12-15 25.91L85.06 891c-49.8 31.81-52.54-11.25-52.56-20.75l-2.77-159.08c0-1.26-.08-3.09-.18-5.33a79.27 79.27 0 0140.5-72.82z" fill="#434775"/><g mask="url(#F)"><path d="M1642.75 1723.66C1634 1728.72 1627 1741 1627 1751l.57 200.5c0 10.06 7.13 14.11 15.87 9.06l293.11-169.42c8.74-5.05 15.8-17.29 15.77-27.35l-.56-200.5c0-10.06-7.14-14.12-15.89-9.06z" transform="translate(-1550.65 -675)" fill-rule="evenodd" opacity=".26" fill="url(#G)"/></g><path d="M1661.39 1734.17l293.1-169.42c8.74-5.06 15.85-1 15.88 9.06l.52 182.86v-.08 81l-37.29-23.48-271.6 157c-8.74 5.05-15.85 1-15.87-9.06l-.57-200.5c.02-10.08 7.08-22.32 15.83-27.38z" transform="translate(-1550.65 -675)" fill="url(#H)"/><path d="M147.35 1121.55l104-60.06c4.21-2.43 7.63-.46 7.63 4.41v.43a16.87 16.87 0 01-7.63 13.21l-104 60c-4.21 2.43-7.63.47-7.63-4.4v-.43a16.85 16.85 0 017.63-13.16zM281.04 1044.39l89.64-51.75c4.21-2.44 7.63-.46 7.63 4.4v.43a16.85 16.85 0 01-7.63 13.21l-89.64 51.75c-4.21 2.44-7.63.46-7.63-4.4v-.43a16.87 16.87 0 017.63-13.21zM147.35 1164l56.31-32.52c4.22-2.43 7.63-.46 7.63 4.41v.43a16.85 16.85 0 01-7.63 13.22L147.35 1182c-4.21 2.43-7.63.46-7.63-4.4v-.43a16.87 16.87 0 017.63-13.17zM228.97 1116.88l47.77-27.73c4.21-2.44 7.62-.48 7.62 4.39v.43a16.9 16.9 0 01-7.62 13.23l-47.77 27.73c-4.2 2.45-7.61.48-7.61-4.39v-.42a16.93 16.93 0 017.61-13.24zM303.82 1073.48l66.85-38.42c4.22-2.42 7.64-.44 7.64 4.43v.43a16.79 16.79 0 01-7.64 13.19l-66.85 38.41c-4.22 2.42-7.64.45-7.64-4.42v-.43a16.79 16.79 0 017.64-13.19z" fill="#fff"/><path d="M2233 1365a157.33 157.33 0 008 14.3 6.27 6.27 0 01-1.39 8.37l-.13.11a6.28 6.28 0 01-9.45-2c-2.35-4.6-4.88-9.19-7.31-13.82 1-.7 2-1.45 3-2.14 2.45-1.69 4.89-3.24 7.28-4.82z" transform="translate(-1550.65 -675)" fill="url(#e)"/><path d="M2231.83 1362.5c-2.58 1.59-5.16 3.18-7.69 4.86-.91.65-1.8 1.34-2.72 2a124 124 0 01-6.63-14.9c-.77-2-1.46-4.11-2.11-6.23q5.52-3.08 11.21-5.85c.64 2 1.21 4.08 1.92 6.08 1.81 4.75 3.83 9.44 6.02 14.04z" transform="translate(-1550.65 -675)" fill="url(#K)"/><path d="M2208.68 1327.25c-1.17-4.65 2.81-8.84 7.14-6.78l.13.06a5.8 5.8 0 013.19 4.06c1.07 5.18 2.45 10.28 4 15.35-3.79 1.71-7.54 3.52-11.22 5.46a86.88 86.88 0 01-3.24-18.15z" transform="translate(-1550.65 -675)" fill="url(#L)"/><path d="M2202.17 1365.62c1.79 4.74 3.81 9.4 6 14-1.16 1-2.38 1.88-3.51 2.88-2.35 2-4.57 4.22-6.8 6.39-1.88-5.62-3.69-11.4-5.45-17.9a183.9 183.9 0 01-2.28-9.33c3-1.92 5.92-3.82 8.92-5.64.8 2.92 1.8 6.12 3.12 9.6z" transform="translate(-1550.65 -675)" fill="url(#M)"/><path d="M2194 1336c2.19 2.24 1.21 4.6 4.3 17.28-3 1.87-5.85 3.85-8.71 5.88-2.11-11.08-3.05-23.8 4.41-23.16z" transform="translate(-1550.65 -675)" fill="url(#N)"/><path d="M2209.2 1381.85a155.52 155.52 0 009.42 16.58 8.47 8.47 0 01-.56 10.09l-.13.16a8.28 8.28 0 01-14.14-2.6c-1.86-5.37-3.65-10.43-5.39-15.58 2.54-2.12 5.08-4.26 7.71-6.28 1.02-.8 2.07-1.57 3.09-2.37z" transform="translate(-1550.65 -675)" fill="url(#O)"/><path d="M2229.94 1388.13a6.78 6.78 0 01-1 8.68l-.11.1a6.72 6.72 0 01-10.63-1.91c-2.36-4.64-5-9.47-7.45-14.36q5.14-3.93 10.46-7.64a153.13 153.13 0 008.73 15.13z" transform="translate(-1550.65 -675)" fill="url(#P)"/><path d="M2220 1370.41q-5.28 3.83-10.31 8a131.91 131.91 0 01-6.33-14.43 84.55 84.55 0 01-2.76-8.83c2.79-1.67 5.58-3.34 8.44-4.89.74-.43 1.5-.8 2.24-1.22.74 2.17 1.48 4.28 2.17 6.24 1.92 5.11 4.12 10.17 6.55 15.13z" transform="translate(-1550.65 -675)" fill="url(#Q)"/><path d="M2199.88 1352.31c-1.61-7-2.46-13.49-3.36-18.29-.5-2.14-1.56-7.87-.14-9.54l.12-.13c3.15-3.67 7.51-1.63 8.48 3.1a170.81 170.81 0 005.35 18.76c-.92.49-1.86.94-2.77 1.44-2.56 1.5-5.13 3.08-7.68 4.66z" transform="translate(-1550.65 -675)" fill="url(#R)"/><path d="M2248.4 1355.79c2.95 3.72 6 7.38 9 10.85a8.2 8.2 0 01-3.46 12.54c-4.86 1.89-10.53 2.13-13.3-3.83-1.93-3.88-3.73-7.79-5.48-11.72q5.58-3.51 11.33-6.79c.62-.37 1.28-.69 1.91-1.05z" transform="translate(-1550.65 -675)" fill="url(#S)"/><path d="M2245.41 1354.84c-3.89 1.93-7.68 4.05-11.4 6.28-2-4.5-3.78-9.06-5.42-13.69-1-2.52-1.7-4.45-2.34-6.2 1.49-.71 3-1.46 4.47-2.15 1.33-.65 2.72-1.19 4.07-1.79 3.61 5.37 7.81 11.1 12.27 16.78-.54.27-1.06.49-1.65.77z" transform="translate(-1550.65 -675)" fill="url(#T)"/><path d="M2225.42 1338.92c-1-2.71-1.75-5.37-2.89-9.66-1.59-5.76 3.22-6.26 5-3.64 1.64 3 3.73 6.41 6.08 10-1.27.48-2.57.86-3.83 1.37-1.45.58-2.89 1.3-4.36 1.93z" transform="translate(-1550.65 -675)" fill="url(#U)"/><path d="M2304 1490c-13 11-30 10-46 3-25.37-12.87-36.3-44.55-47.57-70q5.47-5.73 11-11.31c6-5.89 12.16-11.61 18.61-16.92 2.44-2 5-3.93 7.52-5.82.15.2.27.41.42.6l-.34-.65c4.13-3.06 8.34-6 12.68-8.79 1.53-.93 3.14-1.72 4.7-2.59 3.08 3.83 6.25 7.58 9.66 11.13 14.69 15.28 24.25 17.86 38 43.05 5.51 10.03 17.82 35.88-8.68 58.3z" transform="translate(-1550.65 -675)" fill="url(#V)"/><path d="M2308.48 1424.42S2306 1413 2298 1396s-13-38-18-40-2 35.68 0 37.84 26.45 27.44 26.45 27.44" transform="translate(-1550.65 -675)" fill="url(#W)"/><path d="M2400 2130.49l.05-.08a4.47 4.47 0 00-.64-5.29 98.63 98.63 0 01-8.55-11.12 59 59 0 00-5.08 8.95 81.93 81.93 0 007 8.45 4.55 4.55 0 007.22-.91z" transform="translate(-1550.65 -675)" fill="url(#X)"/><path d="M2390.28 2113.19c-.44-.67-1-1.3-1.38-2-2.17-3.45-4.2-6.74-6.54-11a61.69 61.69 0 00-5 7.4 137.55 137.55 0 007.71 14.31 60.84 60.84 0 015.21-8.71z" transform="translate(-1550.65 -675)" fill="url(#Y)"/><path d="M2377.48 2092.21a3.29 3.29 0 00-1.91-1.1 2.72 2.72 0 00-2.28.62 3.43 3.43 0 00-.88 1.62c-.89 3.34 1 7 2.3 9.92.43 1 .85 1.86 1.27 2.77a63.44 63.44 0 015.09-7.11c.32-.39-1.52-3.16-1.72-3.54a17.22 17.22 0 00-1.87-3.18z" transform="translate(-1550.65 -675)" fill="url(#Z)"/><path d="M2391.07 2112.13a59.85 59.85 0 015.93-6.78 103.91 103.91 0 01-6.51-10.4c-.4-.74-.74-1.52-1.12-2.27a70.27 70.27 0 00-5.66 5.79c-.2.23-.37.48-.56.72a79.44 79.44 0 005.84 10c.68 1 1.38 1.97 2.08 2.94z" transform="translate(-1550.65 -675)" fill="url(#aa)"/><path d="M2391.94 2113.53c1.22 1.67 2.8 3.28 4.13 4.87a52.52 52.52 0 014.56 3.9 4.34 4.34 0 006.45-.18l.05-.07a4.35 4.35 0 00-.25-5.89 91 91 0 01-8.44-10.21c-1 1-2 2-2.88 3.1-1.04 1.24-2.68 3.18-3.62 4.48z" transform="translate(-1550.65 -675)" fill="url(#ab)"/><path d="M2388.63 2090.91c.6-.57-1.28-3.12-1.58-3.61a29.55 29.55 0 01-2.79-6.27 15.33 15.33 0 00-1-2.6c-1.2-2.22-4.45-3-5.8-.41-1.45 2.79.23 7.26 1.13 10a78.07 78.07 0 003.72 9.16 59.1 59.1 0 016.32-6.27z" transform="translate(-1550.65 -675)" fill="url(#ac)"/><path d="M2395.55 2100.4c.9 1.32 1.79 2.54 2.69 3.75a55.75 55.75 0 018.65-6.58c-.19-.24-.38-.45-.56-.69a121.39 121.39 0 01-7.8-11.21 59.37 59.37 0 00-7.89 5.84 53.72 53.72 0 004.91 8.89z" transform="translate(-1550.65 -675)" fill="url(#ad)"/><path d="M2414.69 2115.39l.15-.13a5.57 5.57 0 000-8.41 63.76 63.76 0 01-7.23-7.87 64.47 64.47 0 00-8.4 7 78.83 78.83 0 008 9.21 5.61 5.61 0 007.48.2z" transform="translate(-1550.65 -675)" fill="url(#ae)"/><path d="M2392.54 2074.62c-1.33-2.88-3.41-6.25-6.17-3.81a4.75 4.75 0 00-1.42 3.34c-.16 3.19 1.13 6.4 2.07 9.39.17.54 2.34 5.7 2.2 5.81a54.74 54.74 0 018.1-5.38c-.17.09-3.35-6.09-3.67-6.8s-.65-1.55-1.11-2.55z" transform="translate(-1550.65 -675)" fill="url(#af)"/><path d="M2384.45 2123.24s-.08-.1-.11-.16c-3.92-7.06-6.06-11.2-7.79-13.94a57.05 57.05 0 00-3.49 7.78c-.16.41-.25.83-.4 1.24a113.31 113.31 0 008.32 15.23 49.23 49.23 0 011.8-6.27c.5-1.32 1.08-2.6 1.67-3.88z" transform="translate(-1550.65 -675)" fill="url(#ag)"/><path d="M2381.8 2134.68c1.7 2.62 3.45 5.19 5.17 7.57a4.73 4.73 0 008.35-1.47l.06-.19a4.79 4.79 0 00-1.09-4.87 80.78 80.78 0 01-9.07-11.42c-.45 1.07-.93 2.13-1.31 3.23a50.57 50.57 0 00-2.11 7.15z" transform="translate(-1550.65 -675)" fill="url(#ah)"/><path d="M2372.54 2104.8a1.82 1.82 0 00-1.2.23c-2.31 1.28-1.69 4.81-1.18 6.86.17.68.37 1.35.59 2 .12.35.85 1.69.73 2a61.37 61.37 0 014-8.31c.1-.18-1.07-1.59-1.22-1.76a3 3 0 00-1.72-1.02z" transform="translate(-1550.65 -675)" fill="url(#ai)"/><path d="M831.81 1401c0 .1.07.19.1.28-.02-.1-.06-.19-.1-.28z" fill="#c5c9ce"/><path d="M2466.23 2198.07c36.58 7.22 61.65-36.12 38-64.9-1.07-1.3-2.14-2.55-3.19-3.73a21.24 21.24 0 00-8.73-5.35c-8.68.26-16.28.26-23.09 0-22.12-.76-35.32-4.2-45.07-10.81-8.4 5.82-24.51 19.65-26.38 40.51 24.85 29.12 66.85 43.9 66.85 43.9q.79.22 1.61.38z" transform="translate(-1550.65 -675)" fill="url(#aj)"/><path d="M2492 2124s-11-12-23-25-14-3-8 7a73.71 73.71 0 018 18s20 2 23 0z" transform="translate(-1550.65 -675)" fill="url(#ak)"/><path d="M2007.12 1221.46a.62.62 0 01.62-.07.61.61 0 01.26.57v5.28a1.78 1.78 0 01-.26.88 1.84 1.84 0 01-.62.67.54.54 0 01-.89-.5V1223a1.92 1.92 0 01.26-.88 1.86 1.86 0 01.63-.67zm-6.62.9v13.41a.61.61 0 00.26.57.62.62 0 00.62-.07 1.84 1.84 0 00.62-.67 1.81 1.81 0 00.26-.88v-13.41a.61.61 0 00-.26-.57.62.62 0 00-.62.07 1.84 1.84 0 00-.62.67 1.81 1.81 0 00-.26.88zm-28.69 17.07v13.41a.59.59 0 00.27.54.66.66 0 00.61-.08 2 2 0 00.88-1.51v-13.41a.59.59 0 00-.27-.54.66.66 0 00-.61.08 2 2 0 00-.88 1.51zm23-12.35v10.79a.61.61 0 00.26.57.62.62 0 00.62-.07 1.86 1.86 0 00.63-.67 1.9 1.9 0 00.25-.88V1226a.61.61 0 00-.25-.56.62.62 0 00-.63.07 1.84 1.84 0 00-.62.67 1.77 1.77 0 00-.26.87zm-5.74-2.63v22.89a.62.62 0 00.26.57.63.63 0 00.62-.08 1.78 1.78 0 00.63-.67 1.88 1.88 0 00.26-.87v-22.89a.63.63 0 00-.26-.57.62.62 0 00-.63.07 1.92 1.92 0 00-.62.67 1.81 1.81 0 00-.26.88zm-23 13.66V1261a.58.58 0 00.27.53.66.66 0 00.61-.08 2 2 0 00.88-1.51v-22.89a.56.56 0 00-.27-.53.61.61 0 00-.61.08 1.67 1.67 0 00-.61.65 1.8 1.8 0 00-.27.85zm-17.22 10.24v22.89a.62.62 0 00.26.57.65.65 0 00.62-.07 1.84 1.84 0 00.62-.67 1.81 1.81 0 00.26-.88v-22.89a.61.61 0 00-.26-.57.62.62 0 00-.62.07 1.84 1.84 0 00-.62.67 1.81 1.81 0 00-.26.88zm34.43-22.82v27.55a1 1 0 00.06.37.42.42 0 00.19.24.46.46 0 00.29.06.8.8 0 00.34-.13 1.54 1.54 0 00.35-.29 2 2 0 00.29-.4 1.79 1.79 0 00.19-.46 1.72 1.72 0 00.06-.44v-27.55a.61.61 0 00-.27-.54.68.68 0 00-.62.08 2 2 0 00-.61.65 2 2 0 00-.27.86zm-40.16 19.47v36.45a.62.62 0 00.25.57.67.67 0 00.63-.07 1.84 1.84 0 00.62-.67 1.81 1.81 0 00.26-.88v-36.45a.61.61 0 00-.26-.57.62.62 0 00-.62.07 1.86 1.86 0 00-.63.67 1.9 1.9 0 00-.25.88zm34.42-26v47.54a.57.57 0 00.28.53.61.61 0 00.61-.08 1.75 1.75 0 00.61-.65 1.92 1.92 0 00.27-.85v-47.59a.58.58 0 00-.27-.53.61.61 0 00-.61.08 1.75 1.75 0 00-.61.65 1.82 1.82 0 00-.28.85zm-40.16 39.5v16.33a.61.61 0 00.26.57.62.62 0 00.62-.07 1.84 1.84 0 00.62-.67 1.81 1.81 0 00.26-.88v-16.38a.62.62 0 00-.26-.57.63.63 0 00-.62.08 1.84 1.84 0 00-.62.67 1.77 1.77 0 00-.26.87zm-5.74-2.2v27.56a.59.59 0 00.26.56.6.6 0 00.62-.07 1.94 1.94 0 00.88-1.54v-27.61a.64.64 0 00-.25-.57.65.65 0 00-.63.08 1.84 1.84 0 00-.62.67 1.77 1.77 0 00-.26.87zm-5.74-6.72v47.82a.63.63 0 00.26.57.62.62 0 00.62-.07 1.86 1.86 0 00.63-.67 1.92 1.92 0 00.26-.88v-47.82a.64.64 0 00-.26-.57.65.65 0 00-.63.08 1.92 1.92 0 00-.62.67 1.88 1.88 0 00-.26.87zm-34.43 20.42v47.83a.61.61 0 00.26.56.62.62 0 00.63-.07 1.84 1.84 0 00.62-.67 1.77 1.77 0 00.26-.87V1269a.59.59 0 00-.26-.56.6.6 0 00-.62.07 1.86 1.86 0 00-.63.67 1.88 1.88 0 00-.26.87zm28.69-20.42v54.53a.54.54 0 00.89.5 1.84 1.84 0 00.62-.67 1.78 1.78 0 00.26-.88v-54.53a.62.62 0 00-.26-.57.63.63 0 00-.62.08 1.86 1.86 0 00-.63.67 1.88 1.88 0 00-.26.87zm-40.16 39.73v22.89a.59.59 0 00.27.54.66.66 0 00.61-.08 2 2 0 00.88-1.51v-22.89a.59.59 0 00-.27-.54.66.66 0 00-.61.08 2 2 0 00-.88 1.51zm-5.74-3.36v36.45a.59.59 0 00.27.53.64.64 0 00.61-.08 1.83 1.83 0 00.61-.65 1.85 1.85 0 00.28-.85v-36.46a.57.57 0 00-.28-.53.61.61 0 00-.61.08 1.67 1.67 0 00-.61.65 1.92 1.92 0 00-.27.85zm-5.74 13.47v16.33a.58.58 0 00.27.53.61.61 0 00.61-.08 1.77 1.77 0 00.62-.65 1.92 1.92 0 00.27-.85v-16.33a.61.61 0 00-.27-.54.68.68 0 00-.62.08 2 2 0 00-.61.65 2 2 0 00-.27.86zm-5.74-11.31v45.78a1 1 0 00.06.37.48.48 0 00.19.23.46.46 0 00.29.06.86.86 0 00.35-.12 1.5 1.5 0 00.34-.29 2 2 0 00.29-.41 1.73 1.73 0 00.19-.45 1.45 1.45 0 00.06-.44v-45.79a.87.87 0 00-.06-.37.43.43 0 00-.19-.23.46.46 0 00-.29-.06.82.82 0 00-.34.12 1.86 1.86 0 00-.35.29 2.24 2.24 0 00-.48.87 1.71 1.71 0 00-.06.43zm-5.73-5.63v63.86a.57.57 0 00.27.54.66.66 0 00.61-.08 1.83 1.83 0 00.61-.65 2 2 0 00.27-.86v-63.86a.61.61 0 00-.27-.54.66.66 0 00-.61.08 1.83 1.83 0 00-.61.65 1.73 1.73 0 00-.27.86zm-5.74 8.08v54.53a.61.61 0 00.26.57.62.62 0 00.62-.07 1.84 1.84 0 00.62-.67 1.81 1.81 0 00.26-.88v-54.53a.61.61 0 00-.26-.57.62.62 0 00-.62.07 1.84 1.84 0 00-.62.67 1.81 1.81 0 00-.26.88zm109-61.51v47.82a.61.61 0 00.27.54.66.66 0 00.61-.08 1.83 1.83 0 00.61-.65 1.85 1.85 0 00.28-.86V1228a.57.57 0 00-.28-.53.61.61 0 00-.61.08 1.75 1.75 0 00-.61.65 1.92 1.92 0 00-.27.85zm-5.74-7.23v69.11a.61.61 0 00.26.57.62.62 0 00.62-.07 1.86 1.86 0 00.63-.67 1.92 1.92 0 00.26-.88v-69.11a.63.63 0 00-.26-.57.64.64 0 00-.63.07 1.92 1.92 0 00-.62.67 1.81 1.81 0 00-.26.88zm-68.86 30.4v90.25a.6.6 0 00.28.54.66.66 0 00.61-.08 1.83 1.83 0 00.61-.65 2 2 0 00.27-.86v-90.26a.58.58 0 00-.27-.53.61.61 0 00-.61.08 1.75 1.75 0 00-.61.65 1.82 1.82 0 00-.28.85zm28.7 21.34V1287a.64.64 0 00.25.57.65.65 0 00.63-.08 2 2 0 00.88-1.54v-13.42a.59.59 0 00-.26-.56.6.6 0 00-.62.07 1.94 1.94 0 00-.88 1.54zm-5.74-5.47v31.2a.59.59 0 00.26.56.6.6 0 00.62-.07 1.84 1.84 0 00.62-.67 1.77 1.77 0 00.26-.87V1267a.59.59 0 00-.26-.56.6.6 0 00-.62.07 1.84 1.84 0 00-.62.67 1.77 1.77 0 00-.26.87zm-5.74-1.84V1308a.61.61 0 00.26.57.65.65 0 00.62-.07 1.86 1.86 0 00.63-.67 1.92 1.92 0 00.26-.88v-41.7a.63.63 0 00-.26-.57.64.64 0 00-.63.07 1.84 1.84 0 00-.62.67 1.81 1.81 0 00-.26.88zm-5.74-5.33v59.2a.61.61 0 00.26.56.6.6 0 00.62-.07 1.86 1.86 0 00.63-.67 1.88 1.88 0 00.26-.87v-59.2a.63.63 0 00-.26-.57.64.64 0 00-.63.07 2 2 0 00-.88 1.55zm-63.12 43.24V1352a.63.63 0 00.26.57.67.67 0 00.63-.07 1.92 1.92 0 00.62-.67 1.81 1.81 0 00.26-.88v-47.82a.61.61 0 00-.26-.57.65.65 0 00-.62.07 1.86 1.86 0 00-.63.67 1.92 1.92 0 00-.24.86zm-5.73-17.8v90.25a.64.64 0 00.25.57.65.65 0 00.63-.08 1.84 1.84 0 00.62-.67 1.77 1.77 0 00.26-.87v-90.26a.61.61 0 00-.26-.57.62.62 0 00-.62.07 1.86 1.86 0 00-.63.67 1.9 1.9 0 00-.25.88zm-5.74-13.87v124.81a.61.61 0 00.26.57.62.62 0 00.62-.07 1.84 1.84 0 00.62-.67 1.81 1.81 0 00.26-.88v-124.82a.59.59 0 00-.26-.56.6.6 0 00-.62.07 1.84 1.84 0 00-.62.67 1.77 1.77 0 00-.26.87zm23 27.91v41.69a.62.62 0 00.26.57.63.63 0 00.62-.08 2 2 0 00.88-1.54v-41.7a.61.61 0 00-.26-.57.62.62 0 00-.62.07 1.84 1.84 0 00-.62.67 1.81 1.81 0 00-.26.88zm-5.74-5.34v59.2a.62.62 0 00.26.57.63.63 0 00.62-.08 1.78 1.78 0 00.63-.67 1.88 1.88 0 00.26-.87V1294a.64.64 0 00-.26-.57.65.65 0 00-.63.08 2 2 0 00-.88 1.54zM1639 1441.49v5.29a.59.59 0 00.26.56.6.6 0 00.62-.07 1.94 1.94 0 00.88-1.54v-5.29a.64.64 0 00-.25-.57.67.67 0 00-.63.07 1.79 1.79 0 00-.62.68 1.74 1.74 0 00-.26.87zm5.74-7.48v13.42a.59.59 0 00.26.56.6.6 0 00.62-.07 1.84 1.84 0 00.62-.67 1.77 1.77 0 00.26-.87V1433a.62.62 0 00-.26-.57.63.63 0 00-.62.08 1.84 1.84 0 00-.62.67 1.77 1.77 0 00-.26.87zm28.69-17.07v13.42a.56.56 0 00.27.53.61.61 0 00.61-.08 1.75 1.75 0 00.61-.65 1.8 1.8 0 00.27-.85v-13.42a.56.56 0 00-.27-.53.61.61 0 00-.61.08 1.75 1.75 0 00-.61.65 1.8 1.8 0 00-.27.85zm-23 15v10.79a.62.62 0 00.25.57.64.64 0 00.63-.07 1.84 1.84 0 00.62-.67 1.81 1.81 0 00.26-.88v-10.79a.62.62 0 00-.26-.57.65.65 0 00-.62.07 1.89 1.89 0 00-.63.68 1.83 1.83 0 00-.25.87zm5.73-9.46v22.89a.64.64 0 00.26.57.65.65 0 00.63-.08 1.92 1.92 0 00.62-.67 1.77 1.77 0 00.26-.87v-22.92a.6.6 0 00-.26-.57.62.62 0 00-.62.07 1.86 1.86 0 00-.63.67 1.92 1.92 0 00-.26.88zm23-13.65v22.88a.57.57 0 00.27.54.66.66 0 00.61-.08 2 2 0 00.88-1.51v-22.89a.56.56 0 00-.27-.53.61.61 0 00-.61.08 2 2 0 00-.88 1.5zm17.22-10.25v22.89a.64.64 0 00.25.57.65.65 0 00.63-.08 2 2 0 00.88-1.54v-22.92a.6.6 0 00-.26-.57.62.62 0 00-.62.07 1.86 1.86 0 00-.63.67 1.9 1.9 0 00-.25.88zM1662 1416.7v27.56a.85.85 0 000 .37.48.48 0 00.19.23.46.46 0 00.29.06.86.86 0 00.35-.12 1.54 1.54 0 00.35-.29 2.3 2.3 0 00.48-.86 1.42 1.42 0 000-.44v-27.56a.57.57 0 00-.27-.53.61.61 0 00-.61.08 1.75 1.75 0 00-.61.65 1.83 1.83 0 00-.27.85zm40.16-28.34v36.45a.61.61 0 00.26.56.62.62 0 00.63-.07 1.92 1.92 0 00.62-.67 1.77 1.77 0 00.26-.87v-36.46a.62.62 0 00-.26-.57.63.63 0 00-.62.08 1.86 1.86 0 00-.63.67 1.88 1.88 0 00-.26.87zm-34.43 14.94v47.53a.57.57 0 00.28.53.61.61 0 00.61-.08 1.71 1.71 0 00.61-.64 2 2 0 00.27-.86v-47.54a.59.59 0 00-.27-.53.61.61 0 00-.61.08 1.83 1.83 0 00-.61.65 1.85 1.85 0 00-.28.85zm40.17-8.29v16.32a.61.61 0 00.26.57.62.62 0 00.62-.07 1.86 1.86 0 00.63-.67 1.92 1.92 0 00.26-.88V1394a.54.54 0 00-.89-.5 2 2 0 00-.62.67 1.81 1.81 0 00-.26.88zm5.74-9v27.56a.59.59 0 00.26.56.6.6 0 00.62-.07 1.94 1.94 0 00.88-1.54v-27.56a.61.61 0 00-.25-.56.62.62 0 00-.63.07 1.84 1.84 0 00-.62.67 1.77 1.77 0 00-.26.87zm5.74-13.54v47.82a.61.61 0 00.25.56.62.62 0 00.63-.07 1.84 1.84 0 00.62-.67 1.77 1.77 0 00.26-.87v-47.82a.6.6 0 00-.26-.57.62.62 0 00-.62.07 2 2 0 00-.63.67 1.87 1.87 0 00-.29.85zm34.43-20.49v47.83a.53.53 0 00.88.49 1.84 1.84 0 00.62-.67 1.81 1.81 0 00.26-.88v-47.85a.59.59 0 00-.26-.56.6.6 0 00-.62.07 1.94 1.94 0 00-.88 1.54zm-28.7 13.72v54.52a.63.63 0 00.26.57.64.64 0 00.63-.07 1.92 1.92 0 00.62-.67 1.81 1.81 0 00.26-.88v-54.53a.61.61 0 00-.26-.57.62.62 0 00-.62.07 1.86 1.86 0 00-.63.67 1.92 1.92 0 00-.26.88zm40.17-8.08v22.88a.61.61 0 00.27.54.66.66 0 00.61-.08 2 2 0 00.89-1.51v-22.89a.58.58 0 00-.27-.53.63.63 0 00-.62.08 1.83 1.83 0 00-.61.65 1.88 1.88 0 00-.27.85zm5.74-10.19v36.44a.58.58 0 00.27.53.61.61 0 00.61-.08 1.71 1.71 0 00.61-.64 1.85 1.85 0 00.28-.86v-36.45a.6.6 0 00-.28-.54.66.66 0 00-.61.08 1.92 1.92 0 00-.61.65 2 2 0 00-.27.86zm5.74 6.65v16.32a.56.56 0 00.27.53.61.61 0 00.61-.08 1.75 1.75 0 00.61-.65 1.83 1.83 0 00.27-.85V1353a.57.57 0 00-.27-.53.64.64 0 00-.61.08 2 2 0 00-.88 1.5zm5.73-18.15v45.78a.72.72 0 00.06.37.45.45 0 00.18.24.51.51 0 00.3.06 1.12 1.12 0 00.34-.13 1.54 1.54 0 00.35-.29 2 2 0 00.29-.4 2.24 2.24 0 00.19-.46 1.38 1.38 0 000-.44v-45.78a.85.85 0 000-.37.44.44 0 00-.48-.3.89.89 0 00-.35.13 1.31 1.31 0 00-.34.29 2.46 2.46 0 00-.3.4 2.19 2.19 0 00-.18.46 1.14 1.14 0 00-.06.44zm5.74-12.46v63.87a.56.56 0 00.27.53.61.61 0 00.61-.08 1.71 1.71 0 00.61-.64 1.87 1.87 0 00.27-.86v-63.87a.56.56 0 00-.27-.53.61.61 0 00-.61.08 1.75 1.75 0 00-.61.65 1.8 1.8 0 00-.27.85zm5.74 1.25v54.54a.62.62 0 00.26.57.63.63 0 00.62-.08 2 2 0 00.88-1.54v-54.53a.53.53 0 00-.88-.5 1.76 1.76 0 00-.62.67 1.8 1.8 0 00-.26.87zm-109 68.22v47.82a.58.58 0 00.27.53.63.63 0 00.61-.07 2 2 0 00.89-1.51v-47.82a.58.58 0 00-.27-.53.63.63 0 00-.62.08 1.88 1.88 0 00-.61.64 2 2 0 00-.27.86zm5.74-14.06V1448a.62.62 0 00.26.57.63.63 0 00.62-.08 1.86 1.86 0 00.63-.67 1.88 1.88 0 00.26-.87v-69.15a.61.61 0 00-.26-.56.62.62 0 00-.63.07 1.92 1.92 0 00-.62.67 1.77 1.77 0 00-.33.87zm68.86-51.53v90.25a.59.59 0 00.27.54.66.66 0 00.61-.08 2 2 0 00.88-1.51v-90.25a.59.59 0 00-.27-.54.66.66 0 00-.61.08 2 2 0 00-.88 1.51zm-28.69 55.49v13.41a.61.61 0 00.26.57.62.62 0 00.62-.07 1.84 1.84 0 00.62-.67 1.81 1.81 0 00.26-.88v-13.41a.61.61 0 00-.26-.57.62.62 0 00-.62.07 1.84 1.84 0 00-.62.67 1.81 1.81 0 00-.26.88zm5.74-12.31v31.2a.62.62 0 00.25.57.64.64 0 00.63-.07 1.84 1.84 0 00.62-.67 1.81 1.81 0 00.26-.88v-31.2a.61.61 0 00-.26-.57.62.62 0 00-.62.07 1.86 1.86 0 00-.63.67 1.9 1.9 0 00-.25.88zm5.73-8.66v41.7a.64.64 0 00.26.57.65.65 0 00.63-.08 1.92 1.92 0 00.62-.67 1.77 1.77 0 00.26-.87v-41.7a.61.61 0 00-.26-.57.6.6 0 00-.62.07 1.86 1.86 0 00-.63.67 1.92 1.92 0 00-.26.88zm5.74-12.16v59.2a.59.59 0 00.26.56.6.6 0 00.62-.07 1.86 1.86 0 00.63-.67 1.88 1.88 0 00.26-.87v-59.2a.63.63 0 00-.26-.57.64.64 0 00-.63.07 1.84 1.84 0 00-.62.67 1.81 1.81 0 00-.35.85zm63.12-31.86v47.82a.59.59 0 00.26.56.6.6 0 00.62-.07 1.94 1.94 0 00.88-1.54v-47.82a.53.53 0 00-.88-.5 1.84 1.84 0 00-.62.67 1.78 1.78 0 00-.26.88zm5.74-24.63v90.25a.59.59 0 00.26.56.6.6 0 00.62-.07 1.84 1.84 0 00.62-.67 1.77 1.77 0 00.26-.87v-90.26a.61.61 0 00-.26-.57.62.62 0 00-.62.07 1.84 1.84 0 00-.62.67 1.81 1.81 0 00-.26.88zm-17.22 34.52v41.69a.61.61 0 00.26.57.62.62 0 00.62-.07 1.76 1.76 0 00.62-.67 1.81 1.81 0 00.26-.88v-41.7a.62.62 0 00-.26-.57.63.63 0 00-.62.08 1.88 1.88 0 00-.62.66 1.84 1.84 0 00-.26.88zm5.74-12.16v59.2a.61.61 0 00.25.56.62.62 0 00.63-.07 1.84 1.84 0 00.62-.67 1.77 1.77 0 00.26-.87v-59.2a.61.61 0 00-.26-.57.62.62 0 00-.62.07 1.86 1.86 0 00-.63.67 1.9 1.9 0 00-.32.85z" transform="translate(-1550.65 -675)" fill="url(#al)"/><ellipse cx="1824.04" cy="1334.05" rx="77.98" ry="44.34" transform="rotate(-60.38 468.405 2329.202)" style="isolation:isolate" fill="#2b3356" opacity=".7"/><ellipse cx="1824.04" cy="1334.05" rx="77.04" ry="43.81" transform="rotate(-60.38 468.405 2329.202)" fill="none" stroke-width="1.533" stroke="url(#f)"/><ellipse cx="1824.04" cy="1334.05" rx="45.15" ry="25.67" transform="rotate(-60.38 468.405 2329.202)" fill="url(#am)"/><path d="M273.79 666.49l-.81.48a6.18 6.18 0 01-2.58.91 3.47 3.47 0 01-2.11-.46 3.65 3.65 0 01-1.42-1.7 6.86 6.86 0 01-.52-2.8v-13.71a12.27 12.27 0 01.52-3.43 16.27 16.27 0 011.42-3.39 16.11 16.11 0 012.11-3 11.11 11.11 0 012.58-2.17l.81-.49a6.19 6.19 0 012.59-.9 3.37 3.37 0 012.1.46 3.6 3.6 0 011.42 1.7 6.83 6.83 0 01.52 2.8v13.71a12.27 12.27 0 01-.52 3.43 16 16 0 01-1.42 3.38 15.81 15.81 0 01-2.1 3 11.15 11.15 0 01-2.59 2.18zm3.92-24c0-2.61-1.76-3.68-3.92-2.4l-.81.49a9 9 0 00-3.92 7v13.71c0 2.6 1.76 3.68 3.92 2.39l.81-.48a9 9 0 003.92-7zm0 36l-8.7 5.17c-.75.45-1.36.08-1.36-.83a3.12 3.12 0 011.36-2.44l3-1.79v-5a10.6 10.6 0 01-3.47 1 6.37 6.37 0 01-3.94-.87 6.84 6.84 0 01-2.66-3.17 12.91 12.91 0 01-1-5.25v-1a3.14 3.14 0 011.36-2.45c.75-.45 1.36-.07 1.36.83v1c0 3.13 1 5.46 2.84 6.58s4.26.89 6.85-.65a19.94 19.94 0 006.85-7.5 21.14 21.14 0 002.84-10v-1a3.16 3.16 0 011.36-2.45c.75-.44 1.36-.07 1.36.84v1a23.09 23.09 0 01-1 6.41 30.73 30.73 0 01-2.66 6.34 29.31 29.31 0 01-3.94 5.55 23 23 0 01-3.47 3.15v5l3-1.78c.75-.45 1.36-.08 1.36.83a3.16 3.16 0 01-1.32 2.49z" fill="#fff" fill-rule="evenodd"/></g></svg>