<svg xmlns="http://www.w3.org/2000/svg" xmlns:xlink="http://www.w3.org/1999/xlink" viewBox="0 0 3196.42 2346.73"><defs><linearGradient id="a" x1="593.3" y1="1249.94" x2="593.3" y2="607.8" gradientUnits="userSpaceOnUse"><stop offset="0" stop-color="#534af6"/><stop offset="1" stop-color="#8eaaf3"/></linearGradient><linearGradient id="b" x1="462.22" y1="1249.94" x2="462.22" y2="603.8" gradientUnits="userSpaceOnUse"><stop offset="0" stop-color="#7179f7"/><stop offset="1" stop-color="#abd8f0"/></linearGradient><linearGradient id="l" x1="401.39" y1="1360.8" x2="401.39" y2="914.81" xlink:href="#a"/><linearGradient id="m" x1="270.31" y1="1360.8" x2="270.31" y2="910.81" xlink:href="#b"/><linearGradient id="n" x1="202.18" y1="1476.08" x2="202.18" y2="1207.71" xlink:href="#a"/><linearGradient id="o" x1="71.1" y1="1476.08" x2="71.1" y2="1203.72" xlink:href="#b"/><linearGradient id="j" x1="2885.81" y1="1361.84" x2="2368.52" y2="726.13" gradientUnits="userSpaceOnUse"><stop offset="0" stop-color="#1e34b3"/><stop offset="1" stop-color="#4c86f3"/></linearGradient><linearGradient id="p" x1="-108.88" y1="929.85" x2="337.03" y2="503.32" gradientUnits="userSpaceOnUse"><stop offset="0" stop-color="#8aa4f4"/><stop offset="1" stop-color="#abd8f0"/></linearGradient><linearGradient id="c" x1="2819.74" y1="1539.19" x2="4157.55" y2="1539.19" gradientUnits="userSpaceOnUse"><stop offset=".55" stop-color="#edce3f"/><stop offset=".82" stop-color="#eeb800"/></linearGradient><linearGradient id="h" x1="3457.1" y1="2214.69" x2="2945.99" y2="1259.01" gradientUnits="userSpaceOnUse"><stop offset=".31" stop-color="#ece270"/><stop offset=".82" stop-color="#eeb800"/></linearGradient><linearGradient id="q" x1="2898.64" y1="886.8" x2="3344.2" y2="1576.63" xlink:href="#b"/><linearGradient id="r" x1="2753.6" y1="969.78" x2="3644.27" y2="969.78" xlink:href="#c"/><linearGradient id="d" x1="2913.38" y1="1224.96" x2="2894.55" y2="939.21" gradientUnits="userSpaceOnUse"><stop offset="0" stop-color="#7174f6"/><stop offset="1" stop-color="#b6d6ef"/></linearGradient><linearGradient id="s" x1="809.3" y1="2041.64" x2="3466.26" y2="3058.36" gradientUnits="userSpaceOnUse"><stop offset="0" stop-color="#0000ea" stop-opacity=".1"/><stop offset="1" stop-color="#0600d7" stop-opacity="0"/></linearGradient><linearGradient id="t" x1="1919" y1="2539.91" x2="2773.66" y2="2539.91" gradientUnits="userSpaceOnUse"><stop offset="0" stop-color="#e3e3f9"/><stop offset=".04" stop-color="#e0e0f8"/><stop offset=".39" stop-color="#c9c8f3"/><stop offset=".72" stop-color="#bcbaf0"/><stop offset="1" stop-color="#b7b5ef"/></linearGradient><linearGradient id="u" x1="1919" y1="2443.7" x2="2773.66" y2="2443.7" xlink:href="#d"/><linearGradient id="v" x1="2004.03" y1="2062.31" x2="2682.12" y2="2453.81" gradientUnits="userSpaceOnUse"><stop offset="0" stop-color="#b4b4fa"/><stop offset=".25" stop-color="#a2a2f1"/><stop offset=".74" stop-color="#7474db"/><stop offset="1" stop-color="#5a59ce"/></linearGradient><linearGradient id="w" x1="2004.03" y1="2062.31" x2="2682.12" y2="2453.81" gradientUnits="userSpaceOnUse"><stop offset="0" stop-color="#afc1ff"/><stop offset=".03" stop-color="#a8b9f8"/><stop offset=".18" stop-color="#8690d6"/><stop offset=".33" stop-color="#6a6eba"/><stop offset=".49" stop-color="#5554a4"/><stop offset=".65" stop-color="#454294"/><stop offset=".82" stop-color="#3c378b"/><stop offset="1" stop-color="#393388"/></linearGradient><linearGradient id="x" x1="2009.59" y1="2210.29" x2="2683.06" y2="2210.29" xlink:href="#d"/><linearGradient id="y" x1="1919.03" y1="2340.61" x2="2773.63" y2="2340.61" xlink:href="#d"/><linearGradient id="e" x1="2459.64" y1="2857.75" x2="2478.02" y2="2549.59" gradientUnits="userSpaceOnUse"><stop offset="0" stop-color="#6473f6"/><stop offset="1" stop-color="#95d4ec"/></linearGradient><linearGradient id="z" x1="2038.87" y1="2209.1" x2="2346.32" y2="2209.1" xlink:href="#e"/><linearGradient id="A" x1="2402.75" y1="3876.19" x2="2320.17" y2="-246.13" gradientUnits="userSpaceOnUse"><stop offset=".45" stop-color="#c9ffff" stop-opacity=".3"/><stop offset=".47" stop-color="#c5f7fc" stop-opacity=".24"/><stop offset=".53" stop-color="#c0ebf7" stop-opacity=".15"/><stop offset=".59" stop-color="#bbe2f4" stop-opacity=".08"/><stop offset=".66" stop-color="#b8dbf1" stop-opacity=".04"/><stop offset=".76" stop-color="#b7d7ef" stop-opacity=".01"/><stop offset="1" stop-color="#b6d6ef" stop-opacity="0"/></linearGradient><linearGradient id="f" x1="2133.44" y1="2337.25" x2="2133.44" y2="1089.49" gradientUnits="userSpaceOnUse"><stop offset="0" stop-color="#b6d6ef" stop-opacity="0"/><stop offset=".01" stop-color="#dbebf7" stop-opacity="0"/><stop offset=".01" stop-color="#fff" stop-opacity="0"/><stop offset=".13" stop-color="#eff" stop-opacity=".1"/><stop offset=".3" stop-color="#daffff" stop-opacity=".21"/><stop offset=".45" stop-color="#cdffff" stop-opacity=".28"/><stop offset=".55" stop-color="#c9ffff" stop-opacity=".3"/></linearGradient><linearGradient id="B" x1="2134.77" y1="2337.25" x2="2134.77" y2="1058.96" xlink:href="#f"/><linearGradient id="C" x1="2537.25" y1="2348.88" x2="2537.25" y2="1089.49" xlink:href="#f"/><linearGradient id="D" x1="2556.38" y1="2348.88" x2="2556.38" y2="846.43" gradientUnits="userSpaceOnUse"><stop offset="0" stop-color="#b6d6ef" stop-opacity="0"/><stop offset=".24" stop-color="#dbebf7" stop-opacity="0"/><stop offset=".28" stop-color="#fff" stop-opacity="0"/><stop offset=".59" stop-color="#69b0ff" stop-opacity="0"/></linearGradient><linearGradient id="g" x1="1089.38" y1="386.18" x2="1082.26" y2="2360.69" gradientUnits="userSpaceOnUse"><stop offset=".14" stop-color="#b6d6ef" stop-opacity="0"/><stop offset=".17" stop-color="#b9dcf1" stop-opacity=".03"/><stop offset=".37" stop-color="#c5f5fb" stop-opacity=".15"/><stop offset=".49" stop-color="#c9ffff" stop-opacity=".19"/><stop offset=".65" stop-color="#bfeaf7" stop-opacity=".09"/><stop offset=".82" stop-color="#b8dbf1" stop-opacity=".02"/><stop offset=".94" stop-color="#b6d6ef" stop-opacity="0"/></linearGradient><linearGradient id="E" x1="2337.43" y1="1096.57" x2="2367.75" y2="3051.91" gradientUnits="userSpaceOnUse"><stop offset=".28" stop-color="#fff" stop-opacity="0"/><stop offset=".95" stop-color="#fff"/></linearGradient><linearGradient id="F" x1="4465.4" y1="2051.69" x2="4465.39" y2="2054.69" xlink:href="#g"/><linearGradient id="G" x1="4033.9" y1="2137.99" x2="4033.89" y2="2140.99" xlink:href="#g"/><linearGradient id="H" x1="2350.57" y1="2047.45" x2="2350.57" y2="1633.68" xlink:href="#h"/><linearGradient id="I" x1="2350.57" y1="2047.45" x2="2350.57" y2="1633.68" xlink:href="#h"/><linearGradient id="J" x1="2398.15" y1="1843.3" x2="2258.44" y2="1130.43" xlink:href="#c"/><linearGradient id="K" x1="2501.99" y1="1345.62" x2="2577.6" y2="1345.62" gradientUnits="userSpaceOnUse"><stop offset=".07" stop-color="#bab59b"/><stop offset="1" stop-color="#ebe9d8"/></linearGradient><linearGradient id="i" x1="1231.56" y1="712.09" x2="1251.58" y2="712.09" gradientUnits="userSpaceOnUse"><stop offset=".04" stop-color="#fdfbf3"/><stop offset="1" stop-color="#ebe9d8"/></linearGradient><linearGradient id="L" x1="2626.91" y1="1396.36" x2="2646.93" y2="1396.36" gradientTransform="matrix(-1 0 0 1 3524.51 -684.27)" xlink:href="#i"/><linearGradient id="M" x1="2188.9" y1="817.18" x2="2500.16" y2="817.18" xlink:href="#j"/><linearGradient id="N" x1="2375.08" y1="896.45" x2="2233.63" y2="765.66" xlink:href="#j"/><linearGradient id="P" x1="997.36" y1="437.19" x2="1126.39" y2="437.19" xlink:href="#b"/><linearGradient id="Q" x1="3078.6" y1="2732.17" x2="3471.7" y2="3138.36" gradientUnits="userSpaceOnUse"><stop offset="0" stop-color="#1200ec" stop-opacity=".1"/><stop offset="1" stop-color="#1500d9" stop-opacity="0"/></linearGradient><linearGradient id="k" x1="3014.29" y1="2830.81" x2="3132.42" y2="2830.81" gradientUnits="userSpaceOnUse"><stop offset="0" stop-color="#508bf1"/><stop offset="1" stop-color="#aed7ff"/></linearGradient><linearGradient id="R" x1="2920.2" y1="2775.45" x2="3027.16" y2="2775.45" xlink:href="#k"/><linearGradient id="S" x1="2748.16" y1="2305.48" x2="2779.42" y2="2163.29" gradientTransform="matrix(-1 0 0 1 5868.67 0)" xlink:href="#k"/><linearGradient id="T" x1="2831.65" y1="2348.26" x2="2867.3" y2="2186.45" gradientTransform="matrix(-1 0 0 1 5868.67 0)" xlink:href="#k"/><linearGradient id="U" x1="2926.17" y1="2434.42" x2="2911.25" y2="2214.14" gradientTransform="matrix(-1 0 0 1 5868.67 0)" xlink:href="#k"/><radialGradient id="O" cx="2237.15" cy="1119.1" r="317.71" gradientUnits="userSpaceOnUse"><stop offset=".01" stop-color="#d1e1f4"/><stop offset="1" stop-color="#b3cdf4"/></radialGradient></defs><g style="isolation:isolate"><g style="isolation:isolate"><path fill="url(#a)" d="M657.54 607.8l.56 568.78-129.05 73.36-.55-568.78 129.04-73.36z"/><path fill="url(#b)" d="M529.05 1249.94l-133.12-77.35-.55-568.79 133.12 77.36.55 568.78z"/><path fill="#ebf2f7" d="M528.5 681.16L395.38 603.8l129.05-73.36 133.11 77.36-129.04 73.36z"/></g><g style="isolation:isolate"><path fill="url(#l)" d="M465.63 914.81l.56 372.63-129.05 73.36-.55-372.63 129.04-73.36z"/><path fill="url(#m)" d="M337.14 1360.8l-133.11-77.36-.56-372.63 133.12 77.36.55 372.63z"/><path fill="#ebf2f7" d="M336.59 988.17l-133.12-77.36 129.05-73.36 133.11 77.36-129.04 73.36z"/></g><g style="isolation:isolate"><path fill="url(#n)" d="M266.42 1207.71l.56 195.01-129.05 73.36-.55-195 129.04-73.37z"/><path fill="url(#o)" d="M137.93 1476.08L4.81 1398.72l-.55-195 133.12 77.36.55 195z"/><path fill="#ebf2f7" d="M137.38 1281.08L4.26 1203.72l129.05-73.37 133.11 77.36-129.04 73.37z"/></g><path d="M2498.82 818.29q1.95-2 4-3.85-2.05 1.83-4 3.85zm53.82 210.88" transform="translate(-1270.43 -684.27)" fill="url(#j)"/><path fill="url(#p)" d="M396.39 363.51l110.79-89.82-22.12 140.36-32.58-18.54-62.53 108.34-48.28-27.52-140.98 244.22-82.03-46.74L21.1 842.84 0 830.81l118.53-205.29 82.02 46.71 140.98-244.19 48.28 27.52 41.6-72.05-35.02-20z" style="fill:url(#Безымянный_градиент_121)"/><path d="M2837.61 1217.7c-9.32-5.38-16.91-1.06-16.94 9.66l-.93 326.37c0 10.67 7.51 23.73 16.84 29.12l481.2 277.82c9.32 5.38 16.91 1.06 16.94-9.62l.93-326.37c0-10.71-7.51-23.77-16.84-29.16z" transform="translate(-1270.43 -684.27)" opacity=".64" fill="url(#c)" style="opacity:0.64;fill:url(#Безымянный_градиент_124)"/><path fill="#fff" d="M1577.39 573.33l-.07 27.18 42.57 24.58.08-27.18-42.58-24.58z"/><path d="M2953 1321.63a8.59 8.59 0 014 5.86l18.69 117.89c3.07 10.31 10.84 19.56 18.74 24.12 5.16 3 10.38 4 14.4 2l57.14-28c1.34-.62 3.06-.29 4.76.69a14.65 14.65 0 016.29 8.12l38.58 131.56a43 43 0 0018.75 24.27c7.81 4.51 15.64 4.55 18.83-2.57l9.21-20.35c1.07-2.34 3.68-2.3 6.3-.79a14.26 14.26 0 016.26 8l18.34 62.63a19.82 19.82 0 008.63 11.14c3.59 2.07 7.19 2.09 8.66-1.16l38.78-155.48c.94-3.65 4.31-3.76 7.67-1.83a16.16 16.16 0 017.71 11.4l26 245.72-372-218.81 30.12-223c.31-2.35 2.23-2.51 4.14-1.41z" transform="translate(-1270.43 -684.27)" fill="url(#h)"/><path d="M1645.76 643.5a8.62 8.62 0 014 5.86l18.68 117.88c3.08 10.32 10.84 19.57 18.75 24.13 5.16 3 10.37 4 14.39 1.95l57.15-28c1.34-.63 3.06-.29 4.76.69a14.6 14.6 0 016.28 8.12l38.62 131.6a43 43 0 0018.75 24.27c7.82 4.51 15.64 4.55 18.83-2.57l9.22-20.36c1.06-2.33 3.68-2.3 6.29-.79a14.38 14.38 0 016.27 8l18.34 62.64a19.75 19.75 0 008.62 11.13c3.6 2.08 7.2 2.1 8.66-1.16l38.79-155.47c.94-3.66 4.31-3.77 7.67-1.83a16.11 16.11 0 017.7 11.4l26 245.72-372-218.81 30.12-223c.27-2.34 2.19-2.51 4.11-1.4z" fill="#fff"/><g><path d="M3073 968.13c-12.11-44.15-34.13-85.91-62.79-121.54-21.3-28.79-52.08-54.9-84.62-70.19-24.09-11.33-52.88-17.4-78.37-7.5-1.21.47-2.42 1-3.61 1.51a76 76 0 00-8.57 4.64l-43.12 21.75s7.3 4.15 15.68 8.73c-19.05 38-12 92.71-1 129.75 20.14 67.87 63.78 134.81 123.92 173.59 20.27 13.07 44.36 23.8 68.87 24.64l-7.81 14.07 43.9-21.07 3-1.82q2.12-1.17 4.13-2.47l.58-.35c13.19-8.72 23.31-21.75 29.56-37 14.98-36.55 10.46-79.56.25-116.74zm-134.09 69.58c-33.28-19.21-57.5-54.84-69.53-90.74-9.39-28-15.78-74.81 15.06-92.61 32-18.45 70.48 12.9 90 35.95 25.9 30.52 46.32 74.47 40.7 115.38-2.19 15.89-9.68 32.08-25 39-16.72 7.64-36.14 1.75-51.21-6.98z" transform="translate(-1270.43 -684.27)" fill="url(#q)"/><path d="M2896.79 1135.12c-79-45.59-143.19-156.84-143.19-248s64.24-128.25 143.19-82.67 143.21 156.84 143.21 248-64.26 128.25-143.21 82.67zm0-254.34c-42.5-24.53-77.08-4.57-77.08 44.5s34.58 109 77.08 133.51 77.08 4.57 77.08-44.5-34.57-108.97-77.08-133.51z" transform="translate(-1270.43 -684.27)" fill="url(#r)"/><path d="M2896.79 1135.12c-79-45.59-143.19-156.84-143.19-248s64.24-128.25 143.19-82.67c25.05 14.46 49.72 36.3 71.34 63.15l-33 47.12c-11.6-14.41-24.87-26.14-38.37-33.94-42.5-24.53-77.08-4.57-77.08 44.5s34.58 109 77.08 133.51 77.08 4.57 77.08-44.5l66.1 38.16c.06 91.17-64.2 128.25-143.15 82.67z" transform="translate(-1270.43 -684.27)" fill="url(#d)"/></g><g data-name="data b"><path d="M2245.69 2974.09l-490-282.91c-57.38-33.13-57.38-87 0-120.15l490-282.9c57.37-33.13 150.72-33.13 208.1 0l490 282.91c57.37 33.13 57.37 87 0 120.15l-490 282.9c-57.37 33.12-150.72 33.12-208.1 0z" transform="translate(-1270.43 -684.27)" fill="url(#s)"/><g opacity=".3"><path d="M1503.23 1930.11v-74.47l-20.6-11.45c-5.82 35.14-47.18 58.3-81.76 63.11l-235.51 137.72-102.79 37.12-328.07-169.3 7.58-4.38c-28-13.1-43.15-43.06-58.31-70.39l-22.09 13.17-13.11 3.69v76.37c0 14.59 9.63 29.18 28.87 40.29l328.67 189.76c38.49 22.22 101.1 22.22 139.59 0l328.67-189.75c18.92-10.93 28.54-25.23 28.85-39.58v-1.93z" fill="#331fec"/><path d="M1400.87 1907.3l-235.51 137.72-89.46 32.31v100.69c25.28 0 50.55-5.56 69.8-16.67l328.67-189.75c18.92-10.93 28.54-25.23 28.85-39.58v-76.4l-18.83-10.47h-2c-6.38 34.58-47.27 57.38-81.52 62.15z" fill="#331fec"/><path d="M2276.54 2770l-328.67-189.8c-38.49-22.21-38.49-58.37 0-80.59l328.67-189.75c38.48-22.22 101.1-22.22 139.59 0l328.67 189.76c38.49 22.22 38.49 58.37 0 80.59L2416.13 2770c-38.49 22.18-101.13 22.18-139.59 0z" transform="translate(-1270.43 -684.27)" fill="url(#t)"/><path d="M1006.11 2085.73l-328.67-189.8c-38.49-22.21-38.49-58.37 0-80.59l328.67-189.75c38.48-22.22 101.1-22.22 139.59 0l328.67 189.76c38.49 22.22 38.49 58.37 0 80.59l-328.67 189.79c-38.49 22.18-101.13 22.18-139.59 0z" fill="#7370ff"/></g><path d="M1075.9 2015.35c-22.43 0-44.86-4.93-61.95-14.8l-328.68-189.76c-17.06-9.86-26.46-23.15-26.46-37.43s9.4-27.57 26.46-37.43l328.67-189.75c34.16-19.73 89.72-19.73 123.91 0l328.72 189.77c17.06 9.85 26.45 23.14 26.45 37.42s-9.39 27.57-26.45 37.43l-328.67 189.75c-17.12 9.87-39.56 14.8-62 14.8zm0-478.29c-21.39 0-42.78 4.71-59.06 14.1l-328.67 189.75c-15.21 8.79-23.59 20.32-23.59 32.45s8.38 23.66 23.59 32.44l328.68 189.77c32.56 18.79 85.57 18.79 118.13 0l328.67-189.75c15.21-8.79 23.59-20.31 23.59-32.45s-8.38-23.66-23.59-32.44l-328.68-189.77c-16.29-9.43-37.69-14.1-59.08-14.1z" fill="#fff"/><path d="M2773.66 2384.8v-112.54l-20.6-11.46c-5.82 35.15-47.18 58.3-81.76 63.12l-235.51 137.72-102.79 37.11-328.07-169.3 7.58-4.38c-28-13.09-43.15-43.06-58.31-70.39l-22.09 13.17-13.12 3.69V2386c0 14.6 9.63 29.19 28.87 40.3l328.67 189.76c38.49 22.22 101.1 22.22 139.59 0l328.67-189.76c18.92-10.93 28.54-25.23 28.85-39.58v-1.92z" transform="translate(-1270.43 -684.27)" fill="url(#u)" opacity=".47"/><path d="M2773.66 2284.76v-74.47l-20.6-11.45c-5.82 35.14-47.18 58.3-81.76 63.11l-235.51 137.72-102.79 37.12-328.07-169.3 7.58-4.38c-28-13.1-43.15-43.06-58.31-70.39l-22.09 13.17-13.12 3.69V2286c0 14.59 9.63 29.18 28.87 40.29L2276.54 2516c38.49 22.22 101.1 22.22 139.59 0l328.67-189.75c18.92-10.93 28.54-25.23 28.85-39.58v-1.93z" transform="translate(-1270.43 -684.27)" fill="url(#v)"/><path d="M2773.66 2284.76v-74.47l-20.6-11.45c-5.82 35.14-47.18 58.3-81.76 63.11l-235.51 137.72-102.79 37.12-328.07-169.3 7.58-4.38c-28-13.1-43.15-43.06-58.31-70.39l-22.09 13.17-13.12 3.69V2286c0 14.59 9.63 29.18 28.87 40.29L2276.54 2516c38.49 22.22 101.1 22.22 139.59 0l328.67-189.75c18.92-10.93 28.54-25.23 28.85-39.58v-1.93z" transform="translate(-1270.43 -684.27)" fill="url(#w)"/><path d="M1400.87 1577.73l-235.51 137.72-89.46 32.28v100.69c25.28 0 50.55-5.55 69.8-16.67L1474.37 1642c18.92-10.93 28.54-25.23 28.85-39.58v-76.4l-18.83-10.47h-2c-6.38 34.59-47.27 57.37-81.52 62.18z" fill="#1c154e" opacity=".3"/><path d="M1006.11 1756.08l-328.67-189.76c-38.49-22.22-38.49-58.38 0-80.6l328.67-189.75c38.48-22.22 101.1-22.22 139.59 0l328.66 189.76c38.49 22.22 38.49 58.37 0 80.59l-328.67 189.76c-38.48 22.22-101.12 22.22-139.58 0z" fill="#61639c"/><path d="M2346.33 2405.88c-20.26 0-40.53-4.45-56-13.36l-256.78-148.26c-15.47-8.93-24-21-24-34s8.52-25 24-34L2290.32 2028c30.87-17.82 81.08-17.8 112 0l256.78 148.24c15.47 8.93 24 21 24 34s-8.51 25-24 34l-256.78 148.25c-15.45 8.94-35.72 13.39-55.99 13.39zm-53.08-18.34c29.27 16.89 76.9 16.89 106.17 0l256.78-148.25c13.61-7.86 21.11-18.16 21.11-29s-7.5-21.13-21.12-29l-256.78-148.24c-29.26-16.88-76.89-16.92-106.17 0l-256.77 148.25c-13.63 7.86-21.12 18.15-21.12 29s7.49 21.14 21.12 29z" transform="translate(-1270.43 -684.27)" opacity=".42" fill="url(#x)"/><path d="M2744.8 2250.59l-328.67 189.76c-38.49 22.22-101.1 22.22-139.59 0l-328.67-189.76c-17.2-9.94-26.69-22.65-28.52-35.66-2.26 16.1 7.23 32.65 28.52 44.93l328.67 189.77c38.49 22.21 101.1 22.22 139.59 0l328.67-189.76c21.28-12.29 30.76-28.84 28.51-44.93-1.83 13.06-11.31 25.72-28.51 35.65z" transform="translate(-1270.43 -684.27)" fill="url(#y)"/><path d="M2640 2179.77l-239.26-138.13c-14.92-8.62-34.83-12.6-54.41-12v359c19.58.57 39.49-3.41 54.42-12L2640 2238.43c28-16.17 28-42.43 0-58.66z" transform="translate(-1270.43 -684.27)" fill="url(#e)"/><path d="M2299.12 2041.64l-239.24 138.13c-28 16.17-28 42.49 0 58.66l239.25 138.13c13.09 7.56 30 11.54 47.19 12v-359c-17.18.54-34.11 4.52-47.2 12.08z" transform="translate(-1270.43 -684.27)" fill="url(#z)"/><path d="M2676.82 1227.49l-643.4 27.38 8.81 954.23c0 10.62 7 21.24 21 29.33l239.25 138.13c13.09 7.56 30 11.54 47.19 12 19.58.57 39.49-3.41 54.42-12l239.25-138.13c14-8.08 21-18.71 21-29.33z" transform="translate(-1270.43 -684.27)" fill="url(#A)"/><g opacity=".37"><path d="M2036.89 1298l2.65 912.1c0 10.62 7 21.24 21 29.33l169.46 97.82-.39-1247.76z" transform="translate(-1270.43 -684.27)" fill="url(#f)"/><path d="M2064.27 1189.53l-24.73 1020.57c0 10.62 7 21.24 21 29.33l169.46 97.82-.4-1278.25z" transform="translate(-1270.43 -684.27)" fill="url(#B)"/><path d="M2661.67 2210.1l-9.8-973.18-239-147.43 38.26 1259.39 189.57-109.45c13.97-8.08 20.97-18.71 20.97-29.33z" transform="translate(-1270.43 -684.27)" fill="url(#C)"/><path d="M2661.67 2210.1l-20.33-1072.17-190.25-162.35v1373.3l189.57-109.45c14.01-8.08 21.01-18.71 21.01-29.33z" transform="translate(-1270.43 -684.27)" fill="url(#D)"/></g><path fill="url(#g)" d="M770.11 1531.83L487.36 434.39l1203.62 18.96-298.74 1078.48H770.11z"/><path d="M2196.42 975v1342.67l102.7 59.29c13.09 7.55 30 11.53 47.19 12 19.58.57 39.49-3.41 54.42-12l94.76-54.71V975z" transform="translate(-1270.43 -684.27)" fill="url(#E)"/><circle cx="1011.5" cy="1543.61" r="12.64" fill="#fff" opacity=".31"/><circle cx="1062.05" cy="1419.36" r="12.64" fill="#fff" opacity=".37"/><circle cx="1138.92" cy="1473.06" r="12.64" fill="#fff" opacity=".37"/><circle cx="1013.07" cy="1397.78" r="14.21" fill="#fff" opacity=".57"/><circle cx="1069.89" cy="1258.1" r="14.21" fill="#fff" opacity=".57"/><circle cx="1156.31" cy="1318.47" r="14.21" fill="#fff" opacity=".57"/><circle cx="1068.03" cy="1619.77" r="7.03" fill="#fff" opacity=".61"/><circle cx="1096.15" cy="1550.65" r="7.03" fill="#fff" opacity=".61"/><circle cx="1138.91" cy="1580.52" r="7.03" fill="#fff" opacity=".61"/><circle cx="976.41" cy="1553.43" r="7.03" fill="#fff" opacity=".61"/><circle cx="1004.53" cy="1484.3" r="7.03" fill="#fff" opacity=".61"/><circle cx="1047.3" cy="1514.18" r="7.03" fill="#fff" opacity=".61"/><circle cx="1074.72" cy="1675.06" r="7.03" fill="#fff" opacity=".14"/><circle cx="1109.84" cy="1595.93" r="7.03" fill="#fff" opacity=".14"/><circle cx="1152.6" cy="1625.8" r="7.03" fill="#fff" opacity=".14"/><path d="M4465.4 2054.69a1.5 1.5 0 000-3 1.5 1.5 0 000 3z" transform="translate(-1270.43 -684.27)" fill="url(#F)"/><path d="M4033.9 2141a1.5 1.5 0 000-3 1.5 1.5 0 000 3z" transform="translate(-1270.43 -684.27)" fill="url(#G)"/></g><g><path d="M2350.57 1793.88s-26.68-95.11-50.13-193.35c-21.11 27.37-34.82 71.57-34.82 121.44 0 83.08 85 385.93 85 385.93s84.95-302.85 84.95-385.93c0-49.87-13.71-94.07-34.82-121.44-23.5 98.24-50.18 193.35-50.18 193.35z" transform="translate(-1270.43 -684.27)" fill="url(#H)"/><path d="M2400.7 1600.53c-14-18.22-31.38-29-50.13-29s-36.08 10.77-50.13 29c23.45 98.24 50.13 193.35 50.13 193.35s26.68-95.11 50.13-193.35z" transform="translate(-1270.43 -684.27)" fill="url(#I)"/><path d="M2400.7 1600.53c-14-18.22-31.38-29-50.13-29s-36.08 10.77-50.13 29c23.45 98.24 50.13 193.35 50.13 193.35s26.68-95.11 50.13-193.35z" transform="translate(-1270.43 -684.27)" opacity=".64" fill="url(#J)"/><path d="M946.24 837.44c4.23 33.07 12.77 65.36 26.86 95.27 58.76 31.37 149.18 31.54 208 .54 14.24-30.07 22.85-62.54 27.11-95.81z" fill="#ebf2f7"/><path d="M952.64 873.11c27 15.41 71.91 25.52 122.81 25.52 53.57 0 100.53-11.19 126.91-28q1.71-7.59 3.09-15.29c-75.51 33.25-181 33.09-256.51-.51 1.08 6.14 2.29 12.23 3.7 18.28z" fill="#60659f"/><g style="isolation:isolate"><path d="M1340 831.33c-2.6-31.67-14.29-48.25-28.37-56.43l-19.71-11.46c14.08 8.19 25.77 24.77 28.38 56.44.4 4.93 2.36 8.42 5.33 10.14l19.71 11.45c-2.97-1.74-4.93-5.2-5.34-10.14z" fill="#373c6b"/><path d="M1251.27 662.41c119.89-14.08 117.69 162.41 117.57 171.7l-10.59 6.11c-9.54 5.51-17.39 1.56-18.25-8.89-7.21-87.83-84.36-59.59-88.42-58.11z" fill="#434775"/><path d="M2557.89 1345.35l-.79-.46c-.19-.1-.4-.2-.59-.31q-1.41-.78-2.85-1.5l-.95-.48c-1.22-.59-2.46-1.16-3.73-1.69l-.14-.06-.54-.21c-1-.42-2-.81-3.07-1.18-.39-.15-.78-.28-1.17-.42-1-.33-2-.65-3-1l-.71-.23-.29-.07q-2-.57-4-1l-.82-.17c-1.1-.25-2.23-.47-3.36-.68-.21 0-.41-.09-.62-.12l-.7-.1c-1.09-.18-2.2-.34-3.32-.49l-1.09-.14c-1.47-.16-2.95-.3-4.46-.4h-.87c-1.36-.07-2.73-.12-4.13-.14h-1.35c-1.67 0-3.37 0-5.1.11-.84 0-1.69.1-2.55.16l-1.54.1q-2.07.17-4.2.42l19.71 11.45q2.13-.24 4.2-.42l1.52-.1c.86-.06 1.73-.12 2.58-.16 1.73-.08 3.43-.1 5.1-.1h1.35c1.4 0 2.77.07 4.13.14h.87c1.51.1 3 .23 4.46.4l1.08.14c1.13.14 2.23.3 3.33.48l1.32.22c1.13.21 2.26.44 3.36.68l.82.18c1.35.31 2.68.66 4 1l1 .3c1 .3 2 .62 3 1l1.17.42c1 .37 2.06.77 3.07 1.18l.68.27c1.27.54 2.51 1.11 3.73 1.7l.95.47c1 .49 1.91 1 2.85 1.51.46.25.93.5 1.38.76z" transform="translate(-1270.43 -684.27)" fill="url(#K)"/><path fill="url(#i)" d="M1251.58 773.23l-19.71-11.46-.31-110.81 19.71 11.46.31 110.81z"/></g><g style="isolation:isolate"><path d="M789.15 831.33c2.6-31.67 14.3-48.25 28.38-56.43l19.71-11.46c-14.08 8.19-25.78 24.77-28.38 56.44-.4 4.93-2.37 8.42-5.33 10.14l-19.71 11.45c2.97-1.74 4.93-5.2 5.33-10.14z" fill="#373c6b"/><path d="M877.89 662.41c-119.9-14.08-117.69 162.41-117.57 171.7l10.59 6.11c9.53 5.51 17.39 1.56 18.24-8.89 7.21-87.83 84.37-59.59 88.43-58.11z" fill="#434775"/><path fill="url(#L)" d="M877.58 773.23l19.71-11.46.31-110.81-19.71 11.46-.31 110.81z"/></g><path d="M1298.36 652.46c-5.67 64.48-20.6 127.71-48 185.6-98 51.67-248.71 51.39-346.66-.89-27.25-57.87-42.1-121-47.66-185.44-11.33-129.8 14.94-264.62 52.87-371.14a833.09 833.09 0 0135.48-85C995.25 91.38 1052.03 17.72 1070.82 2.28a10.09 10.09 0 0112.78 0c18.79 15.44 75.62 89.1 126.48 193.31a822.5 822.5 0 0135.68 85.58c37.89 106.63 64.04 241.49 52.6 371.29z" fill="#ebf2f7"/><path d="M2499 920.82c-6-14.41-12.2-28.1-18.49-41C2429.63 775.65 2372.8 702 2354 686.55a10.09 10.09 0 00-12.78 0c-18.79 15.44-75.57 89.1-126.43 193.31q-9.3 19.08-18.27 40.47c89.19 39.51 213.48 39.67 302.48.49z" transform="translate(-1270.43 -684.27)" fill="url(#M)"/><path d="M2350.53 684.72c-16.19 40.52-50.91 134.7-77.9 258.6-26.91-5-52.77-12.57-76.13-23 1.93-4.68 3.95-9.27 5.88-13.78 2.58-5.8 5.16-11.52 7.74-17.08 1.61-3.22 3.14-6.44 4.67-9.67 50.91-104.12 107.62-177.79 126.48-193.22a10.18 10.18 0 017.81-2.17 9.42 9.42 0 011.45.32z" transform="translate(-1270.43 -684.27)" fill="url(#N)"/><path d="M2350.51 684.76a10 10 0 00-9.28 1.79c-18.79 15.44-75.57 89.1-126.43 193.31a830.88 830.88 0 00-35.47 85c-37.94 106.52-64.21 241.34-52.87 371.14 5.55 64.4 20.4 127.57 47.64 185.44 28.71 15.32 62 26 97.12 32.44-100.62-377.88 41.07-773.41 79.29-869.12z" transform="translate(-1270.43 -684.27)" fill="url(#O)"/><path d="M965.46 602.15c-39.39-7.33-77-18.85-110.84-34.56-.25-3.47-.41-6.93-.49-10.48a.15.15 0 010-.24c.16-5.32.4-10.63.81-16 32.62 16.35 70.08 28.76 110.44 36.66v.08c-.08 8.18 0 16.32.08 24.54zM967.8 661.52c-40.28-7.33-78.71-18.93-113.18-35-.57-8.79-.89-17.65-1.13-26.51v-.88c33.27 16.91 71.61 29.64 112.94 37.62.4 8.25.81 16.47 1.37 24.77z" style="mix-blend-mode:multiply" fill="#1e34b3" opacity=".53"/><path d="M814.95 1074.05c-.2-11-4.06-220.69 140.54-370.85l-25.13.94s-132 120.62-131.3 360.69z" fill="#7980ba"/><path d="M955.49 703.21c-144.61 150.17-140.74 359.81-140.53 370.85l12.81-7.4c11.52-6.66 21-22.36 21.92-36.15C857.78 914.6 962.5 832.76 967.4 828.89z" fill="#60659f"/><path d="M1323.5 1074.05c.2-11 4.05-220.69-140.54-370.85l25.13.94s131.95 120.62 131.3 360.69z" fill="#7980ba"/><path d="M1182.95 703.21c144.61 150.17 140.75 359.81 140.54 370.85l-12.81-7.4c-11.53-6.66-21-22.36-21.92-36.15-8.1-115.91-112.81-197.75-117.72-201.62zM1228.57 236.55c-6-14.41-12.2-28.1-18.49-41C1159.2 91.38 1102.37 17.73 1083.57 2.28a10.09 10.09 0 00-12.78 0c-18.79 15.44-75.57 89.1-126.43 193.31q-9.3 19.08-18.27 40.47c89.19 39.51 213.48 39.67 302.48.49z" fill="#60659f"/><path d="M1080.1.45c-16.19 40.52-50.91 134.7-77.9 258.6-26.91-5-52.77-12.57-76.13-23 1.93-4.68 3.95-9.27 5.88-13.78 2.58-5.8 5.16-11.52 7.74-17.08 1.61-3.22 3.14-6.44 4.67-9.67C995.27 91.4 1051.98 17.73 1070.84 2.3a10.18 10.18 0 017.81-2.17 9.42 9.42 0 011.45.32z" fill="#434775"/><path d="M1300.1 622.61c.47-9.21.72-18.43.85-27.65-61.45 33.48-141.77 51.88-227.49 51.88-82 0-159.32-16.86-219.94-47.66.17 9.14.55 18.27 1.07 27.39 130.5 60.48 317.98 59.16 445.51-3.96z" fill="#60659f"/><path d="M1300.1 563.64c.47-9.21.72-18.43.85-27.65-61.45 33.47-141.77 51.88-227.49 51.88-82 0-159.32-16.87-219.94-47.67.17 9.14.55 18.28 1.07 27.4 130.5 60.48 317.98 59.13 445.51-3.96z" fill="#60659f"/><g style="mix-blend-mode:multiply" opacity=".53"><path d="M967.8 661.52c-40.28-7.33-78.71-18.93-113.18-35-.57-8.79-.89-17.65-1.13-26.51v-.88c33.27 16.91 71.61 29.64 112.94 37.62.4 8.25.81 16.47 1.37 24.77z" fill="#1e34b3" style="fill:#1e34b3" opacity=".4"/><path d="M965.46 602.15c-39.39-7.33-77-18.85-110.84-34.56-.25-3.47-.41-6.93-.49-10.48a.15.15 0 010-.24c-.32-5.56-.48-11.12-.64-16.67l1.45.72c32.62 16.35 70.08 28.76 110.44 36.66v.08c-.08 8.13 0 16.27.08 24.49z" style="mix-blend-mode:multiply" fill="#1e34b3" opacity=".4"/></g><circle cx="1061.1" cy="437.97" r="80.84" fill="#fff"/><circle cx="1061.88" cy="437.19" r="64.51" fill="url(#P)"/><path d="M1142.57 158.63c-4.8-8.26 6.4-16.36 12.73-9.2 12.56 14.2 26.9 32.8 25.45 42.26-1.72 10.84-25.76-11.62-38.18-33.06z" fill="#fff"/><circle cx="1125.34" cy="119.79" r="8.27" fill="#fff"/><circle cx="1080.53" cy="401.44" r="8.55" fill="#fff"/></g><g><path d="M2923.82 2753s-3.11 87.05 176.28 154.34c139.91 52.47 262.15 160.44 348.54 111.07s18.51-120.33-80.22-163.53-348.22-100.33-348.22-100.33z" transform="translate(-1270.43 -684.27)" fill="url(#Q)"/><path d="M3114.94 2810.57c-4-.09-17.34-12.65-30-6.31-15.2 7.62-44.08.87-58.65 4.37-2.6.62-7.67-1.29-8.68.49-3.14 5.59-6.18 13.94 1.55 19.4 5.68 4 17.84 9.34 25.82 12.17 8.47 3 23 7.72 32.67 9.25 10.76 1.68 15.67 2.37 19.7 5.48 5.75 2.9 11.7 4.14 15 3.61 7.09-1.12 15.36-5.28 19.15-13.37 1.21-2.58 1.25-13.88-.15-21.2-1.1-5.78-4.25-12.36-6.77-18.51z" transform="translate(-1270.43 -684.27)" fill-rule="evenodd" fill="url(#k)"/><path d="M1813.41 2099.27c4.81 11.55 3.33 29.42 14.73 35.63 7.62 4.15 19.56 4.18 24.76-7.66 2.9-6.61-.95-17.89-.1-32.39z" fill="#e7a192" fill-rule="evenodd"/><path d="M1810.24 2117.16c-8.74 2.54-32.86.85-48.11 2.08-6.56.53-12.43.48-15.5 6.43-2.82 5.47-1.34 10.17 5 14.68 5.69 4 15.32 8.6 23.3 11.43 8.47 3 23 7.73 32.67 9.25 10.76 1.68 15.67 2.38 19.7 5.48 5.75 2.9 11.7 4.15 15 3.62 7.1-1.13 15.36-6.13 19.15-14.22 1.21-2.58 1.25-13-.15-20.36a36.11 36.11 0 00-1.12-4.31c-1.2-11.48-5-16.12-8.56-14.15-4.89 2.69-6.73 7.53-8.6 11.5a11.23 11.23 0 01-6.64 6.34c-5.85 1.84-11.19-1.42-14.65-6.44a41.28 41.28 0 01-4-11.62v-1.17c-1.15-10-6-9.16-5.29-7 .72 1.9.44 6.42-2.2 8.46z" fill="#434775" fill-rule="evenodd"/><path d="M3015.55 2770.8c-3.69-1.45-11.92-17.85-26-16.25-5.68.65-14.81-.83-24.07-3.46-14.77-4.2-35.36-17.41-38.87-15.25-7.65 4.71-8.26 13.3-2.89 21.08 3.95 5.73 11.42 13.35 17.94 18.75 6.92 5.73 16.73 14.5 25.33 19.27 8.13 4.5 10.82 4.1 16.6 11.92 4.41 4.7 9.57 7.5 12.86 8.14 8.45 1.65 20.72-3.77 25.13-9.43 2.81-9.09 7.68-17.69 4.56-31.32z" transform="translate(-1270.43 -684.27)" fill-rule="evenodd" fill="url(#R)"/><path d="M1725.57 2047.83c.23 12.51-7.72 28.59.6 38.55 5.56 6.66 16.65 11.08 25.84 2 5.13-5.07 5.7-17 11.82-30.16z" fill="#e7a192" fill-rule="evenodd"/><path d="M1698.85 2063.08l-2.53-.69c-14.77-4.2-34.51-14.37-38-12.21-7.66 4.71-9.11 10.26-3.74 18.05 4 5.73 11.43 13.35 18 18.75 6.91 5.73 16.73 14.49 25.32 19.26 8.13 4.51 10.83 4.11 16.61 11.93 4.41 4.7 9.56 7.5 12.86 8.14 8.45 1.65 21.08-3.83 25.49-9.49 2.09-6.76 5-13.2 5.19-21.7 1.23-11.13.46-16.79-4.38-16.65-9 .27-12.72 5-16.44 7.33-8 5-13.37-1.46-14.68-9.44a46.76 46.76 0 01.73-10.55c.13-.38.26-.74.41-1.1 2.63-9.75-2.23-10.73-2.32-8.49-.2 5.07-3.36 7.91-7.43 8.52-4.95.73-11.13-1.32-15.09-1.66z" fill="#434775" fill-rule="evenodd"/><path d="M3163.84 2295.07c-29.38 34.09-29.83 36.74-87.22 70.46L3065.7 2344c19.26-39.44 25-44.7 50-75.4-22.73-15.74-47.17-39.77-58.82-55.33-37.43-50-16.65-84.67 15.69-77.64 28.21 6.14 72.21 79.15 96.14 120.31 10 17.19 12.42 19.06-4.87 39.13z" transform="translate(-1270.43 -684.27)" fill-rule="evenodd" fill="url(#S)"/><path d="M1835.63 1577.27c-19.7-15.25-39.14-34.87-49.15-48.23-37.43-50-15.56-83.67 16.77-76.64 16.88 5.16 46.98 40.85 32.38 124.87z" style="mix-blend-mode:multiply" fill="#3760a9" fill-rule="evenodd" opacity=".35"/><path d="M1734.12 1709.94c-3.24 36.25-21.4 152-16.35 183.81 7.6 47.8 5.43 105.54 5.35 156.27 1.28 21.32 30.58 32.46 39.12 18.91 6.85-45.33 16.59-85 20.55-110.23 4.44-28.21 3-62.48-4.19-81 2.94-20.25 16.75-72.49 28.28-108.7 4.17-13.06 27.75-55.27 3.34-97.23z" fill="#60659f" fill-rule="evenodd"/><path d="M1722.64 2036.41c0 3.77.11 9.5.11 13.19 1.28 21.32 31 32.88 39.49 19.33.5-3.34 1.23-6.65 1.77-9.93-11.44 12.36-33.96-3.69-41.37-22.59zM1716.99 1872.18c9.55 47.93 36.58 112 51.34 160.16 7.68-41.3 26.9-111.62 10.27-154.66 1.68-11.53 6.88-33.44 13.17-56.86-12.78-24.24-.56-43.6-6.6-77.75-33.86-5.9 17.24-47.23-54.41-3.7-6.41 51.44-12.43 83.78-13.77 132.81z" style="mix-blend-mode:multiply" fill="#1e2453" fill-rule="evenodd" opacity=".3"/><path d="M1738.02 1917.65c19.53 44.22 55.57 131 74.74 185.24 9.92 14.41 45.27 12.91 45.21-.54-7.81-45.37-17-115.35-33.27-155.15-5-12.18-23.39-41.49-30-50.18-5.16-20-11.62-74.12-16.6-103.39 4.47-24.22 24-64.71-13.53-99.91-15.14 10.77-62 17.51-83.19 5.52-3.44 95.66 20.04 135.56 56.64 218.41z" fill="#60659f" fill-rule="evenodd"/><path d="M1807.23 2093.42c.86 2.38 2.55 7.17 3.36 9.44 10.21 14.83 46.61 13.29 46.54-.55q-.58-3.36-1.17-6.9c-8.68 8.85-34.93 8.97-48.73-1.99z" style="mix-blend-mode:multiply" fill="#1e2453" fill-rule="evenodd" opacity=".3"/><path d="M3089.68 2264.18c-3.15 28.41 5.39 56.36-3.31 82.3-.39 2.69-.63 13.2-1.09 16.06-5.73 33.61-76.82 67.62-136.11 35.37-.33-4.16 0-8.52-.27-16.24 1.09-7.2-2-14.93-2-19.33.08-18.29 5.78-27.64 3-48-5.56-41.41-28.5-81.2-15.81-113.78 2.73-7 7.5-10.38 12.9-14.72 14-11.26 86.48-48.16 108.45-50.76 63.84-8.26 37.66 98.27 34.24 129.1z" transform="translate(-1270.43 -684.27)" fill-rule="evenodd" fill="url(#T)"/><path d="M1689.71 1678.95c-2.49-10.83-17.55-81.55-20.75-94.26-6.41-25.48-11.64-52-5.25-68.39 7.63-22.39 43-2 48 28.2 6.11 36.1 49.12 137.55-22 134.45z" style="mix-blend-mode:multiply" fill="#60a9c4" fill-rule="evenodd" opacity=".35"/><path d="M1695.48 1450.52c4 2 24.5-.9 23.9.93-.29 9.16-3 14.72-3.9 27.26 22.51-3.14 52-6.39 53.21-23.66-.09-1.38-.17-2.76-.23-4.12 0-.15 0-.31-.08-.47h.06c-.23-6.27.06-12 1.81-14.79 4.77-7.7 14.56-16.29 18-28 5.55-18.67 3.53-39.42-13.88-53.24-31.79-25.25-72.45-7.29-82.75 29.64-2 7.21 3.67 11.12 3.47 17.28 0 1.21-1.63 2.47-2.93 5.14-1.76 3.73-1.59 41.58 3.32 44.03z" fill="#e4a075" fill-rule="evenodd"/><path d="M1695.69 1450.31c4 2 24.29-.69 23.69 1.14-.29 9.16-3 14.72-3.9 27.26 13.07 3.22 48.33-1.48 53.6-21.32.09-4.18-.09-19.68 1.17-21.73 4.77-7.7 14.56-16.29 18-28 5.55-18.67 3.53-39.42-13.88-53.24-31.79-25.25-72.45-7.29-82.75 29.64-2 7.21 3.67 11.12 3.47 17.28 0 1.21-1.63 2.47-2.93 5.14-1.76 3.74-1.41 41.38 3.53 43.83z" fill="#f2cebf" fill-rule="evenodd"/><path d="M1696.32 1450.52c2.14 1.15 11 .4 17.56-2.13 4.15-1.6 7.15-5.15 7.79-5.41 2.73-1.11 8.78-9.7-.6-23.39-9.14-13.34 46.25 20.81 49.18 16.07 4.77-7.7 14.56-16.29 18-28 5.55-18.67 3.53-39.42-13.88-53.24-31.79-25.25-72.45-7.29-82.75 29.64-2 7.21 3.67 11.12 3.47 17.28 0 1.21-1.63 2.47-2.93 5.14-1.76 3.74-.7 41.43 4.16 44.04z" fill="#f2cebf" fill-rule="evenodd"/><path d="M1722.17 1427.06c-1.83 3.42-2.47 5.45-1.88 6.62.41.82 1.68 1.75 3.74-.26a11.84 11.84 0 00-1.86-6.36z" fill="#e9c1b4" fill-rule="evenodd"/><path d="M1707.82 1375.46l-.44-.23c-15.3-8.17-12.89-25-6.43-30.78 12.48-11.08 46.37-9.93 67.85 1.14 21.86 11.25 27.22 39.28 20.68 61.3-4.35 14.65-14.93 22.3-20.22 33.4a13.31 13.31 0 01-13.47 4.92c-15.16-3.14-18.66-19.14-27.77-26.17-5-3.87-10.14-4.9-12 5.64-.36 4.64-.43 9.34-.77 13.6-.53 6.7 1.14 7.95-4.53 10.25-5.45 2.2-16.05 4.36-17.86 3.65-1.42-.55-1.33-8.92-1.07-15.17.57 0 .6 2.15.89 2.11.56-.08 1.24-.22 2-.3a24.62 24.62 0 00-.9-7.59c-.71-2.44-1-4.21-2.5-5.69-.57-.57-.56-3.95-.3-4.91a15.46 15.46 0 016.48 9.14 46.52 46.52 0 011.68 8.32c3.25-.62 6.52-1.11 7.77-2.55 3.19-3.69 3.76-8.33 4.91-15.55.27-12.71-.29-14.6-6.9-24-1.83-2.61-1.92-7.94 2.61-19.82.12-.26.21-.44.29-.71z" fill="#434775" fill-rule="evenodd"/><path d="M1699.34 1368.09c4.72 5.91 25-7.76 53.35-2.54-6.08-18.74-9.59-22.71-18.11-28.19-11.1-7.15-29.8-4.23-35.67 5.61-5.62 9.44-3.34 20.36.43 25.12z" fill="#434775" fill-rule="evenodd"/><path d="M1769.43 1451.95c6.15 1.89 12.34 8 11.21 12-6.12 25-52.58 29.74-81.08 23.72-.34-.07 11.09-15 16.54-16.82 17.94 1.79 47.8-4.12 53.33-18.9z" fill="#67b4e1" fill-rule="evenodd"/><path d="M1685.11 1810.85c2.81 4.3 6.47 4.2 8 7.58a2.24 2.24 0 01-1 2.85c-2 1.1-5.39 3.23-6.07 3.36-1.33.26-4.26-2.63-4.44-3.93 0-.3.66-4.39.66-4.39z" fill="#e8bdaf" fill-rule="evenodd"/><path d="M1658.05 1759.35c-2 6.8-8.79 17.18-10.88 20.77-2.45 4.2-4.08 6.5-3.74 10 .95 9.89 2.59 17.42 5.64 20.28 5.52 5.17 27.42 11.93 37 14-1-4.74-2.32-10-.58-15.25 1.44-4.35 4.72-7.9 5.72-12.44 1.16-5.23-2.08-11.29-2.27-20.2z" fill="#f2cebf" fill-rule="evenodd"/><path d="M1677.46 1822.24c3.31.95 6.28 1.89 8.57 2.4-1-4.74-2.3-10.13-.56-15.42 1.44-4.35 4.72-7.9 5.72-12.44 1.16-5.23-2.08-11.29-2.27-20.2l-7.35-2.17.18 1.34c0 8.83.65 11.75-.53 15.31-2.79 8.42-5.38 9.4-5.93 14.51a41.72 41.72 0 002.17 16.67z" fill="#e9c1b4" fill-rule="evenodd"/><path d="M2916 2236.87c7 32.24 19.93 79.39 24.16 111.21l-14.64 98.74c2.08 16.9 29.73 21.48 36.35 14.48l27.92-107.08c-1.27-25-9.18-95.45-11.91-119.31-1.84-16.15-10.59-34.72-22.67-41.59-25.13-14.32-45.31 15.61-39.21 43.55z" transform="translate(-1270.43 -684.27)" fill-rule="evenodd" fill="url(#U)"/></g></g></svg>