<svg data-name="Слой 1" xmlns="http://www.w3.org/2000/svg" xmlns:xlink="http://www.w3.org/1999/xlink" viewBox="0 0 2689.49 2460"><defs><linearGradient id="c" x1="867.89" y1="1337.78" x2="4447.23" y2="1337.78" gradientUnits="userSpaceOnUse"><stop offset="0" stop-color="#5c6df7"/><stop offset=".8" stop-color="#71a5f3"/></linearGradient><linearGradient id="d" x1="1171.33" y1="2371.29" x2="1148.61" y2="2083.87" gradientUnits="userSpaceOnUse"><stop offset=".31" stop-color="#ff78b7"/><stop offset="1" stop-color="#fcff00"/></linearGradient><linearGradient id="e" x1="593.07" y1="1146.81" x2="4707.54" y2="2462.6" gradientUnits="userSpaceOnUse"><stop offset=".3" stop-color="#fff" stop-opacity="0"/><stop offset=".31" stop-color="#fff" stop-opacity=".03"/><stop offset=".36" stop-color="#fff" stop-opacity=".2"/><stop offset=".41" stop-color="#fff" stop-opacity=".36"/><stop offset=".47" stop-color="#fff" stop-opacity=".48"/><stop offset=".53" stop-color="#fff" stop-opacity=".58"/><stop offset=".59" stop-color="#fff" stop-opacity=".65"/><stop offset=".65" stop-color="#fff" stop-opacity=".69"/><stop offset=".73" stop-color="#fff" stop-opacity=".7"/></linearGradient><linearGradient id="f" x1="1418.24" y1="920.55" x2="1761.24" y2="2404.87" gradientTransform="rotate(-.85 -245.18 2337.283)" gradientUnits="userSpaceOnUse"><stop offset=".16" stop-color="#fff"/><stop offset=".2" stop-color="#fafcff" stop-opacity=".8"/><stop offset=".26" stop-color="#f3f7fe" stop-opacity=".52"/><stop offset=".32" stop-color="#edf4fe" stop-opacity=".3"/><stop offset=".37" stop-color="#e9f1fd" stop-opacity=".14"/><stop offset=".4" stop-color="#e6f0fd" stop-opacity=".04"/><stop offset=".43" stop-color="#e5effd" stop-opacity="0"/></linearGradient><linearGradient id="a" x1="1893.56" y1="3004.2" x2="2093.81" y2="3004.2" gradientTransform="matrix(.98 .31 .01 1.02 27.32 -1128.58)" gradientUnits="userSpaceOnUse"><stop offset="0" stop-color="#ffcd57"/><stop offset="1" stop-color="#ff66ad"/></linearGradient><linearGradient id="g" x1="1754.11" y1="3030.18" x2="2055.85" y2="3030.18" xlink:href="#a"/><linearGradient id="h" x1="2739.51" y1="1701.97" x2="2739.51" y2="1439.78" gradientTransform="matrix(1.02 .23 -.05 .97 -900.57 -1484.96)" gradientUnits="userSpaceOnUse"><stop offset="0" stop-color="#698eff" stop-opacity="0"/><stop offset=".69" stop-color="#3b80f6"/></linearGradient><linearGradient id="i" x1="921.9" y1="1316.01" x2="2147.97" y2="1316.01" gradientTransform="rotate(-.85 -245.18 2337.283)" gradientUnits="userSpaceOnUse"><stop offset="0" stop-color="#ff66ad"/><stop offset=".99" stop-color="#ffff57"/></linearGradient><linearGradient id="b" x1="166.82" y1="1013.67" x2="166.82" y2="590.84" gradientUnits="userSpaceOnUse"><stop offset="0" stop-color="#71a5f3" stop-opacity="0"/><stop offset="1" stop-color="#5c6df7"/></linearGradient><linearGradient id="j" x1="550.47" y1="871.25" x2="550.47" y2="453.04" xlink:href="#b"/><linearGradient id="k" x1="852" y1="851.55" x2="852" y2="421.22" xlink:href="#b"/><linearGradient id="l" x1="1094.73" y1="631.84" x2="1094.73" y2="437.89" xlink:href="#b"/><linearGradient id="m" x1="2034.66" y1="1767.12" x2="2625.21" y2="1767.12" gradientUnits="userSpaceOnUse"><stop offset=".04" stop-color="#4d608d"/><stop offset="1" stop-color="#485b89"/></linearGradient><linearGradient id="n" x1="2412.92" y1="1770.53" x2="2602.07" y2="1770.53" gradientUnits="userSpaceOnUse"><stop offset=".21" stop-color="#312961"/><stop offset=".74" stop-color="#342d41"/></linearGradient><linearGradient id="o" x1="2863.79" y1="2839.25" x2="3329.4" y2="3320.38" gradientUnits="userSpaceOnUse"><stop offset="0" stop-color="#1827ee" stop-opacity=".1"/><stop offset="1" stop-color="#1824db" stop-opacity="0"/></linearGradient></defs><path d="M3331.61 1938.56c168.27-114.14 212.88-303.13 224.63-457.81q1.11-14.6 1.13-29.33c0-394.56-602.06-714.42-1344.74-714.42S867.89 1056.86 867.89 1451.42v.76c.32 165.75 92.41 318.19 280.3 444 246.15-167 634.3-277.4 1064.43-278.8 465.94-1.56 872.83 154.22 1118.99 321.18z" transform="translate(-867.89 -737)" opacity=".63" fill="url(#c)"/><path d="M731.34 1344.32C430.19 1261.67 1.81 1069.05 1.2 709.24q-.23 371.55-.21 743.15c0 105.1-6.89 201.66 35.35 300 33.47 77.88 89.87 144.42 152.22 200.79 186.43 168.54 442.63 256.61 684.91 305.07 156.07 31.21 316.06 46.43 475.93 46.12a53.76 53.76 0 0053.71-53.71l.21-772.69a53.67 53.67 0 00-53.78-53.72c-208.79.68-418.22-25.04-618.2-79.93zM2688.69 1587.19c-5.3-281 .2-562.73-.83-843.63-11.26 147.55-89 265.35-200.71 358.56a66.73 66.73 0 00-24 51.2l-.21 772.25c0 26.09 31.11 39.7 50.22 21.94 85.85-79.79 154.09-178.53 171.39-296a388.41 388.41 0 004.14-64.32z" fill="#5a69a3"/><path d="M345.21 405.51l-.79 5.89a4.55 4.55 0 006.23 4.82l30-12.28a4.54 4.54 0 002.78-3.6l.8-5.88a4.55 4.55 0 00-6.23-4.82l-30 12.27a4.57 4.57 0 00-2.79 3.6zM246.4 473.32l-.8 5.9a4.56 4.56 0 006.23 4.83l124.82-50.81a4.55 4.55 0 002.8-3.6l.79-5.9a4.55 4.55 0 00-6.22-4.82l-124.83 50.8a4.54 4.54 0 00-2.79 3.6z" fill="#fff"/><path d="M289.95 511l-.8 5.9a4.55 4.55 0 006.22 4.82l73.37-29.85a4.56 4.56 0 002.79-3.61l.8-5.9a4.55 4.55 0 00-6.23-4.82l-73.36 29.86a4.54 4.54 0 00-2.79 3.6z" fill="#fff" opacity=".53"/><path d="M261.8 494.75l-.8 5.9a4.55 4.55 0 006.22 4.82l105.48-42.92a4.58 4.58 0 002.79-3.61l.8-5.9a4.55 4.55 0 00-6.23-4.82l-105.47 42.93a4.53 4.53 0 00-2.79 3.6z" fill="#fff"/><path d="M166.63 1714.63l.19 5.93a4.55 4.55 0 01-6.69 4.16l-28.57-15.26a4.54 4.54 0 01-2.4-3.86l-.19-5.94a4.55 4.55 0 016.69-4.16l28.56 15.26a4.57 4.57 0 012.41 3.87zM258.02 1792.14l.2 6a4.56 4.56 0 01-6.69 4.17l-119-63.25a4.56 4.56 0 01-2.42-3.86l-.19-6a4.55 4.55 0 016.68-4.17l119 63.24a4.56 4.56 0 012.42 3.87z" fill="#adffff"/><path d="M210.87 1825.18l.19 5.94a4.55 4.55 0 01-6.68 4.17l-69.94-37.17a4.56 4.56 0 01-2.42-3.87l-.19-5.95a4.55 4.55 0 016.68-4.16l69.95 37.17a4.57 4.57 0 012.41 3.87z" fill="#adffff" opacity=".53"/><path d="M240.52 1811.89l.2 6a4.55 4.55 0 01-6.68 4.16l-100.56-53.43a4.55 4.55 0 01-2.41-3.87l-.19-5.95a4.55 4.55 0 016.68-4.17L238.11 1808a4.53 4.53 0 012.41 3.89z" fill="#adffff"/><path d="M173.58 1231c63.34 50 206.78 150.64 371.12 182.43a33.89 33.89 0 0127.54 33.23v287.78a21.67 21.67 0 01-27.24 21c-73.76-19.59-279.57-84-395-217a61.35 61.35 0 01-14.84-41l3.27-249.63a21.67 21.67 0 0135.15-16.81z" fill="#60a0e0" opacity=".35"/><path d="M269.88 1365.37c-35.57-20.54-69.25-15.3-83.16 17.06-17.41 40.47 2.39 108.63 44.3 155.78l9.72-22.64c-28.39-33.12-41.61-79.94-29.56-107.92 9.81-22.82 33.54-26.5 58.62-12a101.52 101.52 0 0118.39 13.81l9.72-22.64a146.73 146.73 0 00-28.03-21.45z" fill="#fff"/><path d="M1165.8 2123.8l-9.71 22.62c1.53 1.43 3.06 2.92 4.57 4.49 32.28 33.25 48 84.32 35.23 114.12-.47 1.06-1 2.1-1.5 3.1-.18.36-.39.71-.59 1.07-9.34 16.42-27.22 20.44-47 12.49a72.17 72.17 0 01-9.42-4.61c-.85-.49-1.69-1-2.54-1.53-1.55-1-2.74-1.76-3.9-2.55l-.53-.38c-2.54-1.8-5.07-3.75-7.62-5.92l-1-.83c-.94-.83-1.88-1.67-2.81-2.54-.35-.32-.7-.64-1-1-1.22-1.15-2.45-2.35-3.65-3.58-2-2-3.82-4.09-5.66-6.2l-9.72 22.64c1.85 2.07 3.73 4.14 5.66 6.13 1.73 1.77 3.46 3.47 5.21 5.12.49.47 1 .94 1.49 1.39 1.32 1.24 2.67 2.44 4 3.61.45.4.9.8 1.35 1.18 3.6 3.07 7.23 5.89 10.84 8.42.28.21.57.39.85.58 1.65 1.17 3.3 2.24 4.93 3.27l.58.35c1.12.7 2.24 1.37 3.36 2q4 2.31 8 4.2c2 .94 3.87 1.75 5.75 2.5 30.25 12 57.33 4.42 69.43-23.76 18.17-42.25-4.21-114.74-49.95-161.9-1.59-1.52-3.12-3.02-4.65-4.48z" transform="translate(-867.89 -737)" fill="url(#d)"/><path d="M436.99 1511.55v6.92a5.3 5.3 0 01-8 4.57l-32.65-18.94a5.29 5.29 0 01-2.64-4.6v-6.93a5.3 5.3 0 018-4.57l32.65 18.95a5.28 5.28 0 012.64 4.6zM540.29 1605.59v6.94a5.31 5.31 0 01-8 4.57l-136-78.54a5.29 5.29 0 01-2.65-4.61v-6.93a5.3 5.3 0 018-4.58l136 78.54a5.32 5.32 0 012.65 4.61z" fill="#fff"/><path d="M484 1642.14v6.94a5.3 5.3 0 01-7.95 4.57l-80-46.16a5.33 5.33 0 01-2.65-4.61v-6.93a5.31 5.31 0 018-4.58l80 46.16a5.29 5.29 0 012.6 4.61z" fill="#fff" opacity=".53"/><path d="M519.11 1627.88v6.93a5.3 5.3 0 01-8 4.58l-115-66.36a5.31 5.31 0 01-2.65-4.61v-6.94a5.3 5.3 0 018-4.58l114.95 66.37a5.29 5.29 0 012.7 4.61z" fill="#fff"/><path fill="none" stroke="#fff" stroke-miterlimit="10" stroke-width="1.515" opacity=".58" d="M378.04 1756.12l1.52 237.89M378.8 1993.25s346.22 224.25 769 245.46M640.17 1858.4v264.12M878.06 2088.71v111.37M1102.31 2222.05v14.39M393.2 1865.22v137.88"/><path d="M1952.36 1035.1s-1.76 16.76-3 27.87-32.39 21.6-32.39 21.6-.91-38.84 6.27-49.47l10.22 1a44.38 44.38 0 008.15 0z" fill="#0f62ab" fill-rule="evenodd"/><path d="M1909.6 1060.63l-359.53 149.8-6-3.6c-312.92 26-165.45 698.39-165.45 698.39l1019.62 5.61v-190.9l3.67-9.62 178.58-97.55z" transform="translate(-867.89 -737)" fill-rule="evenodd" fill="url(#e)"/><path d="M2537.46 1717.43s-17.75-447.34 11.73-512.41c25.31-55.88 29.73 251.64 42.48 275.69s-.07-341 19-391.33 16.29 274.23 76.44 271.62v155s-63.94 130.68-149.65 201.43z" fill="#adffff" opacity=".25"/><path d="M914 1448.87c-13.29-6.21 71.4-133.37 129.24-123.73s90.21 69.49 160.9 60.58 137.33-114.81 175.81-173.09 73.2-16.81 92.21 27.5 43.51 104.27 95.8 93c0 0 44.62 2 100.46-124.76s115.65 16.65 183.95 23.51 82.92-69.42 138.1-62.36 130.7-30.78 135.83-38.73l2.94 199.31s-745.56 141-1186.9 445.05z" transform="translate(-867.89 -737)" fill="url(#f)"/><path d="M2005.17 484.78a15.24 15.24 0 019.38 10.12c1 4.31-1.67 6.74-5.88 5.44a15.26 15.26 0 01-9.43-10.17c-.97-4.28 1.68-6.7 5.93-5.39z" fill="#81fffe"/><path d="M1984.11 483.22a21.86 21.86 0 00.42 2.39c.15.68.33 1.35.54 2 3.61 11.94 15.32 24.08 27 27.69 12.36 3.82 20.09-3.32 17.26-15.88s-15.15-25.85-27.51-29.66c-11.58-3.54-19.13 2.41-17.71 13.46zm27 27.67c-10-3.07-19.92-13.81-22.19-23.93s4-15.81 13.94-12.73 19.88 13.8 22.15 23.87-4 15.86-13.9 12.79" fill="#81fffe"/><path d="M1742.79 336.58l.5 2.24 10 44.42 88.51 27.33 37.33 40.25 104.98 32.39a21.61 21.61 0 00.42 2.4c.15.68.33 1.35.54 2l-106.7-32.94-37.33-40.25-91.07-28.12-11-48.86-.51-2.24zM1765.06 198.74l-7.83 26.53-22.79-7.03 7.84-26.53 22.78 7.03zM1805.84 211.33l-7.84 26.53-22.79-7.04 7.84-26.53 22.79 7.04zM1846.61 223.92l-7.84 26.53-22.79-7.04 7.84-26.53 22.79 7.04zM1702.12 272.33l19.09 16.17 4.51 20.07-165.37-51.05-7-31.11 148.77 45.92z" fill="#81fffe"/><g style="isolation:isolate" fill="#81fffe"><path d="M1938.11 294.55a15.23 15.23 0 019.39 10.16c1 4.28-1.68 6.7-5.89 5.4a15.22 15.22 0 01-9.42-10.13c-.96-4.32 1.68-6.74 5.92-5.43z"/><path d="M1917.05 293.22c.09.72.22 1.45.39 2.21s.37 1.48.6 2.23c3.69 11.86 15.33 23.85 27 27.45 12.35 3.81 20.09-3.29 17.27-15.85s-15.17-25.89-27.52-29.7c-11.68-3.56-19.22 2.49-17.74 13.66zm26.95 27.45c-10-3.08-19.92-13.82-22.19-23.9s4-15.85 13.94-12.77 19.87 13.8 22.15 23.92-4 15.81-13.9 12.75"/></g><path d="M1372.99 277c-12.36-3.81-20.13 3.27-17.31 15.83s15.2 25.91 27.56 29.72c11.61 3.59 19.14-2.51 17.66-13.67-.09-.72-.22-1.45-.39-2.21s-.37-1.49-.6-2.23c-3.69-11.84-15.29-23.82-26.92-27.44zm9.25 41.11c-10-3.07-19.91-13.81-22.19-23.93s4-15.81 13.94-12.74 19.88 13.81 22.15 23.88-4 15.85-13.9 12.79M1523.58 356.27l1.82 8.11-104.96-32.4-1.82-8.12 104.96 32.41zM1458.77 355.35l-1.98 6.98-31.72-9.8-1.84-8.15 35.54 10.97z" fill="#81fffe"/><path d="M1917.05 293.22c.09.71.22 1.45.39 2.21s.37 1.48.6 2.23l-176.45-54.48 23 102.21-21.29-6.57-.5-2.24-4.37-1.35.51 2.24-119.92-37-61.84 56.7-156.27-48.24c-.09-.72-.22-1.45-.39-2.21s-.37-1.49-.6-2.23l154.45 47.68 61.84-56.7 143 44.15-23-102.21zM1376.37 292a15.21 15.21 0 019.38 10.11c1 4.32-1.67 6.74-5.88 5.44a15.22 15.22 0 01-9.43-10.16c-.96-4.25 1.67-6.67 5.93-5.39z" fill="#81fffe"/><path d="M2475.05 672.74c-6.6-3.68-11.89-.56-11.8 7l.56 47.34c.09 7.56 5.53 16.62 12.13 20.3s11.89.61 11.8-6.95l-.57-47.34c-.06-7.56-5.52-16.66-12.12-20.35zM2426.4 581.86c-6.6-3.68-11.89-.57-11.8 7l1.33 111.51c.09 7.56 5.52 16.62 12.12 20.3s11.89.6 11.8-7l-1.33-111.51c-.09-7.52-5.52-16.62-12.12-20.3zM2379 596c-6.6-3.68-11.89-.57-11.8 7l.84 70.57c.09 7.56 5.52 16.62 12.13 20.31s11.89.6 11.8-7l-.84-70.58c-.09-7.48-5.53-16.58-12.13-20.3zM2329.81 460.24c-6.6-3.68-11.89-.57-11.8 7l2.14 179.7c.09 7.56 5.53 16.62 12.13 20.3s11.89.61 11.8-7l-2.14-179.71c-.09-7.53-5.49-16.59-12.13-20.29zM2281.35 385.37c-6.6-3.68-11.89-.57-11.8 7l2.72 227.86c.09 7.56 5.52 16.62 12.12 20.3s11.93.62 11.84-6.94l-2.72-227.86c-.09-7.56-5.52-16.66-12.16-20.36zM1117.11 263c-6.5 1.3-11.48 6.44-11.12 11.48l2.24 31.71c.36 5.07 5.92 8.09 12.42 6.79s11.48-6.41 11.12-11.47l-2.25-31.72c-.32-5.09-5.89-8.13-12.41-6.79zM1066.99 229.34c-6.49 1.29-11.48 6.43-11.12 11.47l5.29 74.71c.36 5.07 5.92 8.08 12.42 6.79s11.48-6.41 11.12-11.47l-5.29-74.71c-.36-5.04-5.92-8.13-12.42-6.79zM1021.83 266.11c-6.5 1.29-11.48 6.44-11.12 11.5l3.35 47.29c.36 5.06 5.92 8.08 12.41 6.79s11.48-6.41 11.12-11.48l-3.34-47.28c-.36-5.07-5.93-8.11-12.42-6.82zM969.55 202.4c-6.5 1.29-11.48 6.44-11.12 11.48l8.53 120.4c.35 5.06 5.92 8.08 12.41 6.79s11.48-6.41 11.12-11.48l-8.53-120.4c-.35-5.04-5.85-8.09-12.41-6.79zM920.16 179.51c-6.49 1.3-11.48 6.44-11.12 11.48l10.81 152.66c.36 5.07 5.92 8.09 12.42 6.79s11.51-6.41 11.15-11.48L932.61 186.3c-.36-5.04-5.92-8.09-12.45-6.79z" fill="#fff"/><path d="M1074.16 2050.15c-121.21-38.12-221.18-171.82-222.85-298s95.59-197.87 216.8-159.75 221.18 171.82 222.85 298c.81 61.14-21.3 111.43-62.25 141.59s-95.83 36.63-154.55 18.16zm-5.74-434.41c-108.84-34.23-196.17 30.11-194.68 143.44s91.27 233.38 200.11 267.62c52.73 16.58 102 10.79 138.78-16.3s56.62-72.25 55.9-127.15c-1.5-113.35-91.26-233.35-200.11-267.61z" fill="#5793da"/><path d="M1074.16 2050.15c-6.19-2-11.29-8.76-11.37-15.2s4.87-10.1 11.06-8.15c52.73 16.58 102 10.79 138.78-16.3s56.62-72.25 55.9-127.15c-1.5-113.32-91.26-233.38-200.11-267.61-6.19-1.95-11.28-8.76-11.37-15.21s4.87-10.09 11.06-8.15c121.22 38.13 221.18 171.82 222.85 298 .81 61.14-21.3 111.43-62.25 141.59s-95.83 36.65-154.55 18.18z" fill="#5793da"/><path d="M1073.69 2014.35c-102.26-32.16-186.59-144.94-188-251.41s80.64-166.92 182.9-134.76 186.58 145 188 251.42c.68 51.57-18 94-52.51 119.44s-80.86 30.89-130.39 15.31zm-4.8-362.81c-89.88-28.27-162 24.87-160.77 118.46s75.37 192.73 165.26 221c43.54 13.69 84.24 8.92 114.61-13.46s46.76-59.66 46.16-105c-1.24-93.54-75.37-192.73-165.26-221z" fill="#5793da"/><path d="M2064.07 2737a16.35 16.35 0 01-8-5.91c-4.44-5.94-4.54-13.33-.22-16.52 30.37-22.37 46.76-59.66 46.16-105-1.24-93.59-75.37-192.73-165.26-221-6.19-1.95-11.28-8.76-11.36-15.21s4.86-10.09 11.06-8.15c102.25 32.16 186.58 145 188 251.42.68 51.57-18 94-52.51 119.44a8.67 8.67 0 01-7.87.93z" transform="translate(-867.89 -737)" fill="url(#a)"/><path d="M1941.06 2712.54c-81.69-25.7-149.07-115.81-150.19-200.87S1855.29 2378.31 1937 2404s149.08 115.81 150.2 200.87-64.44 133.37-146.14 107.67zm-3.76-285.18c-69.33-21.81-125 19.18-124 91.36s58.13 148.66 127.45 170.46 125-19.18 124-91.36-58.12-148.66-127.45-170.46z" transform="translate(-867.89 -737)" fill="url(#g)"/><path d="M1190.54 1942a15.11 15.11 0 01-5.67-3.37c-5.39-4.94-7.29-12.65-4.23-17.24 10.92-16.41 16.54-37.36 16.23-60.58-1-72.19-58.13-148.66-127.46-170.46-6.19-2-11.29-8.76-11.37-15.21s4.87-10.1 11.06-8.15c81.7 25.7 149.08 115.81 150.2 200.87.36 27.36-6.26 52.06-19.14 71.41-2.05 3.07-5.76 3.96-9.62 2.73z" fill="#ff7bb9"/><path d="M1072.67 1937.51c-61.56-19.36-112.33-87.26-113.18-151.36s48.55-100.49 110.11-81.13 112.33 87.27 113.18 151.36-48.55 100.49-110.11 81.13zm-2.76-209.13c-49.19-15.47-88.66 13.61-88 64.83s41.25 105.47 90.44 120.95 88.66-13.61 88-64.83-41.24-105.48-90.44-120.95z" fill="#fff" opacity=".3"/><path d="M1171.72 1864.53c-6.19-1.94-11.29-8.76-11.37-15.2-.68-51.22-41.25-105.48-90.44-120.95-6.19-2-11.29-8.76-11.37-15.21s4.87-10.09 11.06-8.15c61.56 19.37 112.33 87.27 113.18 151.36.08 6.45-4.87 10.1-11.06 8.15z" fill="#f0ea0e"/><path d="M1037.69 1794.62a19.4 19.4 0 00-3.95-1c-8.25-1.16-12.53 3.76-13.34 10.15l.17.05c1.83-2 5-3.07 9.34-1.72a17.59 17.59 0 0111.91 16.79c.1 7.42-4.66 12.75-12.74 10.21-8.33-2.62-13.86-11.07-14-21.61-.11-8 2.56-13.41 6.34-16.19 3.19-2.29 7.48-3 12.38-2.07a26.41 26.41 0 013.83.9zm-1.19 22.9c-.08-5.8-3.3-10.28-8.15-11.81a6.13 6.13 0 00-7.48 2.61 3.79 3.79 0 00-.56 2.25c.2 6.71 3.2 12.55 8.71 14.29 4.55 1.43 7.56-1.54 7.48-7.34zM1069.43 1805.34l-14.85-4.67-1.36 9.94a22.61 22.61 0 0111.58 5.57 16.84 16.84 0 015.71 12.16c.1 7.92-5.87 11.94-14.31 9.29a26 26 0 01-9.73-5.55l1.26-3.76a23.86 23.86 0 008.35 4.86c5 1.56 9.18-.47 9.11-5.89-.13-5.25-3.53-10.05-11.32-12.5a43.5 43.5 0 00-5.38-1.26l2.26-18.66 18.62 5.86zM1107.24 1824c.11 8.54-4.14 11.43-9.17 9.85-4.85-1.53-9.1-6.9-9.27-15.09s4.09-11.31 9.24-9.69c5.45 1.71 9.07 7.2 9.2 14.93zm-14.25-4.1c-.05 5.13 1.86 9.64 5.15 10.68 3.48 1.09 5-2.28 4.91-7.64-.06-4.93-1.49-9.48-5.15-10.63-3.29-1.03-4.97 2.47-4.91 7.59zm4.94 30.85l22.33-34.7 3.35 1.06-22.32 34.7zm34.86-2c.12 8.54-4.14 11.43-9.11 9.86s-9.1-6.89-9.26-15 4.08-11.38 9.23-9.76c5.46 1.69 9.04 7.15 9.14 14.89zm-14.24-4.11c0 5.16 2 9.69 5.21 10.7 3.47 1.1 5-2.28 4.9-7.64-.06-4.92-1.49-9.47-5.14-10.62-3.3-1.08-5.04 2.44-4.97 7.55z" fill="#fff"/><path opacity=".44" fill="url(#h)" d="M1248.82 663.46L2403.35 925l-99.23-135.5-94.48-87.89-97.2 41.14-87.49-159.43-99.74 20.62-99.25 10.76-97.06 110.98-88.11-219.41-102.29 146.36-96.08-55.01-192.96 52.69-.64 13.15z"/><path fill="none" stroke="#fff" stroke-miterlimit="10" stroke-width="2.966" d="M2393.91 909.56l-89.79-120.06-92.93-87.54-97.75 44.34-89.27-163.16-98.18 20.97-97.71 11.11-100.92 110.11-86.57-219.06-102.68 146.27-94.52-54.66-96.95 27.91-98.34 24.26"/><path d="M1453.11 599.85c-.26 5.25-5 8.48-10.54 7.22s-9.87-6.54-9.61-11.78 5-8.48 10.53-7.22 9.85 6.54 9.62 11.78zM1546.86 649.72c-.25 5.25-5 8.48-10.53 7.22s-9.87-6.54-9.62-11.78 5-8.48 10.54-7.22 9.86 6.54 9.61 11.78z" fill="#a2baf7" stroke="#fff" stroke-miterlimit="10" stroke-width="2.966"/><ellipse cx="2507.37" cy="1243.89" rx="8.93" ry="10.84" transform="rotate(-49.8 1279.607 1810.254)" fill="#a2baf7" stroke="#fff" stroke-miterlimit="10" stroke-width="2.966"/><path d="M1737.77 726.67c-.26 5.25-5 8.48-10.54 7.22s-9.87-6.54-9.62-11.79 5-8.47 10.54-7.21 9.87 6.53 9.62 11.78z" fill="#a2baf7" stroke="#fff" stroke-miterlimit="10" stroke-width="2.966"/><ellipse cx="2695.48" cy="1352.43" rx="8.93" ry="10.84" transform="rotate(-49.8 1467.722 1918.784)" fill="#a2baf7" stroke="#fff" stroke-miterlimit="10" stroke-width="2.966"/><path d="M2032.69 583.22c-.26 5.25-5 8.48-10.54 7.22s-9.87-6.54-9.62-11.78 5-8.48 10.54-7.22 9.87 6.56 9.62 11.78z" fill="#a2baf7" stroke="#fff" stroke-miterlimit="10" stroke-width="2.966"/><ellipse cx="2980.77" cy="1480.77" rx="8.93" ry="10.84" transform="rotate(-49.8 1753 2047.134)" fill="#a2baf7" stroke="#fff" stroke-miterlimit="10" stroke-width="2.966"/><ellipse cx="2793.03" cy="1340.46" rx="8.93" ry="10.84" transform="rotate(-49.8 1565.268 1906.81)" fill="#a2baf7" stroke="#fff" stroke-miterlimit="10" stroke-width="2.966"/><path d="M2220.73 705.05c-.25 5.24-5 8.47-10.53 7.21s-9.87-6.53-9.62-11.78 5-8.47 10.54-7.21 9.87 6.53 9.61 11.78zM2316.99 792.78c-.26 5.25-5 8.48-10.54 7.22s-9.87-6.54-9.62-11.78 5-8.48 10.54-7.22 9.87 6.53 9.62 11.78z" fill="#a2baf7" stroke="#fff" stroke-miterlimit="10" stroke-width="2.966"/><path d="M914 1448.87c-13.29-6.21 71.4-133.37 129.24-123.73s90.21 69.49 160.9 60.58 137.33-114.81 175.81-173.09 73.2-16.81 92.21 27.5 43.51 104.27 95.8 93c0 0 44.62 2 100.46-124.76s115.65 16.65 183.95 23.51 82.92-69.42 138.1-62.36 130.7-30.78 135.83-38.73" transform="translate(-867.89 -737)" fill="none" stroke-linecap="round" stroke-miterlimit="10" stroke-width="7.868" stroke="url(#i)"/><path d="M394.71 1864.46c4.82 2.41 33.77 16.88 65.13 62.72s62.73 77.2 84.44 53.07 36.18-132.68 82-111 48.25 120.62 101.32 188.17 108.56 2.41 156.81 38.6 57.9 65.14 98.91 94.09 118.21 38.59 118.21 38.59" fill="none" stroke="#fff" stroke-linecap="round" stroke-miterlimit="10" stroke-width="4.546"/><circle cx="626.92" cy="1869.38" r="12.5" fill="#fdd746"/><circle cx="878.44" cy="2095.15" r="12.5" fill="#fdd746"/><circle cx="393.57" cy="1864.84" r="12.5" fill="#fdd746"/><circle cx="1102.69" cy="2228.49" r="12.5" fill="#fdd746"/><path fill="none" stroke-miterlimit="10" stroke-width="4.546" opacity=".32" stroke="url(#b)" d="M166.82 590.84v422.83"/><path fill="none" stroke-miterlimit="10" stroke-width="4.546" opacity=".32" stroke="url(#j)" d="M550.78 453.05l-.61 418.19"/><path fill="none" stroke-miterlimit="10" stroke-width="4.546" opacity=".32" stroke="url(#k)" d="M852.3 421.23l-.6 430.31"/><path fill="none" stroke-miterlimit="10" stroke-width="4.546" opacity=".32" stroke="url(#l)" d="M1094.73 437.89v193.95"/><path d="M220.25 935.24l-.8 5.9a4.55 4.55 0 006.23 4.82l73.36-29.85a4.56 4.56 0 002.79-3.61l.8-5.9a4.55 4.55 0 00-6.23-4.82l-73.36 29.86a4.54 4.54 0 00-2.79 3.6zM509.34 821.91l-1 5.87a4.54 4.54 0 006.07 5l74.21-27.68a4.53 4.53 0 002.9-3.52l1-5.87a4.54 4.54 0 00-6.08-5l-74.21 27.68a4.54 4.54 0 00-2.89 3.52zM802.89 727.74l-1.21 5.82a4.55 4.55 0 005.86 5.26l75.31-24.52a4.55 4.55 0 003-3.4l1.22-5.83a4.55 4.55 0 00-5.86-5.25l-75.31 24.52a4.58 4.58 0 00-3.01 3.4zM1059.85 650.89l-1.78 5.67a4.55 4.55 0 005.31 5.81l77.36-17a4.56 4.56 0 003.37-3.08l1.78-5.68a4.55 4.55 0 00-5.32-5.8l-77.36 17a4.54 4.54 0 00-3.36 3.08z" fill="#fff" opacity=".53"/><path d="M2403.72 1708.41l175.38-95.78c3.8-2.08 20.42 3.21 20.42 7.4L2586 1807.32c0 4.19-3.08 9.28-6.9 11.39-53.87 29.12-97.4 60.26-155.49 92.25-1.65.91-4.84 12-7.49 10.81-3.79 2.08-19.27-6.88-19.27-11.07v-190.9c0-4.21 3.08-9.3 6.87-11.39z" transform="translate(-867.89 -737)" fill="url(#m)"/><path d="M2419.79 1715.38l175.38-95.78c3.8-2.08 6.9-.4 6.9 3.79v190.9c0 4.19-3.08 9.28-6.9 11.39q-80.8 43.68-167.93 91.67l-7.45 4.11c-3.79 2.08-6.87.4-6.87-3.79v-190.9c0-4.22 3.08-9.31 6.87-11.39z" transform="translate(-867.89 -737)" fill="url(#n)"/><path d="M2674.92 2869.24s55.56 118.61 217.23 183.33 305.5 187 406.18 129.45 21.57-140.23-93.49-190.57-231.36-148.94-231.36-148.94z" transform="translate(-867.89 -737)" fill="url(#o)"/><path d="M1634.9 1161.82s-35.3-3.6-41.85 0l-36.71 20.18s18.44 13.76 55.13 14.94z" fill="#ffb9b3"/><path d="M1634.9 1161.82s-14.61-10.42-23.43-18.26-19.43-12-21.73-11.06-6.2 6.37 11.88 24.62l-8.57 4.7s28.48 14.11 41.85 0z" fill="#ffb9b3"/><path d="M2072.24 1950a86.68 86.68 0 005 12.19c3.56 3.89 8 6.23 10.1 10.67 11.17 23.75 13.62 46.64 5.85 168.54l-28.62.61-3.66-43.06c-3.54-17.45-13.35-43-17.31-58.82-8.49-33.87-9.44-51.14-14.49-75.81l-.29-.16c-31.36-95.61-63.75-189.61-89.79-285.91l-89.31-259-2.84-69.46c-.46-11.22 5.52-19.46 9.06-28.24 46 13.55 71.74 28.16 121.17 26.42 14.82 22 35.14 63.3 35.89 94.48 1.47 60.72-3.3 101.24 15.25 202.76 55.08 185.28 23.11 182.07 43.99 304.79z" fill="#eeaea7" fill-rule="evenodd"/><path d="M2124.39 2055.58c3.12-.41 9-.67 9.68-1.41 1.48-1.65 4.26-9.73 2.24-11.25-3.61-2.39-10.95 10.33-11.92 12.66zM2108.48 2006.84c-3.41 10.9 1.45 21.41 4.87 32.72 12 39.52 19 41.74 13.92 59.62a80 80 0 01-17.5 31.39c-7.75 8.83-10.09 15.18-20 22.06-15 10.36-28.33 15.2-25.07-5.59 1.15-7.35 3.36-15.72 4.89-19.27 10.62-24.67 23-35.49 16.29-66.28-5-22.87-12.89-37.93-2.61-53.33z" fill="#4363aa" fill-rule="evenodd"/><path d="M2106.11 1982.2c4.5 20.64 11.22 38 30.19 60.72-2.38-.64-8.48 5.6-11.84 12.5-24.74-28.43-36.77-42.26-44.38-30 .74 10.28 4.5 28.89 7.65 43.38 1 4.77 2.19 15.3-.83 22.55-9.71 23.31-27.52 57.35-20.73 68.5-2.39-3-5.08-11.21-5.05-22.27.05-16.09 2.78-37.89 3.13-51.29.46-18.1-6.38-33.8-7.48-58.46a197.52 197.52 0 010-20.65c1-17.44 2.94-40.56 15.2-47.11 4.37-2.32 15.72-.64 21.59 2.34 8.3 4.16 10.83 11.85 12.55 19.79z" fill="#5589c1" fill-rule="evenodd"/><path d="M1903.19 2013.18c2.21 18.39 19 36 21.07 48 4.94 28.92-16 13.88-39.72 51.05-9.5-.08-30.41 34.14-58.72 35.94-6.5.42-18.11-15.35-5.26-26.51 5.73-3.33 10.84-.86 15.54-5 9.21-8.15 20-71.46 19.36-96.15-25.66-136.18-41.87-266-67.47-399.25-12.87-67-15.29-108.36-11-157.67 1.65-28.23 8.82-36.2 18.12-63.56 3.62-10.66-1.54-25.36 3.37-34.14 43.89 13.55 76.62 26.85 126.32 25.11 11.38 22.05 21.24 51.55 17.12 82.72-8 60.73-38.45 104.94-45.18 209.07 32.76 114.53-1.25 206 6.48 329.69.01.25 0 .52-.03.7z" fill="#eeaea7" fill-rule="evenodd"/><path d="M1809.75 1745.13c-6.72-41.15-13.79-82.33-21.76-123.85-12.87-67-15.29-108.36-11-157.67 1.2-20.44 9.73-57.83 14.09-77.71 1.68-7.65 3.75-15.2 6-22.72 10.77-36.47 12.35-111.27 12.25-112-6.51-47.73-32.47-64.51-18.49-105.32 10.23-14 37.9-36.57 66.68-52.33 40.48-22.17 85.7-36.07 110-38.81 51.38-5.81 51.5 78.88 33.63 118.77-35.63 79.49-38.23 120.15-20 180.56 14.24 23 31.26 59.87 31.94 88.35 1.47 60.72-3.3 101.24 15.25 202.76 8.55 28.77 15 53 19.87 73.83-37.56 68.35-160.63 62.27-238.46 26.14z" fill="#3b4777" fill-rule="evenodd"/><path d="M1913.77 2039c-23 2.82-44.43 58.94-62.21 83.33-8.63 11.84-26.93-.37-19.5-3.55-3.79.27-17.7-1.38-27.95.27-14.42 2.31-9.36 16.76.44 23.53 21.82 15.07 41.17 23.55 61 13.57a92.84 92.84 0 0012.12-8.07c3.08-2.3 6.63-4.8 8.08-6.54 6.4-7.67 8.86-20 14.7-30.54 1.94-3.48 3.52-4.23 4.77-3.28 2.4 3.36-.08 53.8-1.28 63.91.65 2.9 10.49 5.18 12.45 3l18.22-89.63a32 32 0 00-2.39-22.95c-5.5-10.55-16.01-18.67-18.45-23.05z" fill="#5589c1" fill-rule="evenodd"/><path d="M1853.8 2160a40.76 40.76 0 0011.71-3.9 92.84 92.84 0 0012.12-8.07c3.08-2.3 6.63-4.8 8.08-6.54 6.93-8.31 10.32-23.75 18-34.32-2.57-1.58-9.28-1.42-16 9.66-10.12 18.59-17.05 32.27-30.4 41.29a20.89 20.89 0 01-3.51 1.88z" fill="#4363aa" fill-rule="evenodd"/><path d="M1732.17 1220.71c-23.31-18.76-52.46-35-76-49.74-3.77-2.36-9.48-2.28-12.46-4.07-3.68-2.21-6.67-4-8.78-5.08-8.39 4.58-18.81 21.68-23.43 35.13 3.12 2.71 6.26 5.56 9.39 8.53 2.42 2.3 4.95 10.2 7.37 12.62 26.23 26.1 44 49.33 69.59 67.14 3.68 2.56 18.94 15.84 28.42 20.62 11.63 5.87 28.22 0 36-11.83 6.75-6.07 12.78-12.74 16.61-16.32 17.37-16.25 60.56-53.12 84.2-84.82 17.35-23.28 14.48-36.05 7.66-48.17-15.87-28.21-39.85-46.29-66.35-20.71-12.6 12.16-21.07 32.49-31.86 46.54-12.07 15.71-27.29 33.02-40.36 50.16z" fill="#3b4777" fill-rule="evenodd"/><path d="M1967.47 1054.72c16.08-1.82 27.13 5.22 34.19 17 .29.48.56 1 .84 1.45l.37.68.62 1.2.19.36c.26.53.51 1.07.75 1.61l.27.58.61 1.45.13.29c.24.59.47 1.19.7 1.8l.18.5.51 1.45.17.48c.2.61.4 1.24.59 1.86l.14.47.44 1.56.14.48c.18.68.35 1.36.52 2 .16.66.31 1.33.46 2l.11.52c.14.62.26 1.25.39 1.89v.24c.13.68.25 1.36.37 2l.11.65.28 1.87v.17l.27 2.08.09.76.18 1.63.06.56.2 2.21v.37l.12 1.74.05.79.1 2V1119.3c0 1.63-.07 3.26-.14 4.89v.35l-.1 2v.51l-.17 2.36v.14l-.18 2-.05.62-.22 2.14-.06.56-.24 2v.27l-.31 2.3-.06.41-.3 2-.08.47-.35 2.15-.07.39-.18 2.14-.08.41c-.28 1.46-.58 2.9-.9 4.33l-.13.57-.43 1.86-.07.27-.55 2.18-.05.2c-.38 1.41-.77 2.81-1.18 4.18l-.16.52-.47 1.52-.18.56-.59 1.76-.17.49-.55 1.53-.13.36c-.23.62-.46 1.25-.7 1.85l-.06.14-.64 1.6-.2.46-.73 1.7c-27.68 61.74-35.42 100.07-29 142.41a175.81 175.81 0 0018.3 54.62c11.43 21.93 22.05 49.5 22.59 71.88 1.47 60.72-3.3 101.24 15.25 202.76 8.55 28.77 15 53 19.87 73.83-17.25 31.44-52.61 47.12-93.34 51.38-167.88-184.41 69-250.61-21-419.74-10.27-19.29-73.31-43.81-89.06-67.64-33.77-39.63-47.14-78.76 3.86-141.83 8.47-10.47 14.77-16 26.13-31.75 18.54 4.37 53.05-1.77 57.18-9.33 1.44-2.64-5.87-25.8-4.69-28.63 31.71-13.99 21.58-14.62 40.24-16.73z" fill="#2c3a66" fill-rule="evenodd"/><path d="M1951 1078.09c4 16.88-57.63 35.1-78.74 25.92l-.44-4.08c-5.45-25.18-10.8-46.57-14.56-64.25-9.82 4.18-33.91 5.4-36 2 64.95-51.87 140.9-90.22 150.66-64-6.43 19-23.06 32.46-31.37 44.81-2.21 3.29-3.94 10.13-4.36 17 2.36 13.36 7.43 26.17 14.81 42.6z" fill="#dd9c97" fill-rule="evenodd"/><path d="M1821.58 1038c5.6 3.65 45.36-9.57 48.57-9.41 30.93 1.54 64.22-1 70.36-10.1 8.31-12.36 24.94-25.84 31.37-44.81 10.29-30.32 8.28-64.52-19.44-88.32-48.2-41.4-123.82-11.06-134.65 35.82-4.44 19.23 1.06 20.82.15 33.7-1.67 23.73-4.36 14.79-2.18 52.34.83 14.32 2.11 28.37 5.82 30.78z" fill="#f6bdb7" fill-rule="evenodd"/><path d="M1942.11 1055.47c-1.7 15.35-44.92 26.18-71.13 20.07-2.81-.65-4.55-1.19-5.56-3-3.85 2.12-14.35 17.27-15.54 24.82 22.66 21.84 94.25 9 102.95-16.55 2.07-6.09 3.98-17.63-10.72-25.34z" fill="#fa72ad" fill-rule="evenodd"/><path d="M1969.83 1085.06c23.13 50.68 63 95.93 88.29 124.89l6.09 7a108.66 108.66 0 0010.07-7s-29-86.25-59.18-143.11-2.22-122.33-20.63-163.88c-17.94-40.51-129.66-95.45-170.26.5 12.94 9.22 37.47 27.24 62.88 48.78 37.1 31.47 59.6 82.15 82.74 132.82z" fill="#fbd65f"/><path d="M1849.37 963.7c3.85 5.21 13 4.62 13 4.62s14.55-7.56 16.41.29c2.46 10.35-1.82 17.29-5.63 21.19a16.23 16.23 0 01-6.55 3.77c-2.66.91-6 7.78 9.47 48.18 10.16 26.43 16.07 69 19.72 109.4 5.42 60 63.82 100.78 122 84.85 16.8-4.6 33-10.78 46.49-19.08l-6.09-7c-25.34-29-65.16-74.21-88.29-124.89s-45.64-101.35-82.74-132.82c-25.41-21.54-49.94-39.56-62.88-48.78-1 2.46-2 5-3 7.64-.06.03 7.83 25.09 28.09 52.63z" fill="#dda831"/><path d="M1920.26 990c3.21 4.77 16.15 139.11 49.71 178.13s47.75 67.91 47.75 67.91-9-37.67-30-74-11.59-89.29-18.69-102.53-48.77-69.51-48.77-69.51z" fill="#fbd65f" fill-rule="evenodd"/><path d="M1651.96 964c3-1.71 5.56-.19 5.72 3.39a11.4 11.4 0 01-5.13 9.59l-35.28 20.16c-3 1.72-5.56.2-5.72-3.39a11.41 11.41 0 015.13-9.59zM1656.11 1054.86c3-1.71 5.56-.2 5.72 3.39a11.41 11.41 0 01-5.13 9.59l-35.27 20.16c-3 1.71-5.57.2-5.73-3.39a11.43 11.43 0 015.13-9.59zM1697.44 984.61c3-1.71 5.56-.19 5.72 3.39a11.43 11.43 0 01-5.13 9.6l-92.26 52.72c-3 1.72-5.56.2-5.73-3.39a11.43 11.43 0 015.13-9.59zM1676.78 1019.73c3-1.71 5.56-.19 5.73 3.39a11.45 11.45 0 01-5.13 9.59l-82.77 47.29c-3 1.72-5.56.2-5.73-3.39a11.46 11.46 0 015.13-9.59zM1674.71 974.29c3-1.71 5.56-.19 5.72 3.39a11.45 11.45 0 01-5.13 9.6l-48.85 27.91c-3 1.71-5.56.2-5.72-3.39a11.41 11.41 0 015.13-9.59z" fill="#fff"/><path d="M1610.17 1024.5a11.45 11.45 0 005.13-9.6c-.16-3.58-2.73-5.1-5.72-3.39a11.46 11.46 0 00-5.14 9.6c.17 3.58 2.73 5.1 5.73 3.39zM1593.89 1033.8a11.46 11.46 0 005.13-9.59c-.17-3.59-2.73-5.11-5.73-3.39a11.46 11.46 0 00-5.13 9.59c.17 3.59 2.73 5.1 5.73 3.39zM1578.32 1089.32a11.41 11.41 0 005.13-9.59c-.16-3.59-2.72-5.11-5.72-3.39a11.42 11.42 0 00-5.13 9.59c.16 3.58 2.73 5.07 5.72 3.39zM1605.11 1097.31a11.43 11.43 0 005.13-9.6c-.16-3.58-2.72-5.1-5.72-3.39a11.43 11.43 0 00-5.13 9.6c.19 3.58 2.72 5.08 5.72 3.39z" fill="#68b6cd" fill-rule="evenodd"/></svg>