<svg xmlns="http://www.w3.org/2000/svg" xmlns:xlink="http://www.w3.org/1999/xlink" viewBox="0 0 3043.92 2455.94"><defs><linearGradient id="a" x1="2552.09" y1="2581.76" x2="3073.29" y2="2171.24" gradientTransform="rotate(90 2881.085 2379.735)" gradientUnits="userSpaceOnUse"><stop offset="0" stop-color="#1200ec" stop-opacity=".1"/><stop offset="1" stop-color="#1500d9" stop-opacity="0"/></linearGradient><linearGradient id="i" x1="2738.53" y1="1975.63" x2="3761.6" y2="1453.82" xlink:href="#a"/><linearGradient id="j" x1="2930.39" y1="2628.28" x2="3436.06" y2="3150.79" gradientTransform="matrix(-1 0 0 1 5406.56 0)" xlink:href="#a"/><linearGradient id="k" x1="3473.58" y1="2199.43" x2="3506.9" y2="1574.11" gradientUnits="userSpaceOnUse"><stop offset="0" stop-color="#f1cd68"/><stop offset="1" stop-color="#df69a9"/></linearGradient><linearGradient id="l" x1="3072.75" y1="993.02" x2="2388.33" y2="1789.47" gradientTransform="rotate(52.5 2758.398 1358.951)" gradientUnits="userSpaceOnUse"><stop offset=".01" stop-color="#83b3f2"/><stop offset=".1" stop-color="#8db9f2"/><stop offset=".2" stop-color="#9ec3f2"/><stop offset=".87" stop-color="#abe7f0" stop-opacity="0"/></linearGradient><linearGradient id="m" x1="2439.87" y1="1603.4" x2="3244.07" y2="969.97" gradientUnits="userSpaceOnUse"><stop offset=".27" stop-color="#60659f"/><stop offset="1" stop-color="#484a79"/></linearGradient><linearGradient id="c" x1="1370.11" y1="1941.73" x2="1319.04" y2="1853.28" gradientUnits="userSpaceOnUse"><stop offset="0" stop-color="#1500d9" stop-opacity="0"/><stop offset="1" stop-color="#1200ec" stop-opacity=".1"/></linearGradient><linearGradient id="d" x1="1064.29" y1="1715.69" x2="1462.36" y2="1715.69" gradientUnits="userSpaceOnUse"><stop offset="0" stop-color="#e5e5fa"/><stop offset=".02" stop-color="#e4e4fa"/><stop offset=".38" stop-color="#cdccf5"/><stop offset=".71" stop-color="#bfbef2"/><stop offset="1" stop-color="#bab9f1"/></linearGradient><linearGradient id="e" x1="1069.06" y1="1677.37" x2="1457.58" y2="1677.37" gradientUnits="userSpaceOnUse"><stop offset="0" stop-color="#b9fff1"/><stop offset="1" stop-color="#7179f7"/></linearGradient><linearGradient id="b" x1="1064.29" y1="1670.88" x2="1462.36" y2="1670.88" gradientUnits="userSpaceOnUse"><stop offset="0" stop-color="#7179f7"/><stop offset="1" stop-color="#abd8f0"/></linearGradient><linearGradient id="f" x1="1103.9" y1="1493.25" x2="1419.72" y2="1675.59" gradientUnits="userSpaceOnUse"><stop offset="0" stop-color="#b7b8fb"/><stop offset=".25" stop-color="#a5a6f3"/><stop offset=".74" stop-color="#7778dd"/><stop offset="1" stop-color="#5b5dd0"/></linearGradient><linearGradient id="g" x1="1103.9" y1="1493.25" x2="1419.72" y2="1675.59" gradientUnits="userSpaceOnUse"><stop offset="0" stop-color="#abc5ff"/><stop offset=".04" stop-color="#a1b9f5"/><stop offset=".19" stop-color="#8290d4"/><stop offset=".34" stop-color="#676eba"/><stop offset=".5" stop-color="#5354a5"/><stop offset=".65" stop-color="#444296"/><stop offset=".82" stop-color="#3c378d"/><stop offset="1" stop-color="#39338a"/></linearGradient><linearGradient id="n" x1="1106.49" y1="1562.17" x2="1420.16" y2="1562.17" xlink:href="#b"/><linearGradient id="o" x1="1064.31" y1="1622.87" x2="1462.34" y2="1622.87" xlink:href="#b"/><linearGradient id="p" x1="2067.42" y1="1943.48" x2="2016.35" y2="1855.03" xlink:href="#c"/><linearGradient id="q" x1="1761.6" y1="1717.45" x2="2159.67" y2="1717.45" xlink:href="#d"/><linearGradient id="r" x1="1766.37" y1="1679.13" x2="2154.9" y2="1679.13" xlink:href="#e"/><linearGradient id="s" x1="1761.6" y1="1672.63" x2="2159.67" y2="1672.63" xlink:href="#b"/><linearGradient id="t" x1="1801.21" y1="1495" x2="2117.03" y2="1677.34" xlink:href="#f"/><linearGradient id="u" x1="1801.21" y1="1495" x2="2117.03" y2="1677.34" xlink:href="#g"/><linearGradient id="v" x1="1803.8" y1="1563.93" x2="2117.47" y2="1563.93" xlink:href="#b"/><linearGradient id="w" x1="1761.62" y1="1624.62" x2="2159.65" y2="1624.62" xlink:href="#b"/><linearGradient id="x" x1="2513.29" y1="1609.81" x2="2383.11" y2="2511.73" xlink:href="#b"/><linearGradient id="y" x1="1370.86" y1="1740.95" x2="1609.64" y2="1740.95" gradientUnits="userSpaceOnUse"><stop offset="0" stop-color="#869ef3" stop-opacity=".4"/><stop offset=".62" stop-color="#7f92f4" stop-opacity=".6"/></linearGradient><linearGradient id="z" x1="1629.22" y1="1740.95" x2="1856.46" y2="1740.95" gradientUnits="userSpaceOnUse"><stop offset="0" stop-color="#7c8cf5" stop-opacity=".76"/><stop offset="1" stop-color="#869ef3" stop-opacity=".4"/></linearGradient><linearGradient id="A" x1="1378.22" y1="2392.79" x2="1327.16" y2="2304.34" xlink:href="#c"/><linearGradient id="B" x1="1072.41" y1="2166.75" x2="1470.47" y2="2166.75" xlink:href="#d"/><linearGradient id="C" x1="1077.18" y1="2128.43" x2="1465.7" y2="2128.43" xlink:href="#e"/><linearGradient id="D" x1="1072.41" y1="2121.94" x2="1470.47" y2="2121.94" xlink:href="#b"/><linearGradient id="E" x1="1112.01" y1="1944.31" x2="1427.83" y2="2126.65" xlink:href="#f"/><linearGradient id="F" x1="1112.01" y1="1944.31" x2="1427.83" y2="2126.65" xlink:href="#g"/><linearGradient id="G" x1="1114.6" y1="2013.23" x2="1428.27" y2="2013.23" xlink:href="#b"/><linearGradient id="H" x1="1072.42" y1="2073.93" x2="1470.46" y2="2073.93" xlink:href="#b"/><linearGradient id="I" x1="2077.53" y1="2403.54" x2="2026.47" y2="2315.09" xlink:href="#c"/><linearGradient id="J" x1="1771.72" y1="2177.51" x2="2169.78" y2="2177.51" xlink:href="#d"/><linearGradient id="K" x1="1776.49" y1="2139.19" x2="2165.01" y2="2139.19" xlink:href="#e"/><linearGradient id="L" x1="1771.72" y1="2132.69" x2="2169.78" y2="2132.69" xlink:href="#b"/><linearGradient id="M" x1="1811.32" y1="1955.06" x2="2127.14" y2="2137.4" xlink:href="#f"/><linearGradient id="N" x1="1811.32" y1="1955.06" x2="2127.14" y2="2137.4" xlink:href="#g"/><linearGradient id="O" x1="1813.91" y1="2023.99" x2="2127.58" y2="2023.99" xlink:href="#b"/><linearGradient id="P" x1="1771.73" y1="2084.68" x2="2169.77" y2="2084.68" xlink:href="#b"/><linearGradient id="h" x1="1724.51" y1="922.33" x2="1724.51" y2="1174.53" gradientUnits="userSpaceOnUse"><stop offset="0" stop-color="#fff" stop-opacity="0"/><stop offset="1" stop-color="#e6cc7d"/></linearGradient><linearGradient id="R" x1="1607.96" y1="1070.27" x2="1304.86" y2="922.56" gradientUnits="userSpaceOnUse"><stop offset="0" stop-color="#fff" stop-opacity="0"/><stop offset="1" stop-color="#fff"/></linearGradient><linearGradient id="S" x1="1626.01" y1="949.18" x2="1626.01" y2="1082.67" xlink:href="#h"/><radialGradient id="Q" cx="1628.82" cy="1080.22" fx="1950.796" r="322" gradientUnits="userSpaceOnUse"><stop offset=".31" stop-color="#e1b705"/><stop offset=".92" stop-color="#f1d868"/></radialGradient></defs><g data-name="Слой 1"><ellipse cx="2840.31" cy="2255.47" rx="95.52" ry="428.82" transform="rotate(-78.8 2103.14 2452.74)" fill="url(#a)"/><ellipse cx="2812.09" cy="1938.11" rx="119.33" ry="46.35" fill="url(#i)"/><path d="M2668 2648s-55 149.08-227.34 218.07-325.61 199.29-432.92 138-23-149.47 99.64-203.13S2449 2614 2449 2614z" transform="translate(-787.39 -564.06)" fill="url(#j)"/><path d="M3030.55 1310.33c-6.23 3.59-10.41 12.73-9.41 20.39s7 11 13.19 7.41 10.48-12.78 9.43-20.47-6.96-10.95-13.21-7.33zm3.1 22.85c-4 2.31-7.8.22-8.48-4.78s2.06-10.82 6.05-13.17 7.84-.19 8.55 4.74-2 10.86-6.12 13.21" fill="#c576ae" opacity=".53"/><path d="M1606.72 455.77c-195.18 220.55-181.88 553.27 29.71 743.17s541.33 165 736.51-55.49 181.87-553.28-29.71-743.18-541.33-165.05-736.51 55.5zm86 77.26c150.43-170.14 402.13-191.49 562.17-47.68s167.82 398.3 17.39 568.44-402.13 191.5-562.17 47.69-167.84-398.3-17.4-568.45z" fill="#3a385f"/><path fill="#3a385f" d="M2315.34 1189.15l150.91 140.68 81.39-93.66-150.91-140.68-81.39 93.66z"/><path d="M3170.41 1860.88a32.3 32.3 0 009.69 32.36l435.05 390.91c43.08 38.71 110.83 33 151.33-12.83 40.49-45.8 38.39-114.31-4.69-153l-434.54-390.46a33.38 33.38 0 00-34.49-6.15c-59.94 23.59-105 73.88-121.36 135.46z" transform="translate(-787.39 -564.06)" fill="url(#k)"/><path fill="#8a9af4" d="M2330.5 1029.26l-76.6-44.22v-88.45l76.6 44.23v88.44z"/><path fill="#bccdf6" d="M2407.09 985.04l-76.59 44.22v-88.44l76.59-44.23v88.45z"/><path fill="#fff" d="M2407.09 896.59l-76.6 44.23-76.59-44.23 76.6-44.22 76.59 44.22z"/><ellipse cx="2758.35" cy="1358.88" rx="438.08" ry="414.78" transform="rotate(-52.5 1792.838 1875.189)" fill="url(#l)"/><path d="M2382.8 1019.48c-193.61 219-183.59 546.52 22.38 731.6s529.91 157.6 723.52-61.37 183.59-546.53-22.38-731.6-529.91-157.6-723.52 61.37zm69.42 57.34c160.2-181.18 428.23-203.92 598.66-50.78s178.72 424.16 18.52 605.35-428.23 203.92-598.66 50.78S2292 1258 2452.22 1076.82z" transform="translate(-787.39 -564.06)" fill="url(#m)"/><g style="mix-blend-mode:overlay" opacity=".34" fill="#fff" stroke="#fff" stroke-linecap="round" stroke-miterlimit="10" stroke-width="29.681"><path d="M2893.47 1566.39l-231.83-209.29M2618.41 1316.14l-105.25-95.01"/></g><path d="M2980.61 1704.94c28.1-33.3 34.62-72.39 21.58-83.39s-46.4 7.07-74.5 40.38-40.3 69.22-27.25 80.23 52.07-3.91 80.17-37.22z" fill="#ffa762"/><path d="M1226.08 1956l-247-142.62c-28.92-16.69-28.92-43.87 0-60.56l247-142.62c28.92-16.7 76-16.69 104.91 0l247 142.62c28.92 16.7 28.92 43.87 0 60.57L1331 1956c-28.94 16.7-76 16.7-104.92 0z" transform="translate(-787.39 -564.06)" fill="url(#c)" style="fill:url(#Безымянный_градиент_22)"/><g opacity=".3"><path d="M674.97 1186.32v-34.69l-9.6-5.33c-2.71 16.37-22 27.15-38.08 29.4l-109.68 64.14-47.87 17.29-152.8-78.86 3.53-2c-13.06-6.1-20.09-20-27.16-32.78l-10.28 6.13-6.12 1.72v35.57c0 6.8 4.49 13.59 13.45 18.77l153.08 88.38c17.93 10.35 47.09 10.35 65 0l153.08-88.38c8.82-5.09 13.3-11.75 13.44-18.43v-.9z" fill="#5200f7"/><path d="M627.29 1175.7l-109.68 64.14-41.67 15v46.89c11.78 0 23.55-2.58 32.51-7.76l153.08-88.38c8.82-5.09 13.3-11.75 13.44-18.43V1151.57l-8.77-4.87h-.92c-2.99 16.17-22.03 26.77-37.99 29z" fill="#5300ea"/><path d="M1230.82 1822.84l-153.08-88.38c-17.93-10.35-17.93-27.19 0-37.53l153.08-88.39c17.92-10.34 47.08-10.34 65 0l153.08 88.38c17.93 10.35 17.93 27.19 0 37.53l-153.08 88.38c-17.91 10.36-47.07 10.36-65 .01z" transform="translate(-787.39 -564.06)" fill="url(#d)"/><path d="M443.43 1258.78l-153.08-88.38c-17.93-10.35-17.93-27.19 0-37.53l153.08-88.39c17.92-10.34 47.08-10.34 65 0l153.08 88.38c17.93 10.35 17.93 27.19 0 37.53l-153.08 88.38c-17.91 10.36-47.07 10.36-65 .01z" fill="#7675ff"/></g><path d="M1263.33 1790.08c-10.45 0-20.9-2.3-28.86-6.89l-153.08-88.39c-8-4.59-12.33-10.78-12.33-17.43s4.38-12.84 12.33-17.43l153.08-88.38c15.91-9.19 41.79-9.19 57.71 0l153.08 88.38c8 4.6 12.32 10.78 12.32 17.44s-4.37 12.84-12.32 17.43l-153.08 88.38c-7.95 4.59-18.4 6.89-28.85 6.89zm0-222.77c-10 0-19.92 2.2-27.51 6.57l-153.08 88.38c-7.08 4.09-11 9.46-11 15.11s3.9 11 11 15.11l153.09 88.39c15.16 8.75 39.85 8.75 55 0l153.08-88.38c7.08-4.09 11-9.46 11-15.11s-3.9-11-11-15.12l-153.09-88.38c-7.57-4.37-17.53-6.57-27.5-6.57z" transform="translate(-787.39 -564.06)" opacity=".42" fill="url(#e)"/><path d="M1462.36 1643.45V1591l-9.6-5.33c-2.71 16.37-22 27.15-38.08 29.39L1305 1679.24l-47.87 17.28-152.8-78.85 3.53-2c-13.06-6.1-20.09-20.05-27.16-32.78l-10.28 6.13-6.12 1.72V1644c0 6.79 4.49 13.59 13.45 18.76l153.08 88.39c17.93 10.34 47.09 10.34 65 0l153.08-88.39c8.82-5.09 13.3-11.75 13.44-18.43v-.9z" transform="translate(-787.39 -564.06)" fill="url(#b)" opacity=".47"/><path d="M1462.36 1596.86v-34.69l-9.6-5.33c-2.71 16.37-22 27.15-38.08 29.39L1305 1650.38l-47.87 17.28-152.8-78.85 3.53-2c-13.06-6.1-20.09-20-27.16-32.78l-10.28 6.13-6.12 1.72v35.57c0 6.8 4.49 13.59 13.45 18.77l153.08 88.38c17.93 10.35 47.09 10.35 65 0l153.08-88.38c8.82-5.09 13.3-11.75 13.44-18.44v-.89z" transform="translate(-787.39 -564.06)" fill="url(#f)"/><path d="M1462.36 1596.86v-34.69l-9.6-5.33c-2.71 16.37-22 27.15-38.08 29.39L1305 1650.38l-47.87 17.28-152.8-78.85 3.53-2c-13.06-6.1-20.09-20-27.16-32.78l-10.28 6.13-6.12 1.72v35.57c0 6.8 4.49 13.59 13.45 18.77l153.08 88.38c17.93 10.35 47.09 10.35 65 0l153.08-88.38c8.82-5.09 13.3-11.75 13.44-18.44v-.89z" transform="translate(-787.39 -564.06)" fill="url(#g)"/><path d="M627.29 1022.17l-109.68 64.15-41.67 15v46.9c11.78 0 23.55-2.59 32.51-7.76l153.08-88.38c8.82-5.09 13.3-11.75 13.44-18.44v-35.58l-8.77-4.87h-.92c-2.99 16.16-22.03 26.75-37.99 28.98z" fill="#18114d" opacity=".3"/><path d="M443.43 1105.26l-153.08-88.38c-17.93-10.35-17.93-27.19 0-37.54l153.08-88.4c17.92-10.35 47.08-10.35 65 0l153.08 88.39c17.93 10.34 17.93 27.18 0 37.53l-153.08 88.38c-17.91 10.37-47.07 10.37-65 .02z" fill="#60659f"/><path d="M1263.33 1653.27c-9.44 0-18.88-2.07-26.07-6.23l-119.6-69c-7.21-4.16-11.17-9.78-11.17-15.82s4-11.66 11.17-15.82l119.59-69c14.38-8.3 37.76-8.3 52.14 0l119.6 69c7.2 4.16 11.17 9.78 11.17 15.82s-4 11.67-11.17 15.83l-119.59 69c-7.19 4.15-16.63 6.22-26.07 6.22zm-24.73-8.55c13.64 7.87 35.82 7.87 49.45 0l119.6-69c6.34-3.66 9.83-8.46 9.83-13.51s-3.49-9.83-9.84-13.5l-119.59-69.05c-13.63-7.86-35.81-7.88-49.45 0l-119.6 69.01c-6.35 3.66-9.84 8.45-9.84 13.5s3.49 9.84 9.84 13.5z" transform="translate(-787.39 -564.06)" opacity=".42" fill="url(#n)"/><path d="M1448.91 1580.94l-153.08 88.38c-17.92 10.35-47.08 10.35-65 0l-153.08-88.38c-8-4.63-12.43-10.55-13.28-16.61-1 7.5 3.36 15.21 13.28 20.93l153.08 88.38c17.93 10.35 47.09 10.35 65 0l153.08-88.38c9.92-5.72 14.33-13.43 13.28-20.92-.85 6.05-5.27 11.98-13.28 16.6z" transform="translate(-787.39 -564.06)" fill="url(#o)"/><path d="M1923.39 1957.75l-247-142.61c-28.92-16.7-28.92-43.87 0-60.57l247-142.61c28.92-16.7 76-16.7 104.91 0l247 142.61c28.92 16.7 28.92 43.87 0 60.57l-247 142.61c-28.93 16.7-75.99 16.7-104.91 0z" transform="translate(-787.39 -564.06)" fill="url(#p)" style="fill:url(#Безымянный_градиент_22-2)"/><g opacity=".3"><path d="M1372.28 1188.07v-34.68l-9.6-5.34c-2.71 16.37-22 27.16-38.08 29.4l-109.69 64.14-47.87 17.29-152.8-78.85 3.53-2c-13.06-6.1-20.09-20.06-27.16-32.79l-10.28 6.14-6.12 1.72v35.57c0 6.79 4.49 13.59 13.45 18.76l153.08 88.39c17.93 10.34 47.09 10.34 65 0l153.08-88.39c8.82-5.09 13.3-11.75 13.44-18.43v-.9z" fill="#5200f7"/><path d="M1324.61 1177.45l-109.69 64.14-41.66 15v46.9c11.77 0 23.54-2.59 32.5-7.76l153.08-88.39c8.82-5.09 13.3-11.75 13.44-18.43v-35.58l-8.77-4.88h-.9c-3 16.17-22 26.78-38 29z" fill="#5300ea"/><path d="M1928.13 1824.6l-153.08-88.39c-17.93-10.34-17.93-27.18 0-37.53l153.08-88.38c17.92-10.35 47.08-10.35 65 0l153.08 88.38c17.93 10.35 17.93 27.19 0 37.54l-153.08 88.38c-17.91 10.4-47.07 10.4-65 0z" transform="translate(-787.39 -564.06)" fill="url(#q)"/><path d="M1140.74 1260.54l-153.08-88.39c-17.93-10.34-17.93-27.18 0-37.53l153.08-88.38c17.92-10.35 47.08-10.35 65 0l153.08 88.38c17.93 10.35 17.93 27.19 0 37.54l-153.08 88.38c-17.91 10.4-47.07 10.4-65 0z" fill="#7675ff"/></g><path d="M1960.64 1791.83c-10.45 0-20.9-2.3-28.86-6.89l-153.08-88.38c-8-4.59-12.33-10.78-12.33-17.44s4.38-12.84 12.33-17.43l153.08-88.37c15.91-9.2 41.79-9.2 57.71 0l153.08 88.38c7.95 4.59 12.33 10.78 12.33 17.43s-4.38 12.84-12.33 17.43l-153.08 88.38c-7.95 4.59-18.4 6.89-28.85 6.89zm0-222.77c-10 0-19.92 2.2-27.51 6.58L1780 1664c-7.08 4.1-11 9.46-11 15.11s3.9 11 11 15.12l153.09 88.38c15.16 8.75 39.85 8.75 55 0l153.08-88.38c7.08-4.09 11-9.46 11-15.11s-3.9-11-11-15.11l-153.09-88.38c-7.52-4.37-17.48-6.57-27.45-6.57z" transform="translate(-787.39 -564.06)" opacity=".42" fill="url(#r)"/><path d="M2159.67 1645.21v-52.43l-9.6-5.33c-2.71 16.37-22 27.15-38.08 29.4L2002.3 1681l-47.87 17.29-152.8-78.86 3.53-2c-13.06-6.1-20.09-20.05-27.16-32.78l-10.28 6.13-6.12 1.72v53.31c0 6.8 4.49 13.59 13.45 18.77l153.08 88.38c17.93 10.35 47.09 10.35 65 0l153.08-88.38c8.82-5.09 13.3-11.75 13.44-18.44a8.81 8.81 0 000-.89z" transform="translate(-787.39 -564.06)" fill="url(#s)" opacity=".47"/><path d="M2159.67 1598.61v-34.68l-9.6-5.34c-2.71 16.37-22 27.15-38.08 29.4l-109.69 64.14-47.87 17.29-152.8-78.86 3.53-2c-13.06-6.1-20.09-20.06-27.16-32.79l-10.28 6.14-6.12 1.71v35.57c0 6.8 4.49 13.6 13.45 18.77l153.08 88.38c17.93 10.35 47.09 10.35 65 0l153.08-88.38c8.82-5.09 13.3-11.75 13.44-18.43v-.9z" transform="translate(-787.39 -564.06)" fill="url(#t)"/><path d="M2159.67 1598.61v-34.68l-9.6-5.34c-2.71 16.37-22 27.15-38.08 29.4l-109.69 64.14-47.87 17.29-152.8-78.86 3.53-2c-13.06-6.1-20.09-20.06-27.16-32.79l-10.28 6.14-6.12 1.71v35.57c0 6.8 4.49 13.6 13.45 18.77l153.08 88.38c17.93 10.35 47.09 10.35 65 0l153.08-88.38c8.82-5.09 13.3-11.75 13.44-18.43v-.9z" transform="translate(-787.39 -564.06)" fill="url(#u)"/><path d="M1324.61 1023.94l-109.69 64.14-41.66 15v46.89c11.77 0 23.54-2.58 32.5-7.76l153.08-88.38c8.82-5.09 13.3-11.75 13.44-18.43v-35.58l-8.77-4.88h-.9c-3 16.16-22 26.77-38 29z" fill="#18114d" opacity=".3"/><path d="M1140.74 1107.01l-153.08-88.38c-17.93-10.35-17.93-27.19 0-37.53l153.08-88.38c17.92-10.35 47.08-10.35 65 0l153.08 88.38c17.93 10.35 17.93 27.19 0 37.53l-153.08 88.38c-17.91 10.35-47.07 10.35-65 0z" fill="#60659f"/><path d="M1960.64 1655c-9.44 0-18.88-2.07-26.07-6.22L1815 1579.74c-7.21-4.15-11.17-9.77-11.17-15.82s4-11.66 11.17-15.82l119.59-69c14.38-8.3 37.76-8.29 52.14 0l119.6 69c7.2 4.16 11.17 9.78 11.17 15.83s-4 11.66-11.16 15.82l-119.6 69c-7.22 4.25-16.66 6.25-26.1 6.25zm-24.73-8.54c13.64 7.86 35.82 7.86 49.45 0l119.6-69c6.34-3.66 9.83-8.46 9.83-13.5s-3.49-9.84-9.84-13.51l-119.59-69c-13.63-7.87-35.81-7.88-49.45 0l-119.59 69.05c-6.35 3.66-9.84 8.46-9.84 13.5s3.49 9.84 9.84 13.5z" transform="translate(-787.39 -564.06)" opacity=".42" fill="url(#v)"/><path d="M2146.22 1582.69l-153.08 88.38c-17.92 10.35-47.08 10.35-65 0l-153.08-88.38c-8-4.62-12.43-10.55-13.28-16.61-1 7.5 3.36 15.21 13.28 20.93l153.08 88.39c17.93 10.34 47.09 10.34 65 0l153.08-88.4c9.92-5.73 14.33-13.43 13.28-20.93-.85 6.08-5.27 12-13.28 16.62z" transform="translate(-787.39 -564.06)" fill="url(#w)"/><g opacity=".42" fill="none" stroke="#e3c15a" stroke-linecap="round" stroke-miterlimit="10" stroke-width="23.674"><path d="M529.99 347.64h-93.14M1254.61 347.64h-93.14"/></g><g opacity=".42" fill="none" stroke="#e3c15a" stroke-linecap="round" stroke-miterlimit="10" stroke-width="23.674"><path d="M486.92 625.9l44.92-44.92M1204.54 625.9l-44.92-44.92"/></g><g opacity=".42" fill="none" stroke="#e3c15a" stroke-linecap="round" stroke-miterlimit="10" stroke-width="23.674"><path d="M510.6 123.53l44.92 44.91M1180.86 123.53l-44.92 44.91"/></g><path fill="none" stroke="#e3c15a" stroke-linecap="round" stroke-miterlimit="10" stroke-width="23.674" opacity=".42" d="M851.65 121.14V25.6"/><circle cx="791.82" cy="280.48" r="11.71" fill="#fff"/><path d="M2394.47 51.35c6.06 6 9.52 15.61 8.38 23.94-1.38 10.21-9.27 14.61-17.58 9.81l-50.91-29.39c-10.58-6.1-17.76-21.68-16-34.68s11.79-18.69 22.24-12.64a21.79 21.79 0 012.23 1.46c6-10.18 17.11-12.8 28.33-6.32 14.71 8.49 24.83 29.57 23.31 47.82zm-8.39 27.8c5.64 3.25 11 .26 11.93-6.65a20.07 20.07 0 00-7-17.39 4.74 4.74 0 01-1.67-4.13c2.16-15.68-6.37-34.19-19-41.46-9.79-5.66-19.55-2.92-24.22 6.85a1.7 1.7 0 01-2.57.75 2.94 2.94 0 01-.52-.39 18.31 18.31 0 00-3.06-2.25c-7.92-4.57-15.44-.37-16.76 9.35s4 21.36 11.95 25.93l50.91 29.39" fill="#e6c630" opacity=".4"/><g opacity=".48" fill="#c576ae"><path d="M28.86 1016.56a23.18 23.18 0 10-28-16.41 23 23 0 0028 16.41zm-11-40.5a18.79 18.79 0 11-12.87 23 18.62 18.62 0 0112.87-23zM89.31 1013.57l-20.54-4.85a2.06 2.06 0 00-2 .56l-13.91 13.59A35.83 35.83 0 008.16 1039a39.44 39.44 0 00-3 29.42 2.17 2.17 0 002.65 1.55l57.8-15.79a27.82 27.82 0 0012.32 5.15l2.71.43a2.13 2.13 0 00.87-.06 2.36 2.36 0 00.79-.4l2.39-1.94a28.41 28.41 0 009.63-29.76l-3.38-12.44a2.22 2.22 0 00-1.63-1.59zm-80.49 51.57a34.77 34.77 0 013.16-24 31.1 31.1 0 0119.37-15.3h.07a31.11 31.11 0 0120.38 1.31l3.1 11.44a28.81 28.81 0 006.78 12.14zm81.32-36.42a24 24 0 01-8.17 25.19l-1.66 1.34-1.77-.27a24.14 24.14 0 01-19.47-17.57l-3.13-11.47 13-12.74 18.13 4.3z"/><path d="M68.34 1033.44a2.13 2.13 0 00-3 .56 2.24 2.24 0 00.58 3l6.24 4.32a2.12 2.12 0 003-.5l8.5-12.06a2.22 2.22 0 00-.52-3.06 2.12 2.12 0 00-3 .5l-7.27 10.33z"/></g><path fill="#8a9af4" d="M1971.92 748.94l-76.6-44.22v-88.45l76.6 44.23v88.44z"/><path fill="#8a59f4" d="M2048.52 704.72l-76.6 44.22V660.5l76.6-44.23v88.45z"/><path fill="#fff" d="M2048.52 616.27l-76.6 44.23-76.6-44.23 76.6-44.22 76.6 44.22z"/><path fill="#8a83f4" d="M2048.92 792.94l-76.6-44.22v-88.45l76.6 44.23v88.44z"/><path fill="#bcb7f6" d="M2125.52 748.72l-76.6 44.22V704.5l76.6-44.23v88.45z"/><path fill="#fff1ff" d="M2125.52 660.27l-76.6 44.23-76.6-44.23 76.6-44.22 76.6 44.22z"/><path fill="#e42d57" d="M1818.92 748.94l-76.6-44.22v-88.45l76.6 44.23v88.44z"/><path fill="#ff4062" d="M1895.52 704.72l-76.6 44.22V660.5l76.6-44.23v88.45z"/><path fill="#ff6b94" d="M1895.52 616.27l-76.6 44.23-76.6-44.23 76.6-44.22 76.6 44.22z"/><path fill="#8a9af4" d="M1742.3 881.57l-76.6-44.23V748.9l76.6 44.22v88.45z"/><path fill="#bccdf6" d="M1818.9 837.34l-76.6 44.23v-88.45l76.6-44.22v88.44z"/><path fill="#fff" d="M1818.9 748.9l-76.6 44.22-76.6-44.22 76.6-44.23 76.6 44.23z"/><path fill="#8a9af4" d="M2201.92 783.94l-76.6-44.22v-88.45l76.6 44.23v88.44z"/><path fill="#bccdf6" d="M2278.52 739.72l-76.6 44.22V695.5l76.6-44.23v88.45z"/><path fill="#fff5ff" d="M2278.52 651.27l-76.6 44.23-76.6-44.23 76.6-44.22 76.6 44.22z"/><path fill="#8a83f4" d="M2201.92 695.94l-76.6-44.22v-88.45l76.6 44.23v88.44z"/><path fill="#bcb7f6" d="M2278.52 651.72l-76.6 44.22V607.5l76.6-44.23v88.45z"/><path fill="#fff6ff" d="M2278.52 563.27l-76.6 44.23-76.6-44.23 76.6-44.22 76.6 44.22z"/><path fill="#8a83f4" d="M2097.92 1126.94l-76.6-44.22v-88.45l76.6 44.23v88.44z"/><path fill="#bcb7f6" d="M2174.52 1082.72l-76.6 44.22v-88.44l76.6-44.23v88.45z"/><path fill="#fff6ff" d="M2174.52 994.27l-76.6 44.23-76.6-44.23 76.6-44.22 76.6 44.22z"/><path fill="#8a9af4" d="M1952.92 967.94l-76.6-44.22v-88.45l76.6 44.23v88.44z"/><path fill="#bccdf6" d="M2029.52 923.72l-76.6 44.22V879.5l76.6-44.23v88.45z"/><path fill="#fff" d="M2029.52 835.27l-76.6 44.23-76.6-44.23 76.6-44.22 76.6 44.22z"/><path d="M2123.61 1322.94c7.52.68 28.62-6.59 45-14.13 3.91-4.18 7.52-8.57 11-12.87 8.41-10.52-8.73-6.78-26.62-3.26a131.56 131.56 0 01-17.38 7.26c-13 4-34-3-34-3s26-7 30-16-14-1-32 3-21 3-30 8-9 11-15 12-11.89 2.43-11.89 2.43l8.21 19.42c2.21-1 15.53-6.94 24.68-7.85 10-1 37 4 48 5z" fill="#ffb9b3"/><path d="M2077.61 1331.94s32 5 54 0c15.69-3.57 27.31-12.73 37-23.13-16.42 7.54-37.52 14.81-45 14.13-11-1-38-6-48-5-9.15.91-22.47 6.85-24.68 7.85l5.86 13.84z" fill="#f2a9a5"/><path d="M2135.61 1299.94a131.56 131.56 0 0017.38-7.26c-7.63 1.5-15.4 3-21.38 3.26-20 1-30 1-30 1s21 7 34 3z" fill="#ffb9b3"/><path fill="#e1b705" d="M1638.07 1525.33l13.54-26.39v34l-13.54-7.61z"/><path fill="#e42d57" d="M2038.71 1296.93l9.9-2.99 20 44-10.83 4.04-19.07-45.05z"/><path d="M1821.06 1404.32s-27.21-24.38-34.33-39.88l36.6 74.78z" fill="#504ac8"/><path d="M1621.52 2089.72v.54a2.83 2.83 0 00.09.62 2.36 2.36 0 01.17.8c1 3.48 5 12.48 20.24 15.15a27.36 27.36 0 002.85.36 5.09 5.09 0 001.16.18 93.29 93.29 0 0011.41.18c1.24-.09 2.49-.18 3.74-.36 16.58-3.39 32-16.13 36-19.61.71-.62 1.07-1 1.07-1v-3.12s11-7.31 15-9.71c12.21-7.22 29.77-13.37 46.53-21.66a49.77 49.77 0 0011.76-7.93c.54-.54 1.07-1.16 1.61-1.61a11.31 11.31 0 001-1c.35-.45.62-1 1-1.43.71-1 1.33-1.87 1.87-2.67.27-.53.53-1 .71-1.34l.63-1.24a9.11 9.11 0 00.44-1.34v-.09a22 22 0 001-6.33v-11l-102.05 41.8-55.8 20.86z" fill="#333851"/><path d="M1682.27 2013.58s17.1-.78 45-5.55 47.08-6.13 50.68 2.56c3.49 8.42 4.29 17.45-20.59 34.48s-44.14 18.8-64.07 34.85c-14.76 11.89-28.05 14.71-42.9 15.73s-24.88-4.68-28.12-10.73c-7.52-14.06.26-40.69.26-40.69" fill="#40486b"/><path d="M1721.92 2105.94l-.09 13.83c0 5 2.52 9.85 7 12a19.12 19.12 0 006 1.69c17.27 2 43.86-2.14 43.86-2.14v-5.1s9.46-1.06 37.35-4.52c28.81-3.58 48.25-12.12 57.74-17.2a12.54 12.54 0 006.66-11.09l-.05-10.13-109.63 19.34z" fill="#333851"/><path d="M1798.83 2057.37s12.21 11.49 26.56 11.49 42.35-.36 49.53 4.66c3.59 2.51 5.38 5.57 5.61 9s-1.13 7.18-3.82 11.13c-5.38 7.9-41.63 19.74-68.9 21.89s-28.71 1.8-41.63 3.95-26.36 3.17-34.5-.86c-14.07-7-15-28.21-6.42-42.21s73.57-19.05 73.57-19.05z" fill="#40486b"/><path d="M1649.95 1042.12l-2.23 5.17 3.39 17.11 54.54 27.46 3.21-.45 8.74-1.07 13.72-1.78v-18.9c0-9.71 5.26-19.16 14.18-23a4.89 4.89 0 01.62-.27 26.55 26.55 0 009.27-6.24l.8-.8c10.52-11.14 19.88-36.19 17.2-91-.53-9.54-2.67-26.12-7-34.59-7.93-15.24-24.78-25.31-59.54-15.77-57.93 16-83.24 42.34-86.19 65.06s29.29 79.07 29.29 79.07z" fill="#ffb9b3"/><path d="M1731.32 1088.56v-18.9c0-9.71 5.26-19.16 14.18-23-2.86 1.24-11.65 5.46-23.35 11.73-4.69 2.51-4.55 17.59-4.55 31.94z" fill="#ffa795"/><path d="M1594.06 1560.5c12.93 70.59 22.2 158.12 22.2 158.12s-21.57 175.31 2.67 328c1.07 7.22 3.57 22.47 12.84 28.44 5.25 3.21 19.16 5.52 29.94-.18.45-.27.9-.45 1.34-.71 36.19-19.79 32.35-45.46 37.61-62.31-.09-67.91-7.22-235 7.22-271.75l12.93-148.17-4.73-105.88h-129.59v.35l-.63-.35s-11.05 28.45 8.2 74.44z" fill="#9497aa"/><path d="M1657.61 1575.94c12.21 40.11 3.93 132.25 7.22 157.83 0 0-12 201.7-1.78 340.39 36.19-19.79 32.35-45.46 37.61-62.31-.09-67.91-7.22-235 7.22-271.75l12.93-148.16-4.73-105.88-52.47-.12s-18.21 49.89-6 90z" fill="#70778c"/><path d="M1641.93 1521.02c4.1 18.18 12.12 43.58 28 67.73 2.5 3.75 4.73 7.58 6.87 11.41.44 1.79 6.77 25.49 14.61 57.31s17.38 71.75 24.16 105.71c-3.74 42.61-14.26 191.81 5.79 321.05a23.69 23.69 0 0017 19.25 42.38 42.38 0 0014.26 1.51 35.69 35.69 0 0011.94-2.85c21.21-8.91 36.54-42.87 36.54-42.87s.54-214.62 11.68-270.95a250.58 250.58 0 003.92-32.54c2.05-34.49 5.79-97.42 7-123.71 2.23-51.16 2.59-94.12.8-113.28l-106.15 1.33z" fill="#9497aa"/><path d="M1718.31 1520.12c.54 6.33.89 10.52.89 10.52s1.07 26.74 14.53 66.85 27 135.21 28.4 170.86c1.43 32.8-16 189.13-9.5 336.64a35.69 35.69 0 0011.94-2.85c21.21-8.91 36.54-42.87 36.54-42.87s.54-214.62 11.68-270.95a250.58 250.58 0 003.92-32.54c2.05-34.49 5.79-97.42 7-123.71 2.23-51.16 2.59-94.12.8-113.28z" fill="#70778c"/><path d="M2360.69 1785.69c17.11 52 26.74 137.35 16.4 173s-16.4 86.19-16.4 86.19c9.71 26.74 100.27 84.67 150.81 89.13a75.77 75.77 0 0018.53-.72c44.48-6.59 86.19-46.08 86.19-46.08s-9.62-146.35-15.6-239.93c-4-62.22-13.19-101-19-120a142.82 142.82 0 00-4.81-14.08c-5.35-7-21.31-19-41.63-32.36a1.49 1.49 0 01-.44-.18c-13.64-9.09-29.15-18.71-44.75-27.89h-.09c-20.76-12.3-41.71-23.8-58.46-32.18-2-1-3.84-1.87-5.62-2.67-11.85-5.8-21-9.63-25.76-10.52-23.8-4.46-55.7 8.11-65.33 51.25s8.93 74.99 25.96 127.04z" transform="translate(-787.39 -564.06)" fill="url(#x)"/><path d="M1747.99 1394.01c3 39.93-3 139.57-5.35 175.22 44.48-6.59 86.19-46.08 86.19-46.08s-9.62-146.35-15.6-239.93c-4-62.22-13.19-101-19-120-4.81-5.53-7.93-9-7.93-9h-58.65s-30.48 6.24-19.43 75.67c11.25 69.46 36.12 115.05 39.77 164.12z" fill="#727ee2"/><path d="M1638.09 1075.81c8.92 12.21 40.89 29.87 55.59 33s26.56 1.52 33.54 1.42c9.81-.14 17.38 5.26 20.15 6.41a1.49 1.49 0 00.44.18.28.28 0 00.18.09l-8.73-13.28-10.16-6.51s-14.89-5.43-18.19-7c-1.07-.53-4.28-1-8.29-1.42h-.09c-8.82-1.07-21.48-2-23.44-2.23-2.76-.36-25.75-16.13-26.74-16.76-.53-.36-5.07-7.84-8.28-13.19-2-1-3.84-1.87-5.62-2.67-3.21 4.09-7.4 12.25-.36 21.96z" fill="#504ac8"/><path d="M1703.61 945.94c9-14 18-21 36-30 8.61-4.3 17.67-13 24.79-20.81a.17.17 0 010-.07v-.12c-2.4-22.91-11.73-32.29-20.59-38.77-28.83-21.11-89.13 18.09-111.41 36.81-12.21 10.25-20.68 22-25 35.47v.09a68.55 68.55 0 00-2.84 13.29c10.91.72 23 2.87 33 8.08 25.05 13.03 57.05 10.03 66.05-3.97z" fill="#3a385f"/><path d="M1605.38 965.11c5 29.77 30.22 76.57 43 80.84a74.25 74.25 0 0021 4c10 .54 24.75-7.45 31.23-15 12-14 3.06-28 5-37 3-14 13.68-16.43 19.56-13.31s5.26 13.64 5.26 13.64l3.84-.09s.35-3.39.89-7.93.89-10.16 1.16-14.53a50.47 50.47 0 0110.25-30.84c4.1-5.44 9-13.72 14.26-26.29a48.24 48.24 0 003.57-23.46c-7.12 7.86-16.18 16.51-24.79 20.81-18 9-27 16-36 30s-41 17-66 4c-10-5.21-22.11-7.36-33-8.08a83.9 83.9 0 00.77 23.24z" fill="#2c2c51"/><path d="M1642.23 1052.46l5.52-5.13c36 39.74 83.56 41.22 83.56 41.22s13 13.14 16.73 28.39l-7.59-4.91a34 34 0 00-13.14-5.12c-3-.46-9.59-.79-9.59-.79-29.77-.41-59.39-21.19-74.88-34a13 13 0 01-.61-19.66z" fill="#fff"/><path d="M1776.96 2040.29a14.6 14.6 0 01-1.88 2.69c.74-.97 1.37-1.89 1.88-2.69zM1774.11 2044.39c.39-.43.62-.95 1-1.41a34.5 34.5 0 01-1.95 2.39 12.93 12.93 0 00.95-.98z" fill="#484848"/><path d="M1918.61 1386.94c21.55-11.17 101-47.18 132.27-61.27l-14.27-33.73s0 2-32 14c-28.13 10.55-101.85 26.51-122.66 21.38l-16.34 12.62 10.76-16.63c-5.44-14-28.84-64.54-56.76-125.37-28-61-53.28-66.33-53.28-66.33-10.24-6.7-30.84 1.52-42 21.09 6.78 35.14 26.73 125.08 62.33 181.24 44.95 71 104.95 67 131.95 53z" fill="#fff"/><path d="M1848.61 1418.94c70 16 210-75 210-75l-7.73-18.27c-31.24 14.09-110.72 50.1-132.27 61.27-27 14-87 18-132-53-35.6-56.16-55.55-146.1-62.33-181.24a59.41 59.41 0 00-7.67 28.24c-1 39 62 222 132 238z" fill="#e1e5ef"/><path d="M1881.95 1327.32c-2.86-.71-4.74-1.81-5.34-3.38l-.24-.63-10.76 16.63z" fill="#e1e5ef"/><path d="M1583.61 1495.66s60 57.28 96 74.28 78 10 94 4 52-47.88 52-47.88-116.95 56.31-242-30.4z" fill="#70778c"/><path d="M1724.61 996.94s-3-6-8-4 8 14 8 14z" fill="#ffa795"/><circle cx="2076.4" cy="463.78" r="18.84" fill="#fff"/><path d="M2012.19 462.8a16.08 16.08 0 01-17 9.7c-22.83-3.15-75.07-7.73-131.18 5.28 0 0 48.1-45.42 134.95-37.28a16.09 16.09 0 0113.23 22.3z" fill="#fff"/><circle cx="1985.53" cy="310.25" r="7.95" fill="#fff"/><path d="M2011.76 314.94a8.23 8.23 0 008.21 5.74c11.77-.53 38.57-.4 66.51 8.87 0 0-22.34-25.38-66.92-25.34a8.23 8.23 0 00-7.8 10.73z" fill="#fff"/><path d="M1377.86 1804.33l197.89 117.88a17.75 17.75 0 0026.89-15.22v-349.86" transform="translate(-787.39 -564.06)" fill="none" stroke-linecap="round" stroke-linejoin="round" stroke-width="14" stroke="url(#y)"/><path d="M1849.46 1810.33l-186.36 111.88a17.75 17.75 0 01-26.88-15.22v-349.86" transform="translate(-787.39 -564.06)" fill="none" stroke-linecap="round" stroke-linejoin="round" stroke-width="14" stroke="url(#z)"/><path d="M1234.19 2407.06l-247-142.62c-28.92-16.7-28.92-43.87 0-60.56l247-142.62c28.92-16.7 76-16.7 104.91 0l247 142.62c28.92 16.7 28.92 43.87 0 60.57l-247 142.61c-28.93 16.7-75.99 16.7-104.91 0z" transform="translate(-787.39 -564.06)" fill="url(#A)" style="fill:url(#replace-gradient-2_8)"/><g opacity=".3"><path d="M683.08 1637.38v-34.69l-9.6-5.33c-2.71 16.37-22 27.15-38.08 29.39l-109.69 64.19-47.87 17.29-152.8-78.86 3.53-2c-13.06-6.1-20.09-20-27.16-32.78l-10.28 6.13-6.11 1.72v35.5c0 6.8 4.48 13.59 13.44 18.77l153.08 88.38c17.93 10.35 47.09 10.35 65 0l153.07-88.39c8.82-5.09 13.3-11.75 13.44-18.44a8.88 8.88 0 000-.89z" fill="#5200f7"/><path d="M635.4 1626.75l-109.69 64.19-41.66 15v46.89c11.77 0 23.54-2.58 32.5-7.76l153.06-88.37c8.82-5.09 13.3-11.75 13.44-18.44a8.88 8.88 0 000-.89v-34.69l-8.77-4.87h-.92c-2.96 16.13-22 26.72-37.96 28.94z" fill="#5300ea"/><path d="M1238.93 2273.9l-153.08-88.38c-17.93-10.35-17.93-27.19 0-37.54l153.08-88.38c17.92-10.34 47.08-10.34 65 0L1457 2148c17.93 10.35 17.93 27.18 0 37.53l-153.08 88.38c-17.92 10.34-47.06 10.34-64.99-.01z" transform="translate(-787.39 -564.06)" fill="url(#B)"/><path d="M451.54 1709.84l-153.08-88.38c-17.93-10.35-17.93-27.19 0-37.54l153.08-88.38c17.92-10.34 47.08-10.34 65 0l153.07 88.4c17.93 10.35 17.93 27.18 0 37.53l-153.08 88.38c-17.92 10.34-47.06 10.34-64.99-.01z" fill="#7675ff"/></g><path d="M1271.44 2241.14c-10.45 0-20.9-2.3-28.86-6.9l-153.08-88.38c-8-4.59-12.32-10.78-12.32-17.43s4.37-12.84 12.32-17.43l153.08-88.38c15.91-9.19 41.79-9.19 57.71 0l153.08 88.38c8 4.59 12.33 10.78 12.33 17.44s-4.38 12.84-12.33 17.43l-153.08 88.37c-7.95 4.6-18.4 6.9-28.85 6.9zm0-222.77c-10 0-19.92 2.19-27.51 6.57l-153.08 88.38c-7.08 4.09-11 9.46-11 15.11s3.9 11 11 15.11l153.09 88.38c15.17 8.76 39.85 8.76 55 0l153.06-88.37c7.08-4.1 11-9.46 11-15.11s-3.9-11-11-15.12l-153.09-88.38c-7.55-4.38-17.51-6.57-27.48-6.57z" transform="translate(-787.39 -564.06)" opacity=".42" fill="url(#C)"/><path d="M1470.47 2094.51v-52.42l-9.6-5.33c-2.71 16.36-22 27.15-38.08 29.39l-109.69 64.15-47.87 17.28-152.8-78.85 3.53-2c-13.06-6.1-20.09-20.06-27.16-32.79l-10.28 6.14-6.11 1.72v53.31c0 6.79 4.48 13.59 13.44 18.76l153.08 88.38c17.93 10.35 47.09 10.35 65 0l153.07-88.42c8.82-5.09 13.3-11.75 13.44-18.43v-.9z" transform="translate(-787.39 -564.06)" fill="url(#D)" opacity=".47"/><path d="M1470.47 2047.91v-34.68l-9.6-5.33c-2.71 16.37-22 27.15-38.08 29.39l-109.69 64.15-47.87 17.28-152.8-78.85 3.53-2c-13.06-6.1-20.09-20-27.16-32.78l-10.28 6.13-6.11 1.72v35.57c0 6.8 4.48 13.59 13.44 18.77l153.08 88.38c17.93 10.35 47.09 10.35 65 0l153.07-88.42c8.82-5.09 13.3-11.75 13.44-18.44a8.81 8.81 0 000-.89z" transform="translate(-787.39 -564.06)" fill="url(#E)"/><path d="M1470.47 2047.91v-34.68l-9.6-5.33c-2.71 16.37-22 27.15-38.08 29.39l-109.69 64.15-47.87 17.28-152.8-78.85 3.53-2c-13.06-6.1-20.09-20-27.16-32.78l-10.28 6.13-6.11 1.72v35.57c0 6.8 4.48 13.59 13.44 18.77l153.08 88.38c17.93 10.35 47.09 10.35 65 0l153.07-88.42c8.82-5.09 13.3-11.75 13.44-18.44a8.81 8.81 0 000-.89z" transform="translate(-787.39 -564.06)" fill="url(#F)"/><path d="M635.4 1473.23l-109.69 64.15-41.66 15v46.9c11.77 0 23.54-2.59 32.5-7.76l153.06-88.34c8.82-5.09 13.3-11.75 13.44-18.44a8.81 8.81 0 000-.89v-34.68l-8.77-4.87h-.92c-2.96 16.1-22 26.71-37.96 28.93z" fill="#18114d" opacity=".3"/><path d="M451.54 1556.32l-153.08-88.38c-17.93-10.35-17.93-27.19 0-37.54l153.08-88.38c17.92-10.35 47.08-10.35 65 0l153.07 88.39c17.93 10.34 17.93 27.18 0 37.53l-153.08 88.38c-17.92 10.35-47.06 10.35-64.99 0z" fill="#60659f"/><path d="M1271.44 2104.33c-9.44 0-18.88-2.07-26.07-6.23l-119.6-69c-7.2-4.16-11.17-9.78-11.17-15.82s4-11.66 11.17-15.82l119.59-69.05c14.38-8.3 37.76-8.3 52.14 0l119.6 69.05c7.21 4.16 11.17 9.78 11.17 15.82s-4 11.67-11.16 15.83l-119.6 69c-7.19 4.15-16.63 6.22-26.07 6.22zm-24.73-8.55c13.64 7.87 35.82 7.87 49.45 0l119.6-69c6.34-3.66 9.83-8.46 9.83-13.51s-3.49-9.83-9.84-13.5l-119.59-69c-13.63-7.86-35.81-7.88-49.45 0l-119.59 69c-6.35 3.66-9.84 8.45-9.84 13.5s3.49 9.84 9.84 13.5z" transform="translate(-787.39 -564.06)" opacity=".42" fill="url(#G)"/><path d="M1457 2032l-153.08 88.38c-17.92 10.35-47.08 10.35-65 0L1085.85 2032c-8-4.63-12.43-10.55-13.28-16.61-1 7.5 3.37 15.21 13.28 20.93l153.08 88.38c17.93 10.35 47.09 10.35 65 0l153.07-88.38c9.92-5.72 14.34-13.43 13.28-20.93-.83 6.06-5.28 11.99-13.28 16.61z" transform="translate(-787.39 -564.06)" fill="url(#H)"/><path d="M1933.5 2417.81l-247-142.61c-28.92-16.7-28.92-43.87 0-60.57l247-142.61c28.92-16.7 76-16.7 104.91 0l247 142.61c28.92 16.7 28.92 43.87 0 60.57l-247 142.61c-28.93 16.7-75.99 16.7-104.91 0z" transform="translate(-787.39 -564.06)" fill="url(#I)" style="fill:url(#replace-gradient-2_6)"/><g opacity=".3"><path d="M1382.39 1648.13v-34.68l-9.6-5.34c-2.71 16.37-22 27.16-38.08 29.4l-109.69 64.14-47.87 17.29-152.8-78.85 3.53-2c-13.06-6.1-20.09-20.06-27.16-32.79l-10.28 6.14-6.11 1.71v35.58c0 6.79 4.48 13.59 13.44 18.76l153.08 88.38c17.93 10.35 47.09 10.35 65 0l153.08-88.38c8.82-5.09 13.3-11.75 13.44-18.43v-.9z" fill="#5200f7"/><path d="M1334.71 1637.51l-109.69 64.14-41.66 15.05v46.9c11.77 0 23.54-2.59 32.5-7.77l153.08-88.38c8.82-5.09 13.3-11.75 13.44-18.43v-35.58l-8.77-4.88h-.92c-2.98 16.12-22.02 26.73-37.98 28.95z" fill="#5300ea"/><path d="M1938.24 2284.66l-153.08-88.39c-17.93-10.35-17.93-27.18 0-37.53l153.08-88.38c17.92-10.35 47.09-10.35 65 0l153.08 88.38c17.93 10.35 17.93 27.19 0 37.54l-153.08 88.38c-17.91 10.34-47.07 10.34-65 0z" transform="translate(-787.39 -564.06)" fill="url(#J)"/><path d="M1150.85 1720.6l-153.08-88.39c-17.93-10.35-17.93-27.18 0-37.53l153.08-88.38c17.92-10.35 47.09-10.35 65 0l153.08 88.38c17.93 10.35 17.93 27.19 0 37.54l-153.08 88.38c-17.91 10.34-47.07 10.34-65 0z" fill="#7675ff"/></g><path d="M1970.75 2251.89c-10.45 0-20.9-2.3-28.86-6.89l-153.08-88.39c-8-4.59-12.32-10.77-12.32-17.43s4.37-12.84 12.32-17.43l153.08-88.38c15.91-9.19 41.79-9.19 57.71 0l153.08 88.39c8 4.59 12.33 10.78 12.33 17.43s-4.38 12.84-12.33 17.43L1999.6 2245c-7.95 4.59-18.4 6.89-28.85 6.89zm0-222.77c-10 0-19.92 2.2-27.51 6.57l-153.08 88.38c-7.08 4.09-11 9.46-11 15.11s3.9 11 11 15.11l153.09 88.39c15.17 8.75 39.85 8.75 55 0l153.08-88.38c7.08-4.09 11-9.46 11-15.11s-3.91-11-11-15.11l-153.09-88.39c-7.57-4.37-17.53-6.57-27.5-6.57z" transform="translate(-787.39 -564.06)" opacity=".42" fill="url(#K)"/><path d="M2169.78 2105.26v-52.42l-9.6-5.33c-2.71 16.37-22 27.15-38.08 29.39l-109.69 64.15-47.87 17.29-152.8-78.86 3.53-2c-13.06-6.1-20.09-20.05-27.16-32.78l-10.28 6.13-6.11 1.72v53.31c0 6.79 4.48 13.59 13.44 18.76l153.08 88.38c17.93 10.35 47.09 10.35 65 0l153.08-88.38c8.82-5.09 13.3-11.75 13.44-18.44a8.75 8.75 0 000-.89z" transform="translate(-787.39 -564.06)" fill="url(#L)" opacity=".47"/><path d="M2169.78 2058.67V2024l-9.6-5.33c-2.71 16.37-22 27.15-38.08 29.4l-109.69 64.14-47.87 17.29-152.8-78.86 3.53-2c-13.06-6.1-20.09-20-27.16-32.78l-10.28 6.13-6.11 1.72v35.57c0 6.8 4.48 13.59 13.44 18.77l153.08 88.38c17.93 10.35 47.09 10.35 65 0l153.09-88.43c8.82-5.09 13.3-11.75 13.44-18.43v-.9z" transform="translate(-787.39 -564.06)" fill="url(#M)"/><path d="M2169.78 2058.67V2024l-9.6-5.33c-2.71 16.37-22 27.15-38.08 29.4l-109.69 64.14-47.87 17.29-152.8-78.86 3.53-2c-13.06-6.1-20.09-20-27.16-32.78l-10.28 6.13-6.11 1.72v35.57c0 6.8 4.48 13.59 13.44 18.77l153.08 88.38c17.93 10.35 47.09 10.35 65 0l153.09-88.43c8.82-5.09 13.3-11.75 13.44-18.43v-.9z" transform="translate(-787.39 -564.06)" fill="url(#N)"/><path d="M1334.71 1483.99l-109.69 64.14-41.66 15v46.89c11.77 0 23.54-2.58 32.5-7.76l153.08-88.32c8.82-5.09 13.3-11.75 13.44-18.43v-35.57l-8.77-4.87h-.92c-2.98 16.09-22.02 26.69-37.98 28.92z" fill="#18114d" opacity=".3"/><path d="M1150.85 1567.07l-153.08-88.38c-17.93-10.35-17.93-27.19 0-37.53l153.08-88.38c17.92-10.35 47.09-10.35 65 0l153.08 88.38c17.93 10.35 17.93 27.19 0 37.53l-153.08 88.38c-17.91 10.35-47.07 10.35-65 0z" fill="#60659f"/><path d="M1970.75 2115.08c-9.44 0-18.88-2.07-26.07-6.22l-119.6-69.06c-7.2-4.15-11.17-9.77-11.17-15.82s4-11.66 11.17-15.82l119.59-69.05c14.38-8.3 37.77-8.29 52.14 0l119.6 69c7.21 4.16 11.17 9.78 11.17 15.83s-4 11.66-11.16 15.82l-119.6 69.05c-7.19 4.19-16.63 6.27-26.07 6.27zm-24.73-8.54c13.64 7.86 35.82 7.86 49.45 0l119.6-69c6.34-3.66 9.83-8.46 9.83-13.5s-3.49-9.84-9.84-13.51l-119.59-69c-13.63-7.87-35.81-7.88-49.45 0l-119.59 69c-6.35 3.66-9.84 8.46-9.84 13.5s3.49 9.84 9.84 13.5z" transform="translate(-787.39 -564.06)" opacity=".42" fill="url(#O)"/><path d="M2156.33 2042.75l-153.08 88.38c-17.92 10.35-47.08 10.35-65 0l-153.08-88.38c-8-4.62-12.43-10.55-13.28-16.61-1.05 7.5 3.37 15.21 13.28 20.93l153.08 88.39c17.93 10.34 47.09 10.34 65 0l153.08-88.39c9.92-5.72 14.34-13.43 13.28-20.92-.85 6.06-5.26 11.98-13.28 16.6z" transform="translate(-787.39 -564.06)" fill="url(#P)"/><path fill="#bfadf7" d="M571.96 1257.35l39.83-23-18.29-8.33-19.93 15.67-1.61 15.66zM1072.27 1256.24l-26.46-15.3s5.53-9.77 6.68-10.15 21.83 5.74 23 6.51-3.22 18.94-3.22 18.94z"/><path d="M823.1 998.94v384.6a78.43 78.43 0 01-37.35 66.81l-102.68 63.16M842.61 999.56v384.56a78.43 78.43 0 0037.34 66.82l104.38 64.2" fill="none" stroke="#d1dafa" stroke-miterlimit="10" stroke-width="13"/><path d="M683.08 1500.77v24.36l-10.36-6.6s-4.32-5.33-1.52-7.61 11.88-10.15 11.88-10.15z" fill="#daedf8"/><path fill="#c3c7fa" d="M984.32 1506.6v19.39h17.5l-8.75-12.47-5.86-6.92h-2.89z"/><ellipse cx="1612.76" cy="1495.5" rx="67.57" ry="89.86" transform="rotate(-88.07 927.477 1620.66)" fill="#3a385f"/><path d="M738.01 914.43c25.84 15 61.2 24.91 100.49 26.23 27.9.94 54.12-2.56 76.57-9.41-1-35.87-39.27-65.72-87.43-67.34-43.18-1.45-80.03 20.26-89.63 50.52z" fill="#1e2023" opacity=".46"/><ellipse cx="1615.53" cy="1413.18" rx="82.37" ry="146.66" transform="rotate(-88.07 930.236 1538.33)" fill="#51537e"/><path d="M830.91 766.79c-64.4-2.16-119.84 19.33-140.61 51.09 11.29 38.71 70 69.74 141.84 72.15 64.39 2.17 119.83-19.33 140.61-51.09-11.29-38.71-70.03-69.73-141.84-72.15z" fill="#1e2023" opacity=".35"/><path d="M976.43 803.12c-1.53 45.47-68.39 80.12-149.35 77.39s-145.34-41.78-143.81-87.25 68.39-80.12 149.35-77.4 145.34 41.79 143.81 87.26z" fill="#60659f"/><path d="M893.27 833.49c51.77-4 64.24 2.92 59.08 12.77 14.73-12.23 23.54-27 24.08-43.14.57-16.92-8-32.94-23.13-46.54l-219.37 44.91s40.4 41.29 159.34 32z" fill="#1e2023" opacity=".3"/><path d="M1895.49 1025.85c5-147.72-111.13-249.19-258.39-254.14s-269.91 88.49-274.88 236.21c-4.86 144.7 68.5 168.62 104.21 244.1 11.17 23.61 6.28 44.17 6.28 44.17-1.89 56.2 58.4 89.66 143.64 92.53s147.64-26.47 149.53-82.67c0 0-3.5-20.84 9.23-43.65 40.7-72.91 115.51-91.84 120.38-236.55z" transform="translate(-787.39 -564.06)" fill="url(#Q)"/><path d="M1775.11 1262.4c40.7-72.91 115.51-91.84 120.38-236.55 4.44-132-87.86-227-212.65-249.29 112.8 29.33 193.53 120.55 189.37 244.23-4.86 144.7-79.67 163.63-120.37 236.55-12.73 22.8-9.24 43.64-9.24 43.64-1.89 56.21-64.28 85.54-149.52 82.68a303.58 303.58 0 01-39.71-3.86c18.68 5.11 39.91 8.14 63 8.92 85.24 2.87 147.64-26.47 149.53-82.67-.02 0-3.52-20.84 9.21-43.65z" transform="translate(-787.39 -564.06)" style="mix-blend-mode:multiply" fill="url(#h)"/><path d="M1531.14 1308.9s4.88-20.56-6.29-44.17c-35.7-75.48-109.07-99.4-104.2-244.1 5-147.72 127.62-241.16 274.87-236.21q13.74.47 27.1 2a312.1 312.1 0 00-85.52-14.74c-147.26-5-269.91 88.49-274.88 236.21-4.86 144.7 68.5 168.62 104.21 244.1 11.17 23.61 6.28 44.17 6.28 44.17-1.73 51.54 48.84 83.93 123 91.17-40.89-15.15-65.8-42.01-64.57-78.43z" transform="translate(-787.39 -564.06)" style="mix-blend-mode:overlay" opacity=".83" fill="url(#R)"/><path d="M1651.23 1118.47c-17 25.35-15.94 61.69-16.83 91.61-2.63.13-5.27.21-7.89.19a7.22 7.22 0 00-2.09.3 7 7 0 00-2.06-.44c-2.6-.15-5.2-.41-7.81-.71 1.09-26.1 2.1-52.88-5.1-78-11.14-38.77-46.67-38-61.67-2.3-20 47.52 10.75 81 52.4 91.54 0 .65-.06 1.32-.09 2q-2.76 82.29-5.53 164.59c4.55.47 9.18.85 13.9 1.11l5.55-165c2.61.32 5.23.59 7.88.74a8.12 8.12 0 014.15.14c2.64 0 5.28 0 7.91-.19l-4.56 135.33-1 29.56c4.73 0 9.39-.13 13.95-.35q2.76-82.12 5.53-164.27v-1.83c37.13-6.24 67.85-29.84 61.8-73.67-3.84-28.27-34.33-66.23-58.44-30.35zM1601 1207c-24.72-5.93-45.71-20.6-45.17-50.16.28-15.37 17.25-61 35.78-33.36 14.29 21.37 11.31 55.36 9.39 83.52zm47.07 1.58c0-28.25-.73-62.36 15-82.7 20.35-26.35 34.21 20.34 33.46 35.69-1.53 29.55-23.43 42.77-48.48 47.03z" transform="translate(-787.39 -564.06)" style="mix-blend-mode:multiply" fill="url(#S)"/><path d="M758.03 391.03c-20 34.61-51.2 54-69.67 43.33s-17.22-47.39 2.78-82 51.2-54 69.67-43.34 17.22 47.4-2.78 82.01z" fill="#fff"/><path d="M1066.94 1573.54a2.64 2.64 0 002.56-2l8.49-32a2.69 2.69 0 00-.35-2.14 2.66 2.66 0 00-1.84-1.17l-74.54-10.75-1-6.07a2.63 2.63 0 00-1.41-1.94l-8.3-4.25a2.66 2.66 0 00-2.42 4.73l7.1 3.64 1.08 6.65 2.32 14.33v.12l4.57 28.16-1.33 8.4a8.51 8.51 0 00-.88 0 10.68 10.68 0 1010.59 11.94h39.27a10.66 10.66 0 10.72-5.32h-40.72a10.7 10.7 0 00-3.88-4.78l1.19-7.55zm-65.91 21.75a5.37 5.37 0 115.35-5.37 5.37 5.37 0 01-5.35 5.37zm60.45-10.73a5.37 5.37 0 11-5.36 5.36 5.36 5.36 0 015.36-5.36zm6.27-27.12l-11.53-.64.83-6.19 12.18 1.26zm-16.85-.94l-11.55-.64v-7.07l12.41 1.28zm-11.55 11.73v-7.05l10.84.6-.85 6.45zm-15.7 0l-.62-8 11 .62v7.34zm15.7-24.78v-7.1l14 2-.86 6.43zm-5.31-.55l-12.48-1.29-.62-7.91 13.1 1.89zm0 5.34v7.33l-11.43-.63-.63-7.93zm-16.79 6.39l-11.37-.63-1.43-8.81 12.16 1.25zm-10.49 4.74l10.92.61.64 8.25h-10.13zm47.94 8.86l.82-6.15 10.84.6-1.47 5.55zm15.9-21.56l-12.85-1.32.83-6.22 13.51 1.94zm-55.06-13.73l.64 8.14-12.61-1.3-1.42-8.77z" fill="#41a8fc" opacity=".26"/><circle cx="851.05" cy="2036.99" r="10.34" fill="none" stroke="#cdced1" stroke-linecap="round" stroke-linejoin="round" stroke-width="6.433"/><path fill="none" stroke="#cdced1" stroke-linecap="round" stroke-linejoin="round" stroke-width="6.433" d="M865.87 2085.14l20.17-90.3"/><circle cx="903.54" cy="2048.27" r="10.34" fill="none" stroke="#cdced1" stroke-linecap="round" stroke-linejoin="round" stroke-width="6.433"/><path d="M2780.61 790.83l8.79-14.05 75.09 51.38-7 13.61s-20.2-2.19-11 18.45l-6.58 11.85-80.8-46.24 8.78-13.59s25.86 1.43 12.72-21.41zM2787.15 836.95l3.34-4.99" fill="none" stroke="#fee8b1" stroke-miterlimit="10" stroke-width="5"/><path fill="none" stroke="#fee8b1" stroke-miterlimit="10" stroke-width="5" stroke-dasharray="12.165432929992676,3.041358232498169" d="M2792.19 829.43l16.08-24"/><path fill="none" stroke="#fee8b1" stroke-miterlimit="10" stroke-width="5" d="M2809.11 804.16l3.34-4.98"/><ellipse cx="1544.43" cy="73.36" rx="60.13" ry="56.88" fill="none" stroke="#f99dcb" stroke-linecap="round" stroke-linejoin="round" stroke-width="7"/><path d="M1557.8 60.6s-12.2-15.34-21.26-3.73c-10 12.8 15.67 16 21.26 23.47 8.68 11.54-11.16 29.37-23.81 10.64M1545.59 40.54v11.47M1546.97 99.72v9.29" fill="none" stroke="#f99dcb" stroke-linecap="round" stroke-linejoin="round" stroke-width="7"/></g></svg>