<svg data-name="Слой 1" xmlns="http://www.w3.org/2000/svg" xmlns:xlink="http://www.w3.org/1999/xlink" viewBox="0 0 1386.44 2120.43"><defs><linearGradient id="a" x1="1715.13" y1="896.9" x2="1926.67" y2="896.9" gradientTransform="rotate(-21.95 1591.044 507.96)" gradientUnits="userSpaceOnUse"><stop offset="0" stop-color="#7179f7"/><stop offset="1" stop-color="#abd8f0"/></linearGradient><linearGradient id="e" x1="2255.56" y1="1076.86" x2="2467.09" y2="1076.86" gradientTransform="rotate(-18.68 1423.73 503.147)" xlink:href="#a"/><linearGradient id="f" x1="2332.72" y1="1725.78" x2="2544.26" y2="1725.78" xlink:href="#a"/><linearGradient id="g" x1="1248.59" y1="1256.24" x2="1460.12" y2="1256.24" xlink:href="#a"/><linearGradient id="h" x1="-700.05" y1="1199.71" x2="-104.96" y2="1199.71" gradientTransform="matrix(-1 0 0 1 1827.73 0)" gradientUnits="userSpaceOnUse"><stop offset=".81" stop-color="#606ff5"/><stop offset="1" stop-color="#6f7ef6"/></linearGradient><linearGradient id="i" x1="-469.97" y1="956.57" x2="-476.31" y2="1438.85" gradientTransform="matrix(-1 0 0 1 1827.73 0)" gradientUnits="userSpaceOnUse"><stop offset="0" stop-color="#6f7ef6"/><stop offset=".58" stop-color="#7fa1f2"/><stop offset="1" stop-color="#7fd0f2"/></linearGradient><linearGradient id="b" x1="1966.5" y1="1089.18" x2="2474.12" y2="1089.18" gradientUnits="userSpaceOnUse"><stop offset="0" stop-color="#5f78f7"/><stop offset="1" stop-color="#76d6ed"/></linearGradient><linearGradient id="j" x1="1943.52" y1="1278.69" x2="2088.85" y2="1278.69" xlink:href="#b"/><linearGradient id="k" x1="2022.8" y1="1391.78" x2="2180.04" y2="1391.78" xlink:href="#b"/><linearGradient id="l" x1="1797.81" y1="1245.75" x2="2346.71" y2="1245.75" xlink:href="#b"/><linearGradient id="m" x1="2327.2" y1="1709.02" x2="2278.07" y2="889.43" gradientUnits="userSpaceOnUse"><stop offset=".08" stop-color="#7ff1f2"/><stop offset=".71" stop-color="#76d6ed" stop-opacity=".3"/></linearGradient><linearGradient id="n" x1="-10.25" y1="2345.53" x2="1114.58" y2="1597.42" gradientUnits="userSpaceOnUse"><stop offset="0" stop-color="#1917db" stop-opacity="0"/><stop offset="1" stop-color="#1917ee" stop-opacity=".1"/></linearGradient><linearGradient id="o" x1="292.43" y1="1594.97" x2="1148.91" y2="1594.97" gradientUnits="userSpaceOnUse"><stop offset=".21" stop-color="#332d61"/><stop offset=".74" stop-color="#373345"/></linearGradient><linearGradient id="c" x1="1840.99" y1="2154.83" x2="2697.47" y2="2154.83" gradientUnits="userSpaceOnUse"><stop offset="0" stop-color="#6f7ef8"/><stop offset="1" stop-color="#99daf1"/></linearGradient><linearGradient id="p" x1="1362.64" y1="2082.34" x2="3455.8" y2="2082.34" gradientTransform="matrix(-1 0 0 1 2959.91 -641.5)" xlink:href="#c"/><linearGradient id="q" x1="2242.29" y1="2515.03" x2="2275.83" y2="1233.43" gradientUnits="userSpaceOnUse"><stop offset="0" stop-color="#fffff8"/><stop offset=".13" stop-color="#ebf8f7" stop-opacity=".81"/><stop offset=".31" stop-color="#d3eff5" stop-opacity=".57"/><stop offset=".48" stop-color="#bee7f4" stop-opacity=".36"/><stop offset=".64" stop-color="#aee2f2" stop-opacity=".21"/><stop offset=".78" stop-color="#a2ddf2" stop-opacity=".09"/><stop offset=".91" stop-color="#9bdbf1" stop-opacity=".02"/><stop offset="1" stop-color="#99daf1" stop-opacity="0"/></linearGradient><linearGradient id="d" x1="2043.84" y1="2460.89" x2="2073.63" y2="1322.53" gradientUnits="userSpaceOnUse"><stop offset="0" stop-color="#f7fcf7" stop-opacity=".05"/><stop offset=".02" stop-color="#f8fcf7" stop-opacity=".06"/><stop offset=".2" stop-color="#fcfef8" stop-opacity=".14"/><stop offset=".37" stop-color="#fefff8" stop-opacity=".18"/><stop offset=".56" stop-color="#fffff8" stop-opacity=".2"/><stop offset="1" stop-color="#f6fcf7" stop-opacity="0"/></linearGradient><linearGradient id="r" x1="2281.12" y1="2490.73" x2="2311.56" y2="1327.91" xlink:href="#d"/><linearGradient id="s" x1="2477.08" y1="2288.91" x2="2507.15" y2="1140.2" xlink:href="#d"/><linearGradient id="t" x1="2306.39" y1="2442.38" x2="2402.85" y2="2442.38" xlink:href="#c"/><linearGradient id="u" x1="2318.36" y1="2442.72" x2="2390.35" y2="2442.72" xlink:href="#c"/><linearGradient id="v" x1="2095.92" y1="2441.66" x2="2256.62" y2="2441.66" xlink:href="#c"/></defs><path d="M1989.89 734.79a166.55 166.55 0 00-3.29-21.79c-5-22.25-13.83-34.68-25.47-35.95-5-.54-12.63.91-21.06 10.85l3.73 3.16-3.73-3.16c-6 7.12-11.56 17.5-16.26 30.07-24-11.76-45.45-15.51-55.21-4s-2.46 32.31 13.27 54.19C1870.3 775 1861 782.15 1855 789.27c-8.63 10.19-8.76 18.12-7.35 23 4.7 16.21 30.56 21 61.75 18.32a168 168 0 003.3 21.75c5 22.25 13.83 34.68 25.47 35.95 4.95.54 12.63-.9 21.06-10.85 6-7.11 11.56-17.5 16.26-30.07 24 11.77 45.45 15.52 55.21 4s2.46-32.3-13.27-54.19c11.57-6.75 20.87-13.94 26.91-21.06 8.63-10.19 8.76-18.13 7.35-23-4.69-16.22-30.61-20.99-61.8-18.33zm-46.1-43.69c5.45-6.43 11.19-9.76 16.81-9.15 12.75 1.39 21.69 22.73 24.42 53.32a260.07 260.07 0 00-26.17 4.25 246.13 246.13 0 00-30.66-19.29c4.59-12.42 9.94-22.45 15.6-29.13zm40.41 95.35c-.84 7.76-2 15.27-3.34 22.47-6.85 2.58-14 5-21.55 7.17-6 1.75-12 3.25-17.79 4.55q-7.18-5.34-14.38-11.42c-4.73-4-9.22-8.09-13.49-12.18.28-5.9.73-11.95 1.41-18.12.84-7.76 2-15.27 3.34-22.46 6.85-2.59 14-5 21.55-7.18q9-2.61 17.79-4.55c4.78 3.57 9.59 7.37 14.37 11.43s9.23 8.08 13.49 12.17q-.4 8.87-1.4 18.12zm6-13.55a231.66 231.66 0 0120 22.73 226.56 226.56 0 01-24 11.22c1.15-6.44 2.12-13.08 2.86-19.87q.76-7.11 1.19-14.08zm-10.5 41.63a227.88 227.88 0 01-7 26 231.57 231.57 0 01-26-16.08c4.67-1.1 9.33-2.33 13.93-3.66 6.59-1.91 12.97-4.01 19.12-6.26zm-44.49 7.47c-7.4 1.47-14.55 2.56-21.35 3.3-.45-6.88-.61-14.16-.44-21.75q5.17 4.85 10.57 9.41t11.22 9.04zm-26.2-29.5a231.66 231.66 0 01-20-22.73 226.55 226.55 0 0124-11.23c-1.15 6.45-2.12 13.09-2.86 19.87q-.73 7.09-1.15 14.07zm10.5-41.64a227.88 227.88 0 017-26 233 233 0 0126 16.08c-4.67 1.11-9.33 2.33-13.93 3.66-6.58 1.89-12.92 3.99-19.07 6.24zm44.54-7.45c7.4-1.46 14.54-2.56 21.35-3.29.45 6.87.61 14.15.44 21.74-3.45-3.22-7-6.37-10.57-9.41s-7.4-6.14-11.22-9.06zm-91.73-26.22c7.46-8.8 26.55-6 49.85 5.45a236.43 236.43 0 00-8 30.25 238.93 238.93 0 00-28 12.93c-15.35-21.27-21.34-39.82-13.85-48.65zm-20 93.73c-1.6-5.53.8-11.88 6.39-18.47s14.66-13.66 26.08-20.29a248.27 248.27 0 0023.9 26.84 254.39 254.39 0 00.32 26.77c-30.6 2.56-53.14-2.56-56.71-14.87zm103.16 63.38c-5.45 6.43-11.18 9.76-16.8 9.15-12.76-1.39-21.69-22.73-24.43-53.32a262.67 262.67 0 0026.18-4.25 246.57 246.57 0 0030.66 19.29c-4.61 12.39-9.96 22.42-15.63 29.11zm71.47-26.07c-7.45 8.79-26.54 6-49.84-5.45a236.16 236.16 0 008-30.26 235.54 235.54 0 0028-12.93c15.33 21.24 21.32 39.77 13.82 48.62zm20-93.73c1.6 5.52-.8 11.87-6.39 18.47s-14.66 13.66-26.08 20.28a250.17 250.17 0 00-23.9-26.84 254.19 254.19 0 00-.32-26.76c30.59-2.6 53.13 2.52 56.74 14.83z" transform="translate(-1548.56 -641.5)" fill="url(#a)"/><path d="M441.59 73.31a9.46 9.46 0 11-1.1-13.34 9.46 9.46 0 011.1 13.34z" fill="#c78fea"/><circle cx="320.75" cy="102.12" r="10.68" fill="#efbe18"/><path d="M348.51 194.5a10.69 10.69 0 11-1.24-15.06 10.7 10.7 0 011.24 15.06z" fill="#9ecbd7"/><path d="M322.07 94.84c2.43.39 4.23 1.83 4 3.21s-2.38 2.18-4.81 1.79-4.23-1.83-4-3.21 2.37-2.13 4.81-1.79zM436.09 59.44c2.43.4 4.23 1.83 4 3.21s-2.38 2.18-4.81 1.79-4.23-1.83-4-3.21 2.37-2.18 4.81-1.79zM341.36 179.58c2.44.39 4.23 1.82 4 3.2s-2.37 2.18-4.81 1.79-4.23-1.83-4-3.2 2.38-2.18 4.81-1.79z" fill="#fff"/><path d="M2538.6 701a165.25 165.25 0 00-2-21.91c-3.74-22.5-11.82-35.41-23.37-37.34-4.91-.82-12.66.18-21.64 9.62l3.54 3.37-3.54-3.37c-6.42 6.76-12.53 16.82-17.94 29.1-23.29-13.12-44.5-18.09-54.9-7.15s-4.3 32.11 10.15 54.86c-11.93 6.08-21.63 12.73-28.06 19.49-9.2 9.68-9.79 17.59-8.66 22.53 3.77 16.46 29.32 22.71 60.61 21.83a167 167 0 002.05 21.9c3.74 22.5 11.82 35.41 23.37 37.34 4.92.83 12.66-.18 21.65-9.62 6.42-6.76 12.53-16.81 17.94-29.1 23.29 13.12 44.5 18.09 54.9 7.15s4.3-32.11-10.15-54.86c11.93-6.08 21.63-12.73 28.06-19.49 9.2-9.68 9.79-17.59 8.66-22.53-3.83-16.48-29.38-22.73-60.67-21.82zm-43.53-46.26c5.81-6.11 11.73-9.11 17.31-8.18 12.65 2.12 20.35 23.94 21.33 54.63a259.49 259.49 0 00-26.37 2.75 246 246 0 00-29.51-21c5.3-12.16 11.17-21.87 17.24-28.22zm34.9 97.51c-1.29 7.7-2.85 15.13-4.62 22.23-7 2.19-14.32 4.19-21.93 5.93-6.11 1.4-12.13 2.57-18 3.53q-6.86-5.74-13.7-12.23c-4.49-4.27-8.75-8.6-12.77-12.93.61-5.87 1.41-11.89 2.43-18 1.29-7.7 2.85-15.14 4.62-22.24 7-2.19 14.32-4.19 21.93-5.93 6.11-1.4 12.13-2.57 18-3.53 4.57 3.83 9.16 7.91 13.7 12.23s8.75 8.6 12.77 12.93c-.61 5.85-1.4 11.87-2.4 17.99zm6.81-13.19a231.63 231.63 0 0118.63 23.83 228.83 228.83 0 01-24.61 9.84c1.51-6.37 2.86-13 4-19.68q1.2-7.05 1.98-14.05zm-12.86 41a226.56 226.56 0 01-8.53 25.54 232 232 0 01-25-17.54c4.73-.83 9.45-1.79 14.12-2.86 6.65-1.57 13.13-3.3 19.41-5.2zM2479 784.9c-7.47 1-14.66 1.72-21.5 2.06-.06-6.88.2-14.16.81-21.73 3.25 3.42 6.6 6.76 10 10s7.07 6.53 10.69 9.67zm-24.45-30.9a234 234 0 01-18.62-23.84 229.23 229.23 0 0124.61-9.84c-1.52 6.38-2.87 13-4 19.68q-1.17 7-1.99 14zm12.86-41a226.76 226.76 0 018.53-25.55 232 232 0 0125 17.54c-4.73.83-9.45 1.79-14.12 2.86q-9.97 2.26-19.41 5.15zm44.9-4.89c7.47-1.05 14.67-1.73 21.5-2.07.06 6.89-.2 14.16-.81 21.73-3.25-3.42-6.6-6.76-10-10s-7-6.55-10.69-9.68zm-90.08-31.43c7.95-8.35 26.85-4.48 49.46 8.29a234.89 234.89 0 00-9.76 29.75 236.5 236.5 0 00-28.7 11.3c-14.07-22.11-18.99-40.95-11-49.36zm-25.35 92.43c-1.28-5.61 1.48-11.81 7.44-18.07s15.41-12.8 27.19-18.77a248.17 248.17 0 0022.33 28.17 255.33 255.33 0 00-1.21 26.74c-30.63.82-52.89-5.59-55.75-18.09zm99.38 69.17c-5.81 6.11-11.73 9.11-17.31 8.18-12.65-2.12-20.35-23.94-21.33-54.63a262.3 262.3 0 0026.37-2.74 248.31 248.31 0 0029.51 21c-5.29 12.12-11.21 21.83-17.24 28.17zm72.84-21.94c-7.95 8.36-26.85 4.48-49.45-8.29a234.92 234.92 0 009.75-29.75 236.5 236.5 0 0028.7-11.3c14.07 22.07 18.99 40.92 11 49.32zm25.35-92.43c1.28 5.61-1.48 11.81-7.44 18.07s-15.41 12.8-27.19 18.77a248.17 248.17 0 00-22.33-28.17 255.15 255.15 0 001.21-26.73c30.67-.85 52.89 5.54 55.75 18.04z" transform="translate(-1548.56 -641.5)" fill="url(#e)"/><path d="M991.44 39.5a9.46 9.46 0 11-.33-13.38 9.44 9.44 0 01.33 13.38z" fill="#c78fea"/><circle cx="869.15" cy="61.4" r="10.68" fill="#efbe18"/><path d="M891.59 155.18a10.68 10.68 0 11-.38-15.1 10.69 10.69 0 01.38 15.1z" fill="#9ecbd7"/><path d="M870.88 54.21c2.41.53 4.12 2.06 3.82 3.42s-2.49 2-4.9 1.52-4.12-2.07-3.82-3.43 2.46-2.04 4.9-1.51zM986.74 25.38c2.41.53 4.12 2.07 3.82 3.43s-2.5 2-4.91 1.51-4.11-2.06-3.81-3.43 2.49-2.04 4.9-1.51zM885.3 139.9c2.41.53 4.12 2.07 3.82 3.43s-2.49 2-4.9 1.51-4.12-2.06-3.82-3.42 2.49-2.04 4.9-1.52z" fill="#fff"/><path d="M2872.58 1272.7a168 168 0 00-3.3-21.75c-5-22.25-13.83-34.68-25.47-36-4.95-.54-12.63.9-21.06 10.85l3.73 3.15-3.73-3.15c-6 7.11-11.56 17.5-16.25 30.07-24-11.76-45.46-15.52-55.22-4s-2.46 32.31 13.27 54.19c-11.56 6.75-20.87 13.94-26.9 21.06-8.63 10.18-8.76 18.12-7.35 23 4.7 16.22 30.57 21 61.76 18.33a166.55 166.55 0 003.29 21.75c5 22.25 13.83 34.68 25.47 36 5 .54 12.63-.91 21.06-10.85 6-7.11 11.56-17.5 16.26-30.07 24 11.76 45.45 15.51 55.21 4s2.46-32.31-13.27-54.19c11.57-6.75 20.87-13.95 26.91-21.07 8.63-10.18 8.76-18.12 7.35-23-4.71-16.21-30.57-21.02-61.76-18.32zm-46.1-43.69c5.45-6.44 11.18-9.77 16.8-9.15 12.76 1.38 21.69 22.73 24.43 53.31a263.13 263.13 0 00-26.18 4.25 247.75 247.75 0 00-30.66-19.29c4.59-12.41 9.94-22.44 15.61-29.13zm40.4 95.35c-.84 7.76-2 15.27-3.34 22.47-6.85 2.58-14.05 5-21.55 7.17q-9 2.61-17.79 4.55c-4.78-3.57-9.59-7.37-14.37-11.43s-9.23-8.08-13.49-12.17q.4-8.85 1.4-18.12c.84-7.76 2-15.27 3.34-22.47 6.85-2.58 14.05-5 21.55-7.17 6-1.74 12-3.25 17.79-4.55q7.18 5.34 14.38 11.42c4.73 4 9.23 8.09 13.49 12.18-.29 5.9-.73 11.95-1.41 18.12zm6.06-13.56a234 234 0 0119.95 22.73 226.55 226.55 0 01-24 11.23c1.15-6.45 2.12-13.09 2.86-19.87.51-4.74.9-9.44 1.19-14.09zm-10.51 41.64a227.88 227.88 0 01-7 26 231.57 231.57 0 01-26-16.08c4.67-1.11 9.33-2.33 13.93-3.66 6.54-1.91 12.92-4.01 19.07-6.26zm-44.54 7.45c-7.4 1.47-14.54 2.56-21.35 3.29-.45-6.87-.61-14.15-.44-21.74 3.45 3.22 7 6.37 10.57 9.41s7.4 6.15 11.22 9.04zm-26.2-29.5a231.72 231.72 0 01-20-22.74 228.44 228.44 0 0124-11.22c-1.15 6.45-2.12 13.08-2.86 19.87q-.71 7.11-1.14 14.09zm10.5-41.64a227.88 227.88 0 017-26 231.57 231.57 0 0126 16.08c-4.67 1.1-9.33 2.33-13.93 3.66a304.17 304.17 0 00-19.07 6.26zm44.54-7.45c7.4-1.47 14.55-2.56 21.35-3.29.46 6.87.61 14.15.44 21.74-3.45-3.22-7-6.37-10.57-9.41s-7.4-6.12-11.22-9.04zm-91.73-26.22c7.45-8.8 26.54-6 49.84 5.44a237 237 0 00-8 30.26 237.14 237.14 0 00-28 12.93c-15.34-21.26-21.33-39.79-13.84-48.63zm-20 93.72c-1.6-5.52.8-11.87 6.39-18.47s14.66-13.66 26.08-20.28a250.17 250.17 0 0023.9 26.84 254.16 254.16 0 00.32 26.76c-30.6 2.58-53.14-2.53-56.69-14.85zm103.17 63.38c-5.45 6.43-11.19 9.77-16.81 9.15-12.75-1.39-21.69-22.73-24.42-53.32a260 260 0 0026.17-4.24 248.49 248.49 0 0030.66 19.29c-4.61 12.41-9.96 22.44-15.62 29.12zm71.47-26.07c-7.46 8.8-26.55 6-49.85-5.44a237 237 0 008-30.26 237.31 237.31 0 0028-12.93c15.33 21.26 21.32 39.79 13.83 48.63zm20-93.72c1.6 5.52-.8 11.87-6.39 18.46s-14.66 13.67-26.08 20.29a249.22 249.22 0 00-23.9-26.84 254.16 254.16 0 00-.32-26.76c30.58-2.54 53.12 2.53 56.69 14.85z" transform="translate(-1548.56 -641.5)" fill="url(#f)"/><path d="M1324.28 611.21a9.46 9.46 0 11-1.1-13.33 9.47 9.47 0 011.1 13.33z" fill="#c78fea"/><circle cx="1203.43" cy="640.03" r="10.68" fill="#efbe18"/><path d="M1231.19 732.37a10.68 10.68 0 11-1.24-15 10.68 10.68 0 011.24 15z" fill="#9ecbd7"/><path d="M1204.75 632.75c2.43.39 4.23 1.82 4 3.2s-2.38 2.18-4.81 1.79-4.23-1.82-4-3.2 2.38-2.18 4.81-1.79zM1318.77 597.35c2.44.39 4.23 1.83 4 3.2s-2.38 2.18-4.81 1.79-4.23-1.82-4-3.2 2.38-2.18 4.81-1.79zM1224.04 717.5c2.44.39 4.23 1.83 4 3.21s-2.37 2.18-4.81 1.79-4.23-1.83-4-3.21 2.38-2.2 4.81-1.79z" fill="#fff"/><path d="M1691.51 1242.5a166.29 166.29 0 00-3.29-21.75c-5-22.25-13.83-34.68-25.47-36-5-.54-12.63.9-21.06 10.84l3.73 3.16-3.73-3.16c-6 7.11-11.56 17.5-16.26 30.07-24-11.77-45.45-15.52-55.21-4s-2.46 32.3 13.27 54.19c-11.57 6.75-20.87 13.94-26.91 21.06-8.63 10.19-8.76 18.13-7.35 23 4.7 16.22 30.56 21 61.75 18.33a168.21 168.21 0 003.3 21.75c5 22.25 13.83 34.68 25.47 35.94 5 .54 12.63-.9 21.06-10.84 6-7.12 11.56-17.5 16.26-30.07 24 11.76 45.45 15.51 55.21 4s2.46-32.31-13.27-54.19c11.57-6.76 20.87-14 26.91-21.07 8.63-10.19 8.76-18.12 7.35-23-4.7-16.15-30.57-20.93-61.76-18.26zm-46.1-43.7c5.45-6.43 11.19-9.76 16.81-9.15 12.75 1.39 21.69 22.73 24.42 53.32a263 263 0 00-26.17 4.25 247.31 247.31 0 00-30.66-19.29c4.59-12.41 9.94-22.45 15.6-29.13zm40.41 95.36c-.84 7.76-2 15.27-3.34 22.46-6.85 2.59-14 5-21.55 7.17-6 1.75-12 3.26-17.79 4.56q-7.19-5.36-14.38-11.43t-13.49-12.18c.28-5.9.73-12 1.41-18.11.84-7.77 2-15.27 3.34-22.47 6.85-2.58 14-5 21.55-7.17q9-2.62 17.79-4.55c4.78 3.56 9.59 7.37 14.37 11.42s9.23 8.09 13.49 12.18q-.4 8.85-1.4 18.12zm6-13.56a231.66 231.66 0 0120 22.73 228.54 228.54 0 01-24 11.23c1.15-6.45 2.12-13.09 2.86-19.87.51-4.69.91-9.45 1.19-14.09zm-10.5 41.64a227.88 227.88 0 01-7 26 233 233 0 01-26-16.08c4.67-1.11 9.33-2.33 13.93-3.66 6.59-1.91 12.97-4.01 19.12-6.26zm-44.54 7.44c-7.4 1.47-14.55 2.56-21.35 3.3-.45-6.87-.61-14.15-.44-21.74 3.45 3.22 7 6.37 10.57 9.41s7.44 6.11 11.27 9.03zm-26.2-29.5a231.66 231.66 0 01-20-22.73 228.54 228.54 0 0124-11.23c-1.15 6.45-2.12 13.09-2.86 19.88q-.72 7.11-1.09 14.08zm10.5-41.63a227.88 227.88 0 017-26 232.89 232.89 0 0126 16.07c-4.67 1.11-9.33 2.34-13.93 3.67-6.49 1.91-12.87 4.01-19.02 6.26zm44.54-7.45c7.4-1.47 14.54-2.56 21.35-3.3.45 6.88.61 14.15.44 21.75q-5.18-4.85-10.57-9.41t-11.17-9.04zm-91.73-26.23c7.46-8.79 26.55-6 49.85 5.45a236.16 236.16 0 00-8 30.26 235.71 235.71 0 00-28 12.93c-15.3-21.26-21.29-39.79-13.8-48.64zm-20 93.73c-1.6-5.53.8-11.87 6.39-18.47s14.66-13.66 26.08-20.29a248.27 248.27 0 0023.9 26.84 254.35 254.35 0 00.32 26.77c-30.58 2.55-53.09-2.54-56.66-14.85zm103.19 63.4c-5.45 6.43-11.18 9.76-16.8 9.15-12.76-1.39-21.69-22.73-24.43-53.32a259.8 259.8 0 0026.18-4.25 246.57 246.57 0 0030.66 19.29c-4.59 12.4-9.94 22.43-15.61 29.13zm71.47-26.07c-7.45 8.8-26.54 6-49.84-5.45a236.16 236.16 0 008-30.26 237.14 237.14 0 0028-12.92c15.35 21.23 21.34 39.76 13.84 48.61zm20-93.73c1.6 5.53-.8 11.88-6.39 18.47s-14.66 13.66-26.08 20.29a248.27 248.27 0 00-23.9-26.84 254.35 254.35 0 00-.32-26.77c30.61-2.6 53.14 2.52 56.72 14.83z" transform="translate(-1548.56 -641.5)" fill="url(#g)"/><path d="M143.21 581.01a9.46 9.46 0 11-1.1-13.33 9.45 9.45 0 011.1 13.33z" fill="#c78fea"/><circle cx="22.37" cy="609.83" r="10.68" fill="#efbe18"/><path d="M50.13 702.17a10.68 10.68 0 11-1.24-15.06 10.69 10.69 0 011.24 15.06z" fill="#9ecbd7"/><path d="M23.69 602.55c2.43.39 4.23 1.82 4 3.2s-2.38 2.18-4.81 1.79-4.23-1.83-4-3.2 2.37-2.18 4.81-1.79zM137.71 567.15c2.43.39 4.23 1.82 4 3.2s-2.38 2.18-4.81 1.79-4.23-1.82-4-3.2 2.37-2.18 4.81-1.79zM42.98 687.28c2.44.39 4.23 1.82 4 3.2s-2.37 2.18-4.81 1.79-4.23-1.82-4-3.2 2.38-2.18 4.81-1.79z" fill="#fff"/><path d="M1935.59 1311.94c-28.86-174.83 160.37-399.16 449.09-298.11 165.17 57.79 203.76 150.93 28.28 279.25 0 0 1.89 71.72-135.85 60.37 0 0-88.69-3.76-148.56 41.51-63.44 47.96-183.05-22.96-192.96-83.02z" transform="translate(-1548.56 -641.5)" fill="url(#h)"/><path d="M579.99 753.5c59.87-45.27 148.56-41.51 148.56-41.51 137.74 11.35 135.85-60.37 135.85-60.37 112.26-82.08 136.82-149.72 96.76-203-21.81-13.74-48.87-26.23-80.71-37.38-288.67-101.05-457.28 163.65-449.1 298.14.73 11.62 5.95 23.59 14.27 35 42.47 25.46 98.42 36.26 134.37 9.12z" opacity=".26"/><path d="M2020.5 1371.28c-8.22-134.48 126.41-386.82 449.07-298.11 67.67 18.57 203.8 150.95 28.32 279.25 0 0 1.87 71.72-135.87 60.37 0 0-78.86 21.92-146 71.39-97.66 71.93-191.84-52.18-195.52-112.9z" transform="translate(-1548.56 -641.5)" fill="url(#i)"/><path d="M2054.23 1143.32c9-11 17.49-21.4 33.84-25.8 29.3-7.88 44 15 44.6 15.91l9.66-5.94a48.41 48.41 0 00-12.43-13c16.53-23.22 59-59.31 86.16-71.1 3.13-1.37 6.31-2.75 9.5-4.16 22.75.44 45.17-.82 65.83-2.38 23.86-1.8 46.39-3.47 66.67-2.62 62 2.68 109.47 35.14 109.94 35.62l6.12 5.74c-2-2-49-49.76-115.57-52.67-20.94-.87-43.82.82-68 2.66-3.63.27-7.27.56-10.91.85a13.76 13.76 0 00-1.16-7.12c-5.63-12.7-20.8-18.48-63.31-25.2l-18.3 3.63c49.55 7.88 68.6 21.65 70.91 25.53a12.72 12.72 0 01.59 4c-16.22 1.24-32.53 2.3-48.77 2.2-26.73-.17-53.28-3.48-79-14.27l-13.54 6.15c23.13 9.72 48.57 14.59 74.25 16.65-28.36 15.36-68 46.84-83.63 69.79-9-3.42-19.94-4.68-32.64-1.24-19.83 5.37-30.33 18.27-39.59 29.58a137 137 0 01-10.89 12.31c-13.74-42.89 54-79.86 54.65-80.26l-5.36-10c-3.37 1.85-80.85 44.15-58.69 97.52a42 42 0 01-7 3.37c-28.27 10.28-41.23 12.32-45.51 13.17l-6.21 12a318.55 318.55 0 0055.59-14.55c15.14-5.44 23.84-16.07 32.2-26.37z" transform="translate(-1548.56 -641.5)" fill="url(#b)"/><path d="M1984.38 1273.29l.9-4.64c4.15-4.48 8.32-8.54 12.3-12.41 13-12.63 24.29-23.57 23.84-40.31-.31-11.93 12-27 28-34.41 6.08-2.78 21.22-8.21 31.84 1.37l7.56-8.38c-11-10-27.07-11.13-44.12-3.29-17.58 8.09-35.14 26.15-34.62 45a23.36 23.36 0 01-.19 3.48c-12-3.6-39.69-9-61.68 9.17l-4.72 15.93c15.58-22.32 48.49-17.4 62.11-14.18-3.66 5.58-9.29 11-15.94 17.49-11.08 10.73-24.83 24.06-34.91 44.41-22.16 44.77 27.51 86.32 29.87 88.42l19.21 10.34c-.51-.45-57.31-56.63-38.93-93.74a111.85 111.85 0 019.87-16.23c2.7 16.63 12.28 48 45.34 78.72l5.57-13.7c-26.97-23.84-41.74-71.83-41.3-73.04z" transform="translate(-1548.56 -641.5)" fill="url(#j)"/><path d="M2127.25 1436.35c7.49-4.57 22-10.11 40.5-.84l5.07-10.09c-21.49-10.86-40.51-5.49-51.77 1.41-7.56-12.84-13.1-27.13-17.28-40.65s-8.11-26.21-13.65-36.61c-21.27-39.85-62.79-36.22-65.41-36.08l-1.91 11.23c19.5 1 37.32 2.68 57.32 30.22 6.27 8.62 8.82 21.63 12.82 34.59 11.21 36.18 13 76 64.55 80.68l22.55-1.63c-23.45-2.13-40.38-15.09-52.79-32.23z" transform="translate(-1548.56 -641.5)" fill="url(#k)"/><path d="M2561 1238.76c-8.56 2-17.45-.93-23.31-3.63 20.65-21 13.07-52.68 5.34-67.64l-10.07 5.16c.2.41 19.51 38.86-8.42 58.9l-14 9.81c-18.94 13.14-25.41 17.66-34.83 36.46a101.94 101.94 0 00-15.54-.57l-8.25.31c-9.71.38-18.75.73-27.1.86-1.23-.05-4.77-.15-9.88 0-21.74-.21-37.47-2.72-45.11-11.74-7.27-8.67-8.22-24.29-3-49.14a378.24 378.24 0 004.3-24.08c1-4.53 10-43.86 41.87-66.23 4.57.25 20.36 1.69 35.49 9.76-6.7 14-22.23 53.57 3.56 78.2l7.83-8.2c-19.46-18.56-7.7-50.79-1.78-63.75a55.08 55.08 0 0119.21 28.4l10.88-3.2c-9.92-33.77-39.37-45.86-58.68-50.19 11.24-4.53 24.52-7 40.22-6.24l.57-11.31c-53-2.51-81.76 29-96.49 55.65-.43-24.67-6.17-43.22-17.36-56-13.45-15.34-34.57-22-62.7-19.92-63.25 4.83-78.84 55-85.55 145.8-.88 12.13-11.35 29.14-32.63 42.11-1.75-15.07-10.63-26.16-21.85-34.26 19-39-14.42-83.2-15.92-85.12l-9 6.91c.31.41 29.94 39.57 15.19 72.21-21.06-11.33-45.11-14.51-46.95-14.73l-1.41 11.23c.74.08 69.06 9 68.85 49.73-20.59 10.28-62.4 28.68-125.65-11.38l-3.82 10.81c71.86 45.55 117.13 19.47 138 9 19.21-9.64 34-23.67 41.36-38.34 4.07 32.61-1 90.92-79.05 121.35l4.12 10.55c31-12.1 51.36-28.53 64.51-46.25 5.45 15.72 12.45 47.84-10.95 69.39l7.68 8.31c16.26-15 20.58-33.53 20.11-50.08 9.38.06 28 2 35.47 16l10-5.33c-10.55-19.92-35.19-22.11-46.47-22a113.19 113.19 0 00-8.22-28c24.66-44 11.25-91.71 8.62-100 1.45-17.45 3.31-32.69 5.69-46 5.11-6.57 35.8-43.33 74-28.13l4.19-10.53c-31.32-12.46-57.94 3.59-73.5 17.39 11.15-40.75 30.37-56.73 64-59.29 24.39-1.81 42.34 3.55 53.3 16.06 16.3 18.66 18.94 54.78 7.81 107.41-.68 3.22-1.25 6.29-1.74 9.26-11.15-9.47-31.86-24.21-52.84-24.27-12.33.11-23.11 5.14-32 15l8.35 7.59c6.81-7.49 14.58-11.16 23.75-11.22h.28c21.91 0 44.59 20.56 50.86 26.71-1 16.08 1.88 27.5 8.81 35.74a36.6 36.6 0 0015 10.4c-27.82 8-57.87 26.11-61.79 67.29l11.24 1.09c1.56-16.38 8-28.51 16.82-37.52 6.88 5.39 21.61 18.64 22.86 34.18.72 9-3.46 17.68-12.35 25.88-17.75 16.3-24.35 22.25-26.81 24.39l-.2-.2c-1.74 1.71-5.9 5.72-2 9.82 1.13 1.18 1.89 2.05 3.14 2.05s2.69-.73 5.15-2.54l.16.16 1.23-1.19c4.83-3.8 12.85-11.17 27-24.15 7.9-7.27 12.91-15.07 15-23.3 3.82-2 12.82-5.71 22.69-3.58 8.4 1.82 15.77 7.62 21.83 17.24l9.59-6c-7.78-12.26-17.55-19.77-29-22.25a44.06 44.06 0 00-24.21 2c-1.87-18.18-16.69-32.83-25.27-39.89 19.83-14.07 46.2-17.38 61.36-18 11.61.19 24.83-.31 39.72-.88l8.25-.31c19.46-.66 32.33 3.57 38.07 12.73 11 17.43-.61 50.8-.79 51.11l10-7.58c.79-1.48 14.81-26.56.44-49.53-4.52-7.17-11.59-12.21-21.08-15.13 7.25-13.87 12.49-17.52 29.76-29.51 3.25-2.26 6.9-4.83 11-7.75 5.17 2.92 15.52 7.81 27.1 7.81a38.11 38.11 0 008.28-.91c10.38-2.35 13.3-5.94 19.53-16.86l1.06-17.73c-4.55 7.82-15.8 21.73-22.93 23.36z" transform="translate(-1548.56 -641.5)" fill="url(#l)"/><path d="M2020.5 1371.28c3.68 60.75 93.25 176 176.36 124.58 90-55.62 165.16-83.07 165.16-83.07 137.74 11.35 135.87-60.37 135.87-60.37 110.5-80.78 97.41-163.16 55.73-217.75 27.93 87.64-64 163.26-92.69 194.65-31.37 34.41-69.6 26.94-117.75 21.45s-42.46 20.76-157.59 57c-95.39 30-149.24-39-164.9-63.48a205.47 205.47 0 00-.19 26.99z" transform="translate(-1548.56 -641.5)" fill="url(#m)" opacity=".64"/><path d="M1029.34 538.5c4.69 44.78-15.89 96.26-85.44 147.1 0 0 1.87 71.73-135.87 60.38 0 0-75.2 27.45-165.15 83.07-72.48 44.82-149.86-37.08-170.92-99 3.86 60.8 93.32 175.72 176.34 124.38 90-55.62 165.16-83.07 165.16-83.07 137.74 11.35 135.87-60.37 135.87-60.37 83.11-60.82 96.29-122.49 80.01-172.49z" fill="#6097cc" opacity=".64"/><circle cx="727.32" cy="573.42" r="13.57" fill="#fff"/><circle cx="749.04" cy="495.61" r="13.57" fill="#fff"/><circle cx="905.57" cy="569.8" r="13.57" fill="#efbe18"/><circle cx="930.9" cy="524.56" r="13.57" fill="#fff"/><circle cx="923.66" cy="465.75" r="13.57" fill="#efbe18"/><circle cx="586.18" cy="515.51" r="13.57" fill="#fff"/><circle cx="591.61" cy="727.23" r="13.57" fill="#fff"/><circle cx="776.18" cy="766.14" r="13.57" fill="#fff"/><circle cx="646.8" cy="762.52" r="13.57" fill="#fff"/><circle cx="878.42" cy="727.23" r="13.57" fill="#fff"/><circle cx="774.37" cy="710.95" r="13.57" fill="#fff"/><circle cx="990.61" cy="529.09" r="13.57" fill="#fff"/><circle cx="625.99" cy="828.57" r="13.57" fill="#fff"/><circle cx="543.65" cy="583.37" r="13.57" fill="#efbe18"/><circle cx="678.94" cy="987" r="24.5" fill="#fff"/><circle cx="711.89" cy="1209.36" r="13.49" fill="#fff" opacity=".57"/><circle cx="793.95" cy="1266.69" r="13.49" fill="#fff" opacity=".57"/><circle cx="764.94" cy="882" r="21.5" fill="#fff" opacity=".47"/><circle cx="657.95" cy="843.69" r="13.49" fill="#fff" opacity=".57"/><ellipse cx="741.22" cy="1845.74" rx="478.95" ry="274.69" fill="url(#n)"/><path d="M1147.91 1746.14l.86-144.81-86.94-.65c-78.16-59.36-202.3-97.74-342.11-97.74-135.82 0-256.84 36.22-335.3 92.71l-92-.69-.91 151.49V1752.92h.1c4.39 133.29 194.38 240.57 428.14 240.57s423.75-107.28 428.13-240.57v-1.11c0-1.2.08-2.39.08-3.6 0-.71-.04-1.37-.05-2.07z" fill="#434775"/><ellipse cx="720.67" cy="1594.97" rx="428.24" ry="245.28" fill="url(#o)"/><ellipse cx="720.67" cy="1526.35" rx="387.36" ry="221.87" fill="#121212"/><path d="M2697.47 2151c0 135.47-187.44 253-423.95 253-195.89 0-432.53-57.3-432.53-253 0-135.46 191.73-245.28 428.24-245.28s428.24 109.77 428.24 245.28z" transform="translate(-1548.56 -641.5)" fill="url(#c)"/><ellipse cx="720.67" cy="1440.84" rx="387.36" ry="221.87" fill="url(#p)"/><path d="M1973.77 905v1202.27c0 75.06 132 135.91 294.92 135.91s294.91-60.85 294.91-135.91V905z" transform="translate(-1548.56 -641.5)" fill="url(#q)"/><g opacity=".49"><path d="M2025.16 1025v1158.15c20.68 14.72 48.4 27.49 81.23 37.49V1025z" transform="translate(-1548.56 -641.5)" fill="url(#d)"/><path d="M2261.61 1024v1219.14h6.76a685.12 685.12 0 0077.24-4.3V1024z" transform="translate(-1548.56 -641.5)" fill="url(#r)"/><path d="M2428.72 1018l.28 1203c81-22.07 134.28-64.09 134.28-107.65V1018z" transform="translate(-1548.56 -641.5)" fill="url(#s)"/></g><path d="M974.11 1751.04s23.23-6.56 67.06-37.18" fill="none" stroke="#628fec" stroke-linecap="round" stroke-miterlimit="10" stroke-width="16.017"/><circle cx="942.46" cy="1764.36" r="8.71" fill="#628fec"/><circle cx="915.08" cy="1773.06" r="8.71" fill="#f3d75e"/><circle cx="887.97" cy="1781.77" r="8.71" fill="#e06fab"/><path d="M2401.65 2432.64l.12.3a17 17 0 01-10.94 22.16c-15.61 4.75-40.65 10-69.29 7.26a16.89 16.89 0 01-15-18.86 16.94 16.94 0 0116.88-14.94c14.18 0 36.48-1 58.4-6.44a16.9 16.9 0 0119.83 10.52z" transform="translate(-1548.56 -641.5)" fill="url(#t)" opacity=".42"/><path d="M2320.36 2445.39s27 4.6 68-6.31" transform="translate(-1548.56 -641.5)" fill="none" stroke-linecap="round" stroke-miterlimit="10" stroke-width="4.004" stroke="url(#u)"/><path d="M2097.92 2432s12.46-19.28 32.46-8.54c15.88 8.54 14.16 28.17 36.94 33.86 23.77 5.94 34.69-19.65 56-18.89s31.34 24.72 31.34 24.72" transform="translate(-1548.56 -641.5)" fill="none" stroke-linecap="round" stroke-miterlimit="10" stroke-width="4.004" stroke="url(#v)"/><circle cx="704.79" cy="1819.03" r="6.67" fill="#e06fab"/><path d="M424.94 1475a60.12 60.12 0 003.41 10.11 96.43 96.43 0 004.75 9.55 122.87 122.87 0 0012.15 17.51 164.05 164.05 0 0031.38 28.68 229.74 229.74 0 0036.9 21.22c3.21 1.53 6.48 2.91 9.74 4.33s6.57 2.7 9.9 3.93 6.68 2.44 10 3.64 6.74 2.28 10.14 3.29c27.17 8.41 55.2 13.86 83.42 17.44a766.84 766.84 0 0085.16 5.55l10.67.09h5.3l5.31-.24c7.1-.37 14.2-.89 21.28-1.52q21.27-1.87 42.39-5a583.18 583.18 0 0083.31-18.24 350.16 350.16 0 0040-14.72 222.23 222.23 0 0037.23-20.61c11.65-8.09 22.37-17.7 30.82-29.15a90.55 90.55 0 0016.72-38.83 87.25 87.25 0 01-5.7 20.58 94.21 94.21 0 01-10.45 18.67c-8.34 11.64-19 21.48-30.63 29.8a223 223 0 01-37.29 21.08 352.05 352.05 0 01-40.09 15.14c-13.63 4.29-27.48 7.89-41.43 10.94s-28 5.61-42.13 7.75-28.3 3.84-42.52 5.14c-7.11.65-14.23 1.2-21.37 1.59l-5.36.25H732.56l-10.71-.06a770.07 770.07 0 01-85.43-5.82 580.607 580.607 0 01-42.26-7c-7-1.44-13.95-3.09-20.87-4.86s-13.79-3.76-20.59-6c-3.42-1-6.78-2.26-10.17-3.39s-6.73-2.42-10-3.75-6.63-2.67-9.93-4-6.55-2.88-9.77-4.44a230.24 230.24 0 01-36.94-21.68 165.29 165.29 0 01-31.17-29.3 122.88 122.88 0 01-12-17.76 98.07 98.07 0 01-4.59-9.66 59.7 59.7 0 01-3.19-10.25z" fill="#fff"/><circle cx="605.94" cy="1425" r="6" fill="#fff" opacity=".33"/><circle cx="647.44" cy="1369.5" r="13" fill="#fff" opacity=".33"/><circle cx="678.44" cy="1488" r="6" fill="#fff" opacity=".33"/><circle cx="636.94" cy="1432.5" r="13" fill="#fff" opacity=".33"/><circle cx="872.44" cy="1322" r="6" fill="#fff"/><circle cx="830.94" cy="1266.5" r="13" fill="#fff" opacity=".49"/><circle cx="607.94" cy="1155" r="6" fill="#fff" opacity=".49"/><circle cx="649.44" cy="1099.5" r="13" fill="#fff" opacity=".49"/><circle cx="680.44" cy="1218" r="6" fill="#fff" opacity=".49"/><circle cx="638.94" cy="1162.5" r="13" fill="#fff" opacity=".49"/><circle cx="874.44" cy="1052" r="6" fill="#fff" opacity=".49"/><circle cx="832.94" cy="996.5" r="13" fill="#fff" opacity=".49"/></svg>